<?xml version="1.0" encoding="utf-8" standalone="no"?>
<!DOCTYPE svg PUBLIC "-//W3C//DTD SVG 1.1//EN"
  "http://www.w3.org/Graphics/SVG/1.1/DTD/svg11.dtd">
<svg xmlns:xlink="http://www.w3.org/1999/xlink" width="515.85984pt" height="275.729029pt" viewBox="0 0 515.85984 275.729029" xmlns="http://www.w3.org/2000/svg" version="1.1">
 <metadata>
  <rdf:RDF xmlns:dc="http://purl.org/dc/elements/1.1/" xmlns:cc="http://creativecommons.org/ns#" xmlns:rdf="http://www.w3.org/1999/02/22-rdf-syntax-ns#">
   <cc:Work>
    <dc:type rdf:resource="http://purl.org/dc/dcmitype/StillImage"/>
    <dc:date>2025-04-09T13:39:34.943486</dc:date>
    <dc:format>image/svg+xml</dc:format>
    <dc:creator>
     <cc:Agent>
      <dc:title>Matplotlib v3.9.2, https://matplotlib.org/</dc:title>
     </cc:Agent>
    </dc:creator>
   </cc:Work>
  </rdf:RDF>
 </metadata>
 <defs>
  <style type="text/css">*{stroke-linejoin: round; stroke-linecap: butt}</style>
 </defs>
 <g id="figure_1">
  <g id="patch_1">
   <path d="M 0 275.729029 
L 515.85984 275.729029 
L 515.85984 0 
L 0 0 
z
" style="fill: #ffffff"/>
  </g>
  <g id="axes_1">
   <g id="patch_2">
    <path d="M 37.54375 220.350132 
L 253.576795 220.350132 
L 253.576795 19.95 
L 37.54375 19.95 
z
" style="fill: #ffffff"/>
   </g>
   <g id="patch_3">
    <path d="M 51.045815 220.350132 
L 78.049946 220.350132 
L 78.049946 168.734533 
L 51.045815 168.734533 
z
" clip-path="url(#p7eef1fc3e0)" style="fill: #f94144; opacity: 0.8"/>
   </g>
   <g id="patch_4">
    <path d="M 105.054077 220.350132 
L 132.058207 220.350132 
L 132.058207 220.350132 
L 105.054077 220.350132 
z
" clip-path="url(#p7eef1fc3e0)" style="fill: #f94144; opacity: 0.8"/>
   </g>
   <g id="patch_5">
    <path d="M 159.062338 220.350132 
L 186.066468 220.350132 
L 186.066468 123.520468 
L 159.062338 123.520468 
z
" clip-path="url(#p7eef1fc3e0)" style="fill: #f94144; opacity: 0.8"/>
   </g>
   <g id="patch_6">
    <path d="M 213.070599 220.350132 
L 240.07473 220.350132 
L 240.07473 220.350132 
L 213.070599 220.350132 
z
" clip-path="url(#p7eef1fc3e0)" style="fill: #f94144; opacity: 0.8"/>
   </g>
   <g id="patch_7">
    <path d="M 51.045815 220.350132 
L 78.049946 220.350132 
L 78.049946 220.350132 
L 51.045815 220.350132 
z
" clip-path="url(#p7eef1fc3e0)" style="fill: #f3722c; opacity: 0.8"/>
   </g>
   <g id="patch_8">
    <path d="M 105.054077 220.350132 
L 132.058207 220.350132 
L 132.058207 210.977811 
L 105.054077 210.977811 
z
" clip-path="url(#p7eef1fc3e0)" style="fill: #f3722c; opacity: 0.8"/>
   </g>
   <g id="patch_9">
    <path d="M 159.062338 220.350132 
L 186.066468 220.350132 
L 186.066468 220.350132 
L 159.062338 220.350132 
z
" clip-path="url(#p7eef1fc3e0)" style="fill: #f3722c; opacity: 0.8"/>
   </g>
   <g id="patch_10">
    <path d="M 213.070599 220.350132 
L 240.07473 220.350132 
L 240.07473 188.83078 
L 213.070599 188.83078 
z
" clip-path="url(#p7eef1fc3e0)" style="fill: #f3722c; opacity: 0.8"/>
   </g>
   <g id="patch_11">
    <path d="M 51.045815 220.350132 
L 78.049946 220.350132 
L 78.049946 220.350132 
L 51.045815 220.350132 
z
" clip-path="url(#p7eef1fc3e0)" style="fill: #f8961e; opacity: 0.8"/>
   </g>
   <g id="patch_12">
    <path d="M 105.054077 210.977811 
L 132.058207 210.977811 
L 132.058207 75.829263 
L 105.054077 75.829263 
z
" clip-path="url(#p7eef1fc3e0)" style="fill: #f8961e; opacity: 0.8"/>
   </g>
   <g id="patch_13">
    <path d="M 159.062338 220.350132 
L 186.066468 220.350132 
L 186.066468 220.350132 
L 159.062338 220.350132 
z
" clip-path="url(#p7eef1fc3e0)" style="fill: #f8961e; opacity: 0.8"/>
   </g>
   <g id="patch_14">
    <path d="M 213.070599 188.83078 
L 240.07473 188.83078 
L 240.07473 53.682232 
L 213.070599 53.682232 
z
" clip-path="url(#p7eef1fc3e0)" style="fill: #f8961e; opacity: 0.8"/>
   </g>
   <g id="patch_15">
    <path d="M 51.045815 168.734533 
L 78.049946 168.734533 
L 78.049946 168.296756 
L 51.045815 168.296756 
z
" clip-path="url(#p7eef1fc3e0)" style="fill: #f9c74f; opacity: 0.8"/>
   </g>
   <g id="patch_16">
    <path d="M 105.054077 75.829263 
L 132.058207 75.829263 
L 132.058207 75.191431 
L 105.054077 75.191431 
z
" clip-path="url(#p7eef1fc3e0)" style="fill: #f9c74f; opacity: 0.8"/>
   </g>
   <g id="patch_17">
    <path d="M 159.062338 123.520468 
L 186.066468 123.520468 
L 186.066468 123.082691 
L 159.062338 123.082691 
z
" clip-path="url(#p7eef1fc3e0)" style="fill: #f9c74f; opacity: 0.8"/>
   </g>
   <g id="patch_18">
    <path d="M 213.070599 53.682232 
L 240.07473 53.682232 
L 240.07473 53.0444 
L 213.070599 53.0444 
z
" clip-path="url(#p7eef1fc3e0)" style="fill: #f9c74f; opacity: 0.8"/>
   </g>
   <g id="patch_19">
    <path d="M 51.045815 220.350132 
L 78.049946 220.350132 
L 78.049946 220.350132 
L 51.045815 220.350132 
z
" clip-path="url(#p7eef1fc3e0)" style="fill: #90be6d; opacity: 0.8"/>
   </g>
   <g id="patch_20">
    <path d="M 105.054077 75.191431 
L 132.058207 75.191431 
L 132.058207 74.111403 
L 105.054077 74.111403 
z
" clip-path="url(#p7eef1fc3e0)" style="fill: #90be6d; opacity: 0.8"/>
   </g>
   <g id="patch_21">
    <path d="M 159.062338 220.350132 
L 186.066468 220.350132 
L 186.066468 220.350132 
L 159.062338 220.350132 
z
" clip-path="url(#p7eef1fc3e0)" style="fill: #90be6d; opacity: 0.8"/>
   </g>
   <g id="patch_22">
    <path d="M 213.070599 53.0444 
L 240.07473 53.0444 
L 240.07473 51.964372 
L 213.070599 51.964372 
z
" clip-path="url(#p7eef1fc3e0)" style="fill: #90be6d; opacity: 0.8"/>
   </g>
   <g id="patch_23">
    <path d="M 51.045815 168.296756 
L 78.049946 168.296756 
L 78.049946 160.524287 
L 51.045815 160.524287 
z
" clip-path="url(#p7eef1fc3e0)" style="fill: #43aa8b; opacity: 0.8"/>
   </g>
   <g id="patch_24">
    <path d="M 105.054077 74.111403 
L 132.058207 74.111403 
L 132.058207 74.001239 
L 105.054077 74.001239 
z
" clip-path="url(#p7eef1fc3e0)" style="fill: #43aa8b; opacity: 0.8"/>
   </g>
   <g id="patch_25">
    <path d="M 159.062338 123.082691 
L 186.066468 123.082691 
L 186.066468 115.310222 
L 159.062338 115.310222 
z
" clip-path="url(#p7eef1fc3e0)" style="fill: #43aa8b; opacity: 0.8"/>
   </g>
   <g id="patch_26">
    <path d="M 213.070599 51.964372 
L 240.07473 51.964372 
L 240.07473 51.854208 
L 213.070599 51.854208 
z
" clip-path="url(#p7eef1fc3e0)" style="fill: #43aa8b; opacity: 0.8"/>
   </g>
   <g id="patch_27">
    <path d="M 51.045815 160.524287 
L 78.049946 160.524287 
L 78.049946 157.724091 
L 51.045815 157.724091 
z
" clip-path="url(#p7eef1fc3e0)" style="fill: #4d908e; opacity: 0.8"/>
   </g>
   <g id="patch_28">
    <path d="M 105.054077 74.001239 
L 132.058207 74.001239 
L 132.058207 71.189639 
L 105.054077 71.189639 
z
" clip-path="url(#p7eef1fc3e0)" style="fill: #4d908e; opacity: 0.8"/>
   </g>
   <g id="patch_29">
    <path d="M 159.062338 115.310222 
L 186.066468 115.310222 
L 186.066468 112.510026 
L 159.062338 112.510026 
z
" clip-path="url(#p7eef1fc3e0)" style="fill: #4d908e; opacity: 0.8"/>
   </g>
   <g id="patch_30">
    <path d="M 213.070599 51.854208 
L 240.07473 51.854208 
L 240.07473 49.042608 
L 213.070599 49.042608 
z
" clip-path="url(#p7eef1fc3e0)" style="fill: #4d908e; opacity: 0.8"/>
   </g>
   <g id="patch_31">
    <path d="M 51.045815 220.350132 
L 78.049946 220.350132 
L 78.049946 220.350132 
L 51.045815 220.350132 
z
" clip-path="url(#p7eef1fc3e0)" style="fill: #277da1; opacity: 0.8"/>
   </g>
   <g id="patch_32">
    <path d="M 105.054077 220.350132 
L 132.058207 220.350132 
L 132.058207 220.350132 
L 105.054077 220.350132 
z
" clip-path="url(#p7eef1fc3e0)" style="fill: #277da1; opacity: 0.8"/>
   </g>
   <g id="patch_33">
    <path d="M 159.062338 220.350132 
L 186.066468 220.350132 
L 186.066468 220.350132 
L 159.062338 220.350132 
z
" clip-path="url(#p7eef1fc3e0)" style="fill: #277da1; opacity: 0.8"/>
   </g>
   <g id="patch_34">
    <path d="M 213.070599 220.350132 
L 240.07473 220.350132 
L 240.07473 220.350132 
L 213.070599 220.350132 
z
" clip-path="url(#p7eef1fc3e0)" style="fill: #277da1; opacity: 0.8"/>
   </g>
   <g id="PathCollection_1">
    <defs>
     <path id="m28c2e882f4" d="M 0 2.236068 
C 0.593012 2.236068 1.161816 2.000462 1.581139 1.581139 
C 2.000462 1.161816 2.236068 0.593012 2.236068 0 
C 2.236068 -0.593012 2.000462 -1.161816 1.581139 -1.581139 
C 1.161816 -2.000462 0.593012 -2.236068 0 -2.236068 
C -0.593012 -2.236068 -1.161816 -2.000462 -1.581139 -1.581139 
C -2.000462 -1.161816 -2.236068 -0.593012 -2.236068 0 
C -2.236068 0.593012 -2.000462 1.161816 -1.581139 1.581139 
C -1.161816 2.000462 -0.593012 2.236068 0 2.236068 
z
" style="stroke: #000000"/>
    </defs>
    <g clip-path="url(#p7eef1fc3e0)">
     <use xlink:href="#m28c2e882f4" x="64.547881" y="157.724091" style="fill: #ffffff; stroke: #000000"/>
     <use xlink:href="#m28c2e882f4" x="118.556142" y="71.189639" style="fill: #ffffff; stroke: #000000"/>
     <use xlink:href="#m28c2e882f4" x="172.564403" y="112.510026" style="fill: #ffffff; stroke: #000000"/>
     <use xlink:href="#m28c2e882f4" x="226.572664" y="49.042608" style="fill: #ffffff; stroke: #000000"/>
    </g>
   </g>
   <g id="PathCollection_2">
    <defs>
     <path id="m127b11c191" d="M 0 3.162278 
L 3.162278 0 
L 0 -3.162278 
L -3.162278 0 
z
" style="stroke: #ffffff"/>
    </defs>
    <g clip-path="url(#p7eef1fc3e0)">
     <use xlink:href="#m127b11c191" x="64.547881" y="163.218189" style="fill: #8763c9; stroke: #ffffff"/>
     <use xlink:href="#m127b11c191" x="118.556142" y="72.187253" style="fill: #8763c9; stroke: #ffffff"/>
     <use xlink:href="#m127b11c191" x="172.564403" y="143.73562" style="fill: #8763c9; stroke: #ffffff"/>
     <use xlink:href="#m127b11c191" x="226.572664" y="62.79743" style="fill: #8763c9; stroke: #ffffff"/>
    </g>
   </g>
   <g id="matplotlib.axis_1">
    <g id="xtick_1">
     <g id="line2d_1">
      <defs>
       <path id="mc1a16fbf69" d="M 0 0 
L 0 3.5 
" style="stroke: #000000; stroke-width: 0.8"/>
      </defs>
      <g>
       <use xlink:href="#mc1a16fbf69" x="64.547881" y="220.350132" style="stroke: #000000; stroke-width: 0.8"/>
      </g>
     </g>
     <g id="text_1">
      <!-- N$_\mathdefault{2}$O -->
      <g transform="translate(57.187881 233.350132) scale(0.08 -0.08)">
       <defs>
        <path id="Roboto-Regular-4e" d="M 4025 0 
L 3422 0 
L 1131 3506 
L 1131 0 
L 528 0 
L 528 4550 
L 1131 4550 
L 3428 1028 
L 3428 4550 
L 4025 4550 
L 4025 0 
z
" transform="scale(0.015625)"/>
        <path id="Roboto-Regular-32" d="M 3359 0 
L 378 0 
L 378 416 
L 1953 2166 
Q 2303 2563 2436 2811 
Q 2569 3059 2569 3325 
Q 2569 3681 2353 3909 
Q 2138 4138 1778 4138 
Q 1347 4138 1108 3892 
Q 869 3647 869 3209 
L 291 3209 
Q 291 3838 695 4225 
Q 1100 4613 1778 4613 
Q 2413 4613 2781 4280 
Q 3150 3947 3150 3394 
Q 3150 2722 2294 1794 
L 1075 472 
L 3359 472 
L 3359 0 
z
" transform="scale(0.015625)"/>
        <path id="Roboto-Regular-4f" d="M 4028 2128 
Q 4028 1459 3803 961 
Q 3578 463 3165 200 
Q 2753 -63 2203 -63 
Q 1666 -63 1250 201 
Q 834 466 604 955 
Q 375 1444 369 2088 
L 369 2416 
Q 369 3072 597 3575 
Q 825 4078 1242 4345 
Q 1659 4613 2197 4613 
Q 2744 4613 3161 4348 
Q 3578 4084 3803 3582 
Q 4028 3081 4028 2416 
L 4028 2128 
z
M 3431 2422 
Q 3431 3231 3106 3664 
Q 2781 4097 2197 4097 
Q 1628 4097 1301 3664 
Q 975 3231 966 2463 
L 966 2128 
Q 966 1344 1295 895 
Q 1625 447 2203 447 
Q 2784 447 3103 870 
Q 3422 1294 3431 2084 
L 3431 2422 
z
" transform="scale(0.015625)"/>
       </defs>
       <use xlink:href="#Roboto-Regular-4e" transform="translate(0 0.921875)"/>
       <use xlink:href="#Roboto-Regular-32" transform="translate(72.246094 -15.484375) scale(0.7)"/>
       <use xlink:href="#Roboto-Regular-4f" transform="translate(114.287109 0.921875)"/>
      </g>
     </g>
    </g>
    <g id="xtick_2">
     <g id="line2d_2">
      <g>
       <use xlink:href="#mc1a16fbf69" x="118.556142" y="220.350132" style="stroke: #000000; stroke-width: 0.8"/>
      </g>
     </g>
     <g id="text_2">
      <!-- H$_\mathdefault{2}$O$_\mathdefault{2}$ -->
      <g transform="translate(109.476142 233.350132) scale(0.08 -0.08)">
       <defs>
        <path id="Roboto-Regular-48" d="M 4025 0 
L 3422 0 
L 3422 2103 
L 1128 2103 
L 1128 0 
L 528 0 
L 528 4550 
L 1128 4550 
L 1128 2594 
L 3422 2594 
L 3422 4550 
L 4025 4550 
L 4025 0 
z
" transform="scale(0.015625)"/>
       </defs>
       <use xlink:href="#Roboto-Regular-48" transform="translate(0 0.921875)"/>
       <use xlink:href="#Roboto-Regular-32" transform="translate(72.246094 -15.484375) scale(0.7)"/>
       <use xlink:href="#Roboto-Regular-4f" transform="translate(114.287109 0.921875)"/>
       <use xlink:href="#Roboto-Regular-32" transform="translate(183.994141 -15.484375) scale(0.7)"/>
      </g>
     </g>
    </g>
    <g id="xtick_3">
     <g id="line2d_3">
      <g>
       <use xlink:href="#mc1a16fbf69" x="172.564403" y="220.350132" style="stroke: #000000; stroke-width: 0.8"/>
      </g>
     </g>
     <g id="text_3">
      <!-- N$_\mathdefault{2}$O -->
      <g transform="translate(165.204403 233.350132) scale(0.08 -0.08)">
       <use xlink:href="#Roboto-Regular-4e" transform="translate(0 0.921875)"/>
       <use xlink:href="#Roboto-Regular-32" transform="translate(72.246094 -15.484375) scale(0.7)"/>
       <use xlink:href="#Roboto-Regular-4f" transform="translate(114.287109 0.921875)"/>
      </g>
     </g>
    </g>
    <g id="xtick_4">
     <g id="line2d_4">
      <g>
       <use xlink:href="#mc1a16fbf69" x="226.572664" y="220.350132" style="stroke: #000000; stroke-width: 0.8"/>
      </g>
     </g>
     <g id="text_4">
      <!-- H$_\mathdefault{2}$O$_\mathdefault{2}$ -->
      <g transform="translate(217.492664 233.350132) scale(0.08 -0.08)">
       <use xlink:href="#Roboto-Regular-48" transform="translate(0 0.921875)"/>
       <use xlink:href="#Roboto-Regular-32" transform="translate(72.246094 -15.484375) scale(0.7)"/>
       <use xlink:href="#Roboto-Regular-4f" transform="translate(114.287109 0.921875)"/>
       <use xlink:href="#Roboto-Regular-32" transform="translate(183.994141 -15.484375) scale(0.7)"/>
      </g>
     </g>
    </g>
   </g>
   <g id="matplotlib.axis_2">
    <g id="ytick_1">
     <g id="line2d_5">
      <defs>
       <path id="m36d7f7b683" d="M 0 0 
L -3.5 0 
" style="stroke: #000000; stroke-width: 0.8"/>
      </defs>
      <g>
       <use xlink:href="#m36d7f7b683" x="37.54375" y="220.350132" style="stroke: #000000; stroke-width: 0.8"/>
      </g>
     </g>
     <g id="text_5">
      <!-- 0.0 -->
      <g transform="translate(19.45375 223.350132) scale(0.08 -0.08)">
       <defs>
        <path id="Roboto-Regular-30" d="M 3231 1941 
Q 3231 925 2884 431 
Q 2538 -63 1800 -63 
Q 1072 -63 722 420 
Q 372 903 359 1863 
L 359 2634 
Q 359 3638 706 4125 
Q 1053 4613 1794 4613 
Q 2528 4613 2875 4142 
Q 3222 3672 3231 2691 
L 3231 1941 
z
M 2653 2731 
Q 2653 3466 2447 3802 
Q 2241 4138 1794 4138 
Q 1350 4138 1147 3803 
Q 944 3469 938 2775 
L 938 1850 
Q 938 1113 1152 761 
Q 1366 409 1800 409 
Q 2228 409 2436 740 
Q 2644 1072 2653 1784 
L 2653 2731 
z
" transform="scale(0.015625)"/>
        <path id="Roboto-Regular-2e" d="M 450 303 
Q 450 453 539 553 
Q 628 653 806 653 
Q 984 653 1076 553 
Q 1169 453 1169 303 
Q 1169 159 1076 62 
Q 984 -34 806 -34 
Q 628 -34 539 62 
Q 450 159 450 303 
z
" transform="scale(0.015625)"/>
       </defs>
       <use xlink:href="#Roboto-Regular-30"/>
       <use xlink:href="#Roboto-Regular-2e" x="56.152344"/>
       <use xlink:href="#Roboto-Regular-30" x="82.470703"/>
      </g>
     </g>
    </g>
    <g id="ytick_2">
     <g id="line2d_6">
      <g>
       <use xlink:href="#m36d7f7b683" x="37.54375" y="158.688553" style="stroke: #000000; stroke-width: 0.8"/>
      </g>
     </g>
     <g id="text_6">
      <!-- 0.8 -->
      <g transform="translate(19.45375 161.688553) scale(0.08 -0.08)">
       <defs>
        <path id="Roboto-Regular-38" d="M 3138 3363 
Q 3138 3022 2958 2756 
Q 2778 2491 2472 2341 
Q 2828 2188 3036 1894 
Q 3244 1600 3244 1228 
Q 3244 638 2845 287 
Q 2447 -63 1797 -63 
Q 1141 -63 745 289 
Q 350 641 350 1228 
Q 350 1597 551 1894 
Q 753 2191 1109 2344 
Q 806 2494 631 2759 
Q 456 3025 456 3363 
Q 456 3938 825 4275 
Q 1194 4613 1797 4613 
Q 2397 4613 2767 4275 
Q 3138 3938 3138 3363 
z
M 2666 1241 
Q 2666 1622 2423 1862 
Q 2181 2103 1790 2103 
Q 1400 2103 1164 1865 
Q 928 1628 928 1240 
Q 928 853 1158 631 
Q 1388 409 1797 409 
Q 2203 409 2434 632 
Q 2666 856 2666 1241 
z
M 1797 4138 
Q 1456 4138 1245 3927 
Q 1034 3716 1034 3353 
Q 1034 3006 1242 2792 
Q 1450 2578 1797 2578 
Q 2144 2578 2351 2792 
Q 2559 3006 2559 3353 
Q 2559 3700 2343 3919 
Q 2128 4138 1797 4138 
z
" transform="scale(0.015625)"/>
       </defs>
       <use xlink:href="#Roboto-Regular-30"/>
       <use xlink:href="#Roboto-Regular-2e" x="56.152344"/>
       <use xlink:href="#Roboto-Regular-38" x="82.470703"/>
      </g>
     </g>
    </g>
    <g id="ytick_3">
     <g id="line2d_7">
      <g>
       <use xlink:href="#m36d7f7b683" x="37.54375" y="97.026974" style="stroke: #000000; stroke-width: 0.8"/>
      </g>
     </g>
     <g id="text_7">
      <!-- 1.6 -->
      <g transform="translate(19.45375 100.026974) scale(0.08 -0.08)">
       <defs>
        <path id="Roboto-Regular-31" d="M 2278 0 
L 1697 0 
L 1697 3853 
L 531 3425 
L 531 3950 
L 2188 4572 
L 2278 4572 
L 2278 0 
z
" transform="scale(0.015625)"/>
        <path id="Roboto-Regular-36" d="M 2647 4553 
L 2647 4063 
L 2541 4063 
Q 1866 4050 1466 3662 
Q 1066 3275 1003 2572 
Q 1363 2984 1984 2984 
Q 2578 2984 2933 2565 
Q 3288 2147 3288 1484 
Q 3288 781 2905 359 
Q 2522 -63 1878 -63 
Q 1225 -63 819 439 
Q 413 941 413 1731 
L 413 1953 
Q 413 3209 948 3873 
Q 1484 4538 2544 4553 
L 2647 4553 
z
M 1888 2503 
Q 1591 2503 1341 2325 
Q 1091 2147 994 1878 
L 994 1666 
Q 994 1103 1247 759 
Q 1500 416 1878 416 
Q 2269 416 2492 703 
Q 2716 991 2716 1456 
Q 2716 1925 2489 2214 
Q 2263 2503 1888 2503 
z
" transform="scale(0.015625)"/>
       </defs>
       <use xlink:href="#Roboto-Regular-31"/>
       <use xlink:href="#Roboto-Regular-2e" x="56.152344"/>
       <use xlink:href="#Roboto-Regular-36" x="82.470703"/>
      </g>
     </g>
    </g>
    <g id="ytick_4">
     <g id="line2d_8">
      <g>
       <use xlink:href="#m36d7f7b683" x="37.54375" y="35.365395" style="stroke: #000000; stroke-width: 0.8"/>
      </g>
     </g>
     <g id="text_8">
      <!-- 2.4 -->
      <g transform="translate(19.45375 38.365395) scale(0.08 -0.08)">
       <defs>
        <path id="Roboto-Regular-34" d="M 2819 1528 
L 3450 1528 
L 3450 1056 
L 2819 1056 
L 2819 0 
L 2238 0 
L 2238 1056 
L 166 1056 
L 166 1397 
L 2203 4550 
L 2819 4550 
L 2819 1528 
z
M 822 1528 
L 2238 1528 
L 2238 3759 
L 2169 3634 
L 822 1528 
z
" transform="scale(0.015625)"/>
       </defs>
       <use xlink:href="#Roboto-Regular-32"/>
       <use xlink:href="#Roboto-Regular-2e" x="56.152344"/>
       <use xlink:href="#Roboto-Regular-34" x="82.470703"/>
      </g>
     </g>
    </g>
    <g id="text_9">
     <!-- Production costs (USD per kg) -->
     <g transform="translate(13.6175 173.733191) rotate(-90) scale(0.08 -0.08)">
      <defs>
       <path id="Roboto-Regular-50" d="M 1128 1781 
L 1128 0 
L 528 0 
L 528 4550 
L 2206 4550 
Q 2953 4550 3376 4169 
Q 3800 3788 3800 3159 
Q 3800 2497 3386 2139 
Q 2972 1781 2200 1781 
L 1128 1781 
z
M 1128 2272 
L 2206 2272 
Q 2688 2272 2944 2498 
Q 3200 2725 3200 3153 
Q 3200 3559 2944 3803 
Q 2688 4047 2241 4056 
L 1128 4056 
L 1128 2272 
z
" transform="scale(0.015625)"/>
       <path id="Roboto-Regular-72" d="M 2072 2863 
Q 1941 2884 1788 2884 
Q 1219 2884 1016 2400 
L 1016 0 
L 438 0 
L 438 3381 
L 1000 3381 
L 1009 2991 
Q 1294 3444 1816 3444 
Q 1984 3444 2072 3400 
L 2072 2863 
z
" transform="scale(0.015625)"/>
       <path id="Roboto-Regular-6f" d="M 284 1722 
Q 284 2219 479 2616 
Q 675 3013 1023 3228 
Q 1372 3444 1819 3444 
Q 2509 3444 2936 2966 
Q 3363 2488 3363 1694 
L 3363 1653 
Q 3363 1159 3173 767 
Q 2984 375 2632 156 
Q 2281 -63 1825 -63 
Q 1138 -63 711 415 
Q 284 894 284 1681 
L 284 1722 
z
M 866 1653 
Q 866 1091 1127 750 
Q 1388 409 1825 409 
Q 2266 409 2525 754 
Q 2784 1100 2784 1722 
Q 2784 2278 2520 2623 
Q 2256 2969 1819 2969 
Q 1391 2969 1128 2628 
Q 866 2288 866 1653 
z
" transform="scale(0.015625)"/>
       <path id="Roboto-Regular-64" d="M 297 1719 
Q 297 2497 665 2970 
Q 1034 3444 1631 3444 
Q 2225 3444 2572 3038 
L 2572 4800 
L 3150 4800 
L 3150 0 
L 2619 0 
L 2591 363 
Q 2244 -63 1625 -63 
Q 1038 -63 667 418 
Q 297 900 297 1675 
L 297 1719 
z
M 875 1653 
Q 875 1078 1112 753 
Q 1350 428 1769 428 
Q 2319 428 2572 922 
L 2572 2475 
Q 2313 2953 1775 2953 
Q 1350 2953 1112 2625 
Q 875 2297 875 1653 
z
" transform="scale(0.015625)"/>
       <path id="Roboto-Regular-75" d="M 2525 334 
Q 2188 -63 1534 -63 
Q 994 -63 711 251 
Q 428 566 425 1181 
L 425 3381 
L 1003 3381 
L 1003 1197 
Q 1003 428 1628 428 
Q 2291 428 2509 922 
L 2509 3381 
L 3088 3381 
L 3088 0 
L 2538 0 
L 2525 334 
z
" transform="scale(0.015625)"/>
       <path id="Roboto-Regular-63" d="M 1794 409 
Q 2103 409 2334 596 
Q 2566 784 2591 1066 
L 3138 1066 
Q 3122 775 2937 512 
Q 2753 250 2445 93 
Q 2138 -63 1794 -63 
Q 1103 -63 695 398 
Q 288 859 288 1659 
L 288 1756 
Q 288 2250 469 2634 
Q 650 3019 989 3231 
Q 1328 3444 1791 3444 
Q 2359 3444 2736 3103 
Q 3113 2763 3138 2219 
L 2591 2219 
Q 2566 2547 2342 2758 
Q 2119 2969 1791 2969 
Q 1350 2969 1108 2651 
Q 866 2334 866 1734 
L 866 1625 
Q 866 1041 1106 725 
Q 1347 409 1794 409 
z
" transform="scale(0.015625)"/>
       <path id="Roboto-Regular-74" d="M 1222 4200 
L 1222 3381 
L 1853 3381 
L 1853 2934 
L 1222 2934 
L 1222 838 
Q 1222 634 1306 532 
Q 1391 431 1594 431 
Q 1694 431 1869 469 
L 1869 0 
Q 1641 -63 1425 -63 
Q 1038 -63 841 171 
Q 644 406 644 838 
L 644 2934 
L 28 2934 
L 28 3381 
L 644 3381 
L 644 4200 
L 1222 4200 
z
" transform="scale(0.015625)"/>
       <path id="Roboto-Regular-69" d="M 1066 0 
L 488 0 
L 488 3381 
L 1066 3381 
L 1066 0 
z
M 441 4278 
Q 441 4419 527 4516 
Q 613 4613 781 4613 
Q 950 4613 1037 4516 
Q 1125 4419 1125 4278 
Q 1125 4138 1037 4044 
Q 950 3950 781 3950 
Q 613 3950 527 4044 
Q 441 4138 441 4278 
z
" transform="scale(0.015625)"/>
       <path id="Roboto-Regular-6e" d="M 984 3381 
L 1003 2956 
Q 1391 3444 2016 3444 
Q 3088 3444 3097 2234 
L 3097 0 
L 2519 0 
L 2519 2238 
Q 2516 2603 2352 2778 
Q 2188 2953 1841 2953 
Q 1559 2953 1346 2803 
Q 1134 2653 1016 2409 
L 1016 0 
L 438 0 
L 438 3381 
L 984 3381 
z
" transform="scale(0.015625)"/>
       <path id="Roboto-Regular-20" transform="scale(0.015625)"/>
       <path id="Roboto-Regular-73" d="M 2406 897 
Q 2406 1131 2229 1261 
Q 2053 1391 1614 1484 
Q 1175 1578 917 1709 
Q 659 1841 536 2022 
Q 413 2203 413 2453 
Q 413 2869 764 3156 
Q 1116 3444 1663 3444 
Q 2238 3444 2595 3147 
Q 2953 2850 2953 2388 
L 2372 2388 
Q 2372 2625 2170 2797 
Q 1969 2969 1663 2969 
Q 1347 2969 1169 2831 
Q 991 2694 991 2472 
Q 991 2263 1156 2156 
Q 1322 2050 1755 1953 
Q 2188 1856 2456 1722 
Q 2725 1588 2854 1398 
Q 2984 1209 2984 938 
Q 2984 484 2621 210 
Q 2259 -63 1681 -63 
Q 1275 -63 962 81 
Q 650 225 473 483 
Q 297 741 297 1041 
L 875 1041 
Q 891 750 1108 579 
Q 1325 409 1681 409 
Q 2009 409 2207 542 
Q 2406 675 2406 897 
z
" transform="scale(0.015625)"/>
       <path id="Roboto-Regular-28" d="M 416 1847 
Q 416 2553 605 3203 
Q 794 3853 1169 4384 
Q 1544 4916 1947 5134 
L 2066 4753 
Q 1609 4403 1317 3684 
Q 1025 2966 997 2075 
L 994 1809 
Q 994 603 1434 -284 
Q 1700 -816 2066 -1116 
L 1947 -1469 
Q 1531 -1238 1153 -694 
Q 416 369 416 1847 
z
" transform="scale(0.015625)"/>
       <path id="Roboto-Regular-55" d="M 3731 4550 
L 3731 1456 
Q 3728 813 3326 403 
Q 2925 -6 2238 -56 
L 2078 -63 
Q 1331 -63 887 340 
Q 444 744 438 1450 
L 438 4550 
L 1031 4550 
L 1031 1469 
Q 1031 975 1303 701 
Q 1575 428 2078 428 
Q 2588 428 2858 700 
Q 3128 972 3128 1466 
L 3128 4550 
L 3731 4550 
z
" transform="scale(0.015625)"/>
       <path id="Roboto-Regular-53" d="M 1869 2028 
Q 1097 2250 745 2573 
Q 394 2897 394 3372 
Q 394 3909 823 4261 
Q 1253 4613 1941 4613 
Q 2409 4613 2776 4431 
Q 3144 4250 3345 3931 
Q 3547 3613 3547 3234 
L 2944 3234 
Q 2944 3647 2681 3883 
Q 2419 4119 1941 4119 
Q 1497 4119 1248 3923 
Q 1000 3728 1000 3381 
Q 1000 3103 1236 2911 
Q 1472 2719 2039 2559 
Q 2606 2400 2926 2208 
Q 3247 2016 3401 1759 
Q 3556 1503 3556 1156 
Q 3556 603 3125 270 
Q 2694 -63 1972 -63 
Q 1503 -63 1097 117 
Q 691 297 470 609 
Q 250 922 250 1319 
L 853 1319 
Q 853 906 1158 667 
Q 1463 428 1972 428 
Q 2447 428 2700 622 
Q 2953 816 2953 1150 
Q 2953 1484 2718 1667 
Q 2484 1850 1869 2028 
z
" transform="scale(0.015625)"/>
       <path id="Roboto-Regular-44" d="M 528 0 
L 528 4550 
L 1813 4550 
Q 2406 4550 2862 4287 
Q 3319 4025 3567 3540 
Q 3816 3056 3819 2428 
L 3819 2138 
Q 3819 1494 3570 1009 
Q 3322 525 2861 265 
Q 2400 6 1788 0 
L 528 0 
z
M 1128 4056 
L 1128 491 
L 1759 491 
Q 2453 491 2839 922 
Q 3225 1353 3225 2150 
L 3225 2416 
Q 3225 3191 2861 3620 
Q 2497 4050 1828 4056 
L 1128 4056 
z
" transform="scale(0.015625)"/>
       <path id="Roboto-Regular-70" d="M 3294 1653 
Q 3294 881 2941 409 
Q 2588 -63 1984 -63 
Q 1369 -63 1016 328 
L 1016 -1300 
L 438 -1300 
L 438 3381 
L 966 3381 
L 994 3006 
Q 1347 3444 1975 3444 
Q 2584 3444 2939 2984 
Q 3294 2525 3294 1706 
L 3294 1653 
z
M 2716 1719 
Q 2716 2291 2472 2622 
Q 2228 2953 1803 2953 
Q 1278 2953 1016 2488 
L 1016 872 
Q 1275 409 1809 409 
Q 2225 409 2470 739 
Q 2716 1069 2716 1719 
z
" transform="scale(0.015625)"/>
       <path id="Roboto-Regular-65" d="M 1841 -63 
Q 1153 -63 722 389 
Q 291 841 291 1597 
L 291 1703 
Q 291 2206 483 2601 
Q 675 2997 1020 3220 
Q 1366 3444 1769 3444 
Q 2428 3444 2793 3009 
Q 3159 2575 3159 1766 
L 3159 1525 
L 869 1525 
Q 881 1025 1161 717 
Q 1441 409 1872 409 
Q 2178 409 2390 534 
Q 2603 659 2763 866 
L 3116 591 
Q 2691 -63 1841 -63 
z
M 1769 2969 
Q 1419 2969 1181 2714 
Q 944 2459 888 2000 
L 2581 2000 
L 2581 2044 
Q 2556 2484 2343 2726 
Q 2131 2969 1769 2969 
z
" transform="scale(0.015625)"/>
       <path id="Roboto-Regular-6b" d="M 1381 1566 
L 1019 1188 
L 1019 0 
L 441 0 
L 441 4800 
L 1019 4800 
L 1019 1897 
L 1328 2269 
L 2381 3381 
L 3084 3381 
L 1769 1969 
L 3238 0 
L 2559 0 
L 1381 1566 
z
" transform="scale(0.015625)"/>
       <path id="Roboto-Regular-67" d="M 300 1719 
Q 300 2509 665 2976 
Q 1031 3444 1634 3444 
Q 2253 3444 2600 3006 
L 2628 3381 
L 3156 3381 
L 3156 81 
Q 3156 -575 2767 -953 
Q 2378 -1331 1722 -1331 
Q 1356 -1331 1006 -1175 
Q 656 -1019 472 -747 
L 772 -400 
Q 1144 -859 1681 -859 
Q 2103 -859 2339 -621 
Q 2575 -384 2575 47 
L 2575 338 
Q 2228 -63 1628 -63 
Q 1034 -63 667 415 
Q 300 894 300 1719 
z
M 881 1653 
Q 881 1081 1115 754 
Q 1350 428 1772 428 
Q 2319 428 2575 925 
L 2575 2469 
Q 2309 2953 1778 2953 
Q 1356 2953 1118 2625 
Q 881 2297 881 1653 
z
" transform="scale(0.015625)"/>
       <path id="Roboto-Regular-29" d="M 1772 1816 
Q 1772 1119 1589 480 
Q 1406 -159 1029 -700 
Q 653 -1241 241 -1469 
L 119 -1116 
Q 600 -747 892 29 
Q 1184 806 1191 1753 
L 1191 1853 
Q 1191 2509 1053 3073 
Q 916 3638 670 4084 
Q 425 4531 119 4781 
L 241 5134 
Q 653 4906 1026 4372 
Q 1400 3838 1586 3194 
Q 1772 2550 1772 1816 
z
" transform="scale(0.015625)"/>
      </defs>
      <use xlink:href="#Roboto-Regular-50"/>
      <use xlink:href="#Roboto-Regular-72" x="63.085938"/>
      <use xlink:href="#Roboto-Regular-6f" x="96.923828"/>
      <use xlink:href="#Roboto-Regular-64" x="153.955078"/>
      <use xlink:href="#Roboto-Regular-75" x="210.351562"/>
      <use xlink:href="#Roboto-Regular-63" x="265.478516"/>
      <use xlink:href="#Roboto-Regular-74" x="317.822266"/>
      <use xlink:href="#Roboto-Regular-69" x="350.488281"/>
      <use xlink:href="#Roboto-Regular-6f" x="374.755859"/>
      <use xlink:href="#Roboto-Regular-6e" x="431.787109"/>
      <use xlink:href="#Roboto-Regular-20" x="486.962891"/>
      <use xlink:href="#Roboto-Regular-63" x="511.71875"/>
      <use xlink:href="#Roboto-Regular-6f" x="564.0625"/>
      <use xlink:href="#Roboto-Regular-73" x="621.09375"/>
      <use xlink:href="#Roboto-Regular-74" x="672.65625"/>
      <use xlink:href="#Roboto-Regular-73" x="705.322266"/>
      <use xlink:href="#Roboto-Regular-20" x="756.884766"/>
      <use xlink:href="#Roboto-Regular-28" x="781.640625"/>
      <use xlink:href="#Roboto-Regular-55" x="815.820312"/>
      <use xlink:href="#Roboto-Regular-53" x="880.664062"/>
      <use xlink:href="#Roboto-Regular-44" x="939.990234"/>
      <use xlink:href="#Roboto-Regular-20" x="1005.566406"/>
      <use xlink:href="#Roboto-Regular-70" x="1030.322266"/>
      <use xlink:href="#Roboto-Regular-65" x="1086.425781"/>
      <use xlink:href="#Roboto-Regular-72" x="1139.404297"/>
      <use xlink:href="#Roboto-Regular-20" x="1173.242188"/>
      <use xlink:href="#Roboto-Regular-6b" x="1197.998047"/>
      <use xlink:href="#Roboto-Regular-67" x="1248.681641"/>
      <use xlink:href="#Roboto-Regular-29" x="1304.785156"/>
     </g>
    </g>
   </g>
   <g id="line2d_9">
    <path d="M 37.54375 220.350132 
L 253.576795 220.350132 
" clip-path="url(#p7eef1fc3e0)" style="fill: none; stroke: #808080; stroke-width: 0.5; stroke-linecap: square"/>
   </g>
   <g id="line2d_10">
    <path d="M 145.560272 220.350132 
L 145.560272 19.95 
" clip-path="url(#p7eef1fc3e0)" style="fill: none; stroke-dasharray: 1.85,0.8; stroke-dashoffset: 0; stroke: #808080; stroke-width: 0.5"/>
   </g>
   <g id="patch_35">
    <path d="M 37.54375 220.350132 
L 37.54375 19.95 
" style="fill: none; stroke: #000000; stroke-width: 0.8; stroke-linejoin: miter; stroke-linecap: square"/>
   </g>
   <g id="patch_36">
    <path d="M 253.576795 220.350132 
L 253.576795 19.95 
" style="fill: none; stroke: #000000; stroke-width: 0.8; stroke-linejoin: miter; stroke-linecap: square"/>
   </g>
   <g id="patch_37">
    <path d="M 37.54375 220.350132 
L 253.576795 220.350132 
" style="fill: none; stroke: #000000; stroke-width: 0.8; stroke-linejoin: miter; stroke-linecap: square"/>
   </g>
   <g id="patch_38">
    <path d="M 37.54375 19.95 
L 253.576795 19.95 
" style="fill: none; stroke: #000000; stroke-width: 0.8; stroke-linejoin: miter; stroke-linecap: square"/>
   </g>
   <g id="text_10">
    <!-- Fossil -->
    <g style="fill: #808080" transform="translate(79.527871 27.657697) scale(0.09 -0.09)">
     <defs>
      <path id="Roboto-Bold-46" d="M 3144 1859 
L 1344 1859 
L 1344 0 
L 406 0 
L 406 4550 
L 3369 4550 
L 3369 3791 
L 1344 3791 
L 1344 2616 
L 3144 2616 
L 3144 1859 
z
" transform="scale(0.015625)"/>
      <path id="Roboto-Bold-6f" d="M 206 1722 
Q 206 2225 400 2619 
Q 594 3013 958 3228 
Q 1322 3444 1803 3444 
Q 2488 3444 2920 3025 
Q 3353 2606 3403 1888 
L 3409 1656 
Q 3409 878 2975 407 
Q 2541 -63 1809 -63 
Q 1078 -63 642 406 
Q 206 875 206 1681 
L 206 1722 
z
M 1109 1656 
Q 1109 1175 1290 920 
Q 1472 666 1809 666 
Q 2138 666 2322 917 
Q 2506 1169 2506 1722 
Q 2506 2194 2322 2453 
Q 2138 2713 1803 2713 
Q 1472 2713 1290 2455 
Q 1109 2197 1109 1656 
z
" transform="scale(0.015625)"/>
      <path id="Roboto-Bold-73" d="M 2178 934 
Q 2178 1100 2014 1195 
Q 1850 1291 1488 1366 
Q 281 1619 281 2391 
Q 281 2841 654 3142 
Q 1028 3444 1631 3444 
Q 2275 3444 2661 3141 
Q 3047 2838 3047 2353 
L 2144 2353 
Q 2144 2547 2019 2673 
Q 1894 2800 1628 2800 
Q 1400 2800 1275 2697 
Q 1150 2594 1150 2434 
Q 1150 2284 1292 2192 
Q 1434 2100 1771 2033 
Q 2109 1966 2341 1881 
Q 3056 1619 3056 972 
Q 3056 509 2659 223 
Q 2263 -63 1634 -63 
Q 1209 -63 879 89 
Q 550 241 362 505 
Q 175 769 175 1075 
L 1031 1075 
Q 1044 834 1209 706 
Q 1375 578 1653 578 
Q 1913 578 2045 676 
Q 2178 775 2178 934 
z
" transform="scale(0.015625)"/>
      <path id="Roboto-Bold-69" d="M 1300 0 
L 394 0 
L 394 3381 
L 1300 3381 
L 1300 0 
z
M 341 4256 
Q 341 4459 477 4590 
Q 613 4722 847 4722 
Q 1078 4722 1215 4590 
Q 1353 4459 1353 4256 
Q 1353 4050 1214 3919 
Q 1075 3788 847 3788 
Q 619 3788 480 3919 
Q 341 4050 341 4256 
z
" transform="scale(0.015625)"/>
      <path id="Roboto-Bold-6c" d="M 1300 0 
L 394 0 
L 394 4800 
L 1300 4800 
L 1300 0 
z
" transform="scale(0.015625)"/>
     </defs>
     <use xlink:href="#Roboto-Bold-46"/>
     <use xlink:href="#Roboto-Bold-6f" x="54.785156"/>
     <use xlink:href="#Roboto-Bold-73" x="111.328125"/>
     <use xlink:href="#Roboto-Bold-73" x="162.744141"/>
     <use xlink:href="#Roboto-Bold-69" x="214.160156"/>
     <use xlink:href="#Roboto-Bold-6c" x="240.673828"/>
    </g>
   </g>
   <g id="text_11">
    <!-- Green -->
    <g style="fill: #808080" transform="translate(187.478299 27.657697) scale(0.09 -0.09)">
     <defs>
      <path id="Roboto-Bold-47" d="M 4006 575 
Q 3753 272 3290 104 
Q 2828 -63 2266 -63 
Q 1675 -63 1229 195 
Q 784 453 542 943 
Q 300 1434 294 2097 
L 294 2406 
Q 294 3088 523 3586 
Q 753 4084 1186 4348 
Q 1619 4613 2200 4613 
Q 3009 4613 3465 4227 
Q 3922 3841 4006 3103 
L 3094 3103 
Q 3031 3494 2817 3675 
Q 2603 3856 2228 3856 
Q 1750 3856 1500 3497 
Q 1250 3138 1247 2428 
L 1247 2138 
Q 1247 1422 1519 1056 
Q 1791 691 2316 691 
Q 2844 691 3069 916 
L 3069 1700 
L 2216 1700 
L 2216 2391 
L 4006 2391 
L 4006 575 
z
" transform="scale(0.015625)"/>
      <path id="Roboto-Bold-72" d="M 2247 2534 
Q 2063 2559 1922 2559 
Q 1409 2559 1250 2213 
L 1250 0 
L 347 0 
L 347 3381 
L 1200 3381 
L 1225 2978 
Q 1497 3444 1978 3444 
Q 2128 3444 2259 3403 
L 2247 2534 
z
" transform="scale(0.015625)"/>
      <path id="Roboto-Bold-65" d="M 1903 -63 
Q 1159 -63 692 393 
Q 225 850 225 1609 
L 225 1697 
Q 225 2206 422 2607 
Q 619 3009 980 3226 
Q 1341 3444 1803 3444 
Q 2497 3444 2895 3006 
Q 3294 2569 3294 1766 
L 3294 1397 
L 1141 1397 
Q 1184 1066 1404 866 
Q 1625 666 1963 666 
Q 2484 666 2778 1044 
L 3222 547 
Q 3019 259 2672 98 
Q 2325 -63 1903 -63 
z
M 1800 2713 
Q 1531 2713 1364 2531 
Q 1197 2350 1150 2013 
L 2406 2013 
L 2406 2084 
Q 2400 2384 2244 2548 
Q 2088 2713 1800 2713 
z
" transform="scale(0.015625)"/>
      <path id="Roboto-Bold-6e" d="M 1178 3381 
L 1206 2991 
Q 1569 3444 2178 3444 
Q 2716 3444 2978 3128 
Q 3241 2813 3247 2184 
L 3247 0 
L 2344 0 
L 2344 2163 
Q 2344 2450 2219 2579 
Q 2094 2709 1803 2709 
Q 1422 2709 1231 2384 
L 1231 0 
L 328 0 
L 328 3381 
L 1178 3381 
z
" transform="scale(0.015625)"/>
     </defs>
     <use xlink:href="#Roboto-Bold-47"/>
     <use xlink:href="#Roboto-Bold-72" x="68.115234"/>
     <use xlink:href="#Roboto-Bold-65" x="104.589844"/>
     <use xlink:href="#Roboto-Bold-65" x="158.642578"/>
     <use xlink:href="#Roboto-Bold-6e" x="212.695312"/>
    </g>
   </g>
   <g id="text_12">
    <!-- a -->
    <g transform="translate(24.329676 13.95) scale(0.09 -0.09)">
     <defs>
      <path id="Roboto-Bold-61" d="M 2306 0 
Q 2244 122 2216 303 
Q 1888 -63 1363 -63 
Q 866 -63 539 225 
Q 213 513 213 950 
Q 213 1488 611 1775 
Q 1009 2063 1763 2066 
L 2178 2066 
L 2178 2259 
Q 2178 2494 2058 2634 
Q 1938 2775 1678 2775 
Q 1450 2775 1320 2665 
Q 1191 2556 1191 2366 
L 288 2366 
Q 288 2659 469 2909 
Q 650 3159 981 3301 
Q 1313 3444 1725 3444 
Q 2350 3444 2717 3130 
Q 3084 2816 3084 2247 
L 3084 781 
Q 3088 300 3219 53 
L 3219 0 
L 2306 0 
z
M 1559 628 
Q 1759 628 1928 717 
Q 2097 806 2178 956 
L 2178 1538 
L 1841 1538 
Q 1163 1538 1119 1069 
L 1116 1016 
Q 1116 847 1234 737 
Q 1353 628 1559 628 
z
" transform="scale(0.015625)"/>
     </defs>
     <use xlink:href="#Roboto-Bold-61"/>
    </g>
   </g>
   <g id="legend_1"/>
  </g>
  <g id="axes_2">
   <g id="patch_39">
    <path d="M 292.626795 220.350132 
L 508.65984 220.350132 
L 508.65984 19.95 
L 292.626795 19.95 
z
" style="fill: #ffffff"/>
   </g>
   <g id="line2d_11">
    <path d="M 292.626795 220.350132 
L 508.65984 220.350132 
" clip-path="url(#pf27f776b8c)" style="fill: none; stroke: #808080; stroke-width: 0.5; stroke-linecap: square"/>
   </g>
   <g id="patch_40">
    <path d="M 306.12886 220.350132 
L 333.132991 220.350132 
L 333.132991 93.340715 
L 306.12886 93.340715 
z
" clip-path="url(#pf27f776b8c)" style="fill: #f94144; opacity: 0.8"/>
   </g>
   <g id="patch_41">
    <path d="M 360.137122 220.350132 
L 387.141252 220.350132 
L 387.141252 220.350132 
L 360.137122 220.350132 
z
" clip-path="url(#pf27f776b8c)" style="fill: #f94144; opacity: 0.8"/>
   </g>
   <g id="patch_42">
    <path d="M 414.145383 220.350132 
L 441.149513 220.350132 
L 441.149513 189.967759 
L 414.145383 189.967759 
z
" clip-path="url(#pf27f776b8c)" style="fill: #f94144; opacity: 0.8"/>
   </g>
   <g id="patch_43">
    <path d="M 468.153644 220.350132 
L 495.157775 220.350132 
L 495.157775 220.350132 
L 468.153644 220.350132 
z
" clip-path="url(#pf27f776b8c)" style="fill: #f94144; opacity: 0.8"/>
   </g>
   <g id="patch_44">
    <path d="M 306.12886 220.350132 
L 333.132991 220.350132 
L 333.132991 220.350132 
L 306.12886 220.350132 
z
" clip-path="url(#pf27f776b8c)" style="fill: #f3722c; opacity: 0.8"/>
   </g>
   <g id="patch_45">
    <path d="M 360.137122 220.350132 
L 387.141252 220.350132 
L 387.141252 184.35423 
L 360.137122 184.35423 
z
" clip-path="url(#pf27f776b8c)" style="fill: #f3722c; opacity: 0.8"/>
   </g>
   <g id="patch_46">
    <path d="M 414.145383 220.350132 
L 441.149513 220.350132 
L 441.149513 220.350132 
L 414.145383 220.350132 
z
" clip-path="url(#pf27f776b8c)" style="fill: #f3722c; opacity: 0.8"/>
   </g>
   <g id="patch_47">
    <path d="M 468.153644 220.350132 
L 495.157775 220.350132 
L 495.157775 214.933829 
L 468.153644 214.933829 
z
" clip-path="url(#pf27f776b8c)" style="fill: #f3722c; opacity: 0.8"/>
   </g>
   <g id="patch_48">
    <path d="M 306.12886 220.350132 
L 333.132991 220.350132 
L 333.132991 220.350132 
L 306.12886 220.350132 
z
" clip-path="url(#pf27f776b8c)" style="fill: #f8961e; opacity: 0.8"/>
   </g>
   <g id="patch_49">
    <path d="M 360.137122 184.35423 
L 387.141252 184.35423 
L 387.141252 181.595252 
L 360.137122 181.595252 
z
" clip-path="url(#pf27f776b8c)" style="fill: #f8961e; opacity: 0.8"/>
   </g>
   <g id="patch_50">
    <path d="M 414.145383 220.350132 
L 441.149513 220.350132 
L 441.149513 220.350132 
L 414.145383 220.350132 
z
" clip-path="url(#pf27f776b8c)" style="fill: #f8961e; opacity: 0.8"/>
   </g>
   <g id="patch_51">
    <path d="M 468.153644 214.933829 
L 495.157775 214.933829 
L 495.157775 212.174851 
L 468.153644 212.174851 
z
" clip-path="url(#pf27f776b8c)" style="fill: #f8961e; opacity: 0.8"/>
   </g>
   <g id="patch_52">
    <path d="M 306.12886 93.340715 
L 333.132991 93.340715 
L 333.132991 91.619468 
L 306.12886 91.619468 
z
" clip-path="url(#pf27f776b8c)" style="fill: #f9c74f; opacity: 0.8"/>
   </g>
   <g id="patch_53">
    <path d="M 360.137122 181.595252 
L 387.141252 181.595252 
L 387.141252 179.279673 
L 360.137122 179.279673 
z
" clip-path="url(#pf27f776b8c)" style="fill: #f9c74f; opacity: 0.8"/>
   </g>
   <g id="patch_54">
    <path d="M 414.145383 189.967759 
L 441.149513 189.967759 
L 441.149513 188.246512 
L 414.145383 188.246512 
z
" clip-path="url(#pf27f776b8c)" style="fill: #f9c74f; opacity: 0.8"/>
   </g>
   <g id="patch_55">
    <path d="M 468.153644 212.174851 
L 495.157775 212.174851 
L 495.157775 209.859272 
L 468.153644 209.859272 
z
" clip-path="url(#pf27f776b8c)" style="fill: #f9c74f; opacity: 0.8"/>
   </g>
   <g id="patch_56">
    <path d="M 306.12886 220.350132 
L 333.132991 220.350132 
L 333.132991 220.350132 
L 306.12886 220.350132 
z
" clip-path="url(#pf27f776b8c)" style="fill: #90be6d; opacity: 0.8"/>
   </g>
   <g id="patch_57">
    <path d="M 360.137122 179.279673 
L 387.141252 179.279673 
L 387.141252 173.985978 
L 360.137122 173.985978 
z
" clip-path="url(#pf27f776b8c)" style="fill: #90be6d; opacity: 0.8"/>
   </g>
   <g id="patch_58">
    <path d="M 414.145383 220.350132 
L 441.149513 220.350132 
L 441.149513 220.350132 
L 414.145383 220.350132 
z
" clip-path="url(#pf27f776b8c)" style="fill: #90be6d; opacity: 0.8"/>
   </g>
   <g id="patch_59">
    <path d="M 468.153644 209.859272 
L 495.157775 209.859272 
L 495.157775 204.565576 
L 468.153644 204.565576 
z
" clip-path="url(#pf27f776b8c)" style="fill: #90be6d; opacity: 0.8"/>
   </g>
   <g id="patch_60">
    <path d="M 306.12886 91.619468 
L 333.132991 91.619468 
L 333.132991 50.108432 
L 306.12886 50.108432 
z
" clip-path="url(#pf27f776b8c)" style="fill: #43aa8b; opacity: 0.8"/>
   </g>
   <g id="patch_61">
    <path d="M 360.137122 173.985978 
L 387.141252 173.985978 
L 387.141252 173.936082 
L 360.137122 173.936082 
z
" clip-path="url(#pf27f776b8c)" style="fill: #43aa8b; opacity: 0.8"/>
   </g>
   <g id="patch_62">
    <path d="M 414.145383 188.246512 
L 441.149513 188.246512 
L 441.149513 146.735476 
L 414.145383 146.735476 
z
" clip-path="url(#pf27f776b8c)" style="fill: #43aa8b; opacity: 0.8"/>
   </g>
   <g id="patch_63">
    <path d="M 468.153644 204.565576 
L 495.157775 204.565576 
L 495.157775 204.515681 
L 468.153644 204.515681 
z
" clip-path="url(#pf27f776b8c)" style="fill: #43aa8b; opacity: 0.8"/>
   </g>
   <g id="patch_64">
    <path d="M 306.12886 220.350132 
L 333.132991 220.350132 
L 333.132991 220.350132 
L 306.12886 220.350132 
z
" clip-path="url(#pf27f776b8c)" style="fill: #4d908e; opacity: 0.8"/>
   </g>
   <g id="patch_65">
    <path d="M 360.137122 220.350132 
L 387.141252 220.350132 
L 387.141252 220.350132 
L 360.137122 220.350132 
z
" clip-path="url(#pf27f776b8c)" style="fill: #4d908e; opacity: 0.8"/>
   </g>
   <g id="patch_66">
    <path d="M 414.145383 220.350132 
L 441.149513 220.350132 
L 441.149513 220.350132 
L 414.145383 220.350132 
z
" clip-path="url(#pf27f776b8c)" style="fill: #4d908e; opacity: 0.8"/>
   </g>
   <g id="patch_67">
    <path d="M 468.153644 220.350132 
L 495.157775 220.350132 
L 495.157775 220.350132 
L 468.153644 220.350132 
z
" clip-path="url(#pf27f776b8c)" style="fill: #4d908e; opacity: 0.8"/>
   </g>
   <g id="patch_68">
    <path d="M 306.12886 50.108432 
L 333.132991 50.108432 
L 333.132991 49.948776 
L 306.12886 49.948776 
z
" clip-path="url(#pf27f776b8c)" style="fill: #277da1; opacity: 0.8"/>
   </g>
   <g id="patch_69">
    <path d="M 360.137122 173.936082 
L 387.141252 173.936082 
L 387.141252 170.801837 
L 360.137122 170.801837 
z
" clip-path="url(#pf27f776b8c)" style="fill: #277da1; opacity: 0.8"/>
   </g>
   <g id="patch_70">
    <path d="M 414.145383 146.735476 
L 441.149513 146.735476 
L 441.149513 146.57582 
L 414.145383 146.57582 
z
" clip-path="url(#pf27f776b8c)" style="fill: #277da1; opacity: 0.8"/>
   </g>
   <g id="patch_71">
    <path d="M 468.153644 204.515681 
L 495.157775 204.515681 
L 495.157775 201.381435 
L 468.153644 201.381435 
z
" clip-path="url(#pf27f776b8c)" style="fill: #277da1; opacity: 0.8"/>
   </g>
   <g id="PathCollection_3">
    <g clip-path="url(#pf27f776b8c)">
     <use xlink:href="#m28c2e882f4" x="319.630926" y="49.948776" style="fill: #ffffff; stroke: #000000"/>
     <use xlink:href="#m28c2e882f4" x="373.639187" y="170.801837" style="fill: #ffffff; stroke: #000000"/>
     <use xlink:href="#m28c2e882f4" x="427.647448" y="146.57582" style="fill: #ffffff; stroke: #000000"/>
     <use xlink:href="#m28c2e882f4" x="481.655709" y="201.381435" style="fill: #ffffff; stroke: #000000"/>
    </g>
   </g>
   <g id="PathCollection_4">
    <g clip-path="url(#pf27f776b8c)">
     <use xlink:href="#m127b11c191" x="319.630926" y="103.229853" style="fill: #8763c9; stroke: #ffffff"/>
     <use xlink:href="#m127b11c191" x="373.639187" y="176.739366" style="fill: #8763c9; stroke: #ffffff"/>
     <use xlink:href="#m127b11c191" x="427.647448" y="216.891382" style="fill: #8763c9; stroke: #ffffff"/>
     <use xlink:href="#m127b11c191" x="481.655709" y="207.028327" style="fill: #8763c9; stroke: #ffffff"/>
    </g>
   </g>
   <g id="matplotlib.axis_3">
    <g id="xtick_5">
     <g id="line2d_12">
      <g>
       <use xlink:href="#mc1a16fbf69" x="319.630926" y="220.350132" style="stroke: #000000; stroke-width: 0.8"/>
      </g>
     </g>
     <g id="text_13">
      <!-- N$_\mathdefault{2}$O -->
      <g transform="translate(312.270926 233.350132) scale(0.08 -0.08)">
       <use xlink:href="#Roboto-Regular-4e" transform="translate(0 0.921875)"/>
       <use xlink:href="#Roboto-Regular-32" transform="translate(72.246094 -15.484375) scale(0.7)"/>
       <use xlink:href="#Roboto-Regular-4f" transform="translate(114.287109 0.921875)"/>
      </g>
     </g>
    </g>
    <g id="xtick_6">
     <g id="line2d_13">
      <g>
       <use xlink:href="#mc1a16fbf69" x="373.639187" y="220.350132" style="stroke: #000000; stroke-width: 0.8"/>
      </g>
     </g>
     <g id="text_14">
      <!-- H$_\mathdefault{2}$O$_\mathdefault{2}$ -->
      <g transform="translate(364.559187 233.350132) scale(0.08 -0.08)">
       <use xlink:href="#Roboto-Regular-48" transform="translate(0 0.921875)"/>
       <use xlink:href="#Roboto-Regular-32" transform="translate(72.246094 -15.484375) scale(0.7)"/>
       <use xlink:href="#Roboto-Regular-4f" transform="translate(114.287109 0.921875)"/>
       <use xlink:href="#Roboto-Regular-32" transform="translate(183.994141 -15.484375) scale(0.7)"/>
      </g>
     </g>
    </g>
    <g id="xtick_7">
     <g id="line2d_14">
      <g>
       <use xlink:href="#mc1a16fbf69" x="427.647448" y="220.350132" style="stroke: #000000; stroke-width: 0.8"/>
      </g>
     </g>
     <g id="text_15">
      <!-- N$_\mathdefault{2}$O -->
      <g transform="translate(420.287448 233.350132) scale(0.08 -0.08)">
       <use xlink:href="#Roboto-Regular-4e" transform="translate(0 0.921875)"/>
       <use xlink:href="#Roboto-Regular-32" transform="translate(72.246094 -15.484375) scale(0.7)"/>
       <use xlink:href="#Roboto-Regular-4f" transform="translate(114.287109 0.921875)"/>
      </g>
     </g>
    </g>
    <g id="xtick_8">
     <g id="line2d_15">
      <g>
       <use xlink:href="#mc1a16fbf69" x="481.655709" y="220.350132" style="stroke: #000000; stroke-width: 0.8"/>
      </g>
     </g>
     <g id="text_16">
      <!-- H$_\mathdefault{2}$O$_\mathdefault{2}$ -->
      <g transform="translate(472.575709 233.350132) scale(0.08 -0.08)">
       <use xlink:href="#Roboto-Regular-48" transform="translate(0 0.921875)"/>
       <use xlink:href="#Roboto-Regular-32" transform="translate(72.246094 -15.484375) scale(0.7)"/>
       <use xlink:href="#Roboto-Regular-4f" transform="translate(114.287109 0.921875)"/>
       <use xlink:href="#Roboto-Regular-32" transform="translate(183.994141 -15.484375) scale(0.7)"/>
      </g>
     </g>
    </g>
   </g>
   <g id="matplotlib.axis_4">
    <g id="ytick_5">
     <g id="line2d_16">
      <g>
       <use xlink:href="#m36d7f7b683" x="292.626795" y="220.350132" style="stroke: #000000; stroke-width: 0.8"/>
      </g>
     </g>
     <g id="text_17">
      <!-- 0.0 -->
      <g transform="translate(274.536795 223.350132) scale(0.08 -0.08)">
       <use xlink:href="#Roboto-Regular-30"/>
       <use xlink:href="#Roboto-Regular-2e" x="56.152344"/>
       <use xlink:href="#Roboto-Regular-30" x="82.470703"/>
      </g>
     </g>
    </g>
    <g id="ytick_6">
     <g id="line2d_17">
      <g>
       <use xlink:href="#m36d7f7b683" x="292.626795" y="162.542402" style="stroke: #000000; stroke-width: 0.8"/>
      </g>
     </g>
     <g id="text_18">
      <!-- 1.5 -->
      <g transform="translate(274.536795 165.542402) scale(0.08 -0.08)">
       <defs>
        <path id="Roboto-Regular-35" d="M 644 2281 
L 875 4550 
L 3206 4550 
L 3206 4016 
L 1366 4016 
L 1228 2775 
Q 1563 2972 1988 2972 
Q 2609 2972 2975 2561 
Q 3341 2150 3341 1450 
Q 3341 747 2961 342 
Q 2581 -63 1900 -63 
Q 1297 -63 915 271 
Q 534 606 481 1197 
L 1028 1197 
Q 1081 806 1306 607 
Q 1531 409 1900 409 
Q 2303 409 2533 684 
Q 2763 959 2763 1444 
Q 2763 1900 2514 2176 
Q 2266 2453 1853 2453 
Q 1475 2453 1259 2288 
L 1106 2163 
L 644 2281 
z
" transform="scale(0.015625)"/>
       </defs>
       <use xlink:href="#Roboto-Regular-31"/>
       <use xlink:href="#Roboto-Regular-2e" x="56.152344"/>
       <use xlink:href="#Roboto-Regular-35" x="82.470703"/>
      </g>
     </g>
    </g>
    <g id="ytick_7">
     <g id="line2d_18">
      <g>
       <use xlink:href="#m36d7f7b683" x="292.626795" y="104.734671" style="stroke: #000000; stroke-width: 0.8"/>
      </g>
     </g>
     <g id="text_19">
      <!-- 3.0 -->
      <g transform="translate(274.536795 107.734671) scale(0.08 -0.08)">
       <defs>
        <path id="Roboto-Regular-33" d="M 1219 2556 
L 1653 2556 
Q 2063 2563 2297 2772 
Q 2531 2981 2531 3338 
Q 2531 4138 1734 4138 
Q 1359 4138 1136 3923 
Q 913 3709 913 3356 
L 334 3356 
Q 334 3897 729 4255 
Q 1125 4613 1734 4613 
Q 2378 4613 2743 4272 
Q 3109 3931 3109 3325 
Q 3109 3028 2917 2750 
Q 2725 2472 2394 2334 
Q 2769 2216 2973 1941 
Q 3178 1666 3178 1269 
Q 3178 656 2778 296 
Q 2378 -63 1737 -63 
Q 1097 -63 695 284 
Q 294 631 294 1200 
L 875 1200 
Q 875 841 1109 625 
Q 1344 409 1738 409 
Q 2156 409 2378 628 
Q 2600 847 2600 1256 
Q 2600 1653 2356 1865 
Q 2113 2078 1653 2084 
L 1219 2084 
L 1219 2556 
z
" transform="scale(0.015625)"/>
       </defs>
       <use xlink:href="#Roboto-Regular-33"/>
       <use xlink:href="#Roboto-Regular-2e" x="56.152344"/>
       <use xlink:href="#Roboto-Regular-30" x="82.470703"/>
      </g>
     </g>
    </g>
    <g id="ytick_8">
     <g id="line2d_19">
      <g>
       <use xlink:href="#m36d7f7b683" x="292.626795" y="46.926941" style="stroke: #000000; stroke-width: 0.8"/>
      </g>
     </g>
     <g id="text_20">
      <!-- 4.5 -->
      <g transform="translate(274.536795 49.926941) scale(0.08 -0.08)">
       <use xlink:href="#Roboto-Regular-34"/>
       <use xlink:href="#Roboto-Regular-2e" x="56.152344"/>
       <use xlink:href="#Roboto-Regular-35" x="82.470703"/>
      </g>
     </g>
    </g>
    <g id="text_21">
     <!-- Climate change impact (kgCO$_\mathdefault{2}$e per kg) -->
     <g transform="translate(268.696795 190.310066) rotate(-90) scale(0.08 -0.08)">
      <defs>
       <path id="Roboto-Regular-43" d="M 3875 1444 
Q 3791 722 3342 329 
Q 2894 -63 2150 -63 
Q 1344 -63 858 515 
Q 372 1094 372 2063 
L 372 2500 
Q 372 3134 598 3615 
Q 825 4097 1240 4355 
Q 1656 4613 2203 4613 
Q 2928 4613 3365 4208 
Q 3803 3803 3875 3088 
L 3272 3088 
Q 3194 3631 2933 3875 
Q 2672 4119 2203 4119 
Q 1628 4119 1301 3694 
Q 975 3269 975 2484 
L 975 2044 
Q 975 1303 1284 865 
Q 1594 428 2150 428 
Q 2650 428 2917 654 
Q 3184 881 3272 1444 
L 3875 1444 
z
" transform="scale(0.015625)"/>
       <path id="Roboto-Regular-6c" d="M 1066 0 
L 488 0 
L 488 4800 
L 1066 4800 
L 1066 0 
z
" transform="scale(0.015625)"/>
       <path id="Roboto-Regular-6d" d="M 981 3381 
L 997 3006 
Q 1369 3444 2000 3444 
Q 2709 3444 2966 2900 
Q 3134 3144 3404 3294 
Q 3675 3444 4044 3444 
Q 5156 3444 5175 2266 
L 5175 0 
L 4597 0 
L 4597 2231 
Q 4597 2594 4431 2773 
Q 4266 2953 3875 2953 
Q 3553 2953 3340 2761 
Q 3128 2569 3094 2244 
L 3094 0 
L 2513 0 
L 2513 2216 
Q 2513 2953 1791 2953 
Q 1222 2953 1013 2469 
L 1013 0 
L 434 0 
L 434 3381 
L 981 3381 
z
" transform="scale(0.015625)"/>
       <path id="Roboto-Regular-61" d="M 2525 0 
Q 2475 100 2444 356 
Q 2041 -63 1481 -63 
Q 981 -63 661 220 
Q 341 503 341 938 
Q 341 1466 742 1758 
Q 1144 2050 1872 2050 
L 2434 2050 
L 2434 2316 
Q 2434 2619 2253 2798 
Q 2072 2978 1719 2978 
Q 1409 2978 1200 2822 
Q 991 2666 991 2444 
L 409 2444 
Q 409 2697 589 2933 
Q 769 3169 1076 3306 
Q 1384 3444 1753 3444 
Q 2338 3444 2669 3151 
Q 3000 2859 3013 2347 
L 3013 791 
Q 3013 325 3131 50 
L 3131 0 
L 2525 0 
z
M 1566 441 
Q 1838 441 2081 581 
Q 2325 722 2434 947 
L 2434 1641 
L 1981 1641 
Q 919 1641 919 1019 
Q 919 747 1100 594 
Q 1281 441 1566 441 
z
" transform="scale(0.015625)"/>
       <path id="Roboto-Regular-68" d="M 1016 2972 
Q 1400 3444 2016 3444 
Q 3088 3444 3097 2234 
L 3097 0 
L 2519 0 
L 2519 2238 
Q 2516 2603 2352 2778 
Q 2188 2953 1841 2953 
Q 1559 2953 1346 2803 
Q 1134 2653 1016 2409 
L 1016 0 
L 438 0 
L 438 4800 
L 1016 4800 
L 1016 2972 
z
" transform="scale(0.015625)"/>
      </defs>
      <use xlink:href="#Roboto-Regular-43" transform="translate(0 0.78125)"/>
      <use xlink:href="#Roboto-Regular-6c" transform="translate(65.087891 0.78125)"/>
      <use xlink:href="#Roboto-Regular-69" transform="translate(89.355469 0.78125)"/>
      <use xlink:href="#Roboto-Regular-6d" transform="translate(113.623047 0.78125)"/>
      <use xlink:href="#Roboto-Regular-61" transform="translate(201.269531 0.78125)"/>
      <use xlink:href="#Roboto-Regular-74" transform="translate(255.664062 0.78125)"/>
      <use xlink:href="#Roboto-Regular-65" transform="translate(288.330078 0.78125)"/>
      <use xlink:href="#Roboto-Regular-20" transform="translate(341.308594 0.78125)"/>
      <use xlink:href="#Roboto-Regular-63" transform="translate(366.064453 0.78125)"/>
      <use xlink:href="#Roboto-Regular-68" transform="translate(418.408203 0.78125)"/>
      <use xlink:href="#Roboto-Regular-61" transform="translate(473.486328 0.78125)"/>
      <use xlink:href="#Roboto-Regular-6e" transform="translate(527.880859 0.78125)"/>
      <use xlink:href="#Roboto-Regular-67" transform="translate(583.056641 0.78125)"/>
      <use xlink:href="#Roboto-Regular-65" transform="translate(639.160156 0.78125)"/>
      <use xlink:href="#Roboto-Regular-20" transform="translate(692.138672 0.78125)"/>
      <use xlink:href="#Roboto-Regular-69" transform="translate(716.894531 0.78125)"/>
      <use xlink:href="#Roboto-Regular-6d" transform="translate(741.162109 0.78125)"/>
      <use xlink:href="#Roboto-Regular-70" transform="translate(828.808594 0.78125)"/>
      <use xlink:href="#Roboto-Regular-61" transform="translate(884.912109 0.78125)"/>
      <use xlink:href="#Roboto-Regular-63" transform="translate(939.306641 0.78125)"/>
      <use xlink:href="#Roboto-Regular-74" transform="translate(991.650391 0.78125)"/>
      <use xlink:href="#Roboto-Regular-20" transform="translate(1024.316406 0.78125)"/>
      <use xlink:href="#Roboto-Regular-28" transform="translate(1049.072266 0.78125)"/>
      <use xlink:href="#Roboto-Regular-6b" transform="translate(1083.251953 0.78125)"/>
      <use xlink:href="#Roboto-Regular-67" transform="translate(1133.935547 0.78125)"/>
      <use xlink:href="#Roboto-Regular-43" transform="translate(1190.039062 0.78125)"/>
      <use xlink:href="#Roboto-Regular-4f" transform="translate(1255.126953 0.78125)"/>
      <use xlink:href="#Roboto-Regular-32" transform="translate(1324.833984 -15.625) scale(0.7)"/>
      <use xlink:href="#Roboto-Regular-65" transform="translate(1366.875 0.78125)"/>
      <use xlink:href="#Roboto-Regular-20" transform="translate(1419.853516 0.78125)"/>
      <use xlink:href="#Roboto-Regular-70" transform="translate(1444.609375 0.78125)"/>
      <use xlink:href="#Roboto-Regular-65" transform="translate(1500.712891 0.78125)"/>
      <use xlink:href="#Roboto-Regular-72" transform="translate(1553.691406 0.78125)"/>
      <use xlink:href="#Roboto-Regular-20" transform="translate(1587.529297 0.78125)"/>
      <use xlink:href="#Roboto-Regular-6b" transform="translate(1612.285156 0.78125)"/>
      <use xlink:href="#Roboto-Regular-67" transform="translate(1662.96875 0.78125)"/>
      <use xlink:href="#Roboto-Regular-29" transform="translate(1719.072266 0.78125)"/>
     </g>
    </g>
   </g>
   <g id="line2d_20">
    <path d="M 400.643317 220.350132 
L 400.643317 19.95 
" clip-path="url(#pf27f776b8c)" style="fill: none; stroke-dasharray: 1.85,0.8; stroke-dashoffset: 0; stroke: #808080; stroke-width: 0.5"/>
   </g>
   <g id="patch_72">
    <path d="M 292.626795 220.350132 
L 292.626795 19.95 
" style="fill: none; stroke: #000000; stroke-width: 0.8; stroke-linejoin: miter; stroke-linecap: square"/>
   </g>
   <g id="patch_73">
    <path d="M 508.65984 220.350132 
L 508.65984 19.95 
" style="fill: none; stroke: #000000; stroke-width: 0.8; stroke-linejoin: miter; stroke-linecap: square"/>
   </g>
   <g id="patch_74">
    <path d="M 292.626795 220.350132 
L 508.65984 220.350132 
" style="fill: none; stroke: #000000; stroke-width: 0.8; stroke-linejoin: miter; stroke-linecap: square"/>
   </g>
   <g id="patch_75">
    <path d="M 292.626795 19.95 
L 508.65984 19.95 
" style="fill: none; stroke: #000000; stroke-width: 0.8; stroke-linejoin: miter; stroke-linecap: square"/>
   </g>
   <g id="text_22">
    <!-- Fossil -->
    <g style="fill: #808080" transform="translate(334.610916 35.365395) scale(0.09 -0.09)">
     <use xlink:href="#Roboto-Bold-46"/>
     <use xlink:href="#Roboto-Bold-6f" x="54.785156"/>
     <use xlink:href="#Roboto-Bold-73" x="111.328125"/>
     <use xlink:href="#Roboto-Bold-73" x="162.744141"/>
     <use xlink:href="#Roboto-Bold-69" x="214.160156"/>
     <use xlink:href="#Roboto-Bold-6c" x="240.673828"/>
    </g>
   </g>
   <g id="text_23">
    <!-- Green -->
    <g style="fill: #808080" transform="translate(442.561344 35.365395) scale(0.09 -0.09)">
     <use xlink:href="#Roboto-Bold-47"/>
     <use xlink:href="#Roboto-Bold-72" x="68.115234"/>
     <use xlink:href="#Roboto-Bold-65" x="104.589844"/>
     <use xlink:href="#Roboto-Bold-65" x="158.642578"/>
     <use xlink:href="#Roboto-Bold-6e" x="212.695312"/>
    </g>
   </g>
   <g id="text_24">
    <!-- b -->
    <g transform="translate(279.291783 13.95) scale(0.09 -0.09)">
     <defs>
      <path id="Roboto-Bold-62" d="M 3394 1659 
Q 3394 847 3047 392 
Q 2700 -63 2078 -63 
Q 1528 -63 1200 359 
L 1159 0 
L 347 0 
L 347 4800 
L 1250 4800 
L 1250 3078 
Q 1563 3444 2072 3444 
Q 2691 3444 3042 2989 
Q 3394 2534 3394 1709 
L 3394 1659 
z
M 2491 1725 
Q 2491 2238 2328 2473 
Q 2166 2709 1844 2709 
Q 1413 2709 1250 2356 
L 1250 1022 
Q 1416 666 1850 666 
Q 2288 666 2425 1097 
Q 2491 1303 2491 1725 
z
" transform="scale(0.015625)"/>
     </defs>
     <use xlink:href="#Roboto-Bold-62"/>
    </g>
   </g>
   <g id="legend_2"/>
  </g>
  <g id="legend_3">
   <g id="line2d_21">
    <path d="M 58.98117 249.114029 
L 66.98117 249.114029 
L 74.98117 249.114029 
" style="fill: none; stroke: #ffffff; stroke-opacity: 0.8; stroke-width: 1.5; stroke-linecap: square"/>
    <defs>
     <path id="m972247b84d" d="M 0 3.5 
C 0.928211 3.5 1.81853 3.131218 2.474874 2.474874 
C 3.131218 1.81853 3.5 0.928211 3.5 0 
C 3.5 -0.928211 3.131218 -1.81853 2.474874 -2.474874 
C 1.81853 -3.131218 0.928211 -3.5 0 -3.5 
C -0.928211 -3.5 -1.81853 -3.131218 -2.474874 -2.474874 
C -3.131218 -1.81853 -3.5 -0.928211 -3.5 0 
C -3.5 0.928211 -3.131218 1.81853 -2.474874 2.474874 
C -1.81853 3.131218 -0.928211 3.5 0 3.5 
z
" style="stroke: #ffffff; stroke-opacity: 0.8"/>
    </defs>
    <g>
     <use xlink:href="#m972247b84d" x="66.98117" y="249.114029" style="fill: #f94144; fill-opacity: 0.8; stroke: #ffffff; stroke-opacity: 0.8"/>
    </g>
   </g>
   <g id="text_25">
    <!-- Ammonia -->
    <g transform="translate(75.78117 251.914029) scale(0.08 -0.08)">
     <defs>
      <path id="Roboto-Regular-41" d="M 3041 1188 
L 1134 1188 
L 706 0 
L 88 0 
L 1825 4550 
L 2350 4550 
L 4091 0 
L 3475 0 
L 3041 1188 
z
M 1316 1681 
L 2863 1681 
L 2088 3809 
L 1316 1681 
z
" transform="scale(0.015625)"/>
     </defs>
     <use xlink:href="#Roboto-Regular-41"/>
     <use xlink:href="#Roboto-Regular-6d" x="65.234375"/>
     <use xlink:href="#Roboto-Regular-6d" x="152.880859"/>
     <use xlink:href="#Roboto-Regular-6f" x="240.527344"/>
     <use xlink:href="#Roboto-Regular-6e" x="297.558594"/>
     <use xlink:href="#Roboto-Regular-69" x="352.734375"/>
     <use xlink:href="#Roboto-Regular-61" x="377.001953"/>
    </g>
   </g>
   <g id="line2d_22">
    <path d="M 58.98117 260.739029 
L 66.98117 260.739029 
L 74.98117 260.739029 
" style="fill: none; stroke: #ffffff; stroke-opacity: 0.8; stroke-width: 1.5; stroke-linecap: square"/>
    <defs>
     <path id="md70857ce38" d="M 0 3.5 
C 0.928211 3.5 1.81853 3.131218 2.474874 2.474874 
C 3.131218 1.81853 3.5 0.928211 3.5 0 
C 3.5 -0.928211 3.131218 -1.81853 2.474874 -2.474874 
C 1.81853 -3.131218 0.928211 -3.5 0 -3.5 
C -0.928211 -3.5 -1.81853 -3.131218 -2.474874 -2.474874 
C -3.131218 -1.81853 -3.5 -0.928211 -3.5 0 
C -3.5 0.928211 -3.131218 1.81853 -2.474874 2.474874 
C -1.81853 3.131218 -0.928211 3.5 0 3.5 
z
" style="stroke: #ffffff; stroke-opacity: 0.8"/>
    </defs>
    <g>
     <use xlink:href="#md70857ce38" x="66.98117" y="260.739029" style="fill: #f3722c; fill-opacity: 0.8; stroke: #ffffff; stroke-opacity: 0.8"/>
    </g>
   </g>
   <g id="text_26">
    <!-- Hydrogen -->
    <g transform="translate(75.78117 263.539029) scale(0.08 -0.08)">
     <defs>
      <path id="Roboto-Regular-79" d="M 1544 847 
L 2331 3381 
L 2950 3381 
L 1591 -522 
Q 1275 -1366 588 -1366 
L 478 -1356 
L 263 -1316 
L 263 -847 
L 419 -859 
Q 713 -859 877 -740 
Q 1041 -622 1147 -306 
L 1275 38 
L 69 3381 
L 700 3381 
L 1544 847 
z
" transform="scale(0.015625)"/>
     </defs>
     <use xlink:href="#Roboto-Regular-48"/>
     <use xlink:href="#Roboto-Regular-79" x="71.289062"/>
     <use xlink:href="#Roboto-Regular-64" x="118.603516"/>
     <use xlink:href="#Roboto-Regular-72" x="175"/>
     <use xlink:href="#Roboto-Regular-6f" x="208.837891"/>
     <use xlink:href="#Roboto-Regular-67" x="265.869141"/>
     <use xlink:href="#Roboto-Regular-65" x="321.972656"/>
     <use xlink:href="#Roboto-Regular-6e" x="374.951172"/>
    </g>
   </g>
   <g id="line2d_23">
    <path d="M 126.29117 249.114029 
L 134.29117 249.114029 
L 142.29117 249.114029 
" style="fill: none; stroke: #ffffff; stroke-opacity: 0.8; stroke-width: 1.5; stroke-linecap: square"/>
    <defs>
     <path id="mce414ada7b" d="M 0 3.5 
C 0.928211 3.5 1.81853 3.131218 2.474874 2.474874 
C 3.131218 1.81853 3.5 0.928211 3.5 0 
C 3.5 -0.928211 3.131218 -1.81853 2.474874 -2.474874 
C 1.81853 -3.131218 0.928211 -3.5 0 -3.5 
C -0.928211 -3.5 -1.81853 -3.131218 -2.474874 -2.474874 
C -3.131218 -1.81853 -3.5 -0.928211 -3.5 0 
C -3.5 0.928211 -3.131218 1.81853 -2.474874 2.474874 
C -1.81853 3.131218 -0.928211 3.5 0 3.5 
z
" style="stroke: #ffffff; stroke-opacity: 0.8"/>
    </defs>
    <g>
     <use xlink:href="#mce414ada7b" x="134.29117" y="249.114029" style="fill: #f8961e; fill-opacity: 0.8; stroke: #ffffff; stroke-opacity: 0.8"/>
    </g>
   </g>
   <g id="text_27">
    <!-- 2-Ethylanthraquinone -->
    <g transform="translate(143.09117 251.914029) scale(0.08 -0.08)">
     <defs>
      <path id="Roboto-Regular-2d" d="M 1641 1697 
L 116 1697 
L 116 2169 
L 1641 2169 
L 1641 1697 
z
" transform="scale(0.015625)"/>
      <path id="Roboto-Regular-45" d="M 3100 2103 
L 1128 2103 
L 1128 491 
L 3419 491 
L 3419 0 
L 528 0 
L 528 4550 
L 3388 4550 
L 3388 4056 
L 1128 4056 
L 1128 2594 
L 3100 2594 
L 3100 2103 
z
" transform="scale(0.015625)"/>
      <path id="Roboto-Regular-71" d="M 297 1719 
Q 297 2516 662 2980 
Q 1028 3444 1644 3444 
Q 2244 3444 2591 3041 
L 2616 3381 
L 3147 3381 
L 3147 -1300 
L 2569 -1300 
L 2569 313 
Q 2219 -63 1638 -63 
Q 1025 -63 661 414 
Q 297 891 297 1678 
L 297 1719 
z
M 875 1653 
Q 875 1072 1120 740 
Q 1366 409 1781 409 
Q 2297 409 2569 866 
L 2569 2522 
Q 2294 2969 1788 2969 
Q 1369 2969 1122 2636 
Q 875 2303 875 1653 
z
" transform="scale(0.015625)"/>
     </defs>
     <use xlink:href="#Roboto-Regular-32"/>
     <use xlink:href="#Roboto-Regular-2d" x="56.152344"/>
     <use xlink:href="#Roboto-Regular-45" x="83.740234"/>
     <use xlink:href="#Roboto-Regular-74" x="140.576172"/>
     <use xlink:href="#Roboto-Regular-68" x="173.242188"/>
     <use xlink:href="#Roboto-Regular-79" x="228.320312"/>
     <use xlink:href="#Roboto-Regular-6c" x="275.634766"/>
     <use xlink:href="#Roboto-Regular-61" x="299.902344"/>
     <use xlink:href="#Roboto-Regular-6e" x="354.296875"/>
     <use xlink:href="#Roboto-Regular-74" x="409.472656"/>
     <use xlink:href="#Roboto-Regular-68" x="442.138672"/>
     <use xlink:href="#Roboto-Regular-72" x="497.216797"/>
     <use xlink:href="#Roboto-Regular-61" x="531.054688"/>
     <use xlink:href="#Roboto-Regular-71" x="585.449219"/>
     <use xlink:href="#Roboto-Regular-75" x="642.285156"/>
     <use xlink:href="#Roboto-Regular-69" x="697.412109"/>
     <use xlink:href="#Roboto-Regular-6e" x="721.679688"/>
     <use xlink:href="#Roboto-Regular-6f" x="776.855469"/>
     <use xlink:href="#Roboto-Regular-6e" x="833.886719"/>
     <use xlink:href="#Roboto-Regular-65" x="889.0625"/>
    </g>
   </g>
   <g id="line2d_24">
    <path d="M 126.29117 260.821529 
L 134.29117 260.821529 
L 142.29117 260.821529 
" style="fill: none; stroke: #ffffff; stroke-opacity: 0.8; stroke-width: 1.5; stroke-linecap: square"/>
    <defs>
     <path id="m300ceae181" d="M 0 3.5 
C 0.928211 3.5 1.81853 3.131218 2.474874 2.474874 
C 3.131218 1.81853 3.5 0.928211 3.5 0 
C 3.5 -0.928211 3.131218 -1.81853 2.474874 -2.474874 
C 1.81853 -3.131218 0.928211 -3.5 0 -3.5 
C -0.928211 -3.5 -1.81853 -3.131218 -2.474874 -2.474874 
C -3.131218 -1.81853 -3.5 -0.928211 -3.5 0 
C -3.5 0.928211 -3.131218 1.81853 -2.474874 2.474874 
C -1.81853 3.131218 -0.928211 3.5 0 3.5 
z
" style="stroke: #ffffff; stroke-opacity: 0.8"/>
    </defs>
    <g>
     <use xlink:href="#m300ceae181" x="134.29117" y="260.821529" style="fill: #f9c74f; fill-opacity: 0.8; stroke: #ffffff; stroke-opacity: 0.8"/>
    </g>
   </g>
   <g id="text_28">
    <!-- Electricity -->
    <g transform="translate(143.09117 263.621529) scale(0.08 -0.08)">
     <use xlink:href="#Roboto-Regular-45"/>
     <use xlink:href="#Roboto-Regular-6c" x="56.835938"/>
     <use xlink:href="#Roboto-Regular-65" x="81.103516"/>
     <use xlink:href="#Roboto-Regular-63" x="134.082031"/>
     <use xlink:href="#Roboto-Regular-74" x="186.425781"/>
     <use xlink:href="#Roboto-Regular-72" x="219.091797"/>
     <use xlink:href="#Roboto-Regular-69" x="252.929688"/>
     <use xlink:href="#Roboto-Regular-63" x="277.197266"/>
     <use xlink:href="#Roboto-Regular-69" x="329.541016"/>
     <use xlink:href="#Roboto-Regular-74" x="353.808594"/>
     <use xlink:href="#Roboto-Regular-79" x="386.474609"/>
    </g>
   </g>
   <g id="line2d_25">
    <path d="M 234.45617 249.114029 
L 242.45617 249.114029 
L 250.45617 249.114029 
" style="fill: none; stroke: #ffffff; stroke-opacity: 0.8; stroke-width: 1.5; stroke-linecap: square"/>
    <defs>
     <path id="meb71404dd1" d="M 0 3.5 
C 0.928211 3.5 1.81853 3.131218 2.474874 2.474874 
C 3.131218 1.81853 3.5 0.928211 3.5 0 
C 3.5 -0.928211 3.131218 -1.81853 2.474874 -2.474874 
C 1.81853 -3.131218 0.928211 -3.5 0 -3.5 
C -0.928211 -3.5 -1.81853 -3.131218 -2.474874 -2.474874 
C -3.131218 -1.81853 -3.5 -0.928211 -3.5 0 
C -3.5 0.928211 -3.131218 1.81853 -2.474874 2.474874 
C -1.81853 3.131218 -0.928211 3.5 0 3.5 
z
" style="stroke: #ffffff; stroke-opacity: 0.8"/>
    </defs>
    <g>
     <use xlink:href="#meb71404dd1" x="242.45617" y="249.114029" style="fill: #90be6d; fill-opacity: 0.8; stroke: #ffffff; stroke-opacity: 0.8"/>
    </g>
   </g>
   <g id="text_29">
    <!-- Heating -->
    <g transform="translate(251.25617 251.914029) scale(0.08 -0.08)">
     <use xlink:href="#Roboto-Regular-48"/>
     <use xlink:href="#Roboto-Regular-65" x="71.289062"/>
     <use xlink:href="#Roboto-Regular-61" x="124.267578"/>
     <use xlink:href="#Roboto-Regular-74" x="178.662109"/>
     <use xlink:href="#Roboto-Regular-69" x="211.328125"/>
     <use xlink:href="#Roboto-Regular-6e" x="235.595703"/>
     <use xlink:href="#Roboto-Regular-67" x="290.771484"/>
    </g>
   </g>
   <g id="line2d_26">
    <path d="M 234.45617 260.777779 
L 242.45617 260.777779 
L 250.45617 260.777779 
" style="fill: none; stroke: #ffffff; stroke-opacity: 0.8; stroke-width: 1.5; stroke-linecap: square"/>
    <defs>
     <path id="m72c9160686" d="M 0 3.5 
C 0.928211 3.5 1.81853 3.131218 2.474874 2.474874 
C 3.131218 1.81853 3.5 0.928211 3.5 0 
C 3.5 -0.928211 3.131218 -1.81853 2.474874 -2.474874 
C 1.81853 -3.131218 0.928211 -3.5 0 -3.5 
C -0.928211 -3.5 -1.81853 -3.131218 -2.474874 -2.474874 
C -3.131218 -1.81853 -3.5 -0.928211 -3.5 0 
C -3.5 0.928211 -3.131218 1.81853 -2.474874 2.474874 
C -1.81853 3.131218 -0.928211 3.5 0 3.5 
z
" style="stroke: #ffffff; stroke-opacity: 0.8"/>
    </defs>
    <g>
     <use xlink:href="#m72c9160686" x="242.45617" y="260.777779" style="fill: #43aa8b; fill-opacity: 0.8; stroke: #ffffff; stroke-opacity: 0.8"/>
    </g>
   </g>
   <g id="text_30">
    <!-- Cooling -->
    <g transform="translate(251.25617 263.577779) scale(0.08 -0.08)">
     <use xlink:href="#Roboto-Regular-43"/>
     <use xlink:href="#Roboto-Regular-6f" x="65.087891"/>
     <use xlink:href="#Roboto-Regular-6f" x="122.119141"/>
     <use xlink:href="#Roboto-Regular-6c" x="179.150391"/>
     <use xlink:href="#Roboto-Regular-69" x="203.417969"/>
     <use xlink:href="#Roboto-Regular-6e" x="227.685547"/>
     <use xlink:href="#Roboto-Regular-67" x="282.861328"/>
    </g>
   </g>
   <g id="line2d_27">
    <path d="M 295.00742 249.114029 
L 303.00742 249.114029 
L 311.00742 249.114029 
" style="fill: none; stroke: #ffffff; stroke-opacity: 0.8; stroke-width: 1.5; stroke-linecap: square"/>
    <defs>
     <path id="m65f283d598" d="M 0 3.5 
C 0.928211 3.5 1.81853 3.131218 2.474874 2.474874 
C 3.131218 1.81853 3.5 0.928211 3.5 0 
C 3.5 -0.928211 3.131218 -1.81853 2.474874 -2.474874 
C 1.81853 -3.131218 0.928211 -3.5 0 -3.5 
C -0.928211 -3.5 -1.81853 -3.131218 -2.474874 -2.474874 
C -3.131218 -1.81853 -3.5 -0.928211 -3.5 0 
C -3.5 0.928211 -3.131218 1.81853 -2.474874 2.474874 
C -1.81853 3.131218 -0.928211 3.5 0 3.5 
z
" style="stroke: #ffffff; stroke-opacity: 0.8"/>
    </defs>
    <g>
     <use xlink:href="#m65f283d598" x="303.00742" y="249.114029" style="fill: #4d908e; fill-opacity: 0.8; stroke: #ffffff; stroke-opacity: 0.8"/>
    </g>
   </g>
   <g id="text_31">
    <!-- CAPEX -->
    <g transform="translate(311.80742 251.914029) scale(0.08 -0.08)">
     <defs>
      <path id="Roboto-Regular-58" d="M 2013 2806 
L 3103 4550 
L 3809 4550 
L 2372 2294 
L 3844 0 
L 3131 0 
L 2013 1775 
L 888 0 
L 178 0 
L 1653 2294 
L 213 4550 
L 916 4550 
L 2013 2806 
z
" transform="scale(0.015625)"/>
     </defs>
     <use xlink:href="#Roboto-Regular-43"/>
     <use xlink:href="#Roboto-Regular-41" x="65.087891"/>
     <use xlink:href="#Roboto-Regular-50" x="130.322266"/>
     <use xlink:href="#Roboto-Regular-45" x="193.408203"/>
     <use xlink:href="#Roboto-Regular-58" x="250.244141"/>
    </g>
   </g>
   <g id="line2d_28">
    <path d="M 295.00742 260.739029 
L 303.00742 260.739029 
L 311.00742 260.739029 
" style="fill: none; stroke: #ffffff; stroke-opacity: 0.8; stroke-width: 1.5; stroke-linecap: square"/>
    <defs>
     <path id="m2902224960" d="M 0 3.5 
C 0.928211 3.5 1.81853 3.131218 2.474874 2.474874 
C 3.131218 1.81853 3.5 0.928211 3.5 0 
C 3.5 -0.928211 3.131218 -1.81853 2.474874 -2.474874 
C 1.81853 -3.131218 0.928211 -3.5 0 -3.5 
C -0.928211 -3.5 -1.81853 -3.131218 -2.474874 -2.474874 
C -3.131218 -1.81853 -3.5 -0.928211 -3.5 0 
C -3.5 0.928211 -3.131218 1.81853 -2.474874 2.474874 
C -1.81853 3.131218 -0.928211 3.5 0 3.5 
z
" style="stroke: #ffffff; stroke-opacity: 0.8"/>
    </defs>
    <g>
     <use xlink:href="#m2902224960" x="303.00742" y="260.739029" style="fill: #277da1; fill-opacity: 0.8; stroke: #ffffff; stroke-opacity: 0.8"/>
    </g>
   </g>
   <g id="text_32">
    <!-- Direct emissions -->
    <g transform="translate(311.80742 263.539029) scale(0.08 -0.08)">
     <use xlink:href="#Roboto-Regular-44"/>
     <use xlink:href="#Roboto-Regular-69" x="65.576172"/>
     <use xlink:href="#Roboto-Regular-72" x="89.84375"/>
     <use xlink:href="#Roboto-Regular-65" x="123.681641"/>
     <use xlink:href="#Roboto-Regular-63" x="176.660156"/>
     <use xlink:href="#Roboto-Regular-74" x="229.003906"/>
     <use xlink:href="#Roboto-Regular-20" x="261.669922"/>
     <use xlink:href="#Roboto-Regular-65" x="286.425781"/>
     <use xlink:href="#Roboto-Regular-6d" x="339.404297"/>
     <use xlink:href="#Roboto-Regular-69" x="427.050781"/>
     <use xlink:href="#Roboto-Regular-73" x="451.318359"/>
     <use xlink:href="#Roboto-Regular-73" x="502.880859"/>
     <use xlink:href="#Roboto-Regular-69" x="554.443359"/>
     <use xlink:href="#Roboto-Regular-6f" x="578.710938"/>
     <use xlink:href="#Roboto-Regular-6e" x="635.742188"/>
     <use xlink:href="#Roboto-Regular-73" x="690.917969"/>
    </g>
   </g>
   <g id="line2d_29">
    <path d="M 387.20617 249.114029 
L 395.20617 249.114029 
L 403.20617 249.114029 
" style="fill: none"/>
    <defs>
     <path id="m5fccafa098" d="M 0 2.5 
C 0.663008 2.5 1.29895 2.236584 1.767767 1.767767 
C 2.236584 1.29895 2.5 0.663008 2.5 0 
C 2.5 -0.663008 2.236584 -1.29895 1.767767 -1.767767 
C 1.29895 -2.236584 0.663008 -2.5 0 -2.5 
C -0.663008 -2.5 -1.29895 -2.236584 -1.767767 -1.767767 
C -2.236584 -1.29895 -2.5 -0.663008 -2.5 0 
C -2.5 0.663008 -2.236584 1.29895 -1.767767 1.767767 
C -1.29895 2.236584 -0.663008 2.5 0 2.5 
z
" style="stroke: #000000"/>
    </defs>
    <g>
     <use xlink:href="#m5fccafa098" x="395.20617" y="249.114029" style="fill: #ffffff; stroke: #000000"/>
    </g>
   </g>
   <g id="text_33">
    <!-- Current impact -->
    <g transform="translate(404.00617 251.914029) scale(0.08 -0.08)">
     <use xlink:href="#Roboto-Regular-43"/>
     <use xlink:href="#Roboto-Regular-75" x="65.087891"/>
     <use xlink:href="#Roboto-Regular-72" x="120.214844"/>
     <use xlink:href="#Roboto-Regular-72" x="154.052734"/>
     <use xlink:href="#Roboto-Regular-65" x="187.890625"/>
     <use xlink:href="#Roboto-Regular-6e" x="240.869141"/>
     <use xlink:href="#Roboto-Regular-74" x="296.044922"/>
     <use xlink:href="#Roboto-Regular-20" x="328.710938"/>
     <use xlink:href="#Roboto-Regular-69" x="353.466797"/>
     <use xlink:href="#Roboto-Regular-6d" x="377.734375"/>
     <use xlink:href="#Roboto-Regular-70" x="465.380859"/>
     <use xlink:href="#Roboto-Regular-61" x="521.484375"/>
     <use xlink:href="#Roboto-Regular-63" x="575.878906"/>
     <use xlink:href="#Roboto-Regular-74" x="628.222656"/>
    </g>
   </g>
   <g id="line2d_30">
    <path d="M 387.20617 260.739029 
L 395.20617 260.739029 
L 403.20617 260.739029 
" style="fill: none"/>
    <defs>
     <path id="m735b27d9d8" d="M 0 3.535534 
L 3.535534 0 
L 0 -3.535534 
L -3.535534 0 
z
" style="stroke: #ffffff; stroke-linejoin: miter"/>
    </defs>
    <g>
     <use xlink:href="#m735b27d9d8" x="395.20617" y="260.739029" style="fill: #8763c9; stroke: #ffffff; stroke-linejoin: miter"/>
    </g>
   </g>
   <g id="text_34">
    <!-- Future impact -->
    <g transform="translate(404.00617 263.539029) scale(0.08 -0.08)">
     <defs>
      <path id="Roboto-Regular-46" d="M 3038 2009 
L 1128 2009 
L 1128 0 
L 528 0 
L 528 4550 
L 3347 4550 
L 3347 4056 
L 1128 4056 
L 1128 2500 
L 3038 2500 
L 3038 2009 
z
" transform="scale(0.015625)"/>
     </defs>
     <use xlink:href="#Roboto-Regular-46"/>
     <use xlink:href="#Roboto-Regular-75" x="55.273438"/>
     <use xlink:href="#Roboto-Regular-74" x="110.400391"/>
     <use xlink:href="#Roboto-Regular-75" x="143.066406"/>
     <use xlink:href="#Roboto-Regular-72" x="198.193359"/>
     <use xlink:href="#Roboto-Regular-65" x="232.03125"/>
     <use xlink:href="#Roboto-Regular-20" x="285.009766"/>
     <use xlink:href="#Roboto-Regular-69" x="309.765625"/>
     <use xlink:href="#Roboto-Regular-6d" x="334.033203"/>
     <use xlink:href="#Roboto-Regular-70" x="421.679688"/>
     <use xlink:href="#Roboto-Regular-61" x="477.783203"/>
     <use xlink:href="#Roboto-Regular-63" x="532.177734"/>
     <use xlink:href="#Roboto-Regular-74" x="584.521484"/>
    </g>
   </g>
  </g>
 </g>
 <defs>
  <clipPath id="p7eef1fc3e0">
   <rect x="37.54375" y="19.95" width="216.033045" height="200.400132"/>
  </clipPath>
  <clipPath id="pf27f776b8c">
   <rect x="292.626795" y="19.95" width="216.033045" height="200.400132"/>
  </clipPath>
 </defs>
</svg>
