<?xml version="1.0" encoding="utf-8" standalone="no"?>
<!DOCTYPE svg PUBLIC "-//W3C//DTD SVG 1.1//EN"
  "http://www.w3.org/Graphics/SVG/1.1/DTD/svg11.dtd">
<svg xmlns:xlink="http://www.w3.org/1999/xlink" width="382.63176pt" height="310.036748pt" viewBox="0 0 382.63176 310.036748" xmlns="http://www.w3.org/2000/svg" version="1.1">
 <metadata>
  <rdf:RDF xmlns:dc="http://purl.org/dc/elements/1.1/" xmlns:cc="http://creativecommons.org/ns#" xmlns:rdf="http://www.w3.org/1999/02/22-rdf-syntax-ns#">
   <cc:Work>
    <dc:type rdf:resource="http://purl.org/dc/dcmitype/StillImage"/>
    <dc:date>2025-02-16T18:51:56.673102</dc:date>
    <dc:format>image/svg+xml</dc:format>
    <dc:creator>
     <cc:Agent>
      <dc:title>Matplotlib v3.9.2, https://matplotlib.org/</dc:title>
     </cc:Agent>
    </dc:creator>
   </cc:Work>
  </rdf:RDF>
 </metadata>
 <defs>
  <style type="text/css">*{stroke-linejoin: round; stroke-linecap: butt}</style>
 </defs>
 <g id="figure_1">
  <g id="patch_1">
   <path d="M 0 310.036748 
L 382.63176 310.036748 
L 382.63176 0 
L 0 0 
z
" style="fill: #ffffff"/>
  </g>
  <g id="axes_1">
   <g id="patch_2">
    <path d="M 32.36 243.104258 
L 375.43176 243.104258 
L 375.43176 7.2 
L 32.36 7.2 
z
" style="fill: #ffffff"/>
   </g>
   <g id="patch_3">
    <path d="M 32.36 228.360242 
L 157.608297 228.360242 
L 157.608297 198.87221 
L 32.36 198.87221 
z
" clip-path="url(#p614c8671cf)" style="fill: #f94144; opacity: 0.8"/>
   </g>
   <g id="patch_4">
    <path d="M 32.36 169.384177 
L 32.36 169.384177 
L 32.36 139.896145 
L 32.36 139.896145 
z
" clip-path="url(#p614c8671cf)" style="fill: #f94144; opacity: 0.8"/>
   </g>
   <g id="patch_5">
    <path d="M 32.36 110.408113 
L 267.322894 110.408113 
L 267.322894 80.920081 
L 32.36 80.920081 
z
" clip-path="url(#p614c8671cf)" style="fill: #f94144; opacity: 0.8"/>
   </g>
   <g id="patch_6">
    <path d="M 32.36 51.432048 
L 32.36 51.432048 
L 32.36 21.944016 
L 32.36 21.944016 
z
" clip-path="url(#p614c8671cf)" style="fill: #f94144; opacity: 0.8"/>
   </g>
   <g id="patch_7">
    <path d="M 32.36 228.360242 
L 32.36 228.360242 
L 32.36 198.87221 
L 32.36 198.87221 
z
" clip-path="url(#p614c8671cf)" style="fill: #f3722c; opacity: 0.8"/>
   </g>
   <g id="patch_8">
    <path d="M 32.36 169.384177 
L 49.046585 169.384177 
L 49.046585 139.896145 
L 32.36 139.896145 
z
" clip-path="url(#p614c8671cf)" style="fill: #f3722c; opacity: 0.8"/>
   </g>
   <g id="patch_9">
    <path d="M 32.36 110.408113 
L 32.36 110.408113 
L 32.36 80.920081 
L 32.36 80.920081 
z
" clip-path="url(#p614c8671cf)" style="fill: #f3722c; opacity: 0.8"/>
   </g>
   <g id="patch_10">
    <path d="M 32.36 51.432048 
L 79.676642 51.432048 
L 79.676642 21.944016 
L 32.36 21.944016 
z
" clip-path="url(#p614c8671cf)" style="fill: #f3722c; opacity: 0.8"/>
   </g>
   <g id="patch_11">
    <path d="M 32.36 228.360242 
L 32.36 228.360242 
L 32.36 198.87221 
L 32.36 198.87221 
z
" clip-path="url(#p614c8671cf)" style="fill: #f8961e; opacity: 0.8"/>
   </g>
   <g id="patch_12">
    <path d="M 49.046585 169.384177 
L 289.666567 169.384177 
L 289.666567 139.896145 
L 49.046585 139.896145 
z
" clip-path="url(#p614c8671cf)" style="fill: #f8961e; opacity: 0.8"/>
   </g>
   <g id="patch_13">
    <path d="M 32.36 110.408113 
L 32.36 110.408113 
L 32.36 80.920081 
L 32.36 80.920081 
z
" clip-path="url(#p614c8671cf)" style="fill: #f8961e; opacity: 0.8"/>
   </g>
   <g id="patch_14">
    <path d="M 79.676642 51.432048 
L 320.296625 51.432048 
L 320.296625 21.944016 
L 79.676642 21.944016 
z
" clip-path="url(#p614c8671cf)" style="fill: #f8961e; opacity: 0.8"/>
   </g>
   <g id="patch_15">
    <path d="M 157.608297 228.360242 
L 158.700799 228.360242 
L 158.700799 198.87221 
L 157.608297 198.87221 
z
" clip-path="url(#p614c8671cf)" style="fill: #f9c74f; opacity: 0.8"/>
   </g>
   <g id="patch_16">
    <path d="M 289.666567 169.384177 
L 290.802171 169.384177 
L 290.802171 139.896145 
L 289.666567 139.896145 
z
" clip-path="url(#p614c8671cf)" style="fill: #f9c74f; opacity: 0.8"/>
   </g>
   <g id="patch_17">
    <path d="M 267.322894 110.408113 
L 268.415396 110.408113 
L 268.415396 80.920081 
L 267.322894 80.920081 
z
" clip-path="url(#p614c8671cf)" style="fill: #f9c74f; opacity: 0.8"/>
   </g>
   <g id="patch_18">
    <path d="M 320.296625 51.432048 
L 321.432228 51.432048 
L 321.432228 21.944016 
L 320.296625 21.944016 
z
" clip-path="url(#p614c8671cf)" style="fill: #f9c74f; opacity: 0.8"/>
   </g>
   <g id="patch_19">
    <path d="M 32.36 228.360242 
L 32.36 228.360242 
L 32.36 198.87221 
L 32.36 198.87221 
z
" clip-path="url(#p614c8671cf)" style="fill: #90be6d; opacity: 0.8"/>
   </g>
   <g id="patch_20">
    <path d="M 290.802171 169.384177 
L 292.725065 169.384177 
L 292.725065 139.896145 
L 290.802171 139.896145 
z
" clip-path="url(#p614c8671cf)" style="fill: #90be6d; opacity: 0.8"/>
   </g>
   <g id="patch_21">
    <path d="M 32.36 110.408113 
L 32.36 110.408113 
L 32.36 80.920081 
L 32.36 80.920081 
z
" clip-path="url(#p614c8671cf)" style="fill: #90be6d; opacity: 0.8"/>
   </g>
   <g id="patch_22">
    <path d="M 321.432228 51.432048 
L 323.355123 51.432048 
L 323.355123 21.944016 
L 321.432228 21.944016 
z
" clip-path="url(#p614c8671cf)" style="fill: #90be6d; opacity: 0.8"/>
   </g>
   <g id="patch_23">
    <path d="M 158.700799 228.360242 
L 186.505345 228.360242 
L 186.505345 198.87221 
L 158.700799 198.87221 
z
" clip-path="url(#p614c8671cf)" style="fill: #43aa8b; opacity: 0.8"/>
   </g>
   <g id="patch_24">
    <path d="M 292.725065 169.384177 
L 292.921202 169.384177 
L 292.921202 139.896145 
L 292.725065 139.896145 
z
" clip-path="url(#p614c8671cf)" style="fill: #43aa8b; opacity: 0.8"/>
   </g>
   <g id="patch_25">
    <path d="M 268.415396 110.408113 
L 296.219943 110.408113 
L 296.219943 80.920081 
L 268.415396 80.920081 
z
" clip-path="url(#p614c8671cf)" style="fill: #43aa8b; opacity: 0.8"/>
   </g>
   <g id="patch_26">
    <path d="M 323.355123 51.432048 
L 323.551259 51.432048 
L 323.551259 21.944016 
L 323.355123 21.944016 
z
" clip-path="url(#p614c8671cf)" style="fill: #43aa8b; opacity: 0.8"/>
   </g>
   <g id="patch_27">
    <path d="M 186.505345 228.360242 
L 192.052793 228.360242 
L 192.052793 198.87221 
L 186.505345 198.87221 
z
" clip-path="url(#p614c8671cf)" style="fill: #4d908e; opacity: 0.8"/>
   </g>
   <g id="patch_28">
    <path d="M 292.921202 169.384177 
L 297.927005 169.384177 
L 297.927005 139.896145 
L 292.921202 139.896145 
z
" clip-path="url(#p614c8671cf)" style="fill: #4d908e; opacity: 0.8"/>
   </g>
   <g id="patch_29">
    <path d="M 296.219943 110.408113 
L 301.76739 110.408113 
L 301.76739 80.920081 
L 296.219943 80.920081 
z
" clip-path="url(#p614c8671cf)" style="fill: #4d908e; opacity: 0.8"/>
   </g>
   <g id="patch_30">
    <path d="M 323.551259 51.432048 
L 328.557063 51.432048 
L 328.557063 21.944016 
L 323.551259 21.944016 
z
" clip-path="url(#p614c8671cf)" style="fill: #4d908e; opacity: 0.8"/>
   </g>
   <g id="patch_31">
    <path d="M 32.36 228.360242 
L 32.36 228.360242 
L 32.36 198.87221 
L 32.36 198.87221 
z
" clip-path="url(#p614c8671cf)" style="fill: #f94144; opacity: 0.8"/>
   </g>
   <g id="patch_32">
    <path d="M 32.36 169.384177 
L 32.36 169.384177 
L 32.36 139.896145 
L 32.36 139.896145 
z
" clip-path="url(#p614c8671cf)" style="fill: #f94144; opacity: 0.8"/>
   </g>
   <g id="patch_33">
    <path d="M 32.36 110.408113 
L 32.36 110.408113 
L 32.36 80.920081 
L 32.36 80.920081 
z
" clip-path="url(#p614c8671cf)" style="fill: #f94144; opacity: 0.8"/>
   </g>
   <g id="patch_34">
    <path d="M 32.36 51.432048 
L 32.36 51.432048 
L 32.36 21.944016 
L 32.36 21.944016 
z
" clip-path="url(#p614c8671cf)" style="fill: #f94144; opacity: 0.8"/>
   </g>
   <g id="PathCollection_1">
    <defs>
     <path id="m23f2a17dd4" d="M 0 2.236068 
C 0.593012 2.236068 1.161816 2.000462 1.581139 1.581139 
C 2.000462 1.161816 2.236068 0.593012 2.236068 0 
C 2.236068 -0.593012 2.000462 -1.161816 1.581139 -1.581139 
C 1.161816 -2.000462 0.593012 -2.236068 0 -2.236068 
C -0.593012 -2.236068 -1.161816 -2.000462 -1.581139 -1.581139 
C -2.000462 -1.161816 -2.236068 -0.593012 -2.236068 0 
C -2.236068 0.593012 -2.000462 1.161816 -1.581139 1.581139 
C -1.161816 2.000462 -0.593012 2.236068 0 2.236068 
z
" style="stroke: #000000"/>
    </defs>
    <g clip-path="url(#p614c8671cf)">
     <use xlink:href="#m23f2a17dd4" x="192.052793" y="213.616226" style="fill: #ffffff; stroke: #000000"/>
     <use xlink:href="#m23f2a17dd4" x="297.927005" y="154.640161" style="fill: #ffffff; stroke: #000000"/>
     <use xlink:href="#m23f2a17dd4" x="301.76739" y="95.664097" style="fill: #ffffff; stroke: #000000"/>
     <use xlink:href="#m23f2a17dd4" x="328.557063" y="36.688032" style="fill: #ffffff; stroke: #000000"/>
    </g>
   </g>
   <g id="matplotlib.axis_1">
    <g id="xtick_1">
     <g id="line2d_1">
      <defs>
       <path id="m8168e43fb3" d="M 0 0 
L 0 3.5 
" style="stroke: #000000; stroke-width: 0.8"/>
      </defs>
      <g>
       <use xlink:href="#m8168e43fb3" x="32.36" y="243.104258" style="stroke: #000000; stroke-width: 0.8"/>
      </g>
     </g>
     <g id="text_1">
      <!-- 0 -->
      <g transform="translate(30.11375 256.104258) scale(0.08 -0.08)">
       <defs>
        <path id="Roboto-Regular-30" d="M 3231 1941 
Q 3231 925 2884 431 
Q 2538 -63 1800 -63 
Q 1072 -63 722 420 
Q 372 903 359 1863 
L 359 2634 
Q 359 3638 706 4125 
Q 1053 4613 1794 4613 
Q 2528 4613 2875 4142 
Q 3222 3672 3231 2691 
L 3231 1941 
z
M 2653 2731 
Q 2653 3466 2447 3802 
Q 2241 4138 1794 4138 
Q 1350 4138 1147 3803 
Q 944 3469 938 2775 
L 938 1850 
Q 938 1113 1152 761 
Q 1366 409 1800 409 
Q 2228 409 2436 740 
Q 2644 1072 2653 1784 
L 2653 2731 
z
" transform="scale(0.015625)"/>
       </defs>
       <use xlink:href="#Roboto-Regular-30"/>
      </g>
     </g>
    </g>
    <g id="xtick_2">
     <g id="line2d_2">
      <g>
       <use xlink:href="#m8168e43fb3" x="133.263459" y="243.104258" style="stroke: #000000; stroke-width: 0.8"/>
      </g>
     </g>
     <g id="text_2">
      <!-- 25 -->
      <g transform="translate(128.770959 256.104258) scale(0.08 -0.08)">
       <defs>
        <path id="Roboto-Regular-32" d="M 3359 0 
L 378 0 
L 378 416 
L 1953 2166 
Q 2303 2563 2436 2811 
Q 2569 3059 2569 3325 
Q 2569 3681 2353 3909 
Q 2138 4138 1778 4138 
Q 1347 4138 1108 3892 
Q 869 3647 869 3209 
L 291 3209 
Q 291 3838 695 4225 
Q 1100 4613 1778 4613 
Q 2413 4613 2781 4280 
Q 3150 3947 3150 3394 
Q 3150 2722 2294 1794 
L 1075 472 
L 3359 472 
L 3359 0 
z
" transform="scale(0.015625)"/>
        <path id="Roboto-Regular-35" d="M 644 2281 
L 875 4550 
L 3206 4550 
L 3206 4016 
L 1366 4016 
L 1228 2775 
Q 1563 2972 1988 2972 
Q 2609 2972 2975 2561 
Q 3341 2150 3341 1450 
Q 3341 747 2961 342 
Q 2581 -63 1900 -63 
Q 1297 -63 915 271 
Q 534 606 481 1197 
L 1028 1197 
Q 1081 806 1306 607 
Q 1531 409 1900 409 
Q 2303 409 2533 684 
Q 2763 959 2763 1444 
Q 2763 1900 2514 2176 
Q 2266 2453 1853 2453 
Q 1475 2453 1259 2288 
L 1106 2163 
L 644 2281 
z
" transform="scale(0.015625)"/>
       </defs>
       <use xlink:href="#Roboto-Regular-32"/>
       <use xlink:href="#Roboto-Regular-35" x="56.152344"/>
      </g>
     </g>
    </g>
    <g id="xtick_3">
     <g id="line2d_3">
      <g>
       <use xlink:href="#m8168e43fb3" x="234.166918" y="243.104258" style="stroke: #000000; stroke-width: 0.8"/>
      </g>
     </g>
     <g id="text_3">
      <!-- 50 -->
      <g transform="translate(229.674418 256.104258) scale(0.08 -0.08)">
       <use xlink:href="#Roboto-Regular-35"/>
       <use xlink:href="#Roboto-Regular-30" x="56.152344"/>
      </g>
     </g>
    </g>
    <g id="xtick_4">
     <g id="line2d_4">
      <g>
       <use xlink:href="#m8168e43fb3" x="335.070376" y="243.104258" style="stroke: #000000; stroke-width: 0.8"/>
      </g>
     </g>
     <g id="text_4">
      <!-- 75 -->
      <g transform="translate(330.577876 256.104258) scale(0.08 -0.08)">
       <defs>
        <path id="Roboto-Regular-37" d="M 3316 4225 
L 1431 0 
L 825 0 
L 2703 4075 
L 241 4075 
L 241 4550 
L 3316 4550 
L 3316 4225 
z
" transform="scale(0.015625)"/>
       </defs>
       <use xlink:href="#Roboto-Regular-37"/>
       <use xlink:href="#Roboto-Regular-35" x="56.152344"/>
      </g>
     </g>
    </g>
    <g id="text_5">
     <!-- Production costs (USD per kmol) -->
     <g transform="translate(145.79963 268.146758) scale(0.08 -0.08)">
      <defs>
       <path id="Roboto-Regular-50" d="M 1128 1781 
L 1128 0 
L 528 0 
L 528 4550 
L 2206 4550 
Q 2953 4550 3376 4169 
Q 3800 3788 3800 3159 
Q 3800 2497 3386 2139 
Q 2972 1781 2200 1781 
L 1128 1781 
z
M 1128 2272 
L 2206 2272 
Q 2688 2272 2944 2498 
Q 3200 2725 3200 3153 
Q 3200 3559 2944 3803 
Q 2688 4047 2241 4056 
L 1128 4056 
L 1128 2272 
z
" transform="scale(0.015625)"/>
       <path id="Roboto-Regular-72" d="M 2072 2863 
Q 1941 2884 1788 2884 
Q 1219 2884 1016 2400 
L 1016 0 
L 438 0 
L 438 3381 
L 1000 3381 
L 1009 2991 
Q 1294 3444 1816 3444 
Q 1984 3444 2072 3400 
L 2072 2863 
z
" transform="scale(0.015625)"/>
       <path id="Roboto-Regular-6f" d="M 284 1722 
Q 284 2219 479 2616 
Q 675 3013 1023 3228 
Q 1372 3444 1819 3444 
Q 2509 3444 2936 2966 
Q 3363 2488 3363 1694 
L 3363 1653 
Q 3363 1159 3173 767 
Q 2984 375 2632 156 
Q 2281 -63 1825 -63 
Q 1138 -63 711 415 
Q 284 894 284 1681 
L 284 1722 
z
M 866 1653 
Q 866 1091 1127 750 
Q 1388 409 1825 409 
Q 2266 409 2525 754 
Q 2784 1100 2784 1722 
Q 2784 2278 2520 2623 
Q 2256 2969 1819 2969 
Q 1391 2969 1128 2628 
Q 866 2288 866 1653 
z
" transform="scale(0.015625)"/>
       <path id="Roboto-Regular-64" d="M 297 1719 
Q 297 2497 665 2970 
Q 1034 3444 1631 3444 
Q 2225 3444 2572 3038 
L 2572 4800 
L 3150 4800 
L 3150 0 
L 2619 0 
L 2591 363 
Q 2244 -63 1625 -63 
Q 1038 -63 667 418 
Q 297 900 297 1675 
L 297 1719 
z
M 875 1653 
Q 875 1078 1112 753 
Q 1350 428 1769 428 
Q 2319 428 2572 922 
L 2572 2475 
Q 2313 2953 1775 2953 
Q 1350 2953 1112 2625 
Q 875 2297 875 1653 
z
" transform="scale(0.015625)"/>
       <path id="Roboto-Regular-75" d="M 2525 334 
Q 2188 -63 1534 -63 
Q 994 -63 711 251 
Q 428 566 425 1181 
L 425 3381 
L 1003 3381 
L 1003 1197 
Q 1003 428 1628 428 
Q 2291 428 2509 922 
L 2509 3381 
L 3088 3381 
L 3088 0 
L 2538 0 
L 2525 334 
z
" transform="scale(0.015625)"/>
       <path id="Roboto-Regular-63" d="M 1794 409 
Q 2103 409 2334 596 
Q 2566 784 2591 1066 
L 3138 1066 
Q 3122 775 2937 512 
Q 2753 250 2445 93 
Q 2138 -63 1794 -63 
Q 1103 -63 695 398 
Q 288 859 288 1659 
L 288 1756 
Q 288 2250 469 2634 
Q 650 3019 989 3231 
Q 1328 3444 1791 3444 
Q 2359 3444 2736 3103 
Q 3113 2763 3138 2219 
L 2591 2219 
Q 2566 2547 2342 2758 
Q 2119 2969 1791 2969 
Q 1350 2969 1108 2651 
Q 866 2334 866 1734 
L 866 1625 
Q 866 1041 1106 725 
Q 1347 409 1794 409 
z
" transform="scale(0.015625)"/>
       <path id="Roboto-Regular-74" d="M 1222 4200 
L 1222 3381 
L 1853 3381 
L 1853 2934 
L 1222 2934 
L 1222 838 
Q 1222 634 1306 532 
Q 1391 431 1594 431 
Q 1694 431 1869 469 
L 1869 0 
Q 1641 -63 1425 -63 
Q 1038 -63 841 171 
Q 644 406 644 838 
L 644 2934 
L 28 2934 
L 28 3381 
L 644 3381 
L 644 4200 
L 1222 4200 
z
" transform="scale(0.015625)"/>
       <path id="Roboto-Regular-69" d="M 1066 0 
L 488 0 
L 488 3381 
L 1066 3381 
L 1066 0 
z
M 441 4278 
Q 441 4419 527 4516 
Q 613 4613 781 4613 
Q 950 4613 1037 4516 
Q 1125 4419 1125 4278 
Q 1125 4138 1037 4044 
Q 950 3950 781 3950 
Q 613 3950 527 4044 
Q 441 4138 441 4278 
z
" transform="scale(0.015625)"/>
       <path id="Roboto-Regular-6e" d="M 984 3381 
L 1003 2956 
Q 1391 3444 2016 3444 
Q 3088 3444 3097 2234 
L 3097 0 
L 2519 0 
L 2519 2238 
Q 2516 2603 2352 2778 
Q 2188 2953 1841 2953 
Q 1559 2953 1346 2803 
Q 1134 2653 1016 2409 
L 1016 0 
L 438 0 
L 438 3381 
L 984 3381 
z
" transform="scale(0.015625)"/>
       <path id="Roboto-Regular-20" transform="scale(0.015625)"/>
       <path id="Roboto-Regular-73" d="M 2406 897 
Q 2406 1131 2229 1261 
Q 2053 1391 1614 1484 
Q 1175 1578 917 1709 
Q 659 1841 536 2022 
Q 413 2203 413 2453 
Q 413 2869 764 3156 
Q 1116 3444 1663 3444 
Q 2238 3444 2595 3147 
Q 2953 2850 2953 2388 
L 2372 2388 
Q 2372 2625 2170 2797 
Q 1969 2969 1663 2969 
Q 1347 2969 1169 2831 
Q 991 2694 991 2472 
Q 991 2263 1156 2156 
Q 1322 2050 1755 1953 
Q 2188 1856 2456 1722 
Q 2725 1588 2854 1398 
Q 2984 1209 2984 938 
Q 2984 484 2621 210 
Q 2259 -63 1681 -63 
Q 1275 -63 962 81 
Q 650 225 473 483 
Q 297 741 297 1041 
L 875 1041 
Q 891 750 1108 579 
Q 1325 409 1681 409 
Q 2009 409 2207 542 
Q 2406 675 2406 897 
z
" transform="scale(0.015625)"/>
       <path id="Roboto-Regular-28" d="M 416 1847 
Q 416 2553 605 3203 
Q 794 3853 1169 4384 
Q 1544 4916 1947 5134 
L 2066 4753 
Q 1609 4403 1317 3684 
Q 1025 2966 997 2075 
L 994 1809 
Q 994 603 1434 -284 
Q 1700 -816 2066 -1116 
L 1947 -1469 
Q 1531 -1238 1153 -694 
Q 416 369 416 1847 
z
" transform="scale(0.015625)"/>
       <path id="Roboto-Regular-55" d="M 3731 4550 
L 3731 1456 
Q 3728 813 3326 403 
Q 2925 -6 2238 -56 
L 2078 -63 
Q 1331 -63 887 340 
Q 444 744 438 1450 
L 438 4550 
L 1031 4550 
L 1031 1469 
Q 1031 975 1303 701 
Q 1575 428 2078 428 
Q 2588 428 2858 700 
Q 3128 972 3128 1466 
L 3128 4550 
L 3731 4550 
z
" transform="scale(0.015625)"/>
       <path id="Roboto-Regular-53" d="M 1869 2028 
Q 1097 2250 745 2573 
Q 394 2897 394 3372 
Q 394 3909 823 4261 
Q 1253 4613 1941 4613 
Q 2409 4613 2776 4431 
Q 3144 4250 3345 3931 
Q 3547 3613 3547 3234 
L 2944 3234 
Q 2944 3647 2681 3883 
Q 2419 4119 1941 4119 
Q 1497 4119 1248 3923 
Q 1000 3728 1000 3381 
Q 1000 3103 1236 2911 
Q 1472 2719 2039 2559 
Q 2606 2400 2926 2208 
Q 3247 2016 3401 1759 
Q 3556 1503 3556 1156 
Q 3556 603 3125 270 
Q 2694 -63 1972 -63 
Q 1503 -63 1097 117 
Q 691 297 470 609 
Q 250 922 250 1319 
L 853 1319 
Q 853 906 1158 667 
Q 1463 428 1972 428 
Q 2447 428 2700 622 
Q 2953 816 2953 1150 
Q 2953 1484 2718 1667 
Q 2484 1850 1869 2028 
z
" transform="scale(0.015625)"/>
       <path id="Roboto-Regular-44" d="M 528 0 
L 528 4550 
L 1813 4550 
Q 2406 4550 2862 4287 
Q 3319 4025 3567 3540 
Q 3816 3056 3819 2428 
L 3819 2138 
Q 3819 1494 3570 1009 
Q 3322 525 2861 265 
Q 2400 6 1788 0 
L 528 0 
z
M 1128 4056 
L 1128 491 
L 1759 491 
Q 2453 491 2839 922 
Q 3225 1353 3225 2150 
L 3225 2416 
Q 3225 3191 2861 3620 
Q 2497 4050 1828 4056 
L 1128 4056 
z
" transform="scale(0.015625)"/>
       <path id="Roboto-Regular-70" d="M 3294 1653 
Q 3294 881 2941 409 
Q 2588 -63 1984 -63 
Q 1369 -63 1016 328 
L 1016 -1300 
L 438 -1300 
L 438 3381 
L 966 3381 
L 994 3006 
Q 1347 3444 1975 3444 
Q 2584 3444 2939 2984 
Q 3294 2525 3294 1706 
L 3294 1653 
z
M 2716 1719 
Q 2716 2291 2472 2622 
Q 2228 2953 1803 2953 
Q 1278 2953 1016 2488 
L 1016 872 
Q 1275 409 1809 409 
Q 2225 409 2470 739 
Q 2716 1069 2716 1719 
z
" transform="scale(0.015625)"/>
       <path id="Roboto-Regular-65" d="M 1841 -63 
Q 1153 -63 722 389 
Q 291 841 291 1597 
L 291 1703 
Q 291 2206 483 2601 
Q 675 2997 1020 3220 
Q 1366 3444 1769 3444 
Q 2428 3444 2793 3009 
Q 3159 2575 3159 1766 
L 3159 1525 
L 869 1525 
Q 881 1025 1161 717 
Q 1441 409 1872 409 
Q 2178 409 2390 534 
Q 2603 659 2763 866 
L 3116 591 
Q 2691 -63 1841 -63 
z
M 1769 2969 
Q 1419 2969 1181 2714 
Q 944 2459 888 2000 
L 2581 2000 
L 2581 2044 
Q 2556 2484 2343 2726 
Q 2131 2969 1769 2969 
z
" transform="scale(0.015625)"/>
       <path id="Roboto-Regular-6b" d="M 1381 1566 
L 1019 1188 
L 1019 0 
L 441 0 
L 441 4800 
L 1019 4800 
L 1019 1897 
L 1328 2269 
L 2381 3381 
L 3084 3381 
L 1769 1969 
L 3238 0 
L 2559 0 
L 1381 1566 
z
" transform="scale(0.015625)"/>
       <path id="Roboto-Regular-6d" d="M 981 3381 
L 997 3006 
Q 1369 3444 2000 3444 
Q 2709 3444 2966 2900 
Q 3134 3144 3404 3294 
Q 3675 3444 4044 3444 
Q 5156 3444 5175 2266 
L 5175 0 
L 4597 0 
L 4597 2231 
Q 4597 2594 4431 2773 
Q 4266 2953 3875 2953 
Q 3553 2953 3340 2761 
Q 3128 2569 3094 2244 
L 3094 0 
L 2513 0 
L 2513 2216 
Q 2513 2953 1791 2953 
Q 1222 2953 1013 2469 
L 1013 0 
L 434 0 
L 434 3381 
L 981 3381 
z
" transform="scale(0.015625)"/>
       <path id="Roboto-Regular-6c" d="M 1066 0 
L 488 0 
L 488 4800 
L 1066 4800 
L 1066 0 
z
" transform="scale(0.015625)"/>
       <path id="Roboto-Regular-29" d="M 1772 1816 
Q 1772 1119 1589 480 
Q 1406 -159 1029 -700 
Q 653 -1241 241 -1469 
L 119 -1116 
Q 600 -747 892 29 
Q 1184 806 1191 1753 
L 1191 1853 
Q 1191 2509 1053 3073 
Q 916 3638 670 4084 
Q 425 4531 119 4781 
L 241 5134 
Q 653 4906 1026 4372 
Q 1400 3838 1586 3194 
Q 1772 2550 1772 1816 
z
" transform="scale(0.015625)"/>
      </defs>
      <use xlink:href="#Roboto-Regular-50"/>
      <use xlink:href="#Roboto-Regular-72" x="63.085938"/>
      <use xlink:href="#Roboto-Regular-6f" x="96.923828"/>
      <use xlink:href="#Roboto-Regular-64" x="153.955078"/>
      <use xlink:href="#Roboto-Regular-75" x="210.351562"/>
      <use xlink:href="#Roboto-Regular-63" x="265.478516"/>
      <use xlink:href="#Roboto-Regular-74" x="317.822266"/>
      <use xlink:href="#Roboto-Regular-69" x="350.488281"/>
      <use xlink:href="#Roboto-Regular-6f" x="374.755859"/>
      <use xlink:href="#Roboto-Regular-6e" x="431.787109"/>
      <use xlink:href="#Roboto-Regular-20" x="486.962891"/>
      <use xlink:href="#Roboto-Regular-63" x="511.71875"/>
      <use xlink:href="#Roboto-Regular-6f" x="564.0625"/>
      <use xlink:href="#Roboto-Regular-73" x="621.09375"/>
      <use xlink:href="#Roboto-Regular-74" x="672.65625"/>
      <use xlink:href="#Roboto-Regular-73" x="705.322266"/>
      <use xlink:href="#Roboto-Regular-20" x="756.884766"/>
      <use xlink:href="#Roboto-Regular-28" x="781.640625"/>
      <use xlink:href="#Roboto-Regular-55" x="815.820312"/>
      <use xlink:href="#Roboto-Regular-53" x="880.664062"/>
      <use xlink:href="#Roboto-Regular-44" x="939.990234"/>
      <use xlink:href="#Roboto-Regular-20" x="1005.566406"/>
      <use xlink:href="#Roboto-Regular-70" x="1030.322266"/>
      <use xlink:href="#Roboto-Regular-65" x="1086.425781"/>
      <use xlink:href="#Roboto-Regular-72" x="1139.404297"/>
      <use xlink:href="#Roboto-Regular-20" x="1173.242188"/>
      <use xlink:href="#Roboto-Regular-6b" x="1197.998047"/>
      <use xlink:href="#Roboto-Regular-6d" x="1248.681641"/>
      <use xlink:href="#Roboto-Regular-6f" x="1336.328125"/>
      <use xlink:href="#Roboto-Regular-6c" x="1393.359375"/>
      <use xlink:href="#Roboto-Regular-29" x="1417.626953"/>
     </g>
    </g>
   </g>
   <g id="matplotlib.axis_2">
    <g id="ytick_1">
     <g id="line2d_5">
      <defs>
       <path id="mb7d41b2156" d="M 0 0 
L -3.5 0 
" style="stroke: #000000; stroke-width: 0.8"/>
      </defs>
      <g>
       <use xlink:href="#mb7d41b2156" x="32.36" y="213.616226" style="stroke: #000000; stroke-width: 0.8"/>
      </g>
     </g>
     <g id="text_6">
      <!-- N$_\mathdefault{2}$O -->
      <g transform="translate(10.64 216.616226) scale(0.08 -0.08)">
       <defs>
        <path id="Roboto-Regular-4e" d="M 4025 0 
L 3422 0 
L 1131 3506 
L 1131 0 
L 528 0 
L 528 4550 
L 1131 4550 
L 3428 1028 
L 3428 4550 
L 4025 4550 
L 4025 0 
z
" transform="scale(0.015625)"/>
        <path id="Roboto-Regular-4f" d="M 4028 2128 
Q 4028 1459 3803 961 
Q 3578 463 3165 200 
Q 2753 -63 2203 -63 
Q 1666 -63 1250 201 
Q 834 466 604 955 
Q 375 1444 369 2088 
L 369 2416 
Q 369 3072 597 3575 
Q 825 4078 1242 4345 
Q 1659 4613 2197 4613 
Q 2744 4613 3161 4348 
Q 3578 4084 3803 3582 
Q 4028 3081 4028 2416 
L 4028 2128 
z
M 3431 2422 
Q 3431 3231 3106 3664 
Q 2781 4097 2197 4097 
Q 1628 4097 1301 3664 
Q 975 3231 966 2463 
L 966 2128 
Q 966 1344 1295 895 
Q 1625 447 2203 447 
Q 2784 447 3103 870 
Q 3422 1294 3431 2084 
L 3431 2422 
z
" transform="scale(0.015625)"/>
       </defs>
       <use xlink:href="#Roboto-Regular-4e" transform="translate(0 0.921875)"/>
       <use xlink:href="#Roboto-Regular-32" transform="translate(72.246094 -15.484375) scale(0.7)"/>
       <use xlink:href="#Roboto-Regular-4f" transform="translate(114.287109 0.921875)"/>
      </g>
     </g>
    </g>
    <g id="ytick_2">
     <g id="line2d_6">
      <g>
       <use xlink:href="#mb7d41b2156" x="32.36" y="154.640161" style="stroke: #000000; stroke-width: 0.8"/>
      </g>
     </g>
     <g id="text_7">
      <!-- H$_\mathdefault{2}$O$_\mathdefault{2}$ -->
      <g transform="translate(7.2 157.640161) scale(0.08 -0.08)">
       <defs>
        <path id="Roboto-Regular-48" d="M 4025 0 
L 3422 0 
L 3422 2103 
L 1128 2103 
L 1128 0 
L 528 0 
L 528 4550 
L 1128 4550 
L 1128 2594 
L 3422 2594 
L 3422 4550 
L 4025 4550 
L 4025 0 
z
" transform="scale(0.015625)"/>
       </defs>
       <use xlink:href="#Roboto-Regular-48" transform="translate(0 0.921875)"/>
       <use xlink:href="#Roboto-Regular-32" transform="translate(72.246094 -15.484375) scale(0.7)"/>
       <use xlink:href="#Roboto-Regular-4f" transform="translate(114.287109 0.921875)"/>
       <use xlink:href="#Roboto-Regular-32" transform="translate(183.994141 -15.484375) scale(0.7)"/>
      </g>
     </g>
    </g>
    <g id="ytick_3">
     <g id="line2d_7">
      <g>
       <use xlink:href="#mb7d41b2156" x="32.36" y="95.664097" style="stroke: #000000; stroke-width: 0.8"/>
      </g>
     </g>
     <g id="text_8">
      <!-- N$_\mathdefault{2}$O -->
      <g transform="translate(10.64 98.664097) scale(0.08 -0.08)">
       <use xlink:href="#Roboto-Regular-4e" transform="translate(0 0.921875)"/>
       <use xlink:href="#Roboto-Regular-32" transform="translate(72.246094 -15.484375) scale(0.7)"/>
       <use xlink:href="#Roboto-Regular-4f" transform="translate(114.287109 0.921875)"/>
      </g>
     </g>
    </g>
    <g id="ytick_4">
     <g id="line2d_8">
      <g>
       <use xlink:href="#mb7d41b2156" x="32.36" y="36.688032" style="stroke: #000000; stroke-width: 0.8"/>
      </g>
     </g>
     <g id="text_9">
      <!-- H$_\mathdefault{2}$O$_\mathdefault{2}$ -->
      <g transform="translate(7.2 39.688032) scale(0.08 -0.08)">
       <use xlink:href="#Roboto-Regular-48" transform="translate(0 0.921875)"/>
       <use xlink:href="#Roboto-Regular-32" transform="translate(72.246094 -15.484375) scale(0.7)"/>
       <use xlink:href="#Roboto-Regular-4f" transform="translate(114.287109 0.921875)"/>
       <use xlink:href="#Roboto-Regular-32" transform="translate(183.994141 -15.484375) scale(0.7)"/>
      </g>
     </g>
    </g>
   </g>
   <g id="line2d_9">
    <path d="M 32.36 125.152129 
L 375.43176 125.152129 
" clip-path="url(#p614c8671cf)" style="fill: none; stroke-dasharray: 1.85,0.8; stroke-dashoffset: 0; stroke: #808080; stroke-width: 0.5"/>
   </g>
   <g id="patch_35">
    <path d="M 32.36 243.104258 
L 32.36 7.2 
" style="fill: none; stroke: #000000; stroke-width: 0.8; stroke-linejoin: miter; stroke-linecap: square"/>
   </g>
   <g id="patch_36">
    <path d="M 375.43176 243.104258 
L 375.43176 7.2 
" style="fill: none; stroke: #000000; stroke-width: 0.8; stroke-linejoin: miter; stroke-linecap: square"/>
   </g>
   <g id="patch_37">
    <path d="M 32.36 243.104258 
L 375.43176 243.104258 
" style="fill: none; stroke: #000000; stroke-width: 0.8; stroke-linejoin: miter; stroke-linecap: square"/>
   </g>
   <g id="patch_38">
    <path d="M 32.36 7.2 
L 375.43176 7.2 
" style="fill: none; stroke: #000000; stroke-width: 0.8; stroke-linejoin: miter; stroke-linecap: square"/>
   </g>
   <g id="text_10">
    <!-- Fossil -->
    <g style="fill: #808080" transform="translate(335.154651 184.128193) scale(0.09 -0.09)">
     <defs>
      <path id="Roboto-Bold-46" d="M 3144 1859 
L 1344 1859 
L 1344 0 
L 406 0 
L 406 4550 
L 3369 4550 
L 3369 3791 
L 1344 3791 
L 1344 2616 
L 3144 2616 
L 3144 1859 
z
" transform="scale(0.015625)"/>
      <path id="Roboto-Bold-6f" d="M 206 1722 
Q 206 2225 400 2619 
Q 594 3013 958 3228 
Q 1322 3444 1803 3444 
Q 2488 3444 2920 3025 
Q 3353 2606 3403 1888 
L 3409 1656 
Q 3409 878 2975 407 
Q 2541 -63 1809 -63 
Q 1078 -63 642 406 
Q 206 875 206 1681 
L 206 1722 
z
M 1109 1656 
Q 1109 1175 1290 920 
Q 1472 666 1809 666 
Q 2138 666 2322 917 
Q 2506 1169 2506 1722 
Q 2506 2194 2322 2453 
Q 2138 2713 1803 2713 
Q 1472 2713 1290 2455 
Q 1109 2197 1109 1656 
z
" transform="scale(0.015625)"/>
      <path id="Roboto-Bold-73" d="M 2178 934 
Q 2178 1100 2014 1195 
Q 1850 1291 1488 1366 
Q 281 1619 281 2391 
Q 281 2841 654 3142 
Q 1028 3444 1631 3444 
Q 2275 3444 2661 3141 
Q 3047 2838 3047 2353 
L 2144 2353 
Q 2144 2547 2019 2673 
Q 1894 2800 1628 2800 
Q 1400 2800 1275 2697 
Q 1150 2594 1150 2434 
Q 1150 2284 1292 2192 
Q 1434 2100 1771 2033 
Q 2109 1966 2341 1881 
Q 3056 1619 3056 972 
Q 3056 509 2659 223 
Q 2263 -63 1634 -63 
Q 1209 -63 879 89 
Q 550 241 362 505 
Q 175 769 175 1075 
L 1031 1075 
Q 1044 834 1209 706 
Q 1375 578 1653 578 
Q 1913 578 2045 676 
Q 2178 775 2178 934 
z
" transform="scale(0.015625)"/>
      <path id="Roboto-Bold-69" d="M 1300 0 
L 394 0 
L 394 3381 
L 1300 3381 
L 1300 0 
z
M 341 4256 
Q 341 4459 477 4590 
Q 613 4722 847 4722 
Q 1078 4722 1215 4590 
Q 1353 4459 1353 4256 
Q 1353 4050 1214 3919 
Q 1075 3788 847 3788 
Q 619 3788 480 3919 
Q 341 4050 341 4256 
z
" transform="scale(0.015625)"/>
      <path id="Roboto-Bold-6c" d="M 1300 0 
L 394 0 
L 394 4800 
L 1300 4800 
L 1300 0 
z
" transform="scale(0.015625)"/>
     </defs>
     <use xlink:href="#Roboto-Bold-46"/>
     <use xlink:href="#Roboto-Bold-6f" x="54.785156"/>
     <use xlink:href="#Roboto-Bold-73" x="111.328125"/>
     <use xlink:href="#Roboto-Bold-73" x="162.744141"/>
     <use xlink:href="#Roboto-Bold-69" x="214.160156"/>
     <use xlink:href="#Roboto-Bold-6c" x="240.673828"/>
    </g>
   </g>
   <g id="text_11">
    <!-- Green -->
    <g style="fill: #808080" transform="translate(335.088557 66.176064) scale(0.09 -0.09)">
     <defs>
      <path id="Roboto-Bold-47" d="M 4006 575 
Q 3753 272 3290 104 
Q 2828 -63 2266 -63 
Q 1675 -63 1229 195 
Q 784 453 542 943 
Q 300 1434 294 2097 
L 294 2406 
Q 294 3088 523 3586 
Q 753 4084 1186 4348 
Q 1619 4613 2200 4613 
Q 3009 4613 3465 4227 
Q 3922 3841 4006 3103 
L 3094 3103 
Q 3031 3494 2817 3675 
Q 2603 3856 2228 3856 
Q 1750 3856 1500 3497 
Q 1250 3138 1247 2428 
L 1247 2138 
Q 1247 1422 1519 1056 
Q 1791 691 2316 691 
Q 2844 691 3069 916 
L 3069 1700 
L 2216 1700 
L 2216 2391 
L 4006 2391 
L 4006 575 
z
" transform="scale(0.015625)"/>
      <path id="Roboto-Bold-72" d="M 2247 2534 
Q 2063 2559 1922 2559 
Q 1409 2559 1250 2213 
L 1250 0 
L 347 0 
L 347 3381 
L 1200 3381 
L 1225 2978 
Q 1497 3444 1978 3444 
Q 2128 3444 2259 3403 
L 2247 2534 
z
" transform="scale(0.015625)"/>
      <path id="Roboto-Bold-65" d="M 1903 -63 
Q 1159 -63 692 393 
Q 225 850 225 1609 
L 225 1697 
Q 225 2206 422 2607 
Q 619 3009 980 3226 
Q 1341 3444 1803 3444 
Q 2497 3444 2895 3006 
Q 3294 2569 3294 1766 
L 3294 1397 
L 1141 1397 
Q 1184 1066 1404 866 
Q 1625 666 1963 666 
Q 2484 666 2778 1044 
L 3222 547 
Q 3019 259 2672 98 
Q 2325 -63 1903 -63 
z
M 1800 2713 
Q 1531 2713 1364 2531 
Q 1197 2350 1150 2013 
L 2406 2013 
L 2406 2084 
Q 2400 2384 2244 2548 
Q 2088 2713 1800 2713 
z
" transform="scale(0.015625)"/>
      <path id="Roboto-Bold-6e" d="M 1178 3381 
L 1206 2991 
Q 1569 3444 2178 3444 
Q 2716 3444 2978 3128 
Q 3241 2813 3247 2184 
L 3247 0 
L 2344 0 
L 2344 2163 
Q 2344 2450 2219 2579 
Q 2094 2709 1803 2709 
Q 1422 2709 1231 2384 
L 1231 0 
L 328 0 
L 328 3381 
L 1178 3381 
z
" transform="scale(0.015625)"/>
     </defs>
     <use xlink:href="#Roboto-Bold-47"/>
     <use xlink:href="#Roboto-Bold-72" x="68.115234"/>
     <use xlink:href="#Roboto-Bold-65" x="104.589844"/>
     <use xlink:href="#Roboto-Bold-65" x="158.642578"/>
     <use xlink:href="#Roboto-Bold-6e" x="212.695312"/>
    </g>
   </g>
   <g id="legend_1"/>
  </g>
  <g id="legend_2">
   <g id="line2d_10">
    <path d="M 52.384005 283.421748 
L 60.384005 283.421748 
L 68.384005 283.421748 
" style="fill: none; stroke: #ffffff; stroke-opacity: 0.8; stroke-width: 1.5; stroke-linecap: square"/>
    <defs>
     <path id="m0f2eeb3ed8" d="M 0 3.5 
C 0.928211 3.5 1.81853 3.131218 2.474874 2.474874 
C 3.131218 1.81853 3.5 0.928211 3.5 0 
C 3.5 -0.928211 3.131218 -1.81853 2.474874 -2.474874 
C 1.81853 -3.131218 0.928211 -3.5 0 -3.5 
C -0.928211 -3.5 -1.81853 -3.131218 -2.474874 -2.474874 
C -3.131218 -1.81853 -3.5 -0.928211 -3.5 0 
C -3.5 0.928211 -3.131218 1.81853 -2.474874 2.474874 
C -1.81853 3.131218 -0.928211 3.5 0 3.5 
z
" style="stroke: #ffffff; stroke-opacity: 0.8"/>
    </defs>
    <g>
     <use xlink:href="#m0f2eeb3ed8" x="60.384005" y="283.421748" style="fill: #f94144; fill-opacity: 0.8; stroke: #ffffff; stroke-opacity: 0.8"/>
    </g>
   </g>
   <g id="text_12">
    <!-- Ammonia -->
    <g transform="translate(69.184005 286.221748) scale(0.08 -0.08)">
     <defs>
      <path id="Roboto-Regular-41" d="M 3041 1188 
L 1134 1188 
L 706 0 
L 88 0 
L 1825 4550 
L 2350 4550 
L 4091 0 
L 3475 0 
L 3041 1188 
z
M 1316 1681 
L 2863 1681 
L 2088 3809 
L 1316 1681 
z
" transform="scale(0.015625)"/>
      <path id="Roboto-Regular-61" d="M 2525 0 
Q 2475 100 2444 356 
Q 2041 -63 1481 -63 
Q 981 -63 661 220 
Q 341 503 341 938 
Q 341 1466 742 1758 
Q 1144 2050 1872 2050 
L 2434 2050 
L 2434 2316 
Q 2434 2619 2253 2798 
Q 2072 2978 1719 2978 
Q 1409 2978 1200 2822 
Q 991 2666 991 2444 
L 409 2444 
Q 409 2697 589 2933 
Q 769 3169 1076 3306 
Q 1384 3444 1753 3444 
Q 2338 3444 2669 3151 
Q 3000 2859 3013 2347 
L 3013 791 
Q 3013 325 3131 50 
L 3131 0 
L 2525 0 
z
M 1566 441 
Q 1838 441 2081 581 
Q 2325 722 2434 947 
L 2434 1641 
L 1981 1641 
Q 919 1641 919 1019 
Q 919 747 1100 594 
Q 1281 441 1566 441 
z
" transform="scale(0.015625)"/>
     </defs>
     <use xlink:href="#Roboto-Regular-41"/>
     <use xlink:href="#Roboto-Regular-6d" x="65.234375"/>
     <use xlink:href="#Roboto-Regular-6d" x="152.880859"/>
     <use xlink:href="#Roboto-Regular-6f" x="240.527344"/>
     <use xlink:href="#Roboto-Regular-6e" x="297.558594"/>
     <use xlink:href="#Roboto-Regular-69" x="352.734375"/>
     <use xlink:href="#Roboto-Regular-61" x="377.001953"/>
    </g>
   </g>
   <g id="line2d_11">
    <path d="M 52.384005 295.046748 
L 60.384005 295.046748 
L 68.384005 295.046748 
" style="fill: none; stroke: #ffffff; stroke-opacity: 0.8; stroke-width: 1.5; stroke-linecap: square"/>
    <defs>
     <path id="m58167765fe" d="M 0 3.5 
C 0.928211 3.5 1.81853 3.131218 2.474874 2.474874 
C 3.131218 1.81853 3.5 0.928211 3.5 0 
C 3.5 -0.928211 3.131218 -1.81853 2.474874 -2.474874 
C 1.81853 -3.131218 0.928211 -3.5 0 -3.5 
C -0.928211 -3.5 -1.81853 -3.131218 -2.474874 -2.474874 
C -3.131218 -1.81853 -3.5 -0.928211 -3.5 0 
C -3.5 0.928211 -3.131218 1.81853 -2.474874 2.474874 
C -1.81853 3.131218 -0.928211 3.5 0 3.5 
z
" style="stroke: #ffffff; stroke-opacity: 0.8"/>
    </defs>
    <g>
     <use xlink:href="#m58167765fe" x="60.384005" y="295.046748" style="fill: #f3722c; fill-opacity: 0.8; stroke: #ffffff; stroke-opacity: 0.8"/>
    </g>
   </g>
   <g id="text_13">
    <!-- Hydrogen -->
    <g transform="translate(69.184005 297.846748) scale(0.08 -0.08)">
     <defs>
      <path id="Roboto-Regular-79" d="M 1544 847 
L 2331 3381 
L 2950 3381 
L 1591 -522 
Q 1275 -1366 588 -1366 
L 478 -1356 
L 263 -1316 
L 263 -847 
L 419 -859 
Q 713 -859 877 -740 
Q 1041 -622 1147 -306 
L 1275 38 
L 69 3381 
L 700 3381 
L 1544 847 
z
" transform="scale(0.015625)"/>
      <path id="Roboto-Regular-67" d="M 300 1719 
Q 300 2509 665 2976 
Q 1031 3444 1634 3444 
Q 2253 3444 2600 3006 
L 2628 3381 
L 3156 3381 
L 3156 81 
Q 3156 -575 2767 -953 
Q 2378 -1331 1722 -1331 
Q 1356 -1331 1006 -1175 
Q 656 -1019 472 -747 
L 772 -400 
Q 1144 -859 1681 -859 
Q 2103 -859 2339 -621 
Q 2575 -384 2575 47 
L 2575 338 
Q 2228 -63 1628 -63 
Q 1034 -63 667 415 
Q 300 894 300 1719 
z
M 881 1653 
Q 881 1081 1115 754 
Q 1350 428 1772 428 
Q 2319 428 2575 925 
L 2575 2469 
Q 2309 2953 1778 2953 
Q 1356 2953 1118 2625 
Q 881 2297 881 1653 
z
" transform="scale(0.015625)"/>
     </defs>
     <use xlink:href="#Roboto-Regular-48"/>
     <use xlink:href="#Roboto-Regular-79" x="71.289062"/>
     <use xlink:href="#Roboto-Regular-64" x="118.603516"/>
     <use xlink:href="#Roboto-Regular-72" x="175"/>
     <use xlink:href="#Roboto-Regular-6f" x="208.837891"/>
     <use xlink:href="#Roboto-Regular-67" x="265.869141"/>
     <use xlink:href="#Roboto-Regular-65" x="321.972656"/>
     <use xlink:href="#Roboto-Regular-6e" x="374.951172"/>
    </g>
   </g>
   <g id="line2d_12">
    <path d="M 119.694005 283.421748 
L 127.694005 283.421748 
L 135.694005 283.421748 
" style="fill: none; stroke: #ffffff; stroke-opacity: 0.8; stroke-width: 1.5; stroke-linecap: square"/>
    <defs>
     <path id="m0db55e6463" d="M 0 3.5 
C 0.928211 3.5 1.81853 3.131218 2.474874 2.474874 
C 3.131218 1.81853 3.5 0.928211 3.5 0 
C 3.5 -0.928211 3.131218 -1.81853 2.474874 -2.474874 
C 1.81853 -3.131218 0.928211 -3.5 0 -3.5 
C -0.928211 -3.5 -1.81853 -3.131218 -2.474874 -2.474874 
C -3.131218 -1.81853 -3.5 -0.928211 -3.5 0 
C -3.5 0.928211 -3.131218 1.81853 -2.474874 2.474874 
C -1.81853 3.131218 -0.928211 3.5 0 3.5 
z
" style="stroke: #ffffff; stroke-opacity: 0.8"/>
    </defs>
    <g>
     <use xlink:href="#m0db55e6463" x="127.694005" y="283.421748" style="fill: #f8961e; fill-opacity: 0.8; stroke: #ffffff; stroke-opacity: 0.8"/>
    </g>
   </g>
   <g id="text_14">
    <!-- 2-Ethylanthraquinone -->
    <g transform="translate(136.494005 286.221748) scale(0.08 -0.08)">
     <defs>
      <path id="Roboto-Regular-2d" d="M 1641 1697 
L 116 1697 
L 116 2169 
L 1641 2169 
L 1641 1697 
z
" transform="scale(0.015625)"/>
      <path id="Roboto-Regular-45" d="M 3100 2103 
L 1128 2103 
L 1128 491 
L 3419 491 
L 3419 0 
L 528 0 
L 528 4550 
L 3388 4550 
L 3388 4056 
L 1128 4056 
L 1128 2594 
L 3100 2594 
L 3100 2103 
z
" transform="scale(0.015625)"/>
      <path id="Roboto-Regular-68" d="M 1016 2972 
Q 1400 3444 2016 3444 
Q 3088 3444 3097 2234 
L 3097 0 
L 2519 0 
L 2519 2238 
Q 2516 2603 2352 2778 
Q 2188 2953 1841 2953 
Q 1559 2953 1346 2803 
Q 1134 2653 1016 2409 
L 1016 0 
L 438 0 
L 438 4800 
L 1016 4800 
L 1016 2972 
z
" transform="scale(0.015625)"/>
      <path id="Roboto-Regular-71" d="M 297 1719 
Q 297 2516 662 2980 
Q 1028 3444 1644 3444 
Q 2244 3444 2591 3041 
L 2616 3381 
L 3147 3381 
L 3147 -1300 
L 2569 -1300 
L 2569 313 
Q 2219 -63 1638 -63 
Q 1025 -63 661 414 
Q 297 891 297 1678 
L 297 1719 
z
M 875 1653 
Q 875 1072 1120 740 
Q 1366 409 1781 409 
Q 2297 409 2569 866 
L 2569 2522 
Q 2294 2969 1788 2969 
Q 1369 2969 1122 2636 
Q 875 2303 875 1653 
z
" transform="scale(0.015625)"/>
     </defs>
     <use xlink:href="#Roboto-Regular-32"/>
     <use xlink:href="#Roboto-Regular-2d" x="56.152344"/>
     <use xlink:href="#Roboto-Regular-45" x="83.740234"/>
     <use xlink:href="#Roboto-Regular-74" x="140.576172"/>
     <use xlink:href="#Roboto-Regular-68" x="173.242188"/>
     <use xlink:href="#Roboto-Regular-79" x="228.320312"/>
     <use xlink:href="#Roboto-Regular-6c" x="275.634766"/>
     <use xlink:href="#Roboto-Regular-61" x="299.902344"/>
     <use xlink:href="#Roboto-Regular-6e" x="354.296875"/>
     <use xlink:href="#Roboto-Regular-74" x="409.472656"/>
     <use xlink:href="#Roboto-Regular-68" x="442.138672"/>
     <use xlink:href="#Roboto-Regular-72" x="497.216797"/>
     <use xlink:href="#Roboto-Regular-61" x="531.054688"/>
     <use xlink:href="#Roboto-Regular-71" x="585.449219"/>
     <use xlink:href="#Roboto-Regular-75" x="642.285156"/>
     <use xlink:href="#Roboto-Regular-69" x="697.412109"/>
     <use xlink:href="#Roboto-Regular-6e" x="721.679688"/>
     <use xlink:href="#Roboto-Regular-6f" x="776.855469"/>
     <use xlink:href="#Roboto-Regular-6e" x="833.886719"/>
     <use xlink:href="#Roboto-Regular-65" x="889.0625"/>
    </g>
   </g>
   <g id="line2d_13">
    <path d="M 119.694005 295.129248 
L 127.694005 295.129248 
L 135.694005 295.129248 
" style="fill: none; stroke: #ffffff; stroke-opacity: 0.8; stroke-width: 1.5; stroke-linecap: square"/>
    <defs>
     <path id="m9fa016f73d" d="M 0 3.5 
C 0.928211 3.5 1.81853 3.131218 2.474874 2.474874 
C 3.131218 1.81853 3.5 0.928211 3.5 0 
C 3.5 -0.928211 3.131218 -1.81853 2.474874 -2.474874 
C 1.81853 -3.131218 0.928211 -3.5 0 -3.5 
C -0.928211 -3.5 -1.81853 -3.131218 -2.474874 -2.474874 
C -3.131218 -1.81853 -3.5 -0.928211 -3.5 0 
C -3.5 0.928211 -3.131218 1.81853 -2.474874 2.474874 
C -1.81853 3.131218 -0.928211 3.5 0 3.5 
z
" style="stroke: #ffffff; stroke-opacity: 0.8"/>
    </defs>
    <g>
     <use xlink:href="#m9fa016f73d" x="127.694005" y="295.129248" style="fill: #f9c74f; fill-opacity: 0.8; stroke: #ffffff; stroke-opacity: 0.8"/>
    </g>
   </g>
   <g id="text_15">
    <!-- Electricity -->
    <g transform="translate(136.494005 297.929248) scale(0.08 -0.08)">
     <use xlink:href="#Roboto-Regular-45"/>
     <use xlink:href="#Roboto-Regular-6c" x="56.835938"/>
     <use xlink:href="#Roboto-Regular-65" x="81.103516"/>
     <use xlink:href="#Roboto-Regular-63" x="134.082031"/>
     <use xlink:href="#Roboto-Regular-74" x="186.425781"/>
     <use xlink:href="#Roboto-Regular-72" x="219.091797"/>
     <use xlink:href="#Roboto-Regular-69" x="252.929688"/>
     <use xlink:href="#Roboto-Regular-63" x="277.197266"/>
     <use xlink:href="#Roboto-Regular-69" x="329.541016"/>
     <use xlink:href="#Roboto-Regular-74" x="353.808594"/>
     <use xlink:href="#Roboto-Regular-79" x="386.474609"/>
    </g>
   </g>
   <g id="line2d_14">
    <path d="M 227.859005 283.421748 
L 235.859005 283.421748 
L 243.859005 283.421748 
" style="fill: none; stroke: #ffffff; stroke-opacity: 0.8; stroke-width: 1.5; stroke-linecap: square"/>
    <defs>
     <path id="md2d319f2af" d="M 0 3.5 
C 0.928211 3.5 1.81853 3.131218 2.474874 2.474874 
C 3.131218 1.81853 3.5 0.928211 3.5 0 
C 3.5 -0.928211 3.131218 -1.81853 2.474874 -2.474874 
C 1.81853 -3.131218 0.928211 -3.5 0 -3.5 
C -0.928211 -3.5 -1.81853 -3.131218 -2.474874 -2.474874 
C -3.131218 -1.81853 -3.5 -0.928211 -3.5 0 
C -3.5 0.928211 -3.131218 1.81853 -2.474874 2.474874 
C -1.81853 3.131218 -0.928211 3.5 0 3.5 
z
" style="stroke: #ffffff; stroke-opacity: 0.8"/>
    </defs>
    <g>
     <use xlink:href="#md2d319f2af" x="235.859005" y="283.421748" style="fill: #90be6d; fill-opacity: 0.8; stroke: #ffffff; stroke-opacity: 0.8"/>
    </g>
   </g>
   <g id="text_16">
    <!-- Heating -->
    <g transform="translate(244.659005 286.221748) scale(0.08 -0.08)">
     <use xlink:href="#Roboto-Regular-48"/>
     <use xlink:href="#Roboto-Regular-65" x="71.289062"/>
     <use xlink:href="#Roboto-Regular-61" x="124.267578"/>
     <use xlink:href="#Roboto-Regular-74" x="178.662109"/>
     <use xlink:href="#Roboto-Regular-69" x="211.328125"/>
     <use xlink:href="#Roboto-Regular-6e" x="235.595703"/>
     <use xlink:href="#Roboto-Regular-67" x="290.771484"/>
    </g>
   </g>
   <g id="line2d_15">
    <path d="M 227.859005 295.085498 
L 235.859005 295.085498 
L 243.859005 295.085498 
" style="fill: none; stroke: #ffffff; stroke-opacity: 0.8; stroke-width: 1.5; stroke-linecap: square"/>
    <defs>
     <path id="m5a6cd7d8de" d="M 0 3.5 
C 0.928211 3.5 1.81853 3.131218 2.474874 2.474874 
C 3.131218 1.81853 3.5 0.928211 3.5 0 
C 3.5 -0.928211 3.131218 -1.81853 2.474874 -2.474874 
C 1.81853 -3.131218 0.928211 -3.5 0 -3.5 
C -0.928211 -3.5 -1.81853 -3.131218 -2.474874 -2.474874 
C -3.131218 -1.81853 -3.5 -0.928211 -3.5 0 
C -3.5 0.928211 -3.131218 1.81853 -2.474874 2.474874 
C -1.81853 3.131218 -0.928211 3.5 0 3.5 
z
" style="stroke: #ffffff; stroke-opacity: 0.8"/>
    </defs>
    <g>
     <use xlink:href="#m5a6cd7d8de" x="235.859005" y="295.085498" style="fill: #43aa8b; fill-opacity: 0.8; stroke: #ffffff; stroke-opacity: 0.8"/>
    </g>
   </g>
   <g id="text_17">
    <!-- Cooling -->
    <g transform="translate(244.659005 297.885498) scale(0.08 -0.08)">
     <defs>
      <path id="Roboto-Regular-43" d="M 3875 1444 
Q 3791 722 3342 329 
Q 2894 -63 2150 -63 
Q 1344 -63 858 515 
Q 372 1094 372 2063 
L 372 2500 
Q 372 3134 598 3615 
Q 825 4097 1240 4355 
Q 1656 4613 2203 4613 
Q 2928 4613 3365 4208 
Q 3803 3803 3875 3088 
L 3272 3088 
Q 3194 3631 2933 3875 
Q 2672 4119 2203 4119 
Q 1628 4119 1301 3694 
Q 975 3269 975 2484 
L 975 2044 
Q 975 1303 1284 865 
Q 1594 428 2150 428 
Q 2650 428 2917 654 
Q 3184 881 3272 1444 
L 3875 1444 
z
" transform="scale(0.015625)"/>
     </defs>
     <use xlink:href="#Roboto-Regular-43"/>
     <use xlink:href="#Roboto-Regular-6f" x="65.087891"/>
     <use xlink:href="#Roboto-Regular-6f" x="122.119141"/>
     <use xlink:href="#Roboto-Regular-6c" x="179.150391"/>
     <use xlink:href="#Roboto-Regular-69" x="203.417969"/>
     <use xlink:href="#Roboto-Regular-6e" x="227.685547"/>
     <use xlink:href="#Roboto-Regular-67" x="282.861328"/>
    </g>
   </g>
   <g id="line2d_16">
    <path d="M 288.410255 283.421748 
L 296.410255 283.421748 
L 304.410255 283.421748 
" style="fill: none; stroke: #ffffff; stroke-opacity: 0.8; stroke-width: 1.5; stroke-linecap: square"/>
    <defs>
     <path id="md31bc10203" d="M 0 3.5 
C 0.928211 3.5 1.81853 3.131218 2.474874 2.474874 
C 3.131218 1.81853 3.5 0.928211 3.5 0 
C 3.5 -0.928211 3.131218 -1.81853 2.474874 -2.474874 
C 1.81853 -3.131218 0.928211 -3.5 0 -3.5 
C -0.928211 -3.5 -1.81853 -3.131218 -2.474874 -2.474874 
C -3.131218 -1.81853 -3.5 -0.928211 -3.5 0 
C -3.5 0.928211 -3.131218 1.81853 -2.474874 2.474874 
C -1.81853 3.131218 -0.928211 3.5 0 3.5 
z
" style="stroke: #ffffff; stroke-opacity: 0.8"/>
    </defs>
    <g>
     <use xlink:href="#md31bc10203" x="296.410255" y="283.421748" style="fill: #4d908e; fill-opacity: 0.8; stroke: #ffffff; stroke-opacity: 0.8"/>
    </g>
   </g>
   <g id="text_18">
    <!-- CAPEX -->
    <g transform="translate(305.210255 286.221748) scale(0.08 -0.08)">
     <defs>
      <path id="Roboto-Regular-58" d="M 2013 2806 
L 3103 4550 
L 3809 4550 
L 2372 2294 
L 3844 0 
L 3131 0 
L 2013 1775 
L 888 0 
L 178 0 
L 1653 2294 
L 213 4550 
L 916 4550 
L 2013 2806 
z
" transform="scale(0.015625)"/>
     </defs>
     <use xlink:href="#Roboto-Regular-43"/>
     <use xlink:href="#Roboto-Regular-41" x="65.087891"/>
     <use xlink:href="#Roboto-Regular-50" x="130.322266"/>
     <use xlink:href="#Roboto-Regular-45" x="193.408203"/>
     <use xlink:href="#Roboto-Regular-58" x="250.244141"/>
    </g>
   </g>
   <g id="line2d_17">
    <path d="M 288.410255 295.046748 
L 296.410255 295.046748 
L 304.410255 295.046748 
" style="fill: none"/>
    <defs>
     <path id="m9e1c3c99bd" d="M 0 2.5 
C 0.663008 2.5 1.29895 2.236584 1.767767 1.767767 
C 2.236584 1.29895 2.5 0.663008 2.5 0 
C 2.5 -0.663008 2.236584 -1.29895 1.767767 -1.767767 
C 1.29895 -2.236584 0.663008 -2.5 0 -2.5 
C -0.663008 -2.5 -1.29895 -2.236584 -1.767767 -1.767767 
C -2.236584 -1.29895 -2.5 -0.663008 -2.5 0 
C -2.5 0.663008 -2.236584 1.29895 -1.767767 1.767767 
C -1.29895 2.236584 -0.663008 2.5 0 2.5 
z
" style="stroke: #000000"/>
    </defs>
    <g>
     <use xlink:href="#m9e1c3c99bd" x="296.410255" y="295.046748" style="fill: #ffffff; stroke: #000000"/>
    </g>
   </g>
   <g id="text_19">
    <!-- Total -->
    <g transform="translate(305.210255 297.846748) scale(0.08 -0.08)">
     <defs>
      <path id="Roboto-Regular-54" d="M 3672 4056 
L 2209 4056 
L 2209 0 
L 1613 0 
L 1613 4056 
L 153 4056 
L 153 4550 
L 3672 4550 
L 3672 4056 
z
" transform="scale(0.015625)"/>
     </defs>
     <use xlink:href="#Roboto-Regular-54"/>
     <use xlink:href="#Roboto-Regular-6f" x="59.667969"/>
     <use xlink:href="#Roboto-Regular-74" x="116.699219"/>
     <use xlink:href="#Roboto-Regular-61" x="149.365234"/>
     <use xlink:href="#Roboto-Regular-6c" x="203.759766"/>
    </g>
   </g>
  </g>
 </g>
 <defs>
  <clipPath id="p614c8671cf">
   <rect x="32.36" y="7.2" width="343.07176" height="235.904258"/>
  </clipPath>
 </defs>
</svg>
