<?xml version="1.0" encoding="utf-8" standalone="no"?>
<!DOCTYPE svg PUBLIC "-//W3C//DTD SVG 1.1//EN"
  "http://www.w3.org/Graphics/SVG/1.1/DTD/svg11.dtd">
<svg xmlns:xlink="http://www.w3.org/1999/xlink" width="514.77984pt" height="206.087256pt" viewBox="0 0 514.77984 206.087256" xmlns="http://www.w3.org/2000/svg" version="1.1">
 <metadata>
  <rdf:RDF xmlns:dc="http://purl.org/dc/elements/1.1/" xmlns:cc="http://creativecommons.org/ns#" xmlns:rdf="http://www.w3.org/1999/02/22-rdf-syntax-ns#">
   <cc:Work>
    <dc:type rdf:resource="http://purl.org/dc/dcmitype/StillImage"/>
    <dc:date>2025-06-30T22:46:41.281541</dc:date>
    <dc:format>image/svg+xml</dc:format>
    <dc:creator>
     <cc:Agent>
      <dc:title>Matplotlib v3.9.2, https://matplotlib.org/</dc:title>
     </cc:Agent>
    </dc:creator>
   </cc:Work>
  </rdf:RDF>
 </metadata>
 <defs>
  <style type="text/css">*{stroke-linejoin: round; stroke-linecap: butt}</style>
 </defs>
 <g id="figure_1">
  <g id="patch_1">
   <path d="M 0 206.087256 
L 514.77984 206.087256 
L 514.77984 0 
L 0 0 
z
" style="fill: #ffffff"/>
  </g>
  <g id="axes_1">
   <g id="patch_2">
    <path d="M 40.253516 172.03874 
L 187.575624 172.03874 
L 187.575624 20.32 
L 40.253516 20.32 
z
" style="fill: #ffffff"/>
   </g>
   <g id="patch_3">
    <path d="M 46.949975 172.03874 
L 51.414281 172.03874 
L 51.414281 171.31264 
L 46.949975 171.31264 
z
" clip-path="url(#p5697696651)" style="fill: #7cc582; stroke: #414141; stroke-linejoin: miter"/>
   </g>
   <g id="patch_4">
    <path d="M 51.414281 172.03874 
L 55.878588 172.03874 
L 55.878588 172.03874 
L 51.414281 172.03874 
z
" clip-path="url(#p5697696651)" style="fill: #7cc582; stroke: #414141; stroke-linejoin: miter"/>
   </g>
   <g id="patch_5">
    <path d="M 55.878588 172.03874 
L 60.342894 172.03874 
L 60.342894 171.31264 
L 55.878588 171.31264 
z
" clip-path="url(#p5697696651)" style="fill: #7cc582; stroke: #414141; stroke-linejoin: miter"/>
   </g>
   <g id="patch_6">
    <path d="M 60.342894 172.03874 
L 64.8072 172.03874 
L 64.8072 172.03874 
L 60.342894 172.03874 
z
" clip-path="url(#p5697696651)" style="fill: #7cc582; stroke: #414141; stroke-linejoin: miter"/>
   </g>
   <g id="patch_7">
    <path d="M 64.8072 172.03874 
L 69.271507 172.03874 
L 69.271507 172.03874 
L 64.8072 172.03874 
z
" clip-path="url(#p5697696651)" style="fill: #7cc582; stroke: #414141; stroke-linejoin: miter"/>
   </g>
   <g id="patch_8">
    <path d="M 69.271507 172.03874 
L 73.735813 172.03874 
L 73.735813 170.586539 
L 69.271507 170.586539 
z
" clip-path="url(#p5697696651)" style="fill: #7cc582; stroke: #414141; stroke-linejoin: miter"/>
   </g>
   <g id="patch_9">
    <path d="M 73.735813 172.03874 
L 78.200119 172.03874 
L 78.200119 171.31264 
L 73.735813 171.31264 
z
" clip-path="url(#p5697696651)" style="fill: #7cc582; stroke: #414141; stroke-linejoin: miter"/>
   </g>
   <g id="patch_10">
    <path d="M 78.200119 172.03874 
L 82.664426 172.03874 
L 82.664426 171.31264 
L 78.200119 171.31264 
z
" clip-path="url(#p5697696651)" style="fill: #7cc582; stroke: #414141; stroke-linejoin: miter"/>
   </g>
   <g id="patch_11">
    <path d="M 82.664426 172.03874 
L 87.128732 172.03874 
L 87.128732 170.586539 
L 82.664426 170.586539 
z
" clip-path="url(#p5697696651)" style="fill: #7cc582; stroke: #414141; stroke-linejoin: miter"/>
   </g>
   <g id="patch_12">
    <path d="M 87.128732 172.03874 
L 91.593038 172.03874 
L 91.593038 169.860438 
L 87.128732 169.860438 
z
" clip-path="url(#p5697696651)" style="fill: #7cc582; stroke: #414141; stroke-linejoin: miter"/>
   </g>
   <g id="patch_13">
    <path d="M 91.593038 172.03874 
L 96.057344 172.03874 
L 96.057344 163.325532 
L 91.593038 163.325532 
z
" clip-path="url(#p5697696651)" style="fill: #7cc582; stroke: #414141; stroke-linejoin: miter"/>
   </g>
   <g id="patch_14">
    <path d="M 96.057344 172.03874 
L 100.521651 172.03874 
L 100.521651 163.325532 
L 96.057344 163.325532 
z
" clip-path="url(#p5697696651)" style="fill: #7cc582; stroke: #414141; stroke-linejoin: miter"/>
   </g>
   <g id="patch_15">
    <path d="M 100.521651 172.03874 
L 104.985957 172.03874 
L 104.985957 158.242827 
L 100.521651 158.242827 
z
" clip-path="url(#p5697696651)" style="fill: #7cc582; stroke: #414141; stroke-linejoin: miter"/>
   </g>
   <g id="patch_16">
    <path d="M 104.985957 172.03874 
L 109.450263 172.03874 
L 109.450263 148.803518 
L 104.985957 148.803518 
z
" clip-path="url(#p5697696651)" style="fill: #7cc582; stroke: #414141; stroke-linejoin: miter"/>
   </g>
   <g id="patch_17">
    <path d="M 109.450263 172.03874 
L 113.91457 172.03874 
L 113.91457 138.638108 
L 109.450263 138.638108 
z
" clip-path="url(#p5697696651)" style="fill: #7cc582; stroke: #414141; stroke-linejoin: miter"/>
   </g>
   <g id="patch_18">
    <path d="M 113.91457 172.03874 
L 118.378876 172.03874 
L 118.378876 128.472699 
L 113.91457 128.472699 
z
" clip-path="url(#p5697696651)" style="fill: #7cc582; stroke: #414141; stroke-linejoin: miter"/>
   </g>
   <g id="patch_19">
    <path d="M 118.378876 172.03874 
L 122.843182 172.03874 
L 122.843182 92.167664 
L 118.378876 92.167664 
z
" clip-path="url(#p5697696651)" style="fill: #7cc582; stroke: #414141; stroke-linejoin: miter"/>
   </g>
   <g id="patch_20">
    <path d="M 122.843182 172.03874 
L 127.307489 172.03874 
L 127.307489 74.015146 
L 122.843182 74.015146 
z
" clip-path="url(#p5697696651)" style="fill: #7cc582; stroke: #414141; stroke-linejoin: miter"/>
   </g>
   <g id="patch_21">
    <path d="M 127.307489 172.03874 
L 131.771795 172.03874 
L 131.771795 63.123636 
L 127.307489 63.123636 
z
" clip-path="url(#p5697696651)" style="fill: #7cc582; stroke: #414141; stroke-linejoin: miter"/>
   </g>
   <g id="patch_22">
    <path d="M 131.771795 172.03874 
L 136.236101 172.03874 
L 136.236101 27.544702 
L 131.771795 27.544702 
z
" clip-path="url(#p5697696651)" style="fill: #7cc582; stroke: #414141; stroke-linejoin: miter"/>
   </g>
   <g id="patch_23">
    <path d="M 136.236101 172.03874 
L 140.700408 172.03874 
L 140.700408 92.893765 
L 136.236101 92.893765 
z
" clip-path="url(#p5697696651)" style="fill: #7cc582; stroke: #414141; stroke-linejoin: miter"/>
   </g>
   <g id="patch_24">
    <path d="M 140.700408 172.03874 
L 145.164714 172.03874 
L 145.164714 134.281504 
L 140.700408 134.281504 
z
" clip-path="url(#p5697696651)" style="fill: #7cc582; stroke: #414141; stroke-linejoin: miter"/>
   </g>
   <g id="patch_25">
    <path d="M 145.164714 172.03874 
L 149.62902 172.03874 
L 149.62902 152.434022 
L 145.164714 152.434022 
z
" clip-path="url(#p5697696651)" style="fill: #7cc582; stroke: #414141; stroke-linejoin: miter"/>
   </g>
   <g id="patch_26">
    <path d="M 149.62902 172.03874 
L 154.093326 172.03874 
L 154.093326 164.777733 
L 149.62902 164.777733 
z
" clip-path="url(#p5697696651)" style="fill: #7cc582; stroke: #414141; stroke-linejoin: miter"/>
   </g>
   <g id="patch_27">
    <path d="M 154.093326 172.03874 
L 158.557633 172.03874 
L 158.557633 166.229935 
L 154.093326 166.229935 
z
" clip-path="url(#p5697696651)" style="fill: #7cc582; stroke: #414141; stroke-linejoin: miter"/>
   </g>
   <g id="patch_28">
    <path d="M 158.557633 172.03874 
L 163.021939 172.03874 
L 163.021939 169.134338 
L 158.557633 169.134338 
z
" clip-path="url(#p5697696651)" style="fill: #7cc582; stroke: #414141; stroke-linejoin: miter"/>
   </g>
   <g id="patch_29">
    <path d="M 163.021939 172.03874 
L 167.486245 172.03874 
L 167.486245 170.586539 
L 163.021939 170.586539 
z
" clip-path="url(#p5697696651)" style="fill: #7cc582; stroke: #414141; stroke-linejoin: miter"/>
   </g>
   <g id="patch_30">
    <path d="M 167.486245 172.03874 
L 171.950552 172.03874 
L 171.950552 171.31264 
L 167.486245 171.31264 
z
" clip-path="url(#p5697696651)" style="fill: #7cc582; stroke: #414141; stroke-linejoin: miter"/>
   </g>
   <g id="patch_31">
    <path d="M 171.950552 172.03874 
L 176.414858 172.03874 
L 176.414858 172.03874 
L 171.950552 172.03874 
z
" clip-path="url(#p5697696651)" style="fill: #7cc582; stroke: #414141; stroke-linejoin: miter"/>
   </g>
   <g id="patch_32">
    <path d="M 176.414858 172.03874 
L 180.879164 172.03874 
L 180.879164 171.31264 
L 176.414858 171.31264 
z
" clip-path="url(#p5697696651)" style="fill: #7cc582; stroke: #414141; stroke-linejoin: miter"/>
   </g>
   <g id="matplotlib.axis_1">
    <g id="xtick_1">
     <g id="line2d_1">
      <defs>
       <path id="m959e624eee" d="M 0 0 
L 0 3.5 
" style="stroke: #000000; stroke-width: 0.8"/>
      </defs>
      <g>
       <use xlink:href="#m959e624eee" x="82.953546" y="172.03874" style="stroke: #000000; stroke-width: 0.8"/>
      </g>
     </g>
     <g id="text_1">
      <!-- −8 -->
      <g transform="translate(78.107882 185.122881) scale(0.085 -0.085)">
       <defs>
        <path id="ArialMT-2212" d="M 3381 1997 
L 356 1997 
L 356 2522 
L 3381 2522 
L 3381 1997 
z
" transform="scale(0.015625)"/>
        <path id="ArialMT-38" d="M 1131 2484 
Q 781 2613 612 2850 
Q 444 3088 444 3419 
Q 444 3919 803 4259 
Q 1163 4600 1759 4600 
Q 2359 4600 2725 4251 
Q 3091 3903 3091 3403 
Q 3091 3084 2923 2848 
Q 2756 2613 2416 2484 
Q 2838 2347 3058 2040 
Q 3278 1734 3278 1309 
Q 3278 722 2862 322 
Q 2447 -78 1769 -78 
Q 1091 -78 675 323 
Q 259 725 259 1325 
Q 259 1772 486 2073 
Q 713 2375 1131 2484 
z
M 1019 3438 
Q 1019 3113 1228 2906 
Q 1438 2700 1772 2700 
Q 2097 2700 2305 2904 
Q 2513 3109 2513 3406 
Q 2513 3716 2298 3927 
Q 2084 4138 1766 4138 
Q 1444 4138 1231 3931 
Q 1019 3725 1019 3438 
z
M 838 1322 
Q 838 1081 952 856 
Q 1066 631 1291 507 
Q 1516 384 1775 384 
Q 2178 384 2440 643 
Q 2703 903 2703 1303 
Q 2703 1709 2433 1975 
Q 2163 2241 1756 2241 
Q 1359 2241 1098 1978 
Q 838 1716 838 1322 
z
" transform="scale(0.015625)"/>
       </defs>
       <use xlink:href="#ArialMT-2212"/>
       <use xlink:href="#ArialMT-38" x="58.398438"/>
      </g>
     </g>
    </g>
    <g id="xtick_2">
     <g id="line2d_2">
      <g>
       <use xlink:href="#m959e624eee" x="128.538305" y="172.03874" style="stroke: #000000; stroke-width: 0.8"/>
      </g>
     </g>
     <g id="text_2">
      <!-- −6 -->
      <g transform="translate(123.692641 185.122881) scale(0.085 -0.085)">
       <defs>
        <path id="ArialMT-36" d="M 3184 3459 
L 2625 3416 
Q 2550 3747 2413 3897 
Q 2184 4138 1850 4138 
Q 1581 4138 1378 3988 
Q 1113 3794 959 3422 
Q 806 3050 800 2363 
Q 1003 2672 1297 2822 
Q 1591 2972 1913 2972 
Q 2475 2972 2870 2558 
Q 3266 2144 3266 1488 
Q 3266 1056 3080 686 
Q 2894 316 2569 119 
Q 2244 -78 1831 -78 
Q 1128 -78 684 439 
Q 241 956 241 2144 
Q 241 3472 731 4075 
Q 1159 4600 1884 4600 
Q 2425 4600 2770 4297 
Q 3116 3994 3184 3459 
z
M 888 1484 
Q 888 1194 1011 928 
Q 1134 663 1356 523 
Q 1578 384 1822 384 
Q 2178 384 2434 671 
Q 2691 959 2691 1453 
Q 2691 1928 2437 2201 
Q 2184 2475 1800 2475 
Q 1419 2475 1153 2201 
Q 888 1928 888 1484 
z
" transform="scale(0.015625)"/>
       </defs>
       <use xlink:href="#ArialMT-2212"/>
       <use xlink:href="#ArialMT-36" x="58.398438"/>
      </g>
     </g>
    </g>
    <g id="xtick_3">
     <g id="line2d_3">
      <g>
       <use xlink:href="#m959e624eee" x="174.123064" y="172.03874" style="stroke: #000000; stroke-width: 0.8"/>
      </g>
     </g>
     <g id="text_3">
      <!-- −4 -->
      <g transform="translate(169.277399 185.122881) scale(0.085 -0.085)">
       <defs>
        <path id="ArialMT-34" d="M 2069 0 
L 2069 1097 
L 81 1097 
L 81 1613 
L 2172 4581 
L 2631 4581 
L 2631 1613 
L 3250 1613 
L 3250 1097 
L 2631 1097 
L 2631 0 
L 2069 0 
z
M 2069 1613 
L 2069 3678 
L 634 1613 
L 2069 1613 
z
" transform="scale(0.015625)"/>
       </defs>
       <use xlink:href="#ArialMT-2212"/>
       <use xlink:href="#ArialMT-34" x="58.398438"/>
      </g>
     </g>
    </g>
    <g id="text_4">
     <!-- (A $\mathdefault{-}$ B) -->
     <g transform="translate(100.56957 197.017256) scale(0.085 -0.085)">
      <defs>
       <path id="ArialMT-28" d="M 1497 -1347 
Q 1031 -759 709 28 
Q 388 816 388 1659 
Q 388 2403 628 3084 
Q 909 3875 1497 4659 
L 1900 4659 
Q 1522 4009 1400 3731 
Q 1209 3300 1100 2831 
Q 966 2247 966 1656 
Q 966 153 1900 -1347 
L 1497 -1347 
z
" transform="scale(0.015625)"/>
       <path id="ArialMT-41" d="M -9 0 
L 1750 4581 
L 2403 4581 
L 4278 0 
L 3588 0 
L 3053 1388 
L 1138 1388 
L 634 0 
L -9 0 
z
M 1313 1881 
L 2866 1881 
L 2388 3150 
Q 2169 3728 2063 4100 
Q 1975 3659 1816 3225 
L 1313 1881 
z
" transform="scale(0.015625)"/>
       <path id="ArialMT-20" transform="scale(0.015625)"/>
       <path id="ArialMT-42" d="M 469 0 
L 469 4581 
L 2188 4581 
Q 2713 4581 3030 4442 
Q 3347 4303 3526 4014 
Q 3706 3725 3706 3409 
Q 3706 3116 3547 2856 
Q 3388 2597 3066 2438 
Q 3481 2316 3704 2022 
Q 3928 1728 3928 1328 
Q 3928 1006 3792 729 
Q 3656 453 3456 303 
Q 3256 153 2954 76 
Q 2653 0 2216 0 
L 469 0 
z
M 1075 2656 
L 2066 2656 
Q 2469 2656 2644 2709 
Q 2875 2778 2992 2937 
Q 3109 3097 3109 3338 
Q 3109 3566 3000 3739 
Q 2891 3913 2687 3977 
Q 2484 4041 1991 4041 
L 1075 4041 
L 1075 2656 
z
M 1075 541 
L 2216 541 
Q 2509 541 2628 563 
Q 2838 600 2978 687 
Q 3119 775 3209 942 
Q 3300 1109 3300 1328 
Q 3300 1584 3169 1773 
Q 3038 1963 2805 2039 
Q 2572 2116 2134 2116 
L 1075 2116 
L 1075 541 
z
" transform="scale(0.015625)"/>
       <path id="ArialMT-29" d="M 791 -1347 
L 388 -1347 
Q 1322 153 1322 1656 
Q 1322 2244 1188 2822 
Q 1081 3291 891 3722 
Q 769 4003 388 4659 
L 791 4659 
Q 1378 3875 1659 3084 
Q 1900 2403 1900 1659 
Q 1900 816 1576 28 
Q 1253 -759 791 -1347 
z
" transform="scale(0.015625)"/>
      </defs>
      <use xlink:href="#ArialMT-28" transform="translate(0 0.203125)"/>
      <use xlink:href="#ArialMT-41" transform="translate(33.300781 0.203125)"/>
      <use xlink:href="#ArialMT-20" transform="translate(100 0.203125)"/>
      <use xlink:href="#ArialMT-2212" transform="translate(127.783203 0.203125)"/>
      <use xlink:href="#ArialMT-20" transform="translate(186.181641 0.203125)"/>
      <use xlink:href="#ArialMT-42" transform="translate(213.964844 0.203125)"/>
      <use xlink:href="#ArialMT-29" transform="translate(280.664062 0.203125)"/>
     </g>
    </g>
    <g id="text_5">
     <!-- 1e−6 -->
     <g transform="translate(168.430702 195.896397) scale(0.085 -0.085)">
      <defs>
       <path id="ArialMT-31" d="M 2384 0 
L 1822 0 
L 1822 3584 
Q 1619 3391 1289 3197 
Q 959 3003 697 2906 
L 697 3450 
Q 1169 3672 1522 3987 
Q 1875 4303 2022 4600 
L 2384 4600 
L 2384 0 
z
" transform="scale(0.015625)"/>
       <path id="ArialMT-65" d="M 2694 1069 
L 3275 997 
Q 3138 488 2766 206 
Q 2394 -75 1816 -75 
Q 1088 -75 661 373 
Q 234 822 234 1631 
Q 234 2469 665 2931 
Q 1097 3394 1784 3394 
Q 2450 3394 2872 2941 
Q 3294 2488 3294 1666 
Q 3294 1616 3291 1516 
L 816 1516 
Q 847 969 1125 678 
Q 1403 388 1819 388 
Q 2128 388 2347 550 
Q 2566 713 2694 1069 
z
M 847 1978 
L 2700 1978 
Q 2663 2397 2488 2606 
Q 2219 2931 1791 2931 
Q 1403 2931 1139 2672 
Q 875 2413 847 1978 
z
" transform="scale(0.015625)"/>
      </defs>
      <use xlink:href="#ArialMT-31"/>
      <use xlink:href="#ArialMT-65" x="55.615234"/>
      <use xlink:href="#ArialMT-2212" x="111.230469"/>
      <use xlink:href="#ArialMT-36" x="169.628906"/>
     </g>
    </g>
   </g>
   <g id="matplotlib.axis_2">
    <g id="ytick_1">
     <g id="line2d_4">
      <defs>
       <path id="mb254db7007" d="M 0 0 
L -3.5 0 
" style="stroke: #000000; stroke-width: 0.8"/>
      </defs>
      <g>
       <use xlink:href="#mb254db7007" x="40.253516" y="172.03874" style="stroke: #000000; stroke-width: 0.8"/>
      </g>
     </g>
     <g id="text_6">
      <!-- 0 -->
      <g transform="translate(28.526719 175.080811) scale(0.085 -0.085)">
       <defs>
        <path id="ArialMT-30" d="M 266 2259 
Q 266 3072 433 3567 
Q 600 4063 929 4331 
Q 1259 4600 1759 4600 
Q 2128 4600 2406 4451 
Q 2684 4303 2865 4023 
Q 3047 3744 3150 3342 
Q 3253 2941 3253 2259 
Q 3253 1453 3087 958 
Q 2922 463 2592 192 
Q 2263 -78 1759 -78 
Q 1097 -78 719 397 
Q 266 969 266 2259 
z
M 844 2259 
Q 844 1131 1108 757 
Q 1372 384 1759 384 
Q 2147 384 2411 759 
Q 2675 1134 2675 2259 
Q 2675 3391 2411 3762 
Q 2147 4134 1753 4134 
Q 1366 4134 1134 3806 
Q 844 3388 844 2259 
z
" transform="scale(0.015625)"/>
       </defs>
       <use xlink:href="#ArialMT-30"/>
      </g>
     </g>
    </g>
    <g id="ytick_2">
     <g id="line2d_5">
      <g>
       <use xlink:href="#mb254db7007" x="40.253516" y="135.733706" style="stroke: #000000; stroke-width: 0.8"/>
      </g>
     </g>
     <g id="text_7">
      <!-- 50 -->
      <g transform="translate(23.799922 138.775776) scale(0.085 -0.085)">
       <defs>
        <path id="ArialMT-35" d="M 266 1200 
L 856 1250 
Q 922 819 1161 601 
Q 1400 384 1738 384 
Q 2144 384 2425 690 
Q 2706 997 2706 1503 
Q 2706 1984 2436 2262 
Q 2166 2541 1728 2541 
Q 1456 2541 1237 2417 
Q 1019 2294 894 2097 
L 366 2166 
L 809 4519 
L 3088 4519 
L 3088 3981 
L 1259 3981 
L 1013 2750 
Q 1425 3038 1878 3038 
Q 2478 3038 2890 2622 
Q 3303 2206 3303 1553 
Q 3303 931 2941 478 
Q 2500 -78 1738 -78 
Q 1113 -78 717 272 
Q 322 622 266 1200 
z
" transform="scale(0.015625)"/>
       </defs>
       <use xlink:href="#ArialMT-35"/>
       <use xlink:href="#ArialMT-30" x="55.615234"/>
      </g>
     </g>
    </g>
    <g id="ytick_3">
     <g id="line2d_6">
      <g>
       <use xlink:href="#mb254db7007" x="40.253516" y="99.428671" style="stroke: #000000; stroke-width: 0.8"/>
      </g>
     </g>
     <g id="text_8">
      <!-- 100 -->
      <g transform="translate(19.073125 102.470741) scale(0.085 -0.085)">
       <use xlink:href="#ArialMT-31"/>
       <use xlink:href="#ArialMT-30" x="55.615234"/>
       <use xlink:href="#ArialMT-30" x="111.230469"/>
      </g>
     </g>
    </g>
    <g id="ytick_4">
     <g id="line2d_7">
      <g>
       <use xlink:href="#mb254db7007" x="40.253516" y="63.123636" style="stroke: #000000; stroke-width: 0.8"/>
      </g>
     </g>
     <g id="text_9">
      <!-- 150 -->
      <g transform="translate(19.073125 66.165706) scale(0.085 -0.085)">
       <use xlink:href="#ArialMT-31"/>
       <use xlink:href="#ArialMT-35" x="55.615234"/>
       <use xlink:href="#ArialMT-30" x="111.230469"/>
      </g>
     </g>
    </g>
    <g id="ytick_5">
     <g id="line2d_8">
      <g>
       <use xlink:href="#mb254db7007" x="40.253516" y="26.818601" style="stroke: #000000; stroke-width: 0.8"/>
      </g>
     </g>
     <g id="text_10">
      <!-- 200 -->
      <g transform="translate(19.073125 29.860672) scale(0.085 -0.085)">
       <defs>
        <path id="ArialMT-32" d="M 3222 541 
L 3222 0 
L 194 0 
Q 188 203 259 391 
Q 375 700 629 1000 
Q 884 1300 1366 1694 
Q 2113 2306 2375 2664 
Q 2638 3022 2638 3341 
Q 2638 3675 2398 3904 
Q 2159 4134 1775 4134 
Q 1369 4134 1125 3890 
Q 881 3647 878 3216 
L 300 3275 
Q 359 3922 746 4261 
Q 1134 4600 1788 4600 
Q 2447 4600 2831 4234 
Q 3216 3869 3216 3328 
Q 3216 3053 3103 2787 
Q 2991 2522 2730 2228 
Q 2469 1934 1863 1422 
Q 1356 997 1212 845 
Q 1069 694 975 541 
L 3222 541 
z
" transform="scale(0.015625)"/>
       </defs>
       <use xlink:href="#ArialMT-32"/>
       <use xlink:href="#ArialMT-30" x="55.615234"/>
       <use xlink:href="#ArialMT-30" x="111.230469"/>
      </g>
     </g>
    </g>
    <g id="text_11">
     <!-- Frequency -->
     <g transform="translate(13.284141 116.2573) rotate(-90) scale(0.085 -0.085)">
      <defs>
       <path id="ArialMT-46" d="M 525 0 
L 525 4581 
L 3616 4581 
L 3616 4041 
L 1131 4041 
L 1131 2622 
L 3281 2622 
L 3281 2081 
L 1131 2081 
L 1131 0 
L 525 0 
z
" transform="scale(0.015625)"/>
       <path id="ArialMT-72" d="M 416 0 
L 416 3319 
L 922 3319 
L 922 2816 
Q 1116 3169 1280 3281 
Q 1444 3394 1641 3394 
Q 1925 3394 2219 3213 
L 2025 2691 
Q 1819 2813 1613 2813 
Q 1428 2813 1281 2702 
Q 1134 2591 1072 2394 
Q 978 2094 978 1738 
L 978 0 
L 416 0 
z
" transform="scale(0.015625)"/>
       <path id="ArialMT-71" d="M 2538 -1272 
L 2538 353 
Q 2406 169 2170 47 
Q 1934 -75 1669 -75 
Q 1078 -75 651 397 
Q 225 869 225 1691 
Q 225 2191 398 2587 
Q 572 2984 901 3189 
Q 1231 3394 1625 3394 
Q 2241 3394 2594 2875 
L 2594 3319 
L 3100 3319 
L 3100 -1272 
L 2538 -1272 
z
M 803 1669 
Q 803 1028 1072 708 
Q 1341 388 1716 388 
Q 2075 388 2334 692 
Q 2594 997 2594 1619 
Q 2594 2281 2320 2615 
Q 2047 2950 1678 2950 
Q 1313 2950 1058 2639 
Q 803 2328 803 1669 
z
" transform="scale(0.015625)"/>
       <path id="ArialMT-75" d="M 2597 0 
L 2597 488 
Q 2209 -75 1544 -75 
Q 1250 -75 995 37 
Q 741 150 617 320 
Q 494 491 444 738 
Q 409 903 409 1263 
L 409 3319 
L 972 3319 
L 972 1478 
Q 972 1038 1006 884 
Q 1059 663 1231 536 
Q 1403 409 1656 409 
Q 1909 409 2131 539 
Q 2353 669 2445 892 
Q 2538 1116 2538 1541 
L 2538 3319 
L 3100 3319 
L 3100 0 
L 2597 0 
z
" transform="scale(0.015625)"/>
       <path id="ArialMT-6e" d="M 422 0 
L 422 3319 
L 928 3319 
L 928 2847 
Q 1294 3394 1984 3394 
Q 2284 3394 2536 3286 
Q 2788 3178 2913 3003 
Q 3038 2828 3088 2588 
Q 3119 2431 3119 2041 
L 3119 0 
L 2556 0 
L 2556 2019 
Q 2556 2363 2490 2533 
Q 2425 2703 2258 2804 
Q 2091 2906 1866 2906 
Q 1506 2906 1245 2678 
Q 984 2450 984 1813 
L 984 0 
L 422 0 
z
" transform="scale(0.015625)"/>
       <path id="ArialMT-63" d="M 2588 1216 
L 3141 1144 
Q 3050 572 2676 248 
Q 2303 -75 1759 -75 
Q 1078 -75 664 370 
Q 250 816 250 1647 
Q 250 2184 428 2587 
Q 606 2991 970 3192 
Q 1334 3394 1763 3394 
Q 2303 3394 2647 3120 
Q 2991 2847 3088 2344 
L 2541 2259 
Q 2463 2594 2264 2762 
Q 2066 2931 1784 2931 
Q 1359 2931 1093 2626 
Q 828 2322 828 1663 
Q 828 994 1084 691 
Q 1341 388 1753 388 
Q 2084 388 2306 591 
Q 2528 794 2588 1216 
z
" transform="scale(0.015625)"/>
       <path id="ArialMT-79" d="M 397 -1278 
L 334 -750 
Q 519 -800 656 -800 
Q 844 -800 956 -737 
Q 1069 -675 1141 -563 
Q 1194 -478 1313 -144 
Q 1328 -97 1363 -6 
L 103 3319 
L 709 3319 
L 1400 1397 
Q 1534 1031 1641 628 
Q 1738 1016 1872 1384 
L 2581 3319 
L 3144 3319 
L 1881 -56 
Q 1678 -603 1566 -809 
Q 1416 -1088 1222 -1217 
Q 1028 -1347 759 -1347 
Q 597 -1347 397 -1278 
z
" transform="scale(0.015625)"/>
      </defs>
      <use xlink:href="#ArialMT-46"/>
      <use xlink:href="#ArialMT-72" x="61.083984"/>
      <use xlink:href="#ArialMT-65" x="94.384766"/>
      <use xlink:href="#ArialMT-71" x="150"/>
      <use xlink:href="#ArialMT-75" x="205.615234"/>
      <use xlink:href="#ArialMT-65" x="261.230469"/>
      <use xlink:href="#ArialMT-6e" x="316.845703"/>
      <use xlink:href="#ArialMT-63" x="372.460938"/>
      <use xlink:href="#ArialMT-79" x="422.460938"/>
     </g>
    </g>
   </g>
   <g id="patch_33">
    <path d="M 40.253516 172.03874 
L 40.253516 20.32 
" style="fill: none; stroke: #000000; stroke-width: 0.8; stroke-linejoin: miter; stroke-linecap: square"/>
   </g>
   <g id="patch_34">
    <path d="M 187.575624 172.03874 
L 187.575624 20.32 
" style="fill: none; stroke: #000000; stroke-width: 0.8; stroke-linejoin: miter; stroke-linecap: square"/>
   </g>
   <g id="patch_35">
    <path d="M 40.253516 172.03874 
L 187.575624 172.03874 
" style="fill: none; stroke: #000000; stroke-width: 0.8; stroke-linejoin: miter; stroke-linecap: square"/>
   </g>
   <g id="patch_36">
    <path d="M 40.253516 20.32 
L 187.575624 20.32 
" style="fill: none; stroke: #000000; stroke-width: 0.8; stroke-linejoin: miter; stroke-linecap: square"/>
   </g>
   <g id="text_12">
    <!-- P(A &gt; B): 0.00 -->
    <g transform="translate(46.1464 34.093671) scale(0.085 -0.085)">
     <defs>
      <path id="ArialMT-50" d="M 494 0 
L 494 4581 
L 2222 4581 
Q 2678 4581 2919 4538 
Q 3256 4481 3484 4323 
Q 3713 4166 3852 3881 
Q 3991 3597 3991 3256 
Q 3991 2672 3619 2267 
Q 3247 1863 2275 1863 
L 1100 1863 
L 1100 0 
L 494 0 
z
M 1100 2403 
L 2284 2403 
Q 2872 2403 3119 2622 
Q 3366 2841 3366 3238 
Q 3366 3525 3220 3729 
Q 3075 3934 2838 4000 
Q 2684 4041 2272 4041 
L 1100 4041 
L 1100 2403 
z
" transform="scale(0.015625)"/>
      <path id="ArialMT-3e" d="M 3384 2003 
L 350 706 
L 350 1266 
L 2753 2263 
L 350 3250 
L 350 3809 
L 3384 2528 
L 3384 2003 
z
" transform="scale(0.015625)"/>
      <path id="ArialMT-3a" d="M 578 2678 
L 578 3319 
L 1219 3319 
L 1219 2678 
L 578 2678 
z
M 578 0 
L 578 641 
L 1219 641 
L 1219 0 
L 578 0 
z
" transform="scale(0.015625)"/>
      <path id="ArialMT-2e" d="M 581 0 
L 581 641 
L 1222 641 
L 1222 0 
L 581 0 
z
" transform="scale(0.015625)"/>
     </defs>
     <use xlink:href="#ArialMT-50"/>
     <use xlink:href="#ArialMT-28" x="66.699219"/>
     <use xlink:href="#ArialMT-41" x="100"/>
     <use xlink:href="#ArialMT-20" x="161.199219"/>
     <use xlink:href="#ArialMT-3e" x="188.982422"/>
     <use xlink:href="#ArialMT-20" x="247.380859"/>
     <use xlink:href="#ArialMT-42" x="275.164062"/>
     <use xlink:href="#ArialMT-29" x="341.863281"/>
     <use xlink:href="#ArialMT-3a" x="375.164062"/>
     <use xlink:href="#ArialMT-20" x="402.947266"/>
     <use xlink:href="#ArialMT-30" x="430.730469"/>
     <use xlink:href="#ArialMT-2e" x="486.345703"/>
     <use xlink:href="#ArialMT-30" x="514.128906"/>
     <use xlink:href="#ArialMT-30" x="569.744141"/>
    </g>
   </g>
   <g id="text_13">
    <!-- Human health (DALY kg$^\mathdefault{-1}$) -->
    <g transform="translate(66.07457 14.32) scale(0.08 -0.08)">
     <defs>
      <path id="ArialMT-48" d="M 513 0 
L 513 4581 
L 1119 4581 
L 1119 2700 
L 3500 2700 
L 3500 4581 
L 4106 4581 
L 4106 0 
L 3500 0 
L 3500 2159 
L 1119 2159 
L 1119 0 
L 513 0 
z
" transform="scale(0.015625)"/>
      <path id="ArialMT-6d" d="M 422 0 
L 422 3319 
L 925 3319 
L 925 2853 
Q 1081 3097 1340 3245 
Q 1600 3394 1931 3394 
Q 2300 3394 2536 3241 
Q 2772 3088 2869 2813 
Q 3263 3394 3894 3394 
Q 4388 3394 4653 3120 
Q 4919 2847 4919 2278 
L 4919 0 
L 4359 0 
L 4359 2091 
Q 4359 2428 4304 2576 
Q 4250 2725 4106 2815 
Q 3963 2906 3769 2906 
Q 3419 2906 3187 2673 
Q 2956 2441 2956 1928 
L 2956 0 
L 2394 0 
L 2394 2156 
Q 2394 2531 2256 2718 
Q 2119 2906 1806 2906 
Q 1569 2906 1367 2781 
Q 1166 2656 1075 2415 
Q 984 2175 984 1722 
L 984 0 
L 422 0 
z
" transform="scale(0.015625)"/>
      <path id="ArialMT-61" d="M 2588 409 
Q 2275 144 1986 34 
Q 1697 -75 1366 -75 
Q 819 -75 525 192 
Q 231 459 231 875 
Q 231 1119 342 1320 
Q 453 1522 633 1644 
Q 813 1766 1038 1828 
Q 1203 1872 1538 1913 
Q 2219 1994 2541 2106 
Q 2544 2222 2544 2253 
Q 2544 2597 2384 2738 
Q 2169 2928 1744 2928 
Q 1347 2928 1158 2789 
Q 969 2650 878 2297 
L 328 2372 
Q 403 2725 575 2942 
Q 747 3159 1072 3276 
Q 1397 3394 1825 3394 
Q 2250 3394 2515 3294 
Q 2781 3194 2906 3042 
Q 3031 2891 3081 2659 
Q 3109 2516 3109 2141 
L 3109 1391 
Q 3109 606 3145 398 
Q 3181 191 3288 0 
L 2700 0 
Q 2613 175 2588 409 
z
M 2541 1666 
Q 2234 1541 1622 1453 
Q 1275 1403 1131 1340 
Q 988 1278 909 1158 
Q 831 1038 831 891 
Q 831 666 1001 516 
Q 1172 366 1500 366 
Q 1825 366 2078 508 
Q 2331 650 2450 897 
Q 2541 1088 2541 1459 
L 2541 1666 
z
" transform="scale(0.015625)"/>
      <path id="ArialMT-68" d="M 422 0 
L 422 4581 
L 984 4581 
L 984 2938 
Q 1378 3394 1978 3394 
Q 2347 3394 2619 3248 
Q 2891 3103 3008 2847 
Q 3125 2591 3125 2103 
L 3125 0 
L 2563 0 
L 2563 2103 
Q 2563 2525 2380 2717 
Q 2197 2909 1863 2909 
Q 1613 2909 1392 2779 
Q 1172 2650 1078 2428 
Q 984 2206 984 1816 
L 984 0 
L 422 0 
z
" transform="scale(0.015625)"/>
      <path id="ArialMT-6c" d="M 409 0 
L 409 4581 
L 972 4581 
L 972 0 
L 409 0 
z
" transform="scale(0.015625)"/>
      <path id="ArialMT-74" d="M 1650 503 
L 1731 6 
Q 1494 -44 1306 -44 
Q 1000 -44 831 53 
Q 663 150 594 308 
Q 525 466 525 972 
L 525 2881 
L 113 2881 
L 113 3319 
L 525 3319 
L 525 4141 
L 1084 4478 
L 1084 3319 
L 1650 3319 
L 1650 2881 
L 1084 2881 
L 1084 941 
Q 1084 700 1114 631 
Q 1144 563 1211 522 
Q 1278 481 1403 481 
Q 1497 481 1650 503 
z
" transform="scale(0.015625)"/>
      <path id="ArialMT-44" d="M 494 0 
L 494 4581 
L 2072 4581 
Q 2606 4581 2888 4516 
Q 3281 4425 3559 4188 
Q 3922 3881 4101 3404 
Q 4281 2928 4281 2316 
Q 4281 1794 4159 1391 
Q 4038 988 3847 723 
Q 3656 459 3429 307 
Q 3203 156 2883 78 
Q 2563 0 2147 0 
L 494 0 
z
M 1100 541 
L 2078 541 
Q 2531 541 2789 625 
Q 3047 709 3200 863 
Q 3416 1078 3536 1442 
Q 3656 1806 3656 2325 
Q 3656 3044 3420 3430 
Q 3184 3816 2847 3947 
Q 2603 4041 2063 4041 
L 1100 4041 
L 1100 541 
z
" transform="scale(0.015625)"/>
      <path id="ArialMT-4c" d="M 469 0 
L 469 4581 
L 1075 4581 
L 1075 541 
L 3331 541 
L 3331 0 
L 469 0 
z
" transform="scale(0.015625)"/>
      <path id="ArialMT-59" d="M 1784 0 
L 1784 1941 
L 19 4581 
L 756 4581 
L 1659 3200 
Q 1909 2813 2125 2425 
Q 2331 2784 2625 3234 
L 3513 4581 
L 4219 4581 
L 2391 1941 
L 2391 0 
L 1784 0 
z
" transform="scale(0.015625)"/>
      <path id="ArialMT-6b" d="M 425 0 
L 425 4581 
L 988 4581 
L 988 1969 
L 2319 3319 
L 3047 3319 
L 1778 2088 
L 3175 0 
L 2481 0 
L 1384 1697 
L 988 1316 
L 988 0 
L 425 0 
z
" transform="scale(0.015625)"/>
      <path id="ArialMT-67" d="M 319 -275 
L 866 -356 
Q 900 -609 1056 -725 
Q 1266 -881 1628 -881 
Q 2019 -881 2231 -725 
Q 2444 -569 2519 -288 
Q 2563 -116 2559 434 
Q 2191 0 1641 0 
Q 956 0 581 494 
Q 206 988 206 1678 
Q 206 2153 378 2554 
Q 550 2956 876 3175 
Q 1203 3394 1644 3394 
Q 2231 3394 2613 2919 
L 2613 3319 
L 3131 3319 
L 3131 450 
Q 3131 -325 2973 -648 
Q 2816 -972 2473 -1159 
Q 2131 -1347 1631 -1347 
Q 1038 -1347 672 -1080 
Q 306 -813 319 -275 
z
M 784 1719 
Q 784 1066 1043 766 
Q 1303 466 1694 466 
Q 2081 466 2343 764 
Q 2606 1063 2606 1700 
Q 2606 2309 2336 2618 
Q 2066 2928 1684 2928 
Q 1309 2928 1046 2623 
Q 784 2319 784 1719 
z
" transform="scale(0.015625)"/>
     </defs>
     <use xlink:href="#ArialMT-48" transform="translate(0 0.40625)"/>
     <use xlink:href="#ArialMT-75" transform="translate(72.216797 0.40625)"/>
     <use xlink:href="#ArialMT-6d" transform="translate(127.832031 0.40625)"/>
     <use xlink:href="#ArialMT-61" transform="translate(211.132812 0.40625)"/>
     <use xlink:href="#ArialMT-6e" transform="translate(266.748047 0.40625)"/>
     <use xlink:href="#ArialMT-20" transform="translate(322.363281 0.40625)"/>
     <use xlink:href="#ArialMT-68" transform="translate(350.146484 0.40625)"/>
     <use xlink:href="#ArialMT-65" transform="translate(405.761719 0.40625)"/>
     <use xlink:href="#ArialMT-61" transform="translate(461.376953 0.40625)"/>
     <use xlink:href="#ArialMT-6c" transform="translate(516.992188 0.40625)"/>
     <use xlink:href="#ArialMT-74" transform="translate(539.208984 0.40625)"/>
     <use xlink:href="#ArialMT-68" transform="translate(566.992188 0.40625)"/>
     <use xlink:href="#ArialMT-20" transform="translate(622.607422 0.40625)"/>
     <use xlink:href="#ArialMT-28" transform="translate(650.390625 0.40625)"/>
     <use xlink:href="#ArialMT-44" transform="translate(683.691406 0.40625)"/>
     <use xlink:href="#ArialMT-41" transform="translate(755.908203 0.40625)"/>
     <use xlink:href="#ArialMT-4c" transform="translate(822.607422 0.40625)"/>
     <use xlink:href="#ArialMT-59" transform="translate(878.222656 0.40625)"/>
     <use xlink:href="#ArialMT-20" transform="translate(944.921875 0.40625)"/>
     <use xlink:href="#ArialMT-6b" transform="translate(972.705078 0.40625)"/>
     <use xlink:href="#ArialMT-67" transform="translate(1022.705078 0.40625)"/>
     <use xlink:href="#ArialMT-2212" transform="translate(1079.277344 38.6875) scale(0.7)"/>
     <use xlink:href="#ArialMT-31" transform="translate(1120.15625 38.6875) scale(0.7)"/>
     <use xlink:href="#ArialMT-29" transform="translate(1161.821289 0.40625)"/>
    </g>
   </g>
  </g>
  <g id="axes_2">
   <g id="patch_37">
    <path d="M 200.255624 172.03874 
L 347.577732 172.03874 
L 347.577732 20.32 
L 200.255624 20.32 
z
" style="fill: #ffffff"/>
   </g>
   <g id="patch_38">
    <path d="M 206.952083 172.03874 
L 211.41639 172.03874 
L 211.41639 168.408237 
L 206.952083 168.408237 
z
" clip-path="url(#p8e9cc26c59)" style="fill: #7cc582; stroke: #414141; stroke-linejoin: miter"/>
   </g>
   <g id="patch_39">
    <path d="M 211.41639 172.03874 
L 215.880696 172.03874 
L 215.880696 169.860438 
L 211.41639 169.860438 
z
" clip-path="url(#p8e9cc26c59)" style="fill: #7cc582; stroke: #414141; stroke-linejoin: miter"/>
   </g>
   <g id="patch_40">
    <path d="M 215.880696 172.03874 
L 220.345002 172.03874 
L 220.345002 169.860438 
L 215.880696 169.860438 
z
" clip-path="url(#p8e9cc26c59)" style="fill: #7cc582; stroke: #414141; stroke-linejoin: miter"/>
   </g>
   <g id="patch_41">
    <path d="M 220.345002 172.03874 
L 224.809308 172.03874 
L 224.809308 169.134338 
L 220.345002 169.134338 
z
" clip-path="url(#p8e9cc26c59)" style="fill: #7cc582; stroke: #414141; stroke-linejoin: miter"/>
   </g>
   <g id="patch_42">
    <path d="M 224.809308 172.03874 
L 229.273615 172.03874 
L 229.273615 166.229935 
L 224.809308 166.229935 
z
" clip-path="url(#p8e9cc26c59)" style="fill: #7cc582; stroke: #414141; stroke-linejoin: miter"/>
   </g>
   <g id="patch_43">
    <path d="M 229.273615 172.03874 
L 233.737921 172.03874 
L 233.737921 168.408237 
L 229.273615 168.408237 
z
" clip-path="url(#p8e9cc26c59)" style="fill: #7cc582; stroke: #414141; stroke-linejoin: miter"/>
   </g>
   <g id="patch_44">
    <path d="M 233.737921 172.03874 
L 238.202227 172.03874 
L 238.202227 159.695029 
L 233.737921 159.695029 
z
" clip-path="url(#p8e9cc26c59)" style="fill: #7cc582; stroke: #414141; stroke-linejoin: miter"/>
   </g>
   <g id="patch_45">
    <path d="M 238.202227 172.03874 
L 242.666534 172.03874 
L 242.666534 161.873331 
L 238.202227 161.873331 
z
" clip-path="url(#p8e9cc26c59)" style="fill: #7cc582; stroke: #414141; stroke-linejoin: miter"/>
   </g>
   <g id="patch_46">
    <path d="M 242.666534 172.03874 
L 247.13084 172.03874 
L 247.13084 147.351317 
L 242.666534 147.351317 
z
" clip-path="url(#p8e9cc26c59)" style="fill: #7cc582; stroke: #414141; stroke-linejoin: miter"/>
   </g>
   <g id="patch_47">
    <path d="M 247.13084 172.03874 
L 251.595146 172.03874 
L 251.595146 141.542511 
L 247.13084 141.542511 
z
" clip-path="url(#p8e9cc26c59)" style="fill: #7cc582; stroke: #414141; stroke-linejoin: miter"/>
   </g>
   <g id="patch_48">
    <path d="M 251.595146 172.03874 
L 256.059453 172.03874 
L 256.059453 137.912008 
L 251.595146 137.912008 
z
" clip-path="url(#p8e9cc26c59)" style="fill: #7cc582; stroke: #414141; stroke-linejoin: miter"/>
   </g>
   <g id="patch_49">
    <path d="M 256.059453 172.03874 
L 260.523759 172.03874 
L 260.523759 134.281504 
L 256.059453 134.281504 
z
" clip-path="url(#p8e9cc26c59)" style="fill: #7cc582; stroke: #414141; stroke-linejoin: miter"/>
   </g>
   <g id="patch_50">
    <path d="M 260.523759 172.03874 
L 264.988065 172.03874 
L 264.988065 123.389994 
L 260.523759 123.389994 
z
" clip-path="url(#p8e9cc26c59)" style="fill: #7cc582; stroke: #414141; stroke-linejoin: miter"/>
   </g>
   <g id="patch_51">
    <path d="M 264.988065 172.03874 
L 269.452372 172.03874 
L 269.452372 105.963577 
L 264.988065 105.963577 
z
" clip-path="url(#p8e9cc26c59)" style="fill: #7cc582; stroke: #414141; stroke-linejoin: miter"/>
   </g>
   <g id="patch_52">
    <path d="M 269.452372 172.03874 
L 273.916678 172.03874 
L 273.916678 105.963577 
L 269.452372 105.963577 
z
" clip-path="url(#p8e9cc26c59)" style="fill: #7cc582; stroke: #414141; stroke-linejoin: miter"/>
   </g>
   <g id="patch_53">
    <path d="M 273.916678 172.03874 
L 278.380984 172.03874 
L 278.380984 110.320181 
L 273.916678 110.320181 
z
" clip-path="url(#p8e9cc26c59)" style="fill: #7cc582; stroke: #414141; stroke-linejoin: miter"/>
   </g>
   <g id="patch_54">
    <path d="M 278.380984 172.03874 
L 282.84529 172.03874 
L 282.84529 113.224584 
L 278.380984 113.224584 
z
" clip-path="url(#p8e9cc26c59)" style="fill: #7cc582; stroke: #414141; stroke-linejoin: miter"/>
   </g>
   <g id="patch_55">
    <path d="M 282.84529 172.03874 
L 287.309597 172.03874 
L 287.309597 110.320181 
L 282.84529 110.320181 
z
" clip-path="url(#p8e9cc26c59)" style="fill: #7cc582; stroke: #414141; stroke-linejoin: miter"/>
   </g>
   <g id="patch_56">
    <path d="M 287.309597 172.03874 
L 291.773903 172.03874 
L 291.773903 113.224584 
L 287.309597 113.224584 
z
" clip-path="url(#p8e9cc26c59)" style="fill: #7cc582; stroke: #414141; stroke-linejoin: miter"/>
   </g>
   <g id="patch_57">
    <path d="M 291.773903 172.03874 
L 296.238209 172.03874 
L 296.238209 135.007605 
L 291.773903 135.007605 
z
" clip-path="url(#p8e9cc26c59)" style="fill: #7cc582; stroke: #414141; stroke-linejoin: miter"/>
   </g>
   <g id="patch_58">
    <path d="M 296.238209 172.03874 
L 300.702516 172.03874 
L 300.702516 143.720813 
L 296.238209 143.720813 
z
" clip-path="url(#p8e9cc26c59)" style="fill: #7cc582; stroke: #414141; stroke-linejoin: miter"/>
   </g>
   <g id="patch_59">
    <path d="M 300.702516 172.03874 
L 305.166822 172.03874 
L 305.166822 144.446914 
L 300.702516 144.446914 
z
" clip-path="url(#p8e9cc26c59)" style="fill: #7cc582; stroke: #414141; stroke-linejoin: miter"/>
   </g>
   <g id="patch_60">
    <path d="M 305.166822 172.03874 
L 309.631128 172.03874 
L 309.631128 158.242827 
L 305.166822 158.242827 
z
" clip-path="url(#p8e9cc26c59)" style="fill: #7cc582; stroke: #414141; stroke-linejoin: miter"/>
   </g>
   <g id="patch_61">
    <path d="M 309.631128 172.03874 
L 314.095435 172.03874 
L 314.095435 164.051633 
L 309.631128 164.051633 
z
" clip-path="url(#p8e9cc26c59)" style="fill: #7cc582; stroke: #414141; stroke-linejoin: miter"/>
   </g>
   <g id="patch_62">
    <path d="M 314.095435 172.03874 
L 318.559741 172.03874 
L 318.559741 164.777733 
L 314.095435 164.777733 
z
" clip-path="url(#p8e9cc26c59)" style="fill: #7cc582; stroke: #414141; stroke-linejoin: miter"/>
   </g>
   <g id="patch_63">
    <path d="M 318.559741 172.03874 
L 323.024047 172.03874 
L 323.024047 166.956036 
L 318.559741 166.956036 
z
" clip-path="url(#p8e9cc26c59)" style="fill: #7cc582; stroke: #414141; stroke-linejoin: miter"/>
   </g>
   <g id="patch_64">
    <path d="M 323.024047 172.03874 
L 327.488353 172.03874 
L 327.488353 169.134338 
L 323.024047 169.134338 
z
" clip-path="url(#p8e9cc26c59)" style="fill: #7cc582; stroke: #414141; stroke-linejoin: miter"/>
   </g>
   <g id="patch_65">
    <path d="M 327.488353 172.03874 
L 331.95266 172.03874 
L 331.95266 170.586539 
L 327.488353 170.586539 
z
" clip-path="url(#p8e9cc26c59)" style="fill: #7cc582; stroke: #414141; stroke-linejoin: miter"/>
   </g>
   <g id="patch_66">
    <path d="M 331.95266 172.03874 
L 336.416966 172.03874 
L 336.416966 170.586539 
L 331.95266 170.586539 
z
" clip-path="url(#p8e9cc26c59)" style="fill: #7cc582; stroke: #414141; stroke-linejoin: miter"/>
   </g>
   <g id="patch_67">
    <path d="M 336.416966 172.03874 
L 340.881272 172.03874 
L 340.881272 170.586539 
L 336.416966 170.586539 
z
" clip-path="url(#p8e9cc26c59)" style="fill: #7cc582; stroke: #414141; stroke-linejoin: miter"/>
   </g>
   <g id="matplotlib.axis_3">
    <g id="xtick_4">
     <g id="line2d_9">
      <g>
       <use xlink:href="#m959e624eee" x="215.040591" y="172.03874" style="stroke: #000000; stroke-width: 0.8"/>
      </g>
     </g>
     <g id="text_14">
      <!-- −2.0 -->
      <g transform="translate(206.650826 185.122881) scale(0.085 -0.085)">
       <use xlink:href="#ArialMT-2212"/>
       <use xlink:href="#ArialMT-32" x="58.398438"/>
       <use xlink:href="#ArialMT-2e" x="114.013672"/>
       <use xlink:href="#ArialMT-30" x="141.796875"/>
      </g>
     </g>
    </g>
    <g id="xtick_5">
     <g id="line2d_10">
      <g>
       <use xlink:href="#m959e624eee" x="253.540877" y="172.03874" style="stroke: #000000; stroke-width: 0.8"/>
      </g>
     </g>
     <g id="text_15">
      <!-- −1.8 -->
      <g transform="translate(245.151111 185.122881) scale(0.085 -0.085)">
       <use xlink:href="#ArialMT-2212"/>
       <use xlink:href="#ArialMT-31" x="58.398438"/>
       <use xlink:href="#ArialMT-2e" x="114.013672"/>
       <use xlink:href="#ArialMT-38" x="141.796875"/>
      </g>
     </g>
    </g>
    <g id="xtick_6">
     <g id="line2d_11">
      <g>
       <use xlink:href="#m959e624eee" x="292.041162" y="172.03874" style="stroke: #000000; stroke-width: 0.8"/>
      </g>
     </g>
     <g id="text_16">
      <!-- −1.6 -->
      <g transform="translate(283.651396 185.122881) scale(0.085 -0.085)">
       <use xlink:href="#ArialMT-2212"/>
       <use xlink:href="#ArialMT-31" x="58.398438"/>
       <use xlink:href="#ArialMT-2e" x="114.013672"/>
       <use xlink:href="#ArialMT-36" x="141.796875"/>
      </g>
     </g>
    </g>
    <g id="xtick_7">
     <g id="line2d_12">
      <g>
       <use xlink:href="#m959e624eee" x="330.541447" y="172.03874" style="stroke: #000000; stroke-width: 0.8"/>
      </g>
     </g>
     <g id="text_17">
      <!-- −1.4 -->
      <g transform="translate(322.151682 185.122881) scale(0.085 -0.085)">
       <use xlink:href="#ArialMT-2212"/>
       <use xlink:href="#ArialMT-31" x="58.398438"/>
       <use xlink:href="#ArialMT-2e" x="114.013672"/>
       <use xlink:href="#ArialMT-34" x="141.796875"/>
      </g>
     </g>
    </g>
    <g id="text_18">
     <!-- (A $\mathdefault{-}$ B) -->
     <g transform="translate(260.571678 197.017256) scale(0.085 -0.085)">
      <use xlink:href="#ArialMT-28" transform="translate(0 0.203125)"/>
      <use xlink:href="#ArialMT-41" transform="translate(33.300781 0.203125)"/>
      <use xlink:href="#ArialMT-20" transform="translate(100 0.203125)"/>
      <use xlink:href="#ArialMT-2212" transform="translate(127.783203 0.203125)"/>
      <use xlink:href="#ArialMT-20" transform="translate(186.181641 0.203125)"/>
      <use xlink:href="#ArialMT-42" transform="translate(213.964844 0.203125)"/>
      <use xlink:href="#ArialMT-29" transform="translate(280.664062 0.203125)"/>
     </g>
    </g>
    <g id="text_19">
     <!-- 1e−8 -->
     <g transform="translate(328.43281 195.896397) scale(0.085 -0.085)">
      <use xlink:href="#ArialMT-31"/>
      <use xlink:href="#ArialMT-65" x="55.615234"/>
      <use xlink:href="#ArialMT-2212" x="111.230469"/>
      <use xlink:href="#ArialMT-38" x="169.628906"/>
     </g>
    </g>
   </g>
   <g id="matplotlib.axis_4">
    <g id="ytick_6">
     <g id="line2d_13">
      <g>
       <use xlink:href="#mb254db7007" x="200.255624" y="172.03874" style="stroke: #000000; stroke-width: 0.8"/>
      </g>
     </g>
    </g>
    <g id="ytick_7">
     <g id="line2d_14">
      <g>
       <use xlink:href="#mb254db7007" x="200.255624" y="135.733706" style="stroke: #000000; stroke-width: 0.8"/>
      </g>
     </g>
    </g>
    <g id="ytick_8">
     <g id="line2d_15">
      <g>
       <use xlink:href="#mb254db7007" x="200.255624" y="99.428671" style="stroke: #000000; stroke-width: 0.8"/>
      </g>
     </g>
    </g>
    <g id="ytick_9">
     <g id="line2d_16">
      <g>
       <use xlink:href="#mb254db7007" x="200.255624" y="63.123636" style="stroke: #000000; stroke-width: 0.8"/>
      </g>
     </g>
    </g>
    <g id="ytick_10">
     <g id="line2d_17">
      <g>
       <use xlink:href="#mb254db7007" x="200.255624" y="26.818601" style="stroke: #000000; stroke-width: 0.8"/>
      </g>
     </g>
    </g>
   </g>
   <g id="patch_68">
    <path d="M 200.255624 172.03874 
L 200.255624 20.32 
" style="fill: none; stroke: #000000; stroke-width: 0.8; stroke-linejoin: miter; stroke-linecap: square"/>
   </g>
   <g id="patch_69">
    <path d="M 347.577732 172.03874 
L 347.577732 20.32 
" style="fill: none; stroke: #000000; stroke-width: 0.8; stroke-linejoin: miter; stroke-linecap: square"/>
   </g>
   <g id="patch_70">
    <path d="M 200.255624 172.03874 
L 347.577732 172.03874 
" style="fill: none; stroke: #000000; stroke-width: 0.8; stroke-linejoin: miter; stroke-linecap: square"/>
   </g>
   <g id="patch_71">
    <path d="M 200.255624 20.32 
L 347.577732 20.32 
" style="fill: none; stroke: #000000; stroke-width: 0.8; stroke-linejoin: miter; stroke-linecap: square"/>
   </g>
   <g id="text_20">
    <!-- P(A &gt; B): 0.00 -->
    <g transform="translate(206.148508 34.093671) scale(0.085 -0.085)">
     <use xlink:href="#ArialMT-50"/>
     <use xlink:href="#ArialMT-28" x="66.699219"/>
     <use xlink:href="#ArialMT-41" x="100"/>
     <use xlink:href="#ArialMT-20" x="161.199219"/>
     <use xlink:href="#ArialMT-3e" x="188.982422"/>
     <use xlink:href="#ArialMT-20" x="247.380859"/>
     <use xlink:href="#ArialMT-42" x="275.164062"/>
     <use xlink:href="#ArialMT-29" x="341.863281"/>
     <use xlink:href="#ArialMT-3a" x="375.164062"/>
     <use xlink:href="#ArialMT-20" x="402.947266"/>
     <use xlink:href="#ArialMT-30" x="430.730469"/>
     <use xlink:href="#ArialMT-2e" x="486.345703"/>
     <use xlink:href="#ArialMT-30" x="514.128906"/>
     <use xlink:href="#ArialMT-30" x="569.744141"/>
    </g>
   </g>
   <g id="text_21">
    <!-- Ecosystem quality (species.yr kg$^\mathdefault{-1}$) -->
    <g transform="translate(211.196678 14.32) scale(0.08 -0.08)">
     <defs>
      <path id="ArialMT-45" d="M 506 0 
L 506 4581 
L 3819 4581 
L 3819 4041 
L 1113 4041 
L 1113 2638 
L 3647 2638 
L 3647 2100 
L 1113 2100 
L 1113 541 
L 3925 541 
L 3925 0 
L 506 0 
z
" transform="scale(0.015625)"/>
      <path id="ArialMT-6f" d="M 213 1659 
Q 213 2581 725 3025 
Q 1153 3394 1769 3394 
Q 2453 3394 2887 2945 
Q 3322 2497 3322 1706 
Q 3322 1066 3130 698 
Q 2938 331 2570 128 
Q 2203 -75 1769 -75 
Q 1072 -75 642 372 
Q 213 819 213 1659 
z
M 791 1659 
Q 791 1022 1069 705 
Q 1347 388 1769 388 
Q 2188 388 2466 706 
Q 2744 1025 2744 1678 
Q 2744 2294 2464 2611 
Q 2184 2928 1769 2928 
Q 1347 2928 1069 2612 
Q 791 2297 791 1659 
z
" transform="scale(0.015625)"/>
      <path id="ArialMT-73" d="M 197 991 
L 753 1078 
Q 800 744 1014 566 
Q 1228 388 1613 388 
Q 2000 388 2187 545 
Q 2375 703 2375 916 
Q 2375 1106 2209 1216 
Q 2094 1291 1634 1406 
Q 1016 1563 777 1677 
Q 538 1791 414 1992 
Q 291 2194 291 2438 
Q 291 2659 392 2848 
Q 494 3038 669 3163 
Q 800 3259 1026 3326 
Q 1253 3394 1513 3394 
Q 1903 3394 2198 3281 
Q 2494 3169 2634 2976 
Q 2775 2784 2828 2463 
L 2278 2388 
Q 2241 2644 2061 2787 
Q 1881 2931 1553 2931 
Q 1166 2931 1000 2803 
Q 834 2675 834 2503 
Q 834 2394 903 2306 
Q 972 2216 1119 2156 
Q 1203 2125 1616 2013 
Q 2213 1853 2448 1751 
Q 2684 1650 2818 1456 
Q 2953 1263 2953 975 
Q 2953 694 2789 445 
Q 2625 197 2315 61 
Q 2006 -75 1616 -75 
Q 969 -75 630 194 
Q 291 463 197 991 
z
" transform="scale(0.015625)"/>
      <path id="ArialMT-69" d="M 425 3934 
L 425 4581 
L 988 4581 
L 988 3934 
L 425 3934 
z
M 425 0 
L 425 3319 
L 988 3319 
L 988 0 
L 425 0 
z
" transform="scale(0.015625)"/>
      <path id="ArialMT-70" d="M 422 -1272 
L 422 3319 
L 934 3319 
L 934 2888 
Q 1116 3141 1344 3267 
Q 1572 3394 1897 3394 
Q 2322 3394 2647 3175 
Q 2972 2956 3137 2557 
Q 3303 2159 3303 1684 
Q 3303 1175 3120 767 
Q 2938 359 2589 142 
Q 2241 -75 1856 -75 
Q 1575 -75 1351 44 
Q 1128 163 984 344 
L 984 -1272 
L 422 -1272 
z
M 931 1641 
Q 931 1000 1190 694 
Q 1450 388 1819 388 
Q 2194 388 2461 705 
Q 2728 1022 2728 1688 
Q 2728 2322 2467 2637 
Q 2206 2953 1844 2953 
Q 1484 2953 1207 2617 
Q 931 2281 931 1641 
z
" transform="scale(0.015625)"/>
     </defs>
     <use xlink:href="#ArialMT-45" transform="translate(0 0.40625)"/>
     <use xlink:href="#ArialMT-63" transform="translate(66.699219 0.40625)"/>
     <use xlink:href="#ArialMT-6f" transform="translate(116.699219 0.40625)"/>
     <use xlink:href="#ArialMT-73" transform="translate(172.314453 0.40625)"/>
     <use xlink:href="#ArialMT-79" transform="translate(222.314453 0.40625)"/>
     <use xlink:href="#ArialMT-73" transform="translate(272.314453 0.40625)"/>
     <use xlink:href="#ArialMT-74" transform="translate(322.314453 0.40625)"/>
     <use xlink:href="#ArialMT-65" transform="translate(350.097656 0.40625)"/>
     <use xlink:href="#ArialMT-6d" transform="translate(405.712891 0.40625)"/>
     <use xlink:href="#ArialMT-20" transform="translate(489.013672 0.40625)"/>
     <use xlink:href="#ArialMT-71" transform="translate(516.796875 0.40625)"/>
     <use xlink:href="#ArialMT-75" transform="translate(572.412109 0.40625)"/>
     <use xlink:href="#ArialMT-61" transform="translate(628.027344 0.40625)"/>
     <use xlink:href="#ArialMT-6c" transform="translate(683.642578 0.40625)"/>
     <use xlink:href="#ArialMT-69" transform="translate(705.859375 0.40625)"/>
     <use xlink:href="#ArialMT-74" transform="translate(728.076172 0.40625)"/>
     <use xlink:href="#ArialMT-79" transform="translate(755.859375 0.40625)"/>
     <use xlink:href="#ArialMT-20" transform="translate(805.859375 0.40625)"/>
     <use xlink:href="#ArialMT-28" transform="translate(833.642578 0.40625)"/>
     <use xlink:href="#ArialMT-73" transform="translate(866.943359 0.40625)"/>
     <use xlink:href="#ArialMT-70" transform="translate(916.943359 0.40625)"/>
     <use xlink:href="#ArialMT-65" transform="translate(972.558594 0.40625)"/>
     <use xlink:href="#ArialMT-63" transform="translate(1028.173828 0.40625)"/>
     <use xlink:href="#ArialMT-69" transform="translate(1078.173828 0.40625)"/>
     <use xlink:href="#ArialMT-65" transform="translate(1100.390625 0.40625)"/>
     <use xlink:href="#ArialMT-73" transform="translate(1156.005859 0.40625)"/>
     <use xlink:href="#ArialMT-2e" transform="translate(1206.005859 0.40625)"/>
     <use xlink:href="#ArialMT-79" transform="translate(1233.789062 0.40625)"/>
     <use xlink:href="#ArialMT-72" transform="translate(1283.789062 0.40625)"/>
     <use xlink:href="#ArialMT-20" transform="translate(1317.089844 0.40625)"/>
     <use xlink:href="#ArialMT-6b" transform="translate(1344.873047 0.40625)"/>
     <use xlink:href="#ArialMT-67" transform="translate(1394.873047 0.40625)"/>
     <use xlink:href="#ArialMT-2212" transform="translate(1451.445312 38.6875) scale(0.7)"/>
     <use xlink:href="#ArialMT-31" transform="translate(1492.324219 38.6875) scale(0.7)"/>
     <use xlink:href="#ArialMT-29" transform="translate(1533.989258 0.40625)"/>
    </g>
   </g>
  </g>
  <g id="axes_3">
   <g id="patch_72">
    <path d="M 360.257732 172.03874 
L 507.57984 172.03874 
L 507.57984 20.32 
L 360.257732 20.32 
z
" style="fill: #ffffff"/>
   </g>
   <g id="patch_73">
    <path d="M 366.954191 172.03874 
L 371.418498 172.03874 
L 371.418498 170.586539 
L 366.954191 170.586539 
z
" clip-path="url(#pc10e87aca1)" style="fill: #7cc582; stroke: #414141; stroke-linejoin: miter"/>
   </g>
   <g id="patch_74">
    <path d="M 371.418498 172.03874 
L 375.882804 172.03874 
L 375.882804 171.31264 
L 371.418498 171.31264 
z
" clip-path="url(#pc10e87aca1)" style="fill: #7cc582; stroke: #414141; stroke-linejoin: miter"/>
   </g>
   <g id="patch_75">
    <path d="M 375.882804 172.03874 
L 380.34711 172.03874 
L 380.34711 172.03874 
L 375.882804 172.03874 
z
" clip-path="url(#pc10e87aca1)" style="fill: #7cc582; stroke: #414141; stroke-linejoin: miter"/>
   </g>
   <g id="patch_76">
    <path d="M 380.34711 172.03874 
L 384.811417 172.03874 
L 384.811417 171.31264 
L 380.34711 171.31264 
z
" clip-path="url(#pc10e87aca1)" style="fill: #7cc582; stroke: #414141; stroke-linejoin: miter"/>
   </g>
   <g id="patch_77">
    <path d="M 384.811417 172.03874 
L 389.275723 172.03874 
L 389.275723 169.860438 
L 384.811417 169.860438 
z
" clip-path="url(#pc10e87aca1)" style="fill: #7cc582; stroke: #414141; stroke-linejoin: miter"/>
   </g>
   <g id="patch_78">
    <path d="M 389.275723 172.03874 
L 393.740029 172.03874 
L 393.740029 169.860438 
L 389.275723 169.860438 
z
" clip-path="url(#pc10e87aca1)" style="fill: #7cc582; stroke: #414141; stroke-linejoin: miter"/>
   </g>
   <g id="patch_79">
    <path d="M 393.740029 172.03874 
L 398.204335 172.03874 
L 398.204335 169.134338 
L 393.740029 169.134338 
z
" clip-path="url(#pc10e87aca1)" style="fill: #7cc582; stroke: #414141; stroke-linejoin: miter"/>
   </g>
   <g id="patch_80">
    <path d="M 398.204335 172.03874 
L 402.668642 172.03874 
L 402.668642 166.956036 
L 398.204335 166.956036 
z
" clip-path="url(#pc10e87aca1)" style="fill: #7cc582; stroke: #414141; stroke-linejoin: miter"/>
   </g>
   <g id="patch_81">
    <path d="M 402.668642 172.03874 
L 407.132948 172.03874 
L 407.132948 160.421129 
L 402.668642 160.421129 
z
" clip-path="url(#pc10e87aca1)" style="fill: #7cc582; stroke: #414141; stroke-linejoin: miter"/>
   </g>
   <g id="patch_82">
    <path d="M 407.132948 172.03874 
L 411.597254 172.03874 
L 411.597254 161.873331 
L 407.132948 161.873331 
z
" clip-path="url(#pc10e87aca1)" style="fill: #7cc582; stroke: #414141; stroke-linejoin: miter"/>
   </g>
   <g id="patch_83">
    <path d="M 411.597254 172.03874 
L 416.061561 172.03874 
L 416.061561 159.695029 
L 411.597254 159.695029 
z
" clip-path="url(#pc10e87aca1)" style="fill: #7cc582; stroke: #414141; stroke-linejoin: miter"/>
   </g>
   <g id="patch_84">
    <path d="M 416.061561 172.03874 
L 420.525867 172.03874 
L 420.525867 150.98182 
L 416.061561 150.98182 
z
" clip-path="url(#pc10e87aca1)" style="fill: #7cc582; stroke: #414141; stroke-linejoin: miter"/>
   </g>
   <g id="patch_85">
    <path d="M 420.525867 172.03874 
L 424.990173 172.03874 
L 424.990173 137.185907 
L 420.525867 137.185907 
z
" clip-path="url(#pc10e87aca1)" style="fill: #7cc582; stroke: #414141; stroke-linejoin: miter"/>
   </g>
   <g id="patch_86">
    <path d="M 424.990173 172.03874 
L 429.45448 172.03874 
L 429.45448 135.733706 
L 424.990173 135.733706 
z
" clip-path="url(#pc10e87aca1)" style="fill: #7cc582; stroke: #414141; stroke-linejoin: miter"/>
   </g>
   <g id="patch_87">
    <path d="M 429.45448 172.03874 
L 433.918786 172.03874 
L 433.918786 130.651001 
L 429.45448 130.651001 
z
" clip-path="url(#pc10e87aca1)" style="fill: #7cc582; stroke: #414141; stroke-linejoin: miter"/>
   </g>
   <g id="patch_88">
    <path d="M 433.918786 172.03874 
L 438.383092 172.03874 
L 438.383092 104.511376 
L 433.918786 104.511376 
z
" clip-path="url(#pc10e87aca1)" style="fill: #7cc582; stroke: #414141; stroke-linejoin: miter"/>
   </g>
   <g id="patch_89">
    <path d="M 438.383092 172.03874 
L 442.847399 172.03874 
L 442.847399 110.320181 
L 438.383092 110.320181 
z
" clip-path="url(#pc10e87aca1)" style="fill: #7cc582; stroke: #414141; stroke-linejoin: miter"/>
   </g>
   <g id="patch_90">
    <path d="M 442.847399 172.03874 
L 447.311705 172.03874 
L 447.311705 93.619865 
L 442.847399 93.619865 
z
" clip-path="url(#pc10e87aca1)" style="fill: #7cc582; stroke: #414141; stroke-linejoin: miter"/>
   </g>
   <g id="patch_91">
    <path d="M 447.311705 172.03874 
L 451.776011 172.03874 
L 451.776011 92.167664 
L 447.311705 92.167664 
z
" clip-path="url(#pc10e87aca1)" style="fill: #7cc582; stroke: #414141; stroke-linejoin: miter"/>
   </g>
   <g id="patch_92">
    <path d="M 451.776011 172.03874 
L 456.240317 172.03874 
L 456.240317 104.511376 
L 451.776011 104.511376 
z
" clip-path="url(#pc10e87aca1)" style="fill: #7cc582; stroke: #414141; stroke-linejoin: miter"/>
   </g>
   <g id="patch_93">
    <path d="M 456.240317 172.03874 
L 460.704624 172.03874 
L 460.704624 105.237476 
L 456.240317 105.237476 
z
" clip-path="url(#pc10e87aca1)" style="fill: #7cc582; stroke: #414141; stroke-linejoin: miter"/>
   </g>
   <g id="patch_94">
    <path d="M 460.704624 172.03874 
L 465.16893 172.03874 
L 465.16893 120.485591 
L 460.704624 120.485591 
z
" clip-path="url(#pc10e87aca1)" style="fill: #7cc582; stroke: #414141; stroke-linejoin: miter"/>
   </g>
   <g id="patch_95">
    <path d="M 465.16893 172.03874 
L 469.633236 172.03874 
L 469.633236 140.81641 
L 465.16893 140.81641 
z
" clip-path="url(#pc10e87aca1)" style="fill: #7cc582; stroke: #414141; stroke-linejoin: miter"/>
   </g>
   <g id="patch_96">
    <path d="M 469.633236 172.03874 
L 474.097543 172.03874 
L 474.097543 148.803518 
L 469.633236 148.803518 
z
" clip-path="url(#pc10e87aca1)" style="fill: #7cc582; stroke: #414141; stroke-linejoin: miter"/>
   </g>
   <g id="patch_97">
    <path d="M 474.097543 172.03874 
L 478.561849 172.03874 
L 478.561849 166.229935 
L 474.097543 166.229935 
z
" clip-path="url(#pc10e87aca1)" style="fill: #7cc582; stroke: #414141; stroke-linejoin: miter"/>
   </g>
   <g id="patch_98">
    <path d="M 478.561849 172.03874 
L 483.026155 172.03874 
L 483.026155 166.956036 
L 478.561849 166.956036 
z
" clip-path="url(#pc10e87aca1)" style="fill: #7cc582; stroke: #414141; stroke-linejoin: miter"/>
   </g>
   <g id="patch_99">
    <path d="M 483.026155 172.03874 
L 487.490462 172.03874 
L 487.490462 170.586539 
L 483.026155 170.586539 
z
" clip-path="url(#pc10e87aca1)" style="fill: #7cc582; stroke: #414141; stroke-linejoin: miter"/>
   </g>
   <g id="patch_100">
    <path d="M 487.490462 172.03874 
L 491.954768 172.03874 
L 491.954768 169.860438 
L 487.490462 169.860438 
z
" clip-path="url(#pc10e87aca1)" style="fill: #7cc582; stroke: #414141; stroke-linejoin: miter"/>
   </g>
   <g id="patch_101">
    <path d="M 491.954768 172.03874 
L 496.419074 172.03874 
L 496.419074 172.03874 
L 491.954768 172.03874 
z
" clip-path="url(#pc10e87aca1)" style="fill: #ff8383; stroke: #414141; stroke-linejoin: miter"/>
   </g>
   <g id="patch_102">
    <path d="M 496.419074 172.03874 
L 500.883381 172.03874 
L 500.883381 171.31264 
L 496.419074 171.31264 
z
" clip-path="url(#pc10e87aca1)" style="fill: #ff8383; stroke: #414141; stroke-linejoin: miter"/>
   </g>
   <g id="matplotlib.axis_5">
    <g id="xtick_8">
     <g id="line2d_18">
      <g>
       <use xlink:href="#m959e624eee" x="386.183857" y="172.03874" style="stroke: #000000; stroke-width: 0.8"/>
      </g>
     </g>
     <g id="text_22">
      <!-- −0.06 -->
      <g transform="translate(375.430693 185.122881) scale(0.085 -0.085)">
       <use xlink:href="#ArialMT-2212"/>
       <use xlink:href="#ArialMT-30" x="58.398438"/>
       <use xlink:href="#ArialMT-2e" x="114.013672"/>
       <use xlink:href="#ArialMT-30" x="141.796875"/>
       <use xlink:href="#ArialMT-36" x="197.412109"/>
      </g>
     </g>
    </g>
    <g id="xtick_9">
     <g id="line2d_19">
      <g>
       <use xlink:href="#m959e624eee" x="420.937664" y="172.03874" style="stroke: #000000; stroke-width: 0.8"/>
      </g>
     </g>
     <g id="text_23">
      <!-- −0.04 -->
      <g transform="translate(410.1845 185.122881) scale(0.085 -0.085)">
       <use xlink:href="#ArialMT-2212"/>
       <use xlink:href="#ArialMT-30" x="58.398438"/>
       <use xlink:href="#ArialMT-2e" x="114.013672"/>
       <use xlink:href="#ArialMT-30" x="141.796875"/>
       <use xlink:href="#ArialMT-34" x="197.412109"/>
      </g>
     </g>
    </g>
    <g id="xtick_10">
     <g id="line2d_20">
      <g>
       <use xlink:href="#m959e624eee" x="455.691471" y="172.03874" style="stroke: #000000; stroke-width: 0.8"/>
      </g>
     </g>
     <g id="text_24">
      <!-- −0.02 -->
      <g transform="translate(444.938307 185.122881) scale(0.085 -0.085)">
       <use xlink:href="#ArialMT-2212"/>
       <use xlink:href="#ArialMT-30" x="58.398438"/>
       <use xlink:href="#ArialMT-2e" x="114.013672"/>
       <use xlink:href="#ArialMT-30" x="141.796875"/>
       <use xlink:href="#ArialMT-32" x="197.412109"/>
      </g>
     </g>
    </g>
    <g id="xtick_11">
     <g id="line2d_21">
      <g>
       <use xlink:href="#m959e624eee" x="490.445278" y="172.03874" style="stroke: #000000; stroke-width: 0.8"/>
      </g>
     </g>
     <g id="text_25">
      <!-- 0.00 -->
      <g transform="translate(482.17438 185.122881) scale(0.085 -0.085)">
       <use xlink:href="#ArialMT-30"/>
       <use xlink:href="#ArialMT-2e" x="55.615234"/>
       <use xlink:href="#ArialMT-30" x="83.398438"/>
       <use xlink:href="#ArialMT-30" x="139.013672"/>
      </g>
     </g>
    </g>
    <g id="text_26">
     <!-- (A $\mathdefault{-}$ B) -->
     <g transform="translate(420.573786 197.017256) scale(0.085 -0.085)">
      <use xlink:href="#ArialMT-28" transform="translate(0 0.203125)"/>
      <use xlink:href="#ArialMT-41" transform="translate(33.300781 0.203125)"/>
      <use xlink:href="#ArialMT-20" transform="translate(100 0.203125)"/>
      <use xlink:href="#ArialMT-2212" transform="translate(127.783203 0.203125)"/>
      <use xlink:href="#ArialMT-20" transform="translate(186.181641 0.203125)"/>
      <use xlink:href="#ArialMT-42" transform="translate(213.964844 0.203125)"/>
      <use xlink:href="#ArialMT-29" transform="translate(280.664062 0.203125)"/>
     </g>
    </g>
   </g>
   <g id="matplotlib.axis_6">
    <g id="ytick_11">
     <g id="line2d_22">
      <g>
       <use xlink:href="#mb254db7007" x="360.257732" y="172.03874" style="stroke: #000000; stroke-width: 0.8"/>
      </g>
     </g>
    </g>
    <g id="ytick_12">
     <g id="line2d_23">
      <g>
       <use xlink:href="#mb254db7007" x="360.257732" y="135.733706" style="stroke: #000000; stroke-width: 0.8"/>
      </g>
     </g>
    </g>
    <g id="ytick_13">
     <g id="line2d_24">
      <g>
       <use xlink:href="#mb254db7007" x="360.257732" y="99.428671" style="stroke: #000000; stroke-width: 0.8"/>
      </g>
     </g>
    </g>
    <g id="ytick_14">
     <g id="line2d_25">
      <g>
       <use xlink:href="#mb254db7007" x="360.257732" y="63.123636" style="stroke: #000000; stroke-width: 0.8"/>
      </g>
     </g>
    </g>
    <g id="ytick_15">
     <g id="line2d_26">
      <g>
       <use xlink:href="#mb254db7007" x="360.257732" y="26.818601" style="stroke: #000000; stroke-width: 0.8"/>
      </g>
     </g>
    </g>
   </g>
   <g id="patch_103">
    <path d="M 360.257732 172.03874 
L 360.257732 20.32 
" style="fill: none; stroke: #000000; stroke-width: 0.8; stroke-linejoin: miter; stroke-linecap: square"/>
   </g>
   <g id="patch_104">
    <path d="M 507.57984 172.03874 
L 507.57984 20.32 
" style="fill: none; stroke: #000000; stroke-width: 0.8; stroke-linejoin: miter; stroke-linecap: square"/>
   </g>
   <g id="patch_105">
    <path d="M 360.257732 172.03874 
L 507.57984 172.03874 
" style="fill: none; stroke: #000000; stroke-width: 0.8; stroke-linejoin: miter; stroke-linecap: square"/>
   </g>
   <g id="patch_106">
    <path d="M 360.257732 20.32 
L 507.57984 20.32 
" style="fill: none; stroke: #000000; stroke-width: 0.8; stroke-linejoin: miter; stroke-linecap: square"/>
   </g>
   <g id="text_27">
    <!-- P(A &gt; B): 0.00 -->
    <g transform="translate(366.150616 34.093671) scale(0.085 -0.085)">
     <use xlink:href="#ArialMT-50"/>
     <use xlink:href="#ArialMT-28" x="66.699219"/>
     <use xlink:href="#ArialMT-41" x="100"/>
     <use xlink:href="#ArialMT-20" x="161.199219"/>
     <use xlink:href="#ArialMT-3e" x="188.982422"/>
     <use xlink:href="#ArialMT-20" x="247.380859"/>
     <use xlink:href="#ArialMT-42" x="275.164062"/>
     <use xlink:href="#ArialMT-29" x="341.863281"/>
     <use xlink:href="#ArialMT-3a" x="375.164062"/>
     <use xlink:href="#ArialMT-20" x="402.947266"/>
     <use xlink:href="#ArialMT-30" x="430.730469"/>
     <use xlink:href="#ArialMT-2e" x="486.345703"/>
     <use xlink:href="#ArialMT-30" x="514.128906"/>
     <use xlink:href="#ArialMT-30" x="569.744141"/>
    </g>
   </g>
   <g id="text_28">
    <!-- Natural resources (USD 2013 kg$^\mathdefault{-1}$) -->
    <g transform="translate(371.438786 14.32) scale(0.08 -0.08)">
     <defs>
      <path id="ArialMT-4e" d="M 488 0 
L 488 4581 
L 1109 4581 
L 3516 984 
L 3516 4581 
L 4097 4581 
L 4097 0 
L 3475 0 
L 1069 3600 
L 1069 0 
L 488 0 
z
" transform="scale(0.015625)"/>
      <path id="ArialMT-55" d="M 3500 4581 
L 4106 4581 
L 4106 1934 
Q 4106 1244 3950 837 
Q 3794 431 3386 176 
Q 2978 -78 2316 -78 
Q 1672 -78 1262 144 
Q 853 366 678 786 
Q 503 1206 503 1934 
L 503 4581 
L 1109 4581 
L 1109 1938 
Q 1109 1341 1220 1058 
Q 1331 775 1601 622 
Q 1872 469 2263 469 
Q 2931 469 3215 772 
Q 3500 1075 3500 1938 
L 3500 4581 
z
" transform="scale(0.015625)"/>
      <path id="ArialMT-53" d="M 288 1472 
L 859 1522 
Q 900 1178 1048 958 
Q 1197 738 1509 602 
Q 1822 466 2213 466 
Q 2559 466 2825 569 
Q 3091 672 3220 851 
Q 3350 1031 3350 1244 
Q 3350 1459 3225 1620 
Q 3100 1781 2813 1891 
Q 2628 1963 1997 2114 
Q 1366 2266 1113 2400 
Q 784 2572 623 2826 
Q 463 3081 463 3397 
Q 463 3744 659 4045 
Q 856 4347 1234 4503 
Q 1613 4659 2075 4659 
Q 2584 4659 2973 4495 
Q 3363 4331 3572 4012 
Q 3781 3694 3797 3291 
L 3216 3247 
Q 3169 3681 2898 3903 
Q 2628 4125 2100 4125 
Q 1550 4125 1298 3923 
Q 1047 3722 1047 3438 
Q 1047 3191 1225 3031 
Q 1400 2872 2139 2705 
Q 2878 2538 3153 2413 
Q 3553 2228 3743 1945 
Q 3934 1663 3934 1294 
Q 3934 928 3725 604 
Q 3516 281 3123 101 
Q 2731 -78 2241 -78 
Q 1619 -78 1198 103 
Q 778 284 539 648 
Q 300 1013 288 1472 
z
" transform="scale(0.015625)"/>
      <path id="ArialMT-33" d="M 269 1209 
L 831 1284 
Q 928 806 1161 595 
Q 1394 384 1728 384 
Q 2125 384 2398 659 
Q 2672 934 2672 1341 
Q 2672 1728 2419 1979 
Q 2166 2231 1775 2231 
Q 1616 2231 1378 2169 
L 1441 2663 
Q 1497 2656 1531 2656 
Q 1891 2656 2178 2843 
Q 2466 3031 2466 3422 
Q 2466 3731 2256 3934 
Q 2047 4138 1716 4138 
Q 1388 4138 1169 3931 
Q 950 3725 888 3313 
L 325 3413 
Q 428 3978 793 4289 
Q 1159 4600 1703 4600 
Q 2078 4600 2393 4439 
Q 2709 4278 2876 4000 
Q 3044 3722 3044 3409 
Q 3044 3113 2884 2869 
Q 2725 2625 2413 2481 
Q 2819 2388 3044 2092 
Q 3269 1797 3269 1353 
Q 3269 753 2831 336 
Q 2394 -81 1725 -81 
Q 1122 -81 723 278 
Q 325 638 269 1209 
z
" transform="scale(0.015625)"/>
     </defs>
     <use xlink:href="#ArialMT-4e" transform="translate(0 0.40625)"/>
     <use xlink:href="#ArialMT-61" transform="translate(72.216797 0.40625)"/>
     <use xlink:href="#ArialMT-74" transform="translate(127.832031 0.40625)"/>
     <use xlink:href="#ArialMT-75" transform="translate(155.615234 0.40625)"/>
     <use xlink:href="#ArialMT-72" transform="translate(211.230469 0.40625)"/>
     <use xlink:href="#ArialMT-61" transform="translate(244.53125 0.40625)"/>
     <use xlink:href="#ArialMT-6c" transform="translate(300.146484 0.40625)"/>
     <use xlink:href="#ArialMT-20" transform="translate(322.363281 0.40625)"/>
     <use xlink:href="#ArialMT-72" transform="translate(350.146484 0.40625)"/>
     <use xlink:href="#ArialMT-65" transform="translate(383.447266 0.40625)"/>
     <use xlink:href="#ArialMT-73" transform="translate(439.0625 0.40625)"/>
     <use xlink:href="#ArialMT-6f" transform="translate(489.0625 0.40625)"/>
     <use xlink:href="#ArialMT-75" transform="translate(544.677734 0.40625)"/>
     <use xlink:href="#ArialMT-72" transform="translate(600.292969 0.40625)"/>
     <use xlink:href="#ArialMT-63" transform="translate(633.59375 0.40625)"/>
     <use xlink:href="#ArialMT-65" transform="translate(683.59375 0.40625)"/>
     <use xlink:href="#ArialMT-73" transform="translate(739.208984 0.40625)"/>
     <use xlink:href="#ArialMT-20" transform="translate(789.208984 0.40625)"/>
     <use xlink:href="#ArialMT-28" transform="translate(816.992188 0.40625)"/>
     <use xlink:href="#ArialMT-55" transform="translate(850.292969 0.40625)"/>
     <use xlink:href="#ArialMT-53" transform="translate(922.509766 0.40625)"/>
     <use xlink:href="#ArialMT-44" transform="translate(989.208984 0.40625)"/>
     <use xlink:href="#ArialMT-20" transform="translate(1061.425781 0.40625)"/>
     <use xlink:href="#ArialMT-32" transform="translate(1089.208984 0.40625)"/>
     <use xlink:href="#ArialMT-30" transform="translate(1144.824219 0.40625)"/>
     <use xlink:href="#ArialMT-31" transform="translate(1200.439453 0.40625)"/>
     <use xlink:href="#ArialMT-33" transform="translate(1256.054688 0.40625)"/>
     <use xlink:href="#ArialMT-20" transform="translate(1311.669922 0.40625)"/>
     <use xlink:href="#ArialMT-6b" transform="translate(1339.453125 0.40625)"/>
     <use xlink:href="#ArialMT-67" transform="translate(1389.453125 0.40625)"/>
     <use xlink:href="#ArialMT-2212" transform="translate(1446.025391 38.6875) scale(0.7)"/>
     <use xlink:href="#ArialMT-31" transform="translate(1486.904297 38.6875) scale(0.7)"/>
     <use xlink:href="#ArialMT-29" transform="translate(1528.569336 0.40625)"/>
    </g>
   </g>
  </g>
 </g>
 <defs>
  <clipPath id="p5697696651">
   <rect x="40.253516" y="20.32" width="147.322108" height="151.71874"/>
  </clipPath>
  <clipPath id="p8e9cc26c59">
   <rect x="200.255624" y="20.32" width="147.322108" height="151.71874"/>
  </clipPath>
  <clipPath id="pc10e87aca1">
   <rect x="360.257732" y="20.32" width="147.322108" height="151.71874"/>
  </clipPath>
 </defs>
</svg>
