<?xml version="1.0" encoding="utf-8" standalone="no"?>
<!DOCTYPE svg PUBLIC "-//W3C//DTD SVG 1.1//EN"
  "http://www.w3.org/Graphics/SVG/1.1/DTD/svg11.dtd">
<svg xmlns:xlink="http://www.w3.org/1999/xlink" width="382.63176pt" height="276.221748pt" viewBox="0 0 382.63176 276.221748" xmlns="http://www.w3.org/2000/svg" version="1.1">
 <metadata>
  <rdf:RDF xmlns:dc="http://purl.org/dc/elements/1.1/" xmlns:cc="http://creativecommons.org/ns#" xmlns:rdf="http://www.w3.org/1999/02/22-rdf-syntax-ns#">
   <cc:Work>
    <dc:type rdf:resource="http://purl.org/dc/dcmitype/StillImage"/>
    <dc:date>2023-11-29T05:38:29.495167</dc:date>
    <dc:format>image/svg+xml</dc:format>
    <dc:creator>
     <cc:Agent>
      <dc:title>Matplotlib v3.7.2, https://matplotlib.org/</dc:title>
     </cc:Agent>
    </dc:creator>
   </cc:Work>
  </rdf:RDF>
 </metadata>
 <defs>
  <style type="text/css">*{stroke-linejoin: round; stroke-linecap: butt}</style>
 </defs>
 <g id="figure_1">
  <g id="patch_1">
   <path d="M 0 276.221748 
L 382.63176 276.221748 
L 382.63176 -0 
L 0 -0 
z
" style="fill: #ffffff"/>
  </g>
  <g id="axes_1">
   <g id="patch_2">
    <path d="M 38.28 211.986632 
L 375.43176 211.986632 
L 375.43176 7.2 
L 38.28 7.2 
z
" style="fill: #ffffff"/>
   </g>
   <g id="patch_3">
    <path d="M 48.815993 211.986632 
L 69.887978 211.986632 
L 69.887978 141.494301 
L 48.815993 141.494301 
z
" clip-path="url(#p22d106659f)" style="fill: #808080"/>
   </g>
   <g id="patch_4">
    <path d="M 90.959963 211.986632 
L 112.031948 211.986632 
L 112.031948 137.234722 
L 90.959963 137.234722 
z
" clip-path="url(#p22d106659f)" style="fill: #808080"/>
   </g>
   <g id="patch_5">
    <path d="M 133.103933 211.986632 
L 154.175918 211.986632 
L 154.175918 137.472733 
L 133.103933 137.472733 
z
" clip-path="url(#p22d106659f)" style="fill: #808080"/>
   </g>
   <g id="patch_6">
    <path d="M 175.247903 211.986632 
L 196.319888 211.986632 
L 196.319888 147.912394 
L 175.247903 147.912394 
z
" clip-path="url(#p22d106659f)" style="fill: #808080"/>
   </g>
   <g id="patch_7">
    <path d="M 217.391873 211.986632 
L 238.463858 211.986632 
L 238.463858 211.986632 
L 217.391873 211.986632 
z
" clip-path="url(#p22d106659f)" style="fill: #808080"/>
   </g>
   <g id="patch_8">
    <path d="M 259.535843 211.986632 
L 280.607828 211.986632 
L 280.607828 211.986632 
L 259.535843 211.986632 
z
" clip-path="url(#p22d106659f)" style="fill: #808080"/>
   </g>
   <g id="patch_9">
    <path d="M 301.679813 211.986632 
L 322.751798 211.986632 
L 322.751798 211.986632 
L 301.679813 211.986632 
z
" clip-path="url(#p22d106659f)" style="fill: #808080"/>
   </g>
   <g id="patch_10">
    <path d="M 343.823783 211.986632 
L 364.895768 211.986632 
L 364.895768 211.986632 
L 343.823783 211.986632 
z
" clip-path="url(#p22d106659f)" style="fill: #808080"/>
   </g>
   <g id="patch_11">
    <path d="M 48.815993 211.986632 
L 69.887978 211.986632 
L 69.887978 211.986632 
L 48.815993 211.986632 
z
" clip-path="url(#p22d106659f)" style="fill: #a9d898"/>
   </g>
   <g id="patch_12">
    <path d="M 90.959963 211.986632 
L 112.031948 211.986632 
L 112.031948 211.986632 
L 90.959963 211.986632 
z
" clip-path="url(#p22d106659f)" style="fill: #a9d898"/>
   </g>
   <g id="patch_13">
    <path d="M 133.103933 211.986632 
L 154.175918 211.986632 
L 154.175918 211.986632 
L 133.103933 211.986632 
z
" clip-path="url(#p22d106659f)" style="fill: #a9d898"/>
   </g>
   <g id="patch_14">
    <path d="M 175.247903 211.986632 
L 196.319888 211.986632 
L 196.319888 211.986632 
L 175.247903 211.986632 
z
" clip-path="url(#p22d106659f)" style="fill: #a9d898"/>
   </g>
   <g id="patch_15">
    <path d="M 217.391873 211.986632 
L 238.463858 211.986632 
L 238.463858 187.869615 
L 217.391873 187.869615 
z
" clip-path="url(#p22d106659f)" style="fill: #a9d898"/>
   </g>
   <g id="patch_16">
    <path d="M 259.535843 211.986632 
L 280.607828 211.986632 
L 280.607828 186.412317 
L 259.535843 186.412317 
z
" clip-path="url(#p22d106659f)" style="fill: #a9d898"/>
   </g>
   <g id="patch_17">
    <path d="M 301.679813 211.986632 
L 322.751798 211.986632 
L 322.751798 186.493746 
L 301.679813 186.493746 
z
" clip-path="url(#p22d106659f)" style="fill: #a9d898"/>
   </g>
   <g id="patch_18">
    <path d="M 343.823783 211.986632 
L 364.895768 211.986632 
L 364.895768 190.06539 
L 343.823783 190.06539 
z
" clip-path="url(#p22d106659f)" style="fill: #a9d898"/>
   </g>
   <g id="patch_19">
    <path d="M 48.815993 141.494301 
L 69.887978 141.494301 
L 69.887978 128.004418 
L 48.815993 128.004418 
z
" clip-path="url(#p22d106659f)" style="fill: #fb7b71"/>
   </g>
   <g id="patch_20">
    <path d="M 90.959963 137.234722 
L 112.031948 137.234722 
L 112.031948 123.269415 
L 90.959963 123.269415 
z
" clip-path="url(#p22d106659f)" style="fill: #fb7b71"/>
   </g>
   <g id="patch_21">
    <path d="M 133.103933 137.472733 
L 154.175918 137.472733 
L 154.175918 129.104365 
L 133.103933 129.104365 
z
" clip-path="url(#p22d106659f)" style="fill: #fb7b71"/>
   </g>
   <g id="patch_22">
    <path d="M 175.247903 147.912394 
L 196.319888 147.912394 
L 196.319888 140.494874 
L 175.247903 140.494874 
z
" clip-path="url(#p22d106659f)" style="fill: #fb7b71"/>
   </g>
   <g id="patch_23">
    <path d="M 217.391873 187.869615 
L 238.463858 187.869615 
L 238.463858 174.379732 
L 217.391873 174.379732 
z
" clip-path="url(#p22d106659f)" style="fill: #fb7b71"/>
   </g>
   <g id="patch_24">
    <path d="M 259.535843 186.412317 
L 280.607828 186.412317 
L 280.607828 172.44701 
L 259.535843 172.44701 
z
" clip-path="url(#p22d106659f)" style="fill: #fb7b71"/>
   </g>
   <g id="patch_25">
    <path d="M 301.679813 186.493746 
L 322.751798 186.493746 
L 322.751798 178.125377 
L 301.679813 178.125377 
z
" clip-path="url(#p22d106659f)" style="fill: #fb7b71"/>
   </g>
   <g id="patch_26">
    <path d="M 343.823783 190.06539 
L 364.895768 190.06539 
L 364.895768 182.647869 
L 343.823783 182.647869 
z
" clip-path="url(#p22d106659f)" style="fill: #fb7b71"/>
   </g>
   <g id="patch_27">
    <path d="M 48.815993 128.004418 
L 69.887978 128.004418 
L 69.887978 127.797962 
L 48.815993 127.797962 
z
" clip-path="url(#p22d106659f)" style="fill: #b71205"/>
   </g>
   <g id="patch_28">
    <path d="M 90.959963 123.269415 
L 112.031948 123.269415 
L 112.031948 123.060599 
L 90.959963 123.060599 
z
" clip-path="url(#p22d106659f)" style="fill: #b71205"/>
   </g>
   <g id="patch_29">
    <path d="M 133.103933 129.104365 
L 154.175918 129.104365 
L 154.175918 128.664293 
L 133.103933 128.664293 
z
" clip-path="url(#p22d106659f)" style="fill: #b71205"/>
   </g>
   <g id="patch_30">
    <path d="M 175.247903 140.494874 
L 196.319888 140.494874 
L 196.319888 140.110154 
L 175.247903 140.110154 
z
" clip-path="url(#p22d106659f)" style="fill: #b71205"/>
   </g>
   <g id="patch_31">
    <path d="M 217.391873 174.379732 
L 238.463858 174.379732 
L 238.463858 174.173276 
L 217.391873 174.173276 
z
" clip-path="url(#p22d106659f)" style="fill: #b71205"/>
   </g>
   <g id="patch_32">
    <path d="M 259.535843 172.44701 
L 280.607828 172.44701 
L 280.607828 172.238194 
L 259.535843 172.238194 
z
" clip-path="url(#p22d106659f)" style="fill: #b71205"/>
   </g>
   <g id="patch_33">
    <path d="M 301.679813 178.125377 
L 322.751798 178.125377 
L 322.751798 177.685306 
L 301.679813 177.685306 
z
" clip-path="url(#p22d106659f)" style="fill: #b71205"/>
   </g>
   <g id="patch_34">
    <path d="M 343.823783 182.647869 
L 364.895768 182.647869 
L 364.895768 182.26315 
L 343.823783 182.26315 
z
" clip-path="url(#p22d106659f)" style="fill: #b71205"/>
   </g>
   <g id="patch_35">
    <path d="M 48.815993 211.986632 
L 69.887978 211.986632 
L 69.887978 211.986632 
L 48.815993 211.986632 
z
" clip-path="url(#p22d106659f)" style="fill: #a78dd8"/>
   </g>
   <g id="patch_36">
    <path d="M 90.959963 123.060599 
L 112.031948 123.060599 
L 112.031948 43.871238 
L 90.959963 43.871238 
z
" clip-path="url(#p22d106659f)" style="fill: #a78dd8"/>
   </g>
   <g id="patch_37">
    <path d="M 133.103933 211.986632 
L 154.175918 211.986632 
L 154.175918 211.986632 
L 133.103933 211.986632 
z
" clip-path="url(#p22d106659f)" style="fill: #a78dd8"/>
   </g>
   <g id="patch_38">
    <path d="M 175.247903 211.986632 
L 196.319888 211.986632 
L 196.319888 211.986632 
L 175.247903 211.986632 
z
" clip-path="url(#p22d106659f)" style="fill: #a78dd8"/>
   </g>
   <g id="patch_39">
    <path d="M 217.391873 211.986632 
L 238.463858 211.986632 
L 238.463858 211.986632 
L 217.391873 211.986632 
z
" clip-path="url(#p22d106659f)" style="fill: #a78dd8"/>
   </g>
   <g id="patch_40">
    <path d="M 259.535843 172.238194 
L 280.607828 172.238194 
L 280.607828 93.048832 
L 259.535843 93.048832 
z
" clip-path="url(#p22d106659f)" style="fill: #a78dd8"/>
   </g>
   <g id="patch_41">
    <path d="M 301.679813 211.986632 
L 322.751798 211.986632 
L 322.751798 211.986632 
L 301.679813 211.986632 
z
" clip-path="url(#p22d106659f)" style="fill: #a78dd8"/>
   </g>
   <g id="patch_42">
    <path d="M 343.823783 211.986632 
L 364.895768 211.986632 
L 364.895768 211.986632 
L 343.823783 211.986632 
z
" clip-path="url(#p22d106659f)" style="fill: #a78dd8"/>
   </g>
   <g id="PathCollection_1">
    <defs>
     <path id="m0e4ac52264" d="M 0 3.535534 
C 0.937635 3.535534 1.836992 3.163008 2.5 2.5 
C 3.163008 1.836992 3.535534 0.937635 3.535534 0 
C 3.535534 -0.937635 3.163008 -1.836992 2.5 -2.5 
C 1.836992 -3.163008 0.937635 -3.535534 0 -3.535534 
C -0.937635 -3.535534 -1.836992 -3.163008 -2.5 -2.5 
C -3.163008 -1.836992 -3.535534 -0.937635 -3.535534 0 
C -3.535534 0.937635 -3.163008 1.836992 -2.5 2.5 
C -1.836992 3.163008 -0.937635 3.535534 0 3.535534 
z
" style="stroke: #808080"/>
    </defs>
    <g clip-path="url(#p22d106659f)">
     <use xlink:href="#m0e4ac52264" x="59.351985" y="127.797962" style="fill: #ffff00; stroke: #808080"/>
     <use xlink:href="#m0e4ac52264" x="101.495955" y="43.871238" style="fill: #ffff00; stroke: #808080"/>
     <use xlink:href="#m0e4ac52264" x="143.639925" y="128.664293" style="fill: #ffff00; stroke: #808080"/>
     <use xlink:href="#m0e4ac52264" x="185.783895" y="140.110154" style="fill: #ffff00; stroke: #808080"/>
     <use xlink:href="#m0e4ac52264" x="227.927865" y="174.173276" style="fill: #ffff00; stroke: #808080"/>
     <use xlink:href="#m0e4ac52264" x="270.071835" y="93.048832" style="fill: #ffff00; stroke: #808080"/>
     <use xlink:href="#m0e4ac52264" x="312.215805" y="177.685306" style="fill: #ffff00; stroke: #808080"/>
     <use xlink:href="#m0e4ac52264" x="354.359775" y="182.26315" style="fill: #ffff00; stroke: #808080"/>
    </g>
   </g>
   <g id="matplotlib.axis_1">
    <g id="xtick_1">
     <g id="line2d_1">
      <defs>
       <path id="md3b8c65b0f" d="M 0 0 
L 0 3.5 
" style="stroke: #000000; stroke-width: 0.8"/>
      </defs>
      <g>
       <use xlink:href="#md3b8c65b0f" x="59.351985" y="211.986632" style="stroke: #000000; stroke-width: 0.8"/>
      </g>
     </g>
     <g id="text_1">
      <!-- BAU -->
      <g transform="translate(51.126985 224.712882) scale(0.08 -0.08)">
       <defs>
        <path id="ArialMT-42" d="M 469 0 
L 469 4581 
L 2188 4581 
Q 2713 4581 3030 4442 
Q 3347 4303 3526 4014 
Q 3706 3725 3706 3409 
Q 3706 3116 3547 2856 
Q 3388 2597 3066 2438 
Q 3481 2316 3704 2022 
Q 3928 1728 3928 1328 
Q 3928 1006 3792 729 
Q 3656 453 3456 303 
Q 3256 153 2954 76 
Q 2653 0 2216 0 
L 469 0 
z
M 1075 2656 
L 2066 2656 
Q 2469 2656 2644 2709 
Q 2875 2778 2992 2937 
Q 3109 3097 3109 3338 
Q 3109 3566 3000 3739 
Q 2891 3913 2687 3977 
Q 2484 4041 1991 4041 
L 1075 4041 
L 1075 2656 
z
M 1075 541 
L 2216 541 
Q 2509 541 2628 563 
Q 2838 600 2978 687 
Q 3119 775 3209 942 
Q 3300 1109 3300 1328 
Q 3300 1584 3169 1773 
Q 3038 1963 2805 2039 
Q 2572 2116 2134 2116 
L 1075 2116 
L 1075 541 
z
" transform="scale(0.015625)"/>
        <path id="ArialMT-41" d="M -9 0 
L 1750 4581 
L 2403 4581 
L 4278 0 
L 3588 0 
L 3053 1388 
L 1138 1388 
L 634 0 
L -9 0 
z
M 1313 1881 
L 2866 1881 
L 2388 3150 
Q 2169 3728 2063 4100 
Q 1975 3659 1816 3225 
L 1313 1881 
z
" transform="scale(0.015625)"/>
        <path id="ArialMT-55" d="M 3500 4581 
L 4106 4581 
L 4106 1934 
Q 4106 1244 3950 837 
Q 3794 431 3386 176 
Q 2978 -78 2316 -78 
Q 1672 -78 1262 144 
Q 853 366 678 786 
Q 503 1206 503 1934 
L 503 4581 
L 1109 4581 
L 1109 1938 
Q 1109 1341 1220 1058 
Q 1331 775 1601 622 
Q 1872 469 2263 469 
Q 2931 469 3215 772 
Q 3500 1075 3500 1938 
L 3500 4581 
z
" transform="scale(0.015625)"/>
       </defs>
       <use xlink:href="#ArialMT-42"/>
       <use xlink:href="#ArialMT-41" x="66.699219"/>
       <use xlink:href="#ArialMT-55" x="133.398438"/>
      </g>
     </g>
    </g>
    <g id="xtick_2">
     <g id="line2d_2">
      <g>
       <use xlink:href="#md3b8c65b0f" x="101.495955" y="211.986632" style="stroke: #000000; stroke-width: 0.8"/>
      </g>
     </g>
     <g id="text_2">
      <!-- BAU -->
      <g transform="translate(93.270955 224.712882) scale(0.08 -0.08)">
       <use xlink:href="#ArialMT-42"/>
       <use xlink:href="#ArialMT-41" x="66.699219"/>
       <use xlink:href="#ArialMT-55" x="133.398438"/>
      </g>
      <!-- (pollution) -->
      <g transform="translate(83.93283 233.291382) scale(0.08 -0.08)">
       <defs>
        <path id="ArialMT-28" d="M 1497 -1347 
Q 1031 -759 709 28 
Q 388 816 388 1659 
Q 388 2403 628 3084 
Q 909 3875 1497 4659 
L 1900 4659 
Q 1522 4009 1400 3731 
Q 1209 3300 1100 2831 
Q 966 2247 966 1656 
Q 966 153 1900 -1347 
L 1497 -1347 
z
" transform="scale(0.015625)"/>
        <path id="ArialMT-70" d="M 422 -1272 
L 422 3319 
L 934 3319 
L 934 2888 
Q 1116 3141 1344 3267 
Q 1572 3394 1897 3394 
Q 2322 3394 2647 3175 
Q 2972 2956 3137 2557 
Q 3303 2159 3303 1684 
Q 3303 1175 3120 767 
Q 2938 359 2589 142 
Q 2241 -75 1856 -75 
Q 1575 -75 1351 44 
Q 1128 163 984 344 
L 984 -1272 
L 422 -1272 
z
M 931 1641 
Q 931 1000 1190 694 
Q 1450 388 1819 388 
Q 2194 388 2461 705 
Q 2728 1022 2728 1688 
Q 2728 2322 2467 2637 
Q 2206 2953 1844 2953 
Q 1484 2953 1207 2617 
Q 931 2281 931 1641 
z
" transform="scale(0.015625)"/>
        <path id="ArialMT-6f" d="M 213 1659 
Q 213 2581 725 3025 
Q 1153 3394 1769 3394 
Q 2453 3394 2887 2945 
Q 3322 2497 3322 1706 
Q 3322 1066 3130 698 
Q 2938 331 2570 128 
Q 2203 -75 1769 -75 
Q 1072 -75 642 372 
Q 213 819 213 1659 
z
M 791 1659 
Q 791 1022 1069 705 
Q 1347 388 1769 388 
Q 2188 388 2466 706 
Q 2744 1025 2744 1678 
Q 2744 2294 2464 2611 
Q 2184 2928 1769 2928 
Q 1347 2928 1069 2612 
Q 791 2297 791 1659 
z
" transform="scale(0.015625)"/>
        <path id="ArialMT-6c" d="M 409 0 
L 409 4581 
L 972 4581 
L 972 0 
L 409 0 
z
" transform="scale(0.015625)"/>
        <path id="ArialMT-75" d="M 2597 0 
L 2597 488 
Q 2209 -75 1544 -75 
Q 1250 -75 995 37 
Q 741 150 617 320 
Q 494 491 444 738 
Q 409 903 409 1263 
L 409 3319 
L 972 3319 
L 972 1478 
Q 972 1038 1006 884 
Q 1059 663 1231 536 
Q 1403 409 1656 409 
Q 1909 409 2131 539 
Q 2353 669 2445 892 
Q 2538 1116 2538 1541 
L 2538 3319 
L 3100 3319 
L 3100 0 
L 2597 0 
z
" transform="scale(0.015625)"/>
        <path id="ArialMT-74" d="M 1650 503 
L 1731 6 
Q 1494 -44 1306 -44 
Q 1000 -44 831 53 
Q 663 150 594 308 
Q 525 466 525 972 
L 525 2881 
L 113 2881 
L 113 3319 
L 525 3319 
L 525 4141 
L 1084 4478 
L 1084 3319 
L 1650 3319 
L 1650 2881 
L 1084 2881 
L 1084 941 
Q 1084 700 1114 631 
Q 1144 563 1211 522 
Q 1278 481 1403 481 
Q 1497 481 1650 503 
z
" transform="scale(0.015625)"/>
        <path id="ArialMT-69" d="M 425 3934 
L 425 4581 
L 988 4581 
L 988 3934 
L 425 3934 
z
M 425 0 
L 425 3319 
L 988 3319 
L 988 0 
L 425 0 
z
" transform="scale(0.015625)"/>
        <path id="ArialMT-6e" d="M 422 0 
L 422 3319 
L 928 3319 
L 928 2847 
Q 1294 3394 1984 3394 
Q 2284 3394 2536 3286 
Q 2788 3178 2913 3003 
Q 3038 2828 3088 2588 
Q 3119 2431 3119 2041 
L 3119 0 
L 2556 0 
L 2556 2019 
Q 2556 2363 2490 2533 
Q 2425 2703 2258 2804 
Q 2091 2906 1866 2906 
Q 1506 2906 1245 2678 
Q 984 2450 984 1813 
L 984 0 
L 422 0 
z
" transform="scale(0.015625)"/>
        <path id="ArialMT-29" d="M 791 -1347 
L 388 -1347 
Q 1322 153 1322 1656 
Q 1322 2244 1188 2822 
Q 1081 3291 891 3722 
Q 769 4003 388 4659 
L 791 4659 
Q 1378 3875 1659 3084 
Q 1900 2403 1900 1659 
Q 1900 816 1576 28 
Q 1253 -759 791 -1347 
z
" transform="scale(0.015625)"/>
       </defs>
       <use xlink:href="#ArialMT-28"/>
       <use xlink:href="#ArialMT-70" x="33.300781"/>
       <use xlink:href="#ArialMT-6f" x="88.916016"/>
       <use xlink:href="#ArialMT-6c" x="144.53125"/>
       <use xlink:href="#ArialMT-6c" x="166.748047"/>
       <use xlink:href="#ArialMT-75" x="188.964844"/>
       <use xlink:href="#ArialMT-74" x="244.580078"/>
       <use xlink:href="#ArialMT-69" x="272.363281"/>
       <use xlink:href="#ArialMT-6f" x="294.580078"/>
       <use xlink:href="#ArialMT-6e" x="350.195312"/>
       <use xlink:href="#ArialMT-29" x="405.810547"/>
      </g>
     </g>
    </g>
    <g id="xtick_3">
     <g id="line2d_3">
      <g>
       <use xlink:href="#md3b8c65b0f" x="143.639925" y="211.986632" style="stroke: #000000; stroke-width: 0.8"/>
      </g>
     </g>
     <g id="text_3">
      <!-- AMX -->
      <g transform="translate(134.9718 224.712882) scale(0.08 -0.08)">
       <defs>
        <path id="ArialMT-4d" d="M 475 0 
L 475 4581 
L 1388 4581 
L 2472 1338 
Q 2622 884 2691 659 
Q 2769 909 2934 1394 
L 4031 4581 
L 4847 4581 
L 4847 0 
L 4263 0 
L 4263 3834 
L 2931 0 
L 2384 0 
L 1059 3900 
L 1059 0 
L 475 0 
z
" transform="scale(0.015625)"/>
        <path id="ArialMT-58" d="M 28 0 
L 1800 2388 
L 238 4581 
L 959 4581 
L 1791 3406 
Q 2050 3041 2159 2844 
Q 2313 3094 2522 3366 
L 3444 4581 
L 4103 4581 
L 2494 2422 
L 4228 0 
L 3478 0 
L 2325 1634 
Q 2228 1775 2125 1941 
Q 1972 1691 1906 1597 
L 756 0 
L 28 0 
z
" transform="scale(0.015625)"/>
       </defs>
       <use xlink:href="#ArialMT-41"/>
       <use xlink:href="#ArialMT-4d" x="66.699219"/>
       <use xlink:href="#ArialMT-58" x="150"/>
      </g>
     </g>
    </g>
    <g id="xtick_4">
     <g id="line2d_4">
      <g>
       <use xlink:href="#md3b8c65b0f" x="185.783895" y="211.986632" style="stroke: #000000; stroke-width: 0.8"/>
      </g>
     </g>
     <g id="text_4">
      <!-- AMX -->
      <g transform="translate(177.11577 224.712882) scale(0.08 -0.08)">
       <use xlink:href="#ArialMT-41"/>
       <use xlink:href="#ArialMT-4d" x="66.699219"/>
       <use xlink:href="#ArialMT-58" x="150"/>
      </g>
      <!-- (ideal) -->
      <g transform="translate(174.66952 233.291382) scale(0.08 -0.08)">
       <defs>
        <path id="ArialMT-64" d="M 2575 0 
L 2575 419 
Q 2259 -75 1647 -75 
Q 1250 -75 917 144 
Q 584 363 401 755 
Q 219 1147 219 1656 
Q 219 2153 384 2558 
Q 550 2963 881 3178 
Q 1213 3394 1622 3394 
Q 1922 3394 2156 3267 
Q 2391 3141 2538 2938 
L 2538 4581 
L 3097 4581 
L 3097 0 
L 2575 0 
z
M 797 1656 
Q 797 1019 1065 703 
Q 1334 388 1700 388 
Q 2069 388 2326 689 
Q 2584 991 2584 1609 
Q 2584 2291 2321 2609 
Q 2059 2928 1675 2928 
Q 1300 2928 1048 2622 
Q 797 2316 797 1656 
z
" transform="scale(0.015625)"/>
        <path id="ArialMT-65" d="M 2694 1069 
L 3275 997 
Q 3138 488 2766 206 
Q 2394 -75 1816 -75 
Q 1088 -75 661 373 
Q 234 822 234 1631 
Q 234 2469 665 2931 
Q 1097 3394 1784 3394 
Q 2450 3394 2872 2941 
Q 3294 2488 3294 1666 
Q 3294 1616 3291 1516 
L 816 1516 
Q 847 969 1125 678 
Q 1403 388 1819 388 
Q 2128 388 2347 550 
Q 2566 713 2694 1069 
z
M 847 1978 
L 2700 1978 
Q 2663 2397 2488 2606 
Q 2219 2931 1791 2931 
Q 1403 2931 1139 2672 
Q 875 2413 847 1978 
z
" transform="scale(0.015625)"/>
        <path id="ArialMT-61" d="M 2588 409 
Q 2275 144 1986 34 
Q 1697 -75 1366 -75 
Q 819 -75 525 192 
Q 231 459 231 875 
Q 231 1119 342 1320 
Q 453 1522 633 1644 
Q 813 1766 1038 1828 
Q 1203 1872 1538 1913 
Q 2219 1994 2541 2106 
Q 2544 2222 2544 2253 
Q 2544 2597 2384 2738 
Q 2169 2928 1744 2928 
Q 1347 2928 1158 2789 
Q 969 2650 878 2297 
L 328 2372 
Q 403 2725 575 2942 
Q 747 3159 1072 3276 
Q 1397 3394 1825 3394 
Q 2250 3394 2515 3294 
Q 2781 3194 2906 3042 
Q 3031 2891 3081 2659 
Q 3109 2516 3109 2141 
L 3109 1391 
Q 3109 606 3145 398 
Q 3181 191 3288 0 
L 2700 0 
Q 2613 175 2588 409 
z
M 2541 1666 
Q 2234 1541 1622 1453 
Q 1275 1403 1131 1340 
Q 988 1278 909 1158 
Q 831 1038 831 891 
Q 831 666 1001 516 
Q 1172 366 1500 366 
Q 1825 366 2078 508 
Q 2331 650 2450 897 
Q 2541 1088 2541 1459 
L 2541 1666 
z
" transform="scale(0.015625)"/>
       </defs>
       <use xlink:href="#ArialMT-28"/>
       <use xlink:href="#ArialMT-69" x="33.300781"/>
       <use xlink:href="#ArialMT-64" x="55.517578"/>
       <use xlink:href="#ArialMT-65" x="111.132812"/>
       <use xlink:href="#ArialMT-61" x="166.748047"/>
       <use xlink:href="#ArialMT-6c" x="222.363281"/>
       <use xlink:href="#ArialMT-29" x="244.580078"/>
      </g>
     </g>
    </g>
    <g id="xtick_5">
     <g id="line2d_5">
      <g>
       <use xlink:href="#md3b8c65b0f" x="227.927865" y="211.986632" style="stroke: #000000; stroke-width: 0.8"/>
      </g>
     </g>
     <g id="text_5">
      <!-- BAU -->
      <g transform="translate(219.702865 224.712882) scale(0.08 -0.08)">
       <use xlink:href="#ArialMT-42"/>
       <use xlink:href="#ArialMT-41" x="66.699219"/>
       <use xlink:href="#ArialMT-55" x="133.398438"/>
      </g>
     </g>
    </g>
    <g id="xtick_6">
     <g id="line2d_6">
      <g>
       <use xlink:href="#md3b8c65b0f" x="270.071835" y="211.986632" style="stroke: #000000; stroke-width: 0.8"/>
      </g>
     </g>
     <g id="text_6">
      <!-- BAU -->
      <g transform="translate(261.846835 224.712882) scale(0.08 -0.08)">
       <use xlink:href="#ArialMT-42"/>
       <use xlink:href="#ArialMT-41" x="66.699219"/>
       <use xlink:href="#ArialMT-55" x="133.398438"/>
      </g>
      <!-- (pollution) -->
      <g transform="translate(252.50871 233.291382) scale(0.08 -0.08)">
       <use xlink:href="#ArialMT-28"/>
       <use xlink:href="#ArialMT-70" x="33.300781"/>
       <use xlink:href="#ArialMT-6f" x="88.916016"/>
       <use xlink:href="#ArialMT-6c" x="144.53125"/>
       <use xlink:href="#ArialMT-6c" x="166.748047"/>
       <use xlink:href="#ArialMT-75" x="188.964844"/>
       <use xlink:href="#ArialMT-74" x="244.580078"/>
       <use xlink:href="#ArialMT-69" x="272.363281"/>
       <use xlink:href="#ArialMT-6f" x="294.580078"/>
       <use xlink:href="#ArialMT-6e" x="350.195312"/>
       <use xlink:href="#ArialMT-29" x="405.810547"/>
      </g>
     </g>
    </g>
    <g id="xtick_7">
     <g id="line2d_7">
      <g>
       <use xlink:href="#md3b8c65b0f" x="312.215805" y="211.986632" style="stroke: #000000; stroke-width: 0.8"/>
      </g>
     </g>
     <g id="text_7">
      <!-- AMX -->
      <g transform="translate(303.54768 224.712882) scale(0.08 -0.08)">
       <use xlink:href="#ArialMT-41"/>
       <use xlink:href="#ArialMT-4d" x="66.699219"/>
       <use xlink:href="#ArialMT-58" x="150"/>
      </g>
     </g>
    </g>
    <g id="xtick_8">
     <g id="line2d_8">
      <g>
       <use xlink:href="#md3b8c65b0f" x="354.359775" y="211.986632" style="stroke: #000000; stroke-width: 0.8"/>
      </g>
     </g>
     <g id="text_8">
      <!-- AMX -->
      <g transform="translate(345.69165 224.712882) scale(0.08 -0.08)">
       <use xlink:href="#ArialMT-41"/>
       <use xlink:href="#ArialMT-4d" x="66.699219"/>
       <use xlink:href="#ArialMT-58" x="150"/>
      </g>
      <!-- (ideal) -->
      <g transform="translate(343.2454 233.291382) scale(0.08 -0.08)">
       <use xlink:href="#ArialMT-28"/>
       <use xlink:href="#ArialMT-69" x="33.300781"/>
       <use xlink:href="#ArialMT-64" x="55.517578"/>
       <use xlink:href="#ArialMT-65" x="111.132812"/>
       <use xlink:href="#ArialMT-61" x="166.748047"/>
       <use xlink:href="#ArialMT-6c" x="222.363281"/>
       <use xlink:href="#ArialMT-29" x="244.580078"/>
      </g>
     </g>
    </g>
   </g>
   <g id="matplotlib.axis_2">
    <g id="ytick_1">
     <g id="line2d_9">
      <defs>
       <path id="mdb91f4aabe" d="M 0 0 
L -3.5 0 
" style="stroke: #000000; stroke-width: 0.8"/>
      </defs>
      <g>
       <use xlink:href="#mdb91f4aabe" x="38.28" y="211.986632" style="stroke: #000000; stroke-width: 0.8"/>
      </g>
     </g>
     <g id="text_9">
      <!-- 0.0 -->
      <g transform="translate(20.16 214.849757) scale(0.08 -0.08)">
       <defs>
        <path id="ArialMT-30" d="M 266 2259 
Q 266 3072 433 3567 
Q 600 4063 929 4331 
Q 1259 4600 1759 4600 
Q 2128 4600 2406 4451 
Q 2684 4303 2865 4023 
Q 3047 3744 3150 3342 
Q 3253 2941 3253 2259 
Q 3253 1453 3087 958 
Q 2922 463 2592 192 
Q 2263 -78 1759 -78 
Q 1097 -78 719 397 
Q 266 969 266 2259 
z
M 844 2259 
Q 844 1131 1108 757 
Q 1372 384 1759 384 
Q 2147 384 2411 759 
Q 2675 1134 2675 2259 
Q 2675 3391 2411 3762 
Q 2147 4134 1753 4134 
Q 1366 4134 1134 3806 
Q 844 3388 844 2259 
z
" transform="scale(0.015625)"/>
        <path id="ArialMT-2e" d="M 581 0 
L 581 641 
L 1222 641 
L 1222 0 
L 581 0 
z
" transform="scale(0.015625)"/>
       </defs>
       <use xlink:href="#ArialMT-30"/>
       <use xlink:href="#ArialMT-2e" x="55.615234"/>
       <use xlink:href="#ArialMT-30" x="83.398438"/>
      </g>
     </g>
    </g>
    <g id="ytick_2">
     <g id="line2d_10">
      <g>
       <use xlink:href="#mdb91f4aabe" x="38.28" y="163.22791" style="stroke: #000000; stroke-width: 0.8"/>
      </g>
     </g>
     <g id="text_10">
      <!-- 1.5 -->
      <g transform="translate(20.16 166.091035) scale(0.08 -0.08)">
       <defs>
        <path id="ArialMT-31" d="M 2384 0 
L 1822 0 
L 1822 3584 
Q 1619 3391 1289 3197 
Q 959 3003 697 2906 
L 697 3450 
Q 1169 3672 1522 3987 
Q 1875 4303 2022 4600 
L 2384 4600 
L 2384 0 
z
" transform="scale(0.015625)"/>
        <path id="ArialMT-35" d="M 266 1200 
L 856 1250 
Q 922 819 1161 601 
Q 1400 384 1738 384 
Q 2144 384 2425 690 
Q 2706 997 2706 1503 
Q 2706 1984 2436 2262 
Q 2166 2541 1728 2541 
Q 1456 2541 1237 2417 
Q 1019 2294 894 2097 
L 366 2166 
L 809 4519 
L 3088 4519 
L 3088 3981 
L 1259 3981 
L 1013 2750 
Q 1425 3038 1878 3038 
Q 2478 3038 2890 2622 
Q 3303 2206 3303 1553 
Q 3303 931 2941 478 
Q 2500 -78 1738 -78 
Q 1113 -78 717 272 
Q 322 622 266 1200 
z
" transform="scale(0.015625)"/>
       </defs>
       <use xlink:href="#ArialMT-31"/>
       <use xlink:href="#ArialMT-2e" x="55.615234"/>
       <use xlink:href="#ArialMT-35" x="83.398438"/>
      </g>
     </g>
    </g>
    <g id="ytick_3">
     <g id="line2d_11">
      <g>
       <use xlink:href="#mdb91f4aabe" x="38.28" y="114.469188" style="stroke: #000000; stroke-width: 0.8"/>
      </g>
     </g>
     <g id="text_11">
      <!-- 3.0 -->
      <g transform="translate(20.16 117.332313) scale(0.08 -0.08)">
       <defs>
        <path id="ArialMT-33" d="M 269 1209 
L 831 1284 
Q 928 806 1161 595 
Q 1394 384 1728 384 
Q 2125 384 2398 659 
Q 2672 934 2672 1341 
Q 2672 1728 2419 1979 
Q 2166 2231 1775 2231 
Q 1616 2231 1378 2169 
L 1441 2663 
Q 1497 2656 1531 2656 
Q 1891 2656 2178 2843 
Q 2466 3031 2466 3422 
Q 2466 3731 2256 3934 
Q 2047 4138 1716 4138 
Q 1388 4138 1169 3931 
Q 950 3725 888 3313 
L 325 3413 
Q 428 3978 793 4289 
Q 1159 4600 1703 4600 
Q 2078 4600 2393 4439 
Q 2709 4278 2876 4000 
Q 3044 3722 3044 3409 
Q 3044 3113 2884 2869 
Q 2725 2625 2413 2481 
Q 2819 2388 3044 2092 
Q 3269 1797 3269 1353 
Q 3269 753 2831 336 
Q 2394 -81 1725 -81 
Q 1122 -81 723 278 
Q 325 638 269 1209 
z
" transform="scale(0.015625)"/>
       </defs>
       <use xlink:href="#ArialMT-33"/>
       <use xlink:href="#ArialMT-2e" x="55.615234"/>
       <use xlink:href="#ArialMT-30" x="83.398438"/>
      </g>
     </g>
    </g>
    <g id="ytick_4">
     <g id="line2d_12">
      <g>
       <use xlink:href="#mdb91f4aabe" x="38.28" y="65.710466" style="stroke: #000000; stroke-width: 0.8"/>
      </g>
     </g>
     <g id="text_12">
      <!-- 4.5 -->
      <g transform="translate(20.16 68.573591) scale(0.08 -0.08)">
       <defs>
        <path id="ArialMT-34" d="M 2069 0 
L 2069 1097 
L 81 1097 
L 81 1613 
L 2172 4581 
L 2631 4581 
L 2631 1613 
L 3250 1613 
L 3250 1097 
L 2631 1097 
L 2631 0 
L 2069 0 
z
M 2069 1613 
L 2069 3678 
L 634 1613 
L 2069 1613 
z
" transform="scale(0.015625)"/>
       </defs>
       <use xlink:href="#ArialMT-34"/>
       <use xlink:href="#ArialMT-2e" x="55.615234"/>
       <use xlink:href="#ArialMT-35" x="83.398438"/>
      </g>
     </g>
    </g>
    <g id="ytick_5">
     <g id="line2d_13">
      <g>
       <use xlink:href="#mdb91f4aabe" x="38.28" y="16.951744" style="stroke: #000000; stroke-width: 0.8"/>
      </g>
     </g>
     <g id="text_13">
      <!-- 6.0 -->
      <g transform="translate(20.16 19.814869) scale(0.08 -0.08)">
       <defs>
        <path id="ArialMT-36" d="M 3184 3459 
L 2625 3416 
Q 2550 3747 2413 3897 
Q 2184 4138 1850 4138 
Q 1581 4138 1378 3988 
Q 1113 3794 959 3422 
Q 806 3050 800 2363 
Q 1003 2672 1297 2822 
Q 1591 2972 1913 2972 
Q 2475 2972 2870 2558 
Q 3266 2144 3266 1488 
Q 3266 1056 3080 686 
Q 2894 316 2569 119 
Q 2244 -78 1831 -78 
Q 1128 -78 684 439 
Q 241 956 241 2144 
Q 241 3472 731 4075 
Q 1159 4600 1884 4600 
Q 2425 4600 2770 4297 
Q 3116 3994 3184 3459 
z
M 888 1484 
Q 888 1194 1011 928 
Q 1134 663 1356 523 
Q 1578 384 1822 384 
Q 2178 384 2434 671 
Q 2691 959 2691 1453 
Q 2691 1928 2437 2201 
Q 2184 2475 1800 2475 
Q 1419 2475 1153 2201 
Q 888 1928 888 1484 
z
" transform="scale(0.015625)"/>
       </defs>
       <use xlink:href="#ArialMT-36"/>
       <use xlink:href="#ArialMT-2e" x="55.615234"/>
       <use xlink:href="#ArialMT-30" x="83.398438"/>
      </g>
     </g>
    </g>
    <g id="text_14">
     <!-- Climate change impact [kg CO$_\mathrm{2}$-eq kg$^\mathrm{-1}$] -->
     <g transform="translate(14.4 182.273316) rotate(-90) scale(0.08 -0.08)">
      <defs>
       <path id="ArialMT-43" d="M 3763 1606 
L 4369 1453 
Q 4178 706 3683 314 
Q 3188 -78 2472 -78 
Q 1731 -78 1267 223 
Q 803 525 561 1097 
Q 319 1669 319 2325 
Q 319 3041 592 3573 
Q 866 4106 1370 4382 
Q 1875 4659 2481 4659 
Q 3169 4659 3637 4309 
Q 4106 3959 4291 3325 
L 3694 3184 
Q 3534 3684 3231 3912 
Q 2928 4141 2469 4141 
Q 1941 4141 1586 3887 
Q 1231 3634 1087 3207 
Q 944 2781 944 2328 
Q 944 1744 1114 1308 
Q 1284 872 1643 656 
Q 2003 441 2422 441 
Q 2931 441 3284 734 
Q 3638 1028 3763 1606 
z
" transform="scale(0.015625)"/>
       <path id="ArialMT-6d" d="M 422 0 
L 422 3319 
L 925 3319 
L 925 2853 
Q 1081 3097 1340 3245 
Q 1600 3394 1931 3394 
Q 2300 3394 2536 3241 
Q 2772 3088 2869 2813 
Q 3263 3394 3894 3394 
Q 4388 3394 4653 3120 
Q 4919 2847 4919 2278 
L 4919 0 
L 4359 0 
L 4359 2091 
Q 4359 2428 4304 2576 
Q 4250 2725 4106 2815 
Q 3963 2906 3769 2906 
Q 3419 2906 3187 2673 
Q 2956 2441 2956 1928 
L 2956 0 
L 2394 0 
L 2394 2156 
Q 2394 2531 2256 2718 
Q 2119 2906 1806 2906 
Q 1569 2906 1367 2781 
Q 1166 2656 1075 2415 
Q 984 2175 984 1722 
L 984 0 
L 422 0 
z
" transform="scale(0.015625)"/>
       <path id="ArialMT-20" transform="scale(0.015625)"/>
       <path id="ArialMT-63" d="M 2588 1216 
L 3141 1144 
Q 3050 572 2676 248 
Q 2303 -75 1759 -75 
Q 1078 -75 664 370 
Q 250 816 250 1647 
Q 250 2184 428 2587 
Q 606 2991 970 3192 
Q 1334 3394 1763 3394 
Q 2303 3394 2647 3120 
Q 2991 2847 3088 2344 
L 2541 2259 
Q 2463 2594 2264 2762 
Q 2066 2931 1784 2931 
Q 1359 2931 1093 2626 
Q 828 2322 828 1663 
Q 828 994 1084 691 
Q 1341 388 1753 388 
Q 2084 388 2306 591 
Q 2528 794 2588 1216 
z
" transform="scale(0.015625)"/>
       <path id="ArialMT-68" d="M 422 0 
L 422 4581 
L 984 4581 
L 984 2938 
Q 1378 3394 1978 3394 
Q 2347 3394 2619 3248 
Q 2891 3103 3008 2847 
Q 3125 2591 3125 2103 
L 3125 0 
L 2563 0 
L 2563 2103 
Q 2563 2525 2380 2717 
Q 2197 2909 1863 2909 
Q 1613 2909 1392 2779 
Q 1172 2650 1078 2428 
Q 984 2206 984 1816 
L 984 0 
L 422 0 
z
" transform="scale(0.015625)"/>
       <path id="ArialMT-67" d="M 319 -275 
L 866 -356 
Q 900 -609 1056 -725 
Q 1266 -881 1628 -881 
Q 2019 -881 2231 -725 
Q 2444 -569 2519 -288 
Q 2563 -116 2559 434 
Q 2191 0 1641 0 
Q 956 0 581 494 
Q 206 988 206 1678 
Q 206 2153 378 2554 
Q 550 2956 876 3175 
Q 1203 3394 1644 3394 
Q 2231 3394 2613 2919 
L 2613 3319 
L 3131 3319 
L 3131 450 
Q 3131 -325 2973 -648 
Q 2816 -972 2473 -1159 
Q 2131 -1347 1631 -1347 
Q 1038 -1347 672 -1080 
Q 306 -813 319 -275 
z
M 784 1719 
Q 784 1066 1043 766 
Q 1303 466 1694 466 
Q 2081 466 2343 764 
Q 2606 1063 2606 1700 
Q 2606 2309 2336 2618 
Q 2066 2928 1684 2928 
Q 1309 2928 1046 2623 
Q 784 2319 784 1719 
z
" transform="scale(0.015625)"/>
       <path id="ArialMT-5b" d="M 434 -1272 
L 434 4581 
L 1675 4581 
L 1675 4116 
L 997 4116 
L 997 -806 
L 1675 -806 
L 1675 -1272 
L 434 -1272 
z
" transform="scale(0.015625)"/>
       <path id="ArialMT-6b" d="M 425 0 
L 425 4581 
L 988 4581 
L 988 1969 
L 2319 3319 
L 3047 3319 
L 1778 2088 
L 3175 0 
L 2481 0 
L 1384 1697 
L 988 1316 
L 988 0 
L 425 0 
z
" transform="scale(0.015625)"/>
       <path id="ArialMT-4f" d="M 309 2231 
Q 309 3372 921 4017 
Q 1534 4663 2503 4663 
Q 3138 4663 3647 4359 
Q 4156 4056 4423 3514 
Q 4691 2972 4691 2284 
Q 4691 1588 4409 1038 
Q 4128 488 3612 205 
Q 3097 -78 2500 -78 
Q 1853 -78 1343 234 
Q 834 547 571 1087 
Q 309 1628 309 2231 
z
M 934 2222 
Q 934 1394 1379 917 
Q 1825 441 2497 441 
Q 3181 441 3623 922 
Q 4066 1403 4066 2288 
Q 4066 2847 3877 3264 
Q 3688 3681 3323 3911 
Q 2959 4141 2506 4141 
Q 1863 4141 1398 3698 
Q 934 3256 934 2222 
z
" transform="scale(0.015625)"/>
       <path id="DejaVuSans-32" d="M 1228 531 
L 3431 531 
L 3431 0 
L 469 0 
L 469 531 
Q 828 903 1448 1529 
Q 2069 2156 2228 2338 
Q 2531 2678 2651 2914 
Q 2772 3150 2772 3378 
Q 2772 3750 2511 3984 
Q 2250 4219 1831 4219 
Q 1534 4219 1204 4116 
Q 875 4013 500 3803 
L 500 4441 
Q 881 4594 1212 4672 
Q 1544 4750 1819 4750 
Q 2544 4750 2975 4387 
Q 3406 4025 3406 3419 
Q 3406 3131 3298 2873 
Q 3191 2616 2906 2266 
Q 2828 2175 2409 1742 
Q 1991 1309 1228 531 
z
" transform="scale(0.015625)"/>
       <path id="ArialMT-2d" d="M 203 1375 
L 203 1941 
L 1931 1941 
L 1931 1375 
L 203 1375 
z
" transform="scale(0.015625)"/>
       <path id="ArialMT-71" d="M 2538 -1272 
L 2538 353 
Q 2406 169 2170 47 
Q 1934 -75 1669 -75 
Q 1078 -75 651 397 
Q 225 869 225 1691 
Q 225 2191 398 2587 
Q 572 2984 901 3189 
Q 1231 3394 1625 3394 
Q 2241 3394 2594 2875 
L 2594 3319 
L 3100 3319 
L 3100 -1272 
L 2538 -1272 
z
M 803 1669 
Q 803 1028 1072 708 
Q 1341 388 1716 388 
Q 2075 388 2334 692 
Q 2594 997 2594 1619 
Q 2594 2281 2320 2615 
Q 2047 2950 1678 2950 
Q 1313 2950 1058 2639 
Q 803 2328 803 1669 
z
" transform="scale(0.015625)"/>
       <path id="DejaVuSans-2212" d="M 678 2272 
L 4684 2272 
L 4684 1741 
L 678 1741 
L 678 2272 
z
" transform="scale(0.015625)"/>
       <path id="DejaVuSans-31" d="M 794 531 
L 1825 531 
L 1825 4091 
L 703 3866 
L 703 4441 
L 1819 4666 
L 2450 4666 
L 2450 531 
L 3481 531 
L 3481 0 
L 794 0 
L 794 531 
z
" transform="scale(0.015625)"/>
       <path id="ArialMT-5d" d="M 1363 -1272 
L 122 -1272 
L 122 -806 
L 800 -806 
L 800 4116 
L 122 4116 
L 122 4581 
L 1363 4581 
L 1363 -1272 
z
" transform="scale(0.015625)"/>
      </defs>
      <use xlink:href="#ArialMT-43" transform="translate(0 0.684375)"/>
      <use xlink:href="#ArialMT-6c" transform="translate(72.216797 0.684375)"/>
      <use xlink:href="#ArialMT-69" transform="translate(94.433594 0.684375)"/>
      <use xlink:href="#ArialMT-6d" transform="translate(116.650391 0.684375)"/>
      <use xlink:href="#ArialMT-61" transform="translate(199.951172 0.684375)"/>
      <use xlink:href="#ArialMT-74" transform="translate(255.566406 0.684375)"/>
      <use xlink:href="#ArialMT-65" transform="translate(283.349609 0.684375)"/>
      <use xlink:href="#ArialMT-20" transform="translate(338.964844 0.684375)"/>
      <use xlink:href="#ArialMT-63" transform="translate(366.748047 0.684375)"/>
      <use xlink:href="#ArialMT-68" transform="translate(416.748047 0.684375)"/>
      <use xlink:href="#ArialMT-61" transform="translate(472.363281 0.684375)"/>
      <use xlink:href="#ArialMT-6e" transform="translate(527.978516 0.684375)"/>
      <use xlink:href="#ArialMT-67" transform="translate(583.59375 0.684375)"/>
      <use xlink:href="#ArialMT-65" transform="translate(639.208984 0.684375)"/>
      <use xlink:href="#ArialMT-20" transform="translate(694.824219 0.684375)"/>
      <use xlink:href="#ArialMT-69" transform="translate(722.607422 0.684375)"/>
      <use xlink:href="#ArialMT-6d" transform="translate(744.824219 0.684375)"/>
      <use xlink:href="#ArialMT-70" transform="translate(828.125 0.684375)"/>
      <use xlink:href="#ArialMT-61" transform="translate(883.740234 0.684375)"/>
      <use xlink:href="#ArialMT-63" transform="translate(939.355469 0.684375)"/>
      <use xlink:href="#ArialMT-74" transform="translate(989.355469 0.684375)"/>
      <use xlink:href="#ArialMT-20" transform="translate(1017.138672 0.684375)"/>
      <use xlink:href="#ArialMT-5b" transform="translate(1044.921875 0.684375)"/>
      <use xlink:href="#ArialMT-6b" transform="translate(1072.705078 0.684375)"/>
      <use xlink:href="#ArialMT-67" transform="translate(1122.705078 0.684375)"/>
      <use xlink:href="#ArialMT-20" transform="translate(1178.320312 0.684375)"/>
      <use xlink:href="#ArialMT-43" transform="translate(1206.103516 0.684375)"/>
      <use xlink:href="#ArialMT-4f" transform="translate(1278.320312 0.684375)"/>
      <use xlink:href="#DejaVuSans-32" transform="translate(1357.060547 -15.721875) scale(0.7)"/>
      <use xlink:href="#ArialMT-2d" transform="translate(1404.331055 0.684375)"/>
      <use xlink:href="#ArialMT-65" transform="translate(1437.631836 0.684375)"/>
      <use xlink:href="#ArialMT-71" transform="translate(1493.24707 0.684375)"/>
      <use xlink:href="#ArialMT-20" transform="translate(1548.862305 0.684375)"/>
      <use xlink:href="#ArialMT-6b" transform="translate(1576.645508 0.684375)"/>
      <use xlink:href="#ArialMT-67" transform="translate(1626.645508 0.684375)"/>
      <use xlink:href="#DejaVuSans-2212" transform="translate(1683.217773 38.965625) scale(0.7)"/>
      <use xlink:href="#DejaVuSans-31" transform="translate(1741.870117 38.965625) scale(0.7)"/>
      <use xlink:href="#ArialMT-5d" transform="translate(1789.140625 0.684375)"/>
     </g>
    </g>
   </g>
   <g id="line2d_14">
    <path d="M 206.85588 211.986632 
L 206.85588 7.2 
" clip-path="url(#p22d106659f)" style="fill: none; stroke-dasharray: 1.85,0.8; stroke-dashoffset: 0; stroke: #808080; stroke-width: 0.5"/>
   </g>
   <g id="patch_43">
    <path d="M 38.28 211.986632 
L 38.28 7.2 
" style="fill: none; stroke: #000000; stroke-width: 0.8; stroke-linejoin: miter; stroke-linecap: square"/>
   </g>
   <g id="patch_44">
    <path d="M 375.43176 211.986632 
L 375.43176 7.2 
" style="fill: none; stroke: #000000; stroke-width: 0.8; stroke-linejoin: miter; stroke-linecap: square"/>
   </g>
   <g id="patch_45">
    <path d="M 38.28 211.986632 
L 375.43176 211.986632 
" style="fill: none; stroke: #000000; stroke-width: 0.8; stroke-linejoin: miter; stroke-linecap: square"/>
   </g>
   <g id="patch_46">
    <path d="M 38.28 7.2 
L 375.43176 7.2 
" style="fill: none; stroke: #000000; stroke-width: 0.8; stroke-linejoin: miter; stroke-linecap: square"/>
   </g>
   <g id="text_15">
    <!-- Fossil ammonia -->
    <g style="fill: #808080" transform="translate(92.33919 25.078198) scale(0.08 -0.08)">
     <defs>
      <path id="Arial-BoldMT-46" d="M 472 0 
L 472 4581 
L 3613 4581 
L 3613 3806 
L 1397 3806 
L 1397 2722 
L 3309 2722 
L 3309 1947 
L 1397 1947 
L 1397 0 
L 472 0 
z
" transform="scale(0.015625)"/>
      <path id="Arial-BoldMT-6f" d="M 256 1706 
Q 256 2144 472 2553 
Q 688 2963 1083 3178 
Q 1478 3394 1966 3394 
Q 2719 3394 3200 2905 
Q 3681 2416 3681 1669 
Q 3681 916 3195 420 
Q 2709 -75 1972 -75 
Q 1516 -75 1102 131 
Q 688 338 472 736 
Q 256 1134 256 1706 
z
M 1156 1659 
Q 1156 1166 1390 903 
Q 1625 641 1969 641 
Q 2313 641 2545 903 
Q 2778 1166 2778 1666 
Q 2778 2153 2545 2415 
Q 2313 2678 1969 2678 
Q 1625 2678 1390 2415 
Q 1156 2153 1156 1659 
z
" transform="scale(0.015625)"/>
      <path id="Arial-BoldMT-73" d="M 150 947 
L 1031 1081 
Q 1088 825 1259 692 
Q 1431 559 1741 559 
Q 2081 559 2253 684 
Q 2369 772 2369 919 
Q 2369 1019 2306 1084 
Q 2241 1147 2013 1200 
Q 950 1434 666 1628 
Q 272 1897 272 2375 
Q 272 2806 612 3100 
Q 953 3394 1669 3394 
Q 2350 3394 2681 3172 
Q 3013 2950 3138 2516 
L 2309 2363 
Q 2256 2556 2107 2659 
Q 1959 2763 1684 2763 
Q 1338 2763 1188 2666 
Q 1088 2597 1088 2488 
Q 1088 2394 1175 2328 
Q 1294 2241 1995 2081 
Q 2697 1922 2975 1691 
Q 3250 1456 3250 1038 
Q 3250 581 2869 253 
Q 2488 -75 1741 -75 
Q 1063 -75 667 200 
Q 272 475 150 947 
z
" transform="scale(0.015625)"/>
      <path id="Arial-BoldMT-69" d="M 459 3769 
L 459 4581 
L 1338 4581 
L 1338 3769 
L 459 3769 
z
M 459 0 
L 459 3319 
L 1338 3319 
L 1338 0 
L 459 0 
z
" transform="scale(0.015625)"/>
      <path id="Arial-BoldMT-6c" d="M 459 0 
L 459 4581 
L 1338 4581 
L 1338 0 
L 459 0 
z
" transform="scale(0.015625)"/>
      <path id="Arial-BoldMT-20" transform="scale(0.015625)"/>
      <path id="Arial-BoldMT-61" d="M 1116 2306 
L 319 2450 
Q 453 2931 781 3162 
Q 1109 3394 1756 3394 
Q 2344 3394 2631 3255 
Q 2919 3116 3036 2902 
Q 3153 2688 3153 2116 
L 3144 1091 
Q 3144 653 3186 445 
Q 3228 238 3344 0 
L 2475 0 
Q 2441 88 2391 259 
Q 2369 338 2359 363 
Q 2134 144 1878 34 
Q 1622 -75 1331 -75 
Q 819 -75 523 203 
Q 228 481 228 906 
Q 228 1188 362 1408 
Q 497 1628 739 1745 
Q 981 1863 1438 1950 
Q 2053 2066 2291 2166 
L 2291 2253 
Q 2291 2506 2166 2614 
Q 2041 2722 1694 2722 
Q 1459 2722 1328 2630 
Q 1197 2538 1116 2306 
z
M 2291 1594 
Q 2122 1538 1756 1459 
Q 1391 1381 1278 1306 
Q 1106 1184 1106 997 
Q 1106 813 1243 678 
Q 1381 544 1594 544 
Q 1831 544 2047 700 
Q 2206 819 2256 991 
Q 2291 1103 2291 1419 
L 2291 1594 
z
" transform="scale(0.015625)"/>
      <path id="Arial-BoldMT-6d" d="M 394 3319 
L 1203 3319 
L 1203 2866 
Q 1638 3394 2238 3394 
Q 2556 3394 2790 3262 
Q 3025 3131 3175 2866 
Q 3394 3131 3647 3262 
Q 3900 3394 4188 3394 
Q 4553 3394 4806 3245 
Q 5059 3097 5184 2809 
Q 5275 2597 5275 2122 
L 5275 0 
L 4397 0 
L 4397 1897 
Q 4397 2391 4306 2534 
Q 4184 2722 3931 2722 
Q 3747 2722 3584 2609 
Q 3422 2497 3350 2280 
Q 3278 2063 3278 1594 
L 3278 0 
L 2400 0 
L 2400 1819 
Q 2400 2303 2353 2443 
Q 2306 2584 2207 2653 
Q 2109 2722 1941 2722 
Q 1738 2722 1575 2612 
Q 1413 2503 1342 2297 
Q 1272 2091 1272 1613 
L 1272 0 
L 394 0 
L 394 3319 
z
" transform="scale(0.015625)"/>
      <path id="Arial-BoldMT-6e" d="M 3478 0 
L 2600 0 
L 2600 1694 
Q 2600 2231 2544 2389 
Q 2488 2547 2361 2634 
Q 2234 2722 2056 2722 
Q 1828 2722 1647 2597 
Q 1466 2472 1398 2265 
Q 1331 2059 1331 1503 
L 1331 0 
L 453 0 
L 453 3319 
L 1269 3319 
L 1269 2831 
Q 1703 3394 2363 3394 
Q 2653 3394 2893 3289 
Q 3134 3184 3257 3021 
Q 3381 2859 3429 2653 
Q 3478 2447 3478 2063 
L 3478 0 
z
" transform="scale(0.015625)"/>
     </defs>
     <use xlink:href="#Arial-BoldMT-46"/>
     <use xlink:href="#Arial-BoldMT-6f" x="61.083984"/>
     <use xlink:href="#Arial-BoldMT-73" x="122.167969"/>
     <use xlink:href="#Arial-BoldMT-73" x="177.783203"/>
     <use xlink:href="#Arial-BoldMT-69" x="233.398438"/>
     <use xlink:href="#Arial-BoldMT-6c" x="261.181641"/>
     <use xlink:href="#Arial-BoldMT-20" x="288.964844"/>
     <use xlink:href="#Arial-BoldMT-61" x="316.748047"/>
     <use xlink:href="#Arial-BoldMT-6d" x="372.363281"/>
     <use xlink:href="#Arial-BoldMT-6d" x="461.279297"/>
     <use xlink:href="#Arial-BoldMT-6f" x="550.195312"/>
     <use xlink:href="#Arial-BoldMT-6e" x="611.279297"/>
     <use xlink:href="#Arial-BoldMT-69" x="672.363281"/>
     <use xlink:href="#Arial-BoldMT-61" x="700.146484"/>
    </g>
   </g>
   <g id="text_16">
    <!-- Green ammonia -->
    <g style="fill: #808080" transform="translate(260.91257 25.078198) scale(0.08 -0.08)">
     <defs>
      <path id="Arial-BoldMT-47" d="M 2597 1684 
L 2597 2456 
L 4591 2456 
L 4591 631 
Q 4300 350 3748 136 
Q 3197 -78 2631 -78 
Q 1913 -78 1378 223 
Q 844 525 575 1086 
Q 306 1647 306 2306 
Q 306 3022 606 3578 
Q 906 4134 1484 4431 
Q 1925 4659 2581 4659 
Q 3434 4659 3914 4301 
Q 4394 3944 4531 3313 
L 3613 3141 
Q 3516 3478 3248 3673 
Q 2981 3869 2581 3869 
Q 1975 3869 1617 3484 
Q 1259 3100 1259 2344 
Q 1259 1528 1621 1120 
Q 1984 713 2572 713 
Q 2863 713 3155 827 
Q 3447 941 3656 1103 
L 3656 1684 
L 2597 1684 
z
" transform="scale(0.015625)"/>
      <path id="Arial-BoldMT-72" d="M 1300 0 
L 422 0 
L 422 3319 
L 1238 3319 
L 1238 2847 
Q 1447 3181 1614 3287 
Q 1781 3394 1994 3394 
Q 2294 3394 2572 3228 
L 2300 2463 
Q 2078 2606 1888 2606 
Q 1703 2606 1575 2504 
Q 1447 2403 1373 2137 
Q 1300 1872 1300 1025 
L 1300 0 
z
" transform="scale(0.015625)"/>
      <path id="Arial-BoldMT-65" d="M 2381 1056 
L 3256 909 
Q 3088 428 2723 176 
Q 2359 -75 1813 -75 
Q 947 -75 531 491 
Q 203 944 203 1634 
Q 203 2459 634 2926 
Q 1066 3394 1725 3394 
Q 2466 3394 2894 2905 
Q 3322 2416 3303 1406 
L 1103 1406 
Q 1113 1016 1316 798 
Q 1519 581 1822 581 
Q 2028 581 2168 693 
Q 2309 806 2381 1056 
z
M 2431 1944 
Q 2422 2325 2234 2523 
Q 2047 2722 1778 2722 
Q 1491 2722 1303 2513 
Q 1116 2303 1119 1944 
L 2431 1944 
z
" transform="scale(0.015625)"/>
     </defs>
     <use xlink:href="#Arial-BoldMT-47"/>
     <use xlink:href="#Arial-BoldMT-72" x="77.783203"/>
     <use xlink:href="#Arial-BoldMT-65" x="116.699219"/>
     <use xlink:href="#Arial-BoldMT-65" x="172.314453"/>
     <use xlink:href="#Arial-BoldMT-6e" x="227.929688"/>
     <use xlink:href="#Arial-BoldMT-20" x="289.013672"/>
     <use xlink:href="#Arial-BoldMT-61" x="316.796875"/>
     <use xlink:href="#Arial-BoldMT-6d" x="372.412109"/>
     <use xlink:href="#Arial-BoldMT-6d" x="461.328125"/>
     <use xlink:href="#Arial-BoldMT-6f" x="550.244141"/>
     <use xlink:href="#Arial-BoldMT-6e" x="611.328125"/>
     <use xlink:href="#Arial-BoldMT-69" x="672.412109"/>
     <use xlink:href="#Arial-BoldMT-61" x="700.195312"/>
    </g>
   </g>
   <g id="legend_1"/>
  </g>
  <g id="legend_2">
   <g id="patch_47">
    <path d="M 67.644005 252.630498 
L 79.644005 252.630498 
L 79.644005 247.030498 
L 67.644005 247.030498 
z
" style="fill: #808080"/>
   </g>
   <g id="text_17">
    <!-- Fossil ammonia -->
    <g transform="translate(84.444005 252.630498) scale(0.08 -0.08)">
     <defs>
      <path id="ArialMT-46" d="M 525 0 
L 525 4581 
L 3616 4581 
L 3616 4041 
L 1131 4041 
L 1131 2622 
L 3281 2622 
L 3281 2081 
L 1131 2081 
L 1131 0 
L 525 0 
z
" transform="scale(0.015625)"/>
      <path id="ArialMT-73" d="M 197 991 
L 753 1078 
Q 800 744 1014 566 
Q 1228 388 1613 388 
Q 2000 388 2187 545 
Q 2375 703 2375 916 
Q 2375 1106 2209 1216 
Q 2094 1291 1634 1406 
Q 1016 1563 777 1677 
Q 538 1791 414 1992 
Q 291 2194 291 2438 
Q 291 2659 392 2848 
Q 494 3038 669 3163 
Q 800 3259 1026 3326 
Q 1253 3394 1513 3394 
Q 1903 3394 2198 3281 
Q 2494 3169 2634 2976 
Q 2775 2784 2828 2463 
L 2278 2388 
Q 2241 2644 2061 2787 
Q 1881 2931 1553 2931 
Q 1166 2931 1000 2803 
Q 834 2675 834 2503 
Q 834 2394 903 2306 
Q 972 2216 1119 2156 
Q 1203 2125 1616 2013 
Q 2213 1853 2448 1751 
Q 2684 1650 2818 1456 
Q 2953 1263 2953 975 
Q 2953 694 2789 445 
Q 2625 197 2315 61 
Q 2006 -75 1616 -75 
Q 969 -75 630 194 
Q 291 463 197 991 
z
" transform="scale(0.015625)"/>
     </defs>
     <use xlink:href="#ArialMT-46"/>
     <use xlink:href="#ArialMT-6f" x="61.083984"/>
     <use xlink:href="#ArialMT-73" x="116.699219"/>
     <use xlink:href="#ArialMT-73" x="166.699219"/>
     <use xlink:href="#ArialMT-69" x="216.699219"/>
     <use xlink:href="#ArialMT-6c" x="238.916016"/>
     <use xlink:href="#ArialMT-20" x="261.132812"/>
     <use xlink:href="#ArialMT-61" x="288.916016"/>
     <use xlink:href="#ArialMT-6d" x="344.53125"/>
     <use xlink:href="#ArialMT-6d" x="427.832031"/>
     <use xlink:href="#ArialMT-6f" x="511.132812"/>
     <use xlink:href="#ArialMT-6e" x="566.748047"/>
     <use xlink:href="#ArialMT-69" x="622.363281"/>
     <use xlink:href="#ArialMT-61" x="644.580078"/>
    </g>
   </g>
   <g id="patch_48">
    <path d="M 67.644005 263.946748 
L 79.644005 263.946748 
L 79.644005 258.346748 
L 67.644005 258.346748 
z
" style="fill: #a9d898"/>
   </g>
   <g id="text_18">
    <!-- Green ammonia -->
    <g transform="translate(84.444005 263.946748) scale(0.08 -0.08)">
     <defs>
      <path id="ArialMT-47" d="M 2638 1797 
L 2638 2334 
L 4578 2338 
L 4578 638 
Q 4131 281 3656 101 
Q 3181 -78 2681 -78 
Q 2006 -78 1454 211 
Q 903 500 622 1047 
Q 341 1594 341 2269 
Q 341 2938 620 3517 
Q 900 4097 1425 4378 
Q 1950 4659 2634 4659 
Q 3131 4659 3532 4498 
Q 3934 4338 4162 4050 
Q 4391 3763 4509 3300 
L 3963 3150 
Q 3859 3500 3706 3700 
Q 3553 3900 3268 4020 
Q 2984 4141 2638 4141 
Q 2222 4141 1919 4014 
Q 1616 3888 1430 3681 
Q 1244 3475 1141 3228 
Q 966 2803 966 2306 
Q 966 1694 1177 1281 
Q 1388 869 1791 669 
Q 2194 469 2647 469 
Q 3041 469 3416 620 
Q 3791 772 3984 944 
L 3984 1797 
L 2638 1797 
z
" transform="scale(0.015625)"/>
      <path id="ArialMT-72" d="M 416 0 
L 416 3319 
L 922 3319 
L 922 2816 
Q 1116 3169 1280 3281 
Q 1444 3394 1641 3394 
Q 1925 3394 2219 3213 
L 2025 2691 
Q 1819 2813 1613 2813 
Q 1428 2813 1281 2702 
Q 1134 2591 1072 2394 
Q 978 2094 978 1738 
L 978 0 
L 416 0 
z
" transform="scale(0.015625)"/>
     </defs>
     <use xlink:href="#ArialMT-47"/>
     <use xlink:href="#ArialMT-72" x="77.783203"/>
     <use xlink:href="#ArialMT-65" x="111.083984"/>
     <use xlink:href="#ArialMT-65" x="166.699219"/>
     <use xlink:href="#ArialMT-6e" x="222.314453"/>
     <use xlink:href="#ArialMT-20" x="277.929688"/>
     <use xlink:href="#ArialMT-61" x="305.712891"/>
     <use xlink:href="#ArialMT-6d" x="361.328125"/>
     <use xlink:href="#ArialMT-6d" x="444.628906"/>
     <use xlink:href="#ArialMT-6f" x="527.929688"/>
     <use xlink:href="#ArialMT-6e" x="583.544922"/>
     <use xlink:href="#ArialMT-69" x="639.160156"/>
     <use xlink:href="#ArialMT-61" x="661.376953"/>
    </g>
   </g>
   <g id="patch_49">
    <path d="M 157.799005 252.630498 
L 169.799005 252.630498 
L 169.799005 247.030498 
L 157.799005 247.030498 
z
" style="fill: #fb7b71"/>
   </g>
   <g id="text_19">
    <!-- Electricity -->
    <g transform="translate(174.599005 252.630498) scale(0.08 -0.08)">
     <defs>
      <path id="ArialMT-45" d="M 506 0 
L 506 4581 
L 3819 4581 
L 3819 4041 
L 1113 4041 
L 1113 2638 
L 3647 2638 
L 3647 2100 
L 1113 2100 
L 1113 541 
L 3925 541 
L 3925 0 
L 506 0 
z
" transform="scale(0.015625)"/>
      <path id="ArialMT-79" d="M 397 -1278 
L 334 -750 
Q 519 -800 656 -800 
Q 844 -800 956 -737 
Q 1069 -675 1141 -563 
Q 1194 -478 1313 -144 
Q 1328 -97 1363 -6 
L 103 3319 
L 709 3319 
L 1400 1397 
Q 1534 1031 1641 628 
Q 1738 1016 1872 1384 
L 2581 3319 
L 3144 3319 
L 1881 -56 
Q 1678 -603 1566 -809 
Q 1416 -1088 1222 -1217 
Q 1028 -1347 759 -1347 
Q 597 -1347 397 -1278 
z
" transform="scale(0.015625)"/>
     </defs>
     <use xlink:href="#ArialMT-45"/>
     <use xlink:href="#ArialMT-6c" x="66.699219"/>
     <use xlink:href="#ArialMT-65" x="88.916016"/>
     <use xlink:href="#ArialMT-63" x="144.53125"/>
     <use xlink:href="#ArialMT-74" x="194.53125"/>
     <use xlink:href="#ArialMT-72" x="222.314453"/>
     <use xlink:href="#ArialMT-69" x="255.615234"/>
     <use xlink:href="#ArialMT-63" x="277.832031"/>
     <use xlink:href="#ArialMT-69" x="327.832031"/>
     <use xlink:href="#ArialMT-74" x="350.048828"/>
     <use xlink:href="#ArialMT-79" x="377.832031"/>
    </g>
   </g>
   <g id="patch_50">
    <path d="M 157.799005 264.137998 
L 169.799005 264.137998 
L 169.799005 258.537998 
L 157.799005 258.537998 
z
" style="fill: #b71205"/>
   </g>
   <g id="text_20">
    <!-- Cooling water -->
    <g transform="translate(174.599005 264.137998) scale(0.08 -0.08)">
     <defs>
      <path id="ArialMT-77" d="M 1034 0 
L 19 3319 
L 600 3319 
L 1128 1403 
L 1325 691 
Q 1338 744 1497 1375 
L 2025 3319 
L 2603 3319 
L 3100 1394 
L 3266 759 
L 3456 1400 
L 4025 3319 
L 4572 3319 
L 3534 0 
L 2950 0 
L 2422 1988 
L 2294 2553 
L 1622 0 
L 1034 0 
z
" transform="scale(0.015625)"/>
     </defs>
     <use xlink:href="#ArialMT-43"/>
     <use xlink:href="#ArialMT-6f" x="72.216797"/>
     <use xlink:href="#ArialMT-6f" x="127.832031"/>
     <use xlink:href="#ArialMT-6c" x="183.447266"/>
     <use xlink:href="#ArialMT-69" x="205.664062"/>
     <use xlink:href="#ArialMT-6e" x="227.880859"/>
     <use xlink:href="#ArialMT-67" x="283.496094"/>
     <use xlink:href="#ArialMT-20" x="339.111328"/>
     <use xlink:href="#ArialMT-77" x="366.894531"/>
     <use xlink:href="#ArialMT-61" x="439.111328"/>
     <use xlink:href="#ArialMT-74" x="494.726562"/>
     <use xlink:href="#ArialMT-65" x="522.509766"/>
     <use xlink:href="#ArialMT-72" x="578.125"/>
    </g>
   </g>
   <g id="patch_51">
    <path d="M 239.510255 252.630498 
L 251.510255 252.630498 
L 251.510255 247.030498 
L 239.510255 247.030498 
z
" style="fill: #a78dd8"/>
   </g>
   <g id="text_21">
    <!-- Direct emissions -->
    <g transform="translate(256.310255 252.630498) scale(0.08 -0.08)">
     <defs>
      <path id="ArialMT-44" d="M 494 0 
L 494 4581 
L 2072 4581 
Q 2606 4581 2888 4516 
Q 3281 4425 3559 4188 
Q 3922 3881 4101 3404 
Q 4281 2928 4281 2316 
Q 4281 1794 4159 1391 
Q 4038 988 3847 723 
Q 3656 459 3429 307 
Q 3203 156 2883 78 
Q 2563 0 2147 0 
L 494 0 
z
M 1100 541 
L 2078 541 
Q 2531 541 2789 625 
Q 3047 709 3200 863 
Q 3416 1078 3536 1442 
Q 3656 1806 3656 2325 
Q 3656 3044 3420 3430 
Q 3184 3816 2847 3947 
Q 2603 4041 2063 4041 
L 1100 4041 
L 1100 541 
z
" transform="scale(0.015625)"/>
     </defs>
     <use xlink:href="#ArialMT-44"/>
     <use xlink:href="#ArialMT-69" x="72.216797"/>
     <use xlink:href="#ArialMT-72" x="94.433594"/>
     <use xlink:href="#ArialMT-65" x="127.734375"/>
     <use xlink:href="#ArialMT-63" x="183.349609"/>
     <use xlink:href="#ArialMT-74" x="233.349609"/>
     <use xlink:href="#ArialMT-20" x="261.132812"/>
     <use xlink:href="#ArialMT-65" x="288.916016"/>
     <use xlink:href="#ArialMT-6d" x="344.53125"/>
     <use xlink:href="#ArialMT-69" x="427.832031"/>
     <use xlink:href="#ArialMT-73" x="450.048828"/>
     <use xlink:href="#ArialMT-73" x="500.048828"/>
     <use xlink:href="#ArialMT-69" x="550.048828"/>
     <use xlink:href="#ArialMT-6f" x="572.265625"/>
     <use xlink:href="#ArialMT-6e" x="627.880859"/>
     <use xlink:href="#ArialMT-73" x="683.496094"/>
    </g>
   </g>
  </g>
 </g>
 <defs>
  <clipPath id="p22d106659f">
   <rect x="38.28" y="7.2" width="337.15176" height="204.786632"/>
  </clipPath>
 </defs>
</svg>
