<?xml version="1.0" encoding="utf-8" standalone="no"?>
<!DOCTYPE svg PUBLIC "-//W3C//DTD SVG 1.1//EN"
  "http://www.w3.org/Graphics/SVG/1.1/DTD/svg11.dtd">
<svg xmlns:xlink="http://www.w3.org/1999/xlink" width="514.77984pt" height="276.523873pt" viewBox="0 0 514.77984 276.523873" xmlns="http://www.w3.org/2000/svg" version="1.1">
 <metadata>
  <rdf:RDF xmlns:dc="http://purl.org/dc/elements/1.1/" xmlns:cc="http://creativecommons.org/ns#" xmlns:rdf="http://www.w3.org/1999/02/22-rdf-syntax-ns#">
   <cc:Work>
    <dc:type rdf:resource="http://purl.org/dc/dcmitype/StillImage"/>
    <dc:date>2025-09-09T15:06:30.075531</dc:date>
    <dc:format>image/svg+xml</dc:format>
    <dc:creator>
     <cc:Agent>
      <dc:title>Matplotlib v3.9.2, https://matplotlib.org/</dc:title>
     </cc:Agent>
    </dc:creator>
   </cc:Work>
  </rdf:RDF>
 </metadata>
 <defs>
  <style type="text/css">*{stroke-linejoin: round; stroke-linecap: butt}</style>
 </defs>
 <g id="figure_1">
  <g id="patch_1">
   <path d="M 0 276.523873 
L 514.77984 276.523873 
L 514.77984 0 
L 0 0 
z
" style="fill: #ffffff"/>
  </g>
  <g id="axes_1">
   <g id="patch_2">
    <path d="M 39.45 210.131273 
L 252.79992 210.131273 
L 252.79992 20.357813 
L 39.45 20.357813 
z
" style="fill: #ffffff"/>
   </g>
   <g id="patch_3">
    <path d="M 50.117496 210.131273 
L 71.452488 210.131273 
L 71.452488 143.696654 
L 50.117496 143.696654 
z
" clip-path="url(#pff5fd3fd8b)" style="fill: #808080"/>
   </g>
   <g id="patch_4">
    <path d="M 92.78748 210.131273 
L 114.122472 210.131273 
L 114.122472 210.131273 
L 92.78748 210.131273 
z
" clip-path="url(#pff5fd3fd8b)" style="fill: #808080"/>
   </g>
   <g id="patch_5">
    <path d="M 135.457464 210.131273 
L 156.792456 210.131273 
L 156.792456 210.131273 
L 135.457464 210.131273 
z
" clip-path="url(#pff5fd3fd8b)" style="fill: #808080"/>
   </g>
   <g id="patch_6">
    <path d="M 178.127448 210.131273 
L 199.46244 210.131273 
L 199.46244 210.131273 
L 178.127448 210.131273 
z
" clip-path="url(#pff5fd3fd8b)" style="fill: #808080"/>
   </g>
   <g id="patch_7">
    <path d="M 220.797432 210.131273 
L 242.132424 210.131273 
L 242.132424 210.131273 
L 220.797432 210.131273 
z
" clip-path="url(#pff5fd3fd8b)" style="fill: #808080"/>
   </g>
   <g id="patch_8">
    <path d="M 50.117496 210.131273 
L 71.452488 210.131273 
L 71.452488 210.131273 
L 50.117496 210.131273 
z
" clip-path="url(#pff5fd3fd8b)" style="fill: #f75e84"/>
   </g>
   <g id="patch_9">
    <path d="M 92.78748 210.131273 
L 114.122472 210.131273 
L 114.122472 157.722448 
L 92.78748 157.722448 
z
" clip-path="url(#pff5fd3fd8b)" style="fill: #f75e84"/>
   </g>
   <g id="patch_10">
    <path d="M 135.457464 210.131273 
L 156.792456 210.131273 
L 156.792456 151.795672 
L 135.457464 151.795672 
z
" clip-path="url(#pff5fd3fd8b)" style="fill: #f75e84"/>
   </g>
   <g id="patch_11">
    <path d="M 178.127448 210.131273 
L 199.46244 210.131273 
L 199.46244 157.722448 
L 178.127448 157.722448 
z
" clip-path="url(#pff5fd3fd8b)" style="fill: #f75e84"/>
   </g>
   <g id="patch_12">
    <path d="M 220.797432 210.131273 
L 242.132424 210.131273 
L 242.132424 151.795672 
L 220.797432 151.795672 
z
" clip-path="url(#pff5fd3fd8b)" style="fill: #f75e84"/>
   </g>
   <g id="patch_13">
    <path d="M 50.117496 210.131273 
L 71.452488 210.131273 
L 71.452488 210.131273 
L 50.117496 210.131273 
z
" clip-path="url(#pff5fd3fd8b)" style="fill: #f78c6b"/>
   </g>
   <g id="patch_14">
    <path d="M 92.78748 157.722448 
L 114.122472 157.722448 
L 114.122472 140.563764 
L 92.78748 140.563764 
z
" clip-path="url(#pff5fd3fd8b)" style="fill: #f78c6b"/>
   </g>
   <g id="patch_15">
    <path d="M 135.457464 210.131273 
L 156.792456 210.131273 
L 156.792456 210.131273 
L 135.457464 210.131273 
z
" clip-path="url(#pff5fd3fd8b)" style="fill: #f78c6b"/>
   </g>
   <g id="patch_16">
    <path d="M 178.127448 157.722448 
L 199.46244 157.722448 
L 199.46244 127.766237 
L 178.127448 127.766237 
z
" clip-path="url(#pff5fd3fd8b)" style="fill: #f78c6b"/>
   </g>
   <g id="patch_17">
    <path d="M 220.797432 210.131273 
L 242.132424 210.131273 
L 242.132424 210.131273 
L 220.797432 210.131273 
z
" clip-path="url(#pff5fd3fd8b)" style="fill: #f78c6b"/>
   </g>
   <g id="patch_18">
    <path d="M 50.117496 210.131273 
L 71.452488 210.131273 
L 71.452488 210.131273 
L 50.117496 210.131273 
z
" clip-path="url(#pff5fd3fd8b)" style="fill: #ffd166"/>
   </g>
   <g id="patch_19">
    <path d="M 92.78748 210.131273 
L 114.122472 210.131273 
L 114.122472 210.131273 
L 92.78748 210.131273 
z
" clip-path="url(#pff5fd3fd8b)" style="fill: #ffd166"/>
   </g>
   <g id="patch_20">
    <path d="M 135.457464 151.795672 
L 156.792456 151.795672 
L 156.792456 91.117194 
L 135.457464 91.117194 
z
" clip-path="url(#pff5fd3fd8b)" style="fill: #ffd166"/>
   </g>
   <g id="patch_21">
    <path d="M 178.127448 210.131273 
L 199.46244 210.131273 
L 199.46244 210.131273 
L 178.127448 210.131273 
z
" clip-path="url(#pff5fd3fd8b)" style="fill: #ffd166"/>
   </g>
   <g id="patch_22">
    <path d="M 220.797432 151.795672 
L 242.132424 151.795672 
L 242.132424 85.593991 
L 220.797432 85.593991 
z
" clip-path="url(#pff5fd3fd8b)" style="fill: #ffd166"/>
   </g>
   <g id="patch_23">
    <path d="M 50.117496 210.131273 
L 71.452488 210.131273 
L 71.452488 210.131273 
L 50.117496 210.131273 
z
" clip-path="url(#pff5fd3fd8b)" style="fill: #83d483"/>
   </g>
   <g id="patch_24">
    <path d="M 92.78748 140.563764 
L 114.122472 140.563764 
L 114.122472 134.381563 
L 92.78748 134.381563 
z
" clip-path="url(#pff5fd3fd8b)" style="fill: #83d483"/>
   </g>
   <g id="patch_25">
    <path d="M 135.457464 91.117194 
L 156.792456 91.117194 
L 156.792456 87.769116 
L 135.457464 87.769116 
z
" clip-path="url(#pff5fd3fd8b)" style="fill: #83d483"/>
   </g>
   <g id="patch_26">
    <path d="M 178.127448 127.766237 
L 199.46244 127.766237 
L 199.46244 121.584036 
L 178.127448 121.584036 
z
" clip-path="url(#pff5fd3fd8b)" style="fill: #83d483"/>
   </g>
   <g id="patch_27">
    <path d="M 220.797432 85.593991 
L 242.132424 85.593991 
L 242.132424 82.245914 
L 220.797432 82.245914 
z
" clip-path="url(#pff5fd3fd8b)" style="fill: #83d483"/>
   </g>
   <g id="patch_28">
    <path d="M 50.117496 210.131273 
L 71.452488 210.131273 
L 71.452488 210.131273 
L 50.117496 210.131273 
z
" clip-path="url(#pff5fd3fd8b)" style="fill: #06d6a0"/>
   </g>
   <g id="patch_29">
    <path d="M 92.78748 134.381563 
L 114.122472 134.381563 
L 114.122472 134.342048 
L 92.78748 134.342048 
z
" clip-path="url(#pff5fd3fd8b)" style="fill: #06d6a0"/>
   </g>
   <g id="patch_30">
    <path d="M 135.457464 87.769116 
L 156.792456 87.769116 
L 156.792456 87.569438 
L 135.457464 87.569438 
z
" clip-path="url(#pff5fd3fd8b)" style="fill: #06d6a0"/>
   </g>
   <g id="patch_31">
    <path d="M 178.127448 121.584036 
L 199.46244 121.584036 
L 199.46244 121.544521 
L 178.127448 121.544521 
z
" clip-path="url(#pff5fd3fd8b)" style="fill: #06d6a0"/>
   </g>
   <g id="patch_32">
    <path d="M 220.797432 82.245914 
L 242.132424 82.245914 
L 242.132424 82.046236 
L 220.797432 82.046236 
z
" clip-path="url(#pff5fd3fd8b)" style="fill: #06d6a0"/>
   </g>
   <g id="patch_33">
    <path d="M 50.117496 210.131273 
L 71.452488 210.131273 
L 71.452488 210.131273 
L 50.117496 210.131273 
z
" clip-path="url(#pff5fd3fd8b)" style="fill: #0cb0a9"/>
   </g>
   <g id="patch_34">
    <path d="M 92.78748 134.342048 
L 114.122472 134.342048 
L 114.122472 130.602393 
L 92.78748 130.602393 
z
" clip-path="url(#pff5fd3fd8b)" style="fill: #0cb0a9"/>
   </g>
   <g id="patch_35">
    <path d="M 135.457464 87.569438 
L 156.792456 87.569438 
L 156.792456 82.371572 
L 135.457464 82.371572 
z
" clip-path="url(#pff5fd3fd8b)" style="fill: #0cb0a9"/>
   </g>
   <g id="patch_36">
    <path d="M 178.127448 121.544521 
L 199.46244 121.544521 
L 199.46244 117.804865 
L 178.127448 117.804865 
z
" clip-path="url(#pff5fd3fd8b)" style="fill: #0cb0a9"/>
   </g>
   <g id="patch_37">
    <path d="M 220.797432 82.046236 
L 242.132424 82.046236 
L 242.132424 76.848369 
L 220.797432 76.848369 
z
" clip-path="url(#pff5fd3fd8b)" style="fill: #0cb0a9"/>
   </g>
   <g id="patch_38">
    <path d="M 50.117496 210.131273 
L 71.452488 210.131273 
L 71.452488 210.131273 
L 50.117496 210.131273 
z
" clip-path="url(#pff5fd3fd8b)" style="fill: #039cf0"/>
   </g>
   <g id="patch_39">
    <path d="M 92.78748 210.131273 
L 114.122472 210.131273 
L 114.122472 210.131273 
L 92.78748 210.131273 
z
" clip-path="url(#pff5fd3fd8b)" style="fill: #039cf0"/>
   </g>
   <g id="patch_40">
    <path d="M 135.457464 210.131273 
L 156.792456 210.131273 
L 156.792456 210.131273 
L 135.457464 210.131273 
z
" clip-path="url(#pff5fd3fd8b)" style="fill: #039cf0"/>
   </g>
   <g id="patch_41">
    <path d="M 178.127448 210.131273 
L 199.46244 210.131273 
L 199.46244 210.131273 
L 178.127448 210.131273 
z
" clip-path="url(#pff5fd3fd8b)" style="fill: #039cf0"/>
   </g>
   <g id="patch_42">
    <path d="M 220.797432 210.131273 
L 242.132424 210.131273 
L 242.132424 210.131273 
L 220.797432 210.131273 
z
" clip-path="url(#pff5fd3fd8b)" style="fill: #039cf0"/>
   </g>
   <g id="LineCollection_1">
    <path d="M 60.784992 156.983578 
L 60.784992 130.40973 
" clip-path="url(#pff5fd3fd8b)" style="fill: none; stroke: #000000; stroke-width: 0.75"/>
    <path d="M 103.454976 132.956732 
L 103.454976 128.212396 
" clip-path="url(#pff5fd3fd8b)" style="fill: none; stroke: #000000; stroke-width: 0.75"/>
    <path d="M 146.12496 82.903982 
L 146.12496 80.05738 
" clip-path="url(#pff5fd3fd8b)" style="fill: none; stroke: #000000; stroke-width: 0.75"/>
    <path d="M 188.794944 125.998372 
L 188.794944 109.630411 
" clip-path="url(#pff5fd3fd8b)" style="fill: none; stroke: #000000; stroke-width: 0.75"/>
    <path d="M 231.464928 79.582947 
L 231.464928 74.12696 
" clip-path="url(#pff5fd3fd8b)" style="fill: none; stroke: #000000; stroke-width: 0.75"/>
   </g>
   <g id="line2d_1">
    <defs>
     <path id="m9c051b7052" d="M 3 0 
L -3 -0 
" style="stroke: #000000; stroke-width: 0.75"/>
    </defs>
    <g clip-path="url(#pff5fd3fd8b)">
     <use xlink:href="#m9c051b7052" x="60.784992" y="156.983578" style="stroke: #000000; stroke-width: 0.75"/>
     <use xlink:href="#m9c051b7052" x="103.454976" y="132.956732" style="stroke: #000000; stroke-width: 0.75"/>
     <use xlink:href="#m9c051b7052" x="146.12496" y="82.903982" style="stroke: #000000; stroke-width: 0.75"/>
     <use xlink:href="#m9c051b7052" x="188.794944" y="125.998372" style="stroke: #000000; stroke-width: 0.75"/>
     <use xlink:href="#m9c051b7052" x="231.464928" y="79.582947" style="stroke: #000000; stroke-width: 0.75"/>
    </g>
   </g>
   <g id="line2d_2">
    <g clip-path="url(#pff5fd3fd8b)">
     <use xlink:href="#m9c051b7052" x="60.784992" y="130.40973" style="stroke: #000000; stroke-width: 0.75"/>
     <use xlink:href="#m9c051b7052" x="103.454976" y="128.212396" style="stroke: #000000; stroke-width: 0.75"/>
     <use xlink:href="#m9c051b7052" x="146.12496" y="80.05738" style="stroke: #000000; stroke-width: 0.75"/>
     <use xlink:href="#m9c051b7052" x="188.794944" y="109.630411" style="stroke: #000000; stroke-width: 0.75"/>
     <use xlink:href="#m9c051b7052" x="231.464928" y="74.12696" style="stroke: #000000; stroke-width: 0.75"/>
    </g>
   </g>
   <g id="matplotlib.axis_1">
    <g id="xtick_1">
     <g id="line2d_3">
      <defs>
       <path id="m99a875278c" d="M 0 0 
L 0 3.5 
" style="stroke: #000000; stroke-width: 0.8"/>
      </defs>
      <g>
       <use xlink:href="#m99a875278c" x="60.784992" y="210.131273" style="stroke: #000000; stroke-width: 0.8"/>
      </g>
     </g>
     <g id="text_1">
      <!-- Cumene -->
      <g transform="translate(44.721984 223.215413) scale(0.085 -0.085)">
       <defs>
        <path id="ArialMT-43" d="M 3763 1606 
L 4369 1453 
Q 4178 706 3683 314 
Q 3188 -78 2472 -78 
Q 1731 -78 1267 223 
Q 803 525 561 1097 
Q 319 1669 319 2325 
Q 319 3041 592 3573 
Q 866 4106 1370 4382 
Q 1875 4659 2481 4659 
Q 3169 4659 3637 4309 
Q 4106 3959 4291 3325 
L 3694 3184 
Q 3534 3684 3231 3912 
Q 2928 4141 2469 4141 
Q 1941 4141 1586 3887 
Q 1231 3634 1087 3207 
Q 944 2781 944 2328 
Q 944 1744 1114 1308 
Q 1284 872 1643 656 
Q 2003 441 2422 441 
Q 2931 441 3284 734 
Q 3638 1028 3763 1606 
z
" transform="scale(0.015625)"/>
        <path id="ArialMT-75" d="M 2597 0 
L 2597 488 
Q 2209 -75 1544 -75 
Q 1250 -75 995 37 
Q 741 150 617 320 
Q 494 491 444 738 
Q 409 903 409 1263 
L 409 3319 
L 972 3319 
L 972 1478 
Q 972 1038 1006 884 
Q 1059 663 1231 536 
Q 1403 409 1656 409 
Q 1909 409 2131 539 
Q 2353 669 2445 892 
Q 2538 1116 2538 1541 
L 2538 3319 
L 3100 3319 
L 3100 0 
L 2597 0 
z
" transform="scale(0.015625)"/>
        <path id="ArialMT-6d" d="M 422 0 
L 422 3319 
L 925 3319 
L 925 2853 
Q 1081 3097 1340 3245 
Q 1600 3394 1931 3394 
Q 2300 3394 2536 3241 
Q 2772 3088 2869 2813 
Q 3263 3394 3894 3394 
Q 4388 3394 4653 3120 
Q 4919 2847 4919 2278 
L 4919 0 
L 4359 0 
L 4359 2091 
Q 4359 2428 4304 2576 
Q 4250 2725 4106 2815 
Q 3963 2906 3769 2906 
Q 3419 2906 3187 2673 
Q 2956 2441 2956 1928 
L 2956 0 
L 2394 0 
L 2394 2156 
Q 2394 2531 2256 2718 
Q 2119 2906 1806 2906 
Q 1569 2906 1367 2781 
Q 1166 2656 1075 2415 
Q 984 2175 984 1722 
L 984 0 
L 422 0 
z
" transform="scale(0.015625)"/>
        <path id="ArialMT-65" d="M 2694 1069 
L 3275 997 
Q 3138 488 2766 206 
Q 2394 -75 1816 -75 
Q 1088 -75 661 373 
Q 234 822 234 1631 
Q 234 2469 665 2931 
Q 1097 3394 1784 3394 
Q 2450 3394 2872 2941 
Q 3294 2488 3294 1666 
Q 3294 1616 3291 1516 
L 816 1516 
Q 847 969 1125 678 
Q 1403 388 1819 388 
Q 2128 388 2347 550 
Q 2566 713 2694 1069 
z
M 847 1978 
L 2700 1978 
Q 2663 2397 2488 2606 
Q 2219 2931 1791 2931 
Q 1403 2931 1139 2672 
Q 875 2413 847 1978 
z
" transform="scale(0.015625)"/>
        <path id="ArialMT-6e" d="M 422 0 
L 422 3319 
L 928 3319 
L 928 2847 
Q 1294 3394 1984 3394 
Q 2284 3394 2536 3286 
Q 2788 3178 2913 3003 
Q 3038 2828 3088 2588 
Q 3119 2431 3119 2041 
L 3119 0 
L 2556 0 
L 2556 2019 
Q 2556 2363 2490 2533 
Q 2425 2703 2258 2804 
Q 2091 2906 1866 2906 
Q 1506 2906 1245 2678 
Q 984 2450 984 1813 
L 984 0 
L 422 0 
z
" transform="scale(0.015625)"/>
       </defs>
       <use xlink:href="#ArialMT-43"/>
       <use xlink:href="#ArialMT-75" x="72.216797"/>
       <use xlink:href="#ArialMT-6d" x="127.832031"/>
       <use xlink:href="#ArialMT-65" x="211.132812"/>
       <use xlink:href="#ArialMT-6e" x="266.748047"/>
       <use xlink:href="#ArialMT-65" x="322.363281"/>
      </g>
      <!-- oxidation -->
      <g transform="translate(43.773703 232.205757) scale(0.085 -0.085)">
       <defs>
        <path id="ArialMT-6f" d="M 213 1659 
Q 213 2581 725 3025 
Q 1153 3394 1769 3394 
Q 2453 3394 2887 2945 
Q 3322 2497 3322 1706 
Q 3322 1066 3130 698 
Q 2938 331 2570 128 
Q 2203 -75 1769 -75 
Q 1072 -75 642 372 
Q 213 819 213 1659 
z
M 791 1659 
Q 791 1022 1069 705 
Q 1347 388 1769 388 
Q 2188 388 2466 706 
Q 2744 1025 2744 1678 
Q 2744 2294 2464 2611 
Q 2184 2928 1769 2928 
Q 1347 2928 1069 2612 
Q 791 2297 791 1659 
z
" transform="scale(0.015625)"/>
        <path id="ArialMT-78" d="M 47 0 
L 1259 1725 
L 138 3319 
L 841 3319 
L 1350 2541 
Q 1494 2319 1581 2169 
Q 1719 2375 1834 2534 
L 2394 3319 
L 3066 3319 
L 1919 1756 
L 3153 0 
L 2463 0 
L 1781 1031 
L 1600 1309 
L 728 0 
L 47 0 
z
" transform="scale(0.015625)"/>
        <path id="ArialMT-69" d="M 425 3934 
L 425 4581 
L 988 4581 
L 988 3934 
L 425 3934 
z
M 425 0 
L 425 3319 
L 988 3319 
L 988 0 
L 425 0 
z
" transform="scale(0.015625)"/>
        <path id="ArialMT-64" d="M 2575 0 
L 2575 419 
Q 2259 -75 1647 -75 
Q 1250 -75 917 144 
Q 584 363 401 755 
Q 219 1147 219 1656 
Q 219 2153 384 2558 
Q 550 2963 881 3178 
Q 1213 3394 1622 3394 
Q 1922 3394 2156 3267 
Q 2391 3141 2538 2938 
L 2538 4581 
L 3097 4581 
L 3097 0 
L 2575 0 
z
M 797 1656 
Q 797 1019 1065 703 
Q 1334 388 1700 388 
Q 2069 388 2326 689 
Q 2584 991 2584 1609 
Q 2584 2291 2321 2609 
Q 2059 2928 1675 2928 
Q 1300 2928 1048 2622 
Q 797 2316 797 1656 
z
" transform="scale(0.015625)"/>
        <path id="ArialMT-61" d="M 2588 409 
Q 2275 144 1986 34 
Q 1697 -75 1366 -75 
Q 819 -75 525 192 
Q 231 459 231 875 
Q 231 1119 342 1320 
Q 453 1522 633 1644 
Q 813 1766 1038 1828 
Q 1203 1872 1538 1913 
Q 2219 1994 2541 2106 
Q 2544 2222 2544 2253 
Q 2544 2597 2384 2738 
Q 2169 2928 1744 2928 
Q 1347 2928 1158 2789 
Q 969 2650 878 2297 
L 328 2372 
Q 403 2725 575 2942 
Q 747 3159 1072 3276 
Q 1397 3394 1825 3394 
Q 2250 3394 2515 3294 
Q 2781 3194 2906 3042 
Q 3031 2891 3081 2659 
Q 3109 2516 3109 2141 
L 3109 1391 
Q 3109 606 3145 398 
Q 3181 191 3288 0 
L 2700 0 
Q 2613 175 2588 409 
z
M 2541 1666 
Q 2234 1541 1622 1453 
Q 1275 1403 1131 1340 
Q 988 1278 909 1158 
Q 831 1038 831 891 
Q 831 666 1001 516 
Q 1172 366 1500 366 
Q 1825 366 2078 508 
Q 2331 650 2450 897 
Q 2541 1088 2541 1459 
L 2541 1666 
z
" transform="scale(0.015625)"/>
        <path id="ArialMT-74" d="M 1650 503 
L 1731 6 
Q 1494 -44 1306 -44 
Q 1000 -44 831 53 
Q 663 150 594 308 
Q 525 466 525 972 
L 525 2881 
L 113 2881 
L 113 3319 
L 525 3319 
L 525 4141 
L 1084 4478 
L 1084 3319 
L 1650 3319 
L 1650 2881 
L 1084 2881 
L 1084 941 
Q 1084 700 1114 631 
Q 1144 563 1211 522 
Q 1278 481 1403 481 
Q 1497 481 1650 503 
z
" transform="scale(0.015625)"/>
       </defs>
       <use xlink:href="#ArialMT-6f"/>
       <use xlink:href="#ArialMT-78" x="55.615234"/>
       <use xlink:href="#ArialMT-69" x="105.615234"/>
       <use xlink:href="#ArialMT-64" x="127.832031"/>
       <use xlink:href="#ArialMT-61" x="183.447266"/>
       <use xlink:href="#ArialMT-74" x="239.0625"/>
       <use xlink:href="#ArialMT-69" x="266.845703"/>
       <use xlink:href="#ArialMT-6f" x="289.0625"/>
       <use xlink:href="#ArialMT-6e" x="344.677734"/>
      </g>
     </g>
    </g>
    <g id="xtick_2">
     <g id="line2d_4">
      <g>
       <use xlink:href="#m99a875278c" x="103.454976" y="210.131273" style="stroke: #000000; stroke-width: 0.8"/>
      </g>
     </g>
     <g id="text_2">
      <!-- N$_\mathdefault{2}$O -->
      <g transform="translate(95.252476 223.215413) scale(0.085 -0.085)">
       <defs>
        <path id="ArialMT-4e" d="M 488 0 
L 488 4581 
L 1109 4581 
L 3516 984 
L 3516 4581 
L 4097 4581 
L 4097 0 
L 3475 0 
L 1069 3600 
L 1069 0 
L 488 0 
z
" transform="scale(0.015625)"/>
        <path id="ArialMT-32" d="M 3222 541 
L 3222 0 
L 194 0 
Q 188 203 259 391 
Q 375 700 629 1000 
Q 884 1300 1366 1694 
Q 2113 2306 2375 2664 
Q 2638 3022 2638 3341 
Q 2638 3675 2398 3904 
Q 2159 4134 1775 4134 
Q 1369 4134 1125 3890 
Q 881 3647 878 3216 
L 300 3275 
Q 359 3922 746 4261 
Q 1134 4600 1788 4600 
Q 2447 4600 2831 4234 
Q 3216 3869 3216 3328 
Q 3216 3053 3103 2787 
Q 2991 2522 2730 2228 
Q 2469 1934 1863 1422 
Q 1356 997 1212 845 
Q 1069 694 975 541 
L 3222 541 
z
" transform="scale(0.015625)"/>
        <path id="ArialMT-4f" d="M 309 2231 
Q 309 3372 921 4017 
Q 1534 4663 2503 4663 
Q 3138 4663 3647 4359 
Q 4156 4056 4423 3514 
Q 4691 2972 4691 2284 
Q 4691 1588 4409 1038 
Q 4128 488 3612 205 
Q 3097 -78 2500 -78 
Q 1853 -78 1343 234 
Q 834 547 571 1087 
Q 309 1628 309 2231 
z
M 934 2222 
Q 934 1394 1379 917 
Q 1825 441 2497 441 
Q 3181 441 3623 922 
Q 4066 1403 4066 2288 
Q 4066 2847 3877 3264 
Q 3688 3681 3323 3911 
Q 2959 4141 2506 4141 
Q 1863 4141 1398 3698 
Q 934 3256 934 2222 
z
" transform="scale(0.015625)"/>
       </defs>
       <use xlink:href="#ArialMT-4e" transform="translate(0 0.140625)"/>
       <use xlink:href="#ArialMT-32" transform="translate(73.173828 -16.265625) scale(0.7)"/>
       <use xlink:href="#ArialMT-4f" transform="translate(114.838867 0.140625)"/>
      </g>
     </g>
    </g>
    <g id="xtick_3">
     <g id="line2d_5">
      <g>
       <use xlink:href="#m99a875278c" x="146.12496" y="210.131273" style="stroke: #000000; stroke-width: 0.8"/>
      </g>
     </g>
     <g id="text_3">
      <!-- H$_\mathdefault{2}$O$_\mathdefault{2}$ -->
      <g transform="translate(136.09496 223.215413) scale(0.085 -0.085)">
       <defs>
        <path id="ArialMT-48" d="M 513 0 
L 513 4581 
L 1119 4581 
L 1119 2700 
L 3500 2700 
L 3500 4581 
L 4106 4581 
L 4106 0 
L 3500 0 
L 3500 2159 
L 1119 2159 
L 1119 0 
L 513 0 
z
" transform="scale(0.015625)"/>
       </defs>
       <use xlink:href="#ArialMT-48" transform="translate(0 0.140625)"/>
       <use xlink:href="#ArialMT-32" transform="translate(73.173828 -16.265625) scale(0.7)"/>
       <use xlink:href="#ArialMT-4f" transform="translate(114.838867 0.140625)"/>
       <use xlink:href="#ArialMT-32" transform="translate(193.579102 -16.265625) scale(0.7)"/>
      </g>
     </g>
    </g>
    <g id="xtick_4">
     <g id="line2d_6">
      <g>
       <use xlink:href="#m99a875278c" x="188.794944" y="210.131273" style="stroke: #000000; stroke-width: 0.8"/>
      </g>
     </g>
     <g id="text_4">
      <!-- N$_\mathdefault{2}$O -->
      <g transform="translate(180.592444 223.215413) scale(0.085 -0.085)">
       <use xlink:href="#ArialMT-4e" transform="translate(0 0.140625)"/>
       <use xlink:href="#ArialMT-32" transform="translate(73.173828 -16.265625) scale(0.7)"/>
       <use xlink:href="#ArialMT-4f" transform="translate(114.838867 0.140625)"/>
      </g>
     </g>
    </g>
    <g id="xtick_5">
     <g id="line2d_7">
      <g>
       <use xlink:href="#m99a875278c" x="231.464928" y="210.131273" style="stroke: #000000; stroke-width: 0.8"/>
      </g>
     </g>
     <g id="text_5">
      <!-- H$_\mathdefault{2}$O$_\mathdefault{2}$ -->
      <g transform="translate(221.434928 223.215413) scale(0.085 -0.085)">
       <use xlink:href="#ArialMT-48" transform="translate(0 0.140625)"/>
       <use xlink:href="#ArialMT-32" transform="translate(73.173828 -16.265625) scale(0.7)"/>
       <use xlink:href="#ArialMT-4f" transform="translate(114.838867 0.140625)"/>
       <use xlink:href="#ArialMT-32" transform="translate(193.579102 -16.265625) scale(0.7)"/>
      </g>
     </g>
    </g>
   </g>
   <g id="matplotlib.axis_2">
    <g id="ytick_1">
     <g id="line2d_8">
      <defs>
       <path id="m1455d7e834" d="M 0 0 
L -3.5 0 
" style="stroke: #000000; stroke-width: 0.8"/>
      </defs>
      <g>
       <use xlink:href="#m1455d7e834" x="39.45" y="210.131273" style="stroke: #000000; stroke-width: 0.8"/>
      </g>
     </g>
     <g id="text_6">
      <!-- 0.0 -->
      <g transform="translate(20.635 213.173343) scale(0.085 -0.085)">
       <defs>
        <path id="ArialMT-30" d="M 266 2259 
Q 266 3072 433 3567 
Q 600 4063 929 4331 
Q 1259 4600 1759 4600 
Q 2128 4600 2406 4451 
Q 2684 4303 2865 4023 
Q 3047 3744 3150 3342 
Q 3253 2941 3253 2259 
Q 3253 1453 3087 958 
Q 2922 463 2592 192 
Q 2263 -78 1759 -78 
Q 1097 -78 719 397 
Q 266 969 266 2259 
z
M 844 2259 
Q 844 1131 1108 757 
Q 1372 384 1759 384 
Q 2147 384 2411 759 
Q 2675 1134 2675 2259 
Q 2675 3391 2411 3762 
Q 2147 4134 1753 4134 
Q 1366 4134 1134 3806 
Q 844 3388 844 2259 
z
" transform="scale(0.015625)"/>
        <path id="ArialMT-2e" d="M 581 0 
L 581 641 
L 1222 641 
L 1222 0 
L 581 0 
z
" transform="scale(0.015625)"/>
       </defs>
       <use xlink:href="#ArialMT-30"/>
       <use xlink:href="#ArialMT-2e" x="55.615234"/>
       <use xlink:href="#ArialMT-30" x="83.398438"/>
      </g>
     </g>
    </g>
    <g id="ytick_2">
     <g id="line2d_9">
      <g>
       <use xlink:href="#m1455d7e834" x="39.45" y="162.687908" style="stroke: #000000; stroke-width: 0.8"/>
      </g>
     </g>
     <g id="text_7">
      <!-- 0.6 -->
      <g transform="translate(20.635 165.729978) scale(0.085 -0.085)">
       <defs>
        <path id="ArialMT-36" d="M 3184 3459 
L 2625 3416 
Q 2550 3747 2413 3897 
Q 2184 4138 1850 4138 
Q 1581 4138 1378 3988 
Q 1113 3794 959 3422 
Q 806 3050 800 2363 
Q 1003 2672 1297 2822 
Q 1591 2972 1913 2972 
Q 2475 2972 2870 2558 
Q 3266 2144 3266 1488 
Q 3266 1056 3080 686 
Q 2894 316 2569 119 
Q 2244 -78 1831 -78 
Q 1128 -78 684 439 
Q 241 956 241 2144 
Q 241 3472 731 4075 
Q 1159 4600 1884 4600 
Q 2425 4600 2770 4297 
Q 3116 3994 3184 3459 
z
M 888 1484 
Q 888 1194 1011 928 
Q 1134 663 1356 523 
Q 1578 384 1822 384 
Q 2178 384 2434 671 
Q 2691 959 2691 1453 
Q 2691 1928 2437 2201 
Q 2184 2475 1800 2475 
Q 1419 2475 1153 2201 
Q 888 1928 888 1484 
z
" transform="scale(0.015625)"/>
       </defs>
       <use xlink:href="#ArialMT-30"/>
       <use xlink:href="#ArialMT-2e" x="55.615234"/>
       <use xlink:href="#ArialMT-36" x="83.398438"/>
      </g>
     </g>
    </g>
    <g id="ytick_3">
     <g id="line2d_10">
      <g>
       <use xlink:href="#m1455d7e834" x="39.45" y="115.244543" style="stroke: #000000; stroke-width: 0.8"/>
      </g>
     </g>
     <g id="text_8">
      <!-- 1.2 -->
      <g transform="translate(20.635 118.286613) scale(0.085 -0.085)">
       <defs>
        <path id="ArialMT-31" d="M 2384 0 
L 1822 0 
L 1822 3584 
Q 1619 3391 1289 3197 
Q 959 3003 697 2906 
L 697 3450 
Q 1169 3672 1522 3987 
Q 1875 4303 2022 4600 
L 2384 4600 
L 2384 0 
z
" transform="scale(0.015625)"/>
       </defs>
       <use xlink:href="#ArialMT-31"/>
       <use xlink:href="#ArialMT-2e" x="55.615234"/>
       <use xlink:href="#ArialMT-32" x="83.398438"/>
      </g>
     </g>
    </g>
    <g id="ytick_4">
     <g id="line2d_11">
      <g>
       <use xlink:href="#m1455d7e834" x="39.45" y="67.801178" style="stroke: #000000; stroke-width: 0.8"/>
      </g>
     </g>
     <g id="text_9">
      <!-- 1.8 -->
      <g transform="translate(20.635 70.843248) scale(0.085 -0.085)">
       <defs>
        <path id="ArialMT-38" d="M 1131 2484 
Q 781 2613 612 2850 
Q 444 3088 444 3419 
Q 444 3919 803 4259 
Q 1163 4600 1759 4600 
Q 2359 4600 2725 4251 
Q 3091 3903 3091 3403 
Q 3091 3084 2923 2848 
Q 2756 2613 2416 2484 
Q 2838 2347 3058 2040 
Q 3278 1734 3278 1309 
Q 3278 722 2862 322 
Q 2447 -78 1769 -78 
Q 1091 -78 675 323 
Q 259 725 259 1325 
Q 259 1772 486 2073 
Q 713 2375 1131 2484 
z
M 1019 3438 
Q 1019 3113 1228 2906 
Q 1438 2700 1772 2700 
Q 2097 2700 2305 2904 
Q 2513 3109 2513 3406 
Q 2513 3716 2298 3927 
Q 2084 4138 1766 4138 
Q 1444 4138 1231 3931 
Q 1019 3725 1019 3438 
z
M 838 1322 
Q 838 1081 952 856 
Q 1066 631 1291 507 
Q 1516 384 1775 384 
Q 2178 384 2440 643 
Q 2703 903 2703 1303 
Q 2703 1709 2433 1975 
Q 2163 2241 1756 2241 
Q 1359 2241 1098 1978 
Q 838 1716 838 1322 
z
" transform="scale(0.015625)"/>
       </defs>
       <use xlink:href="#ArialMT-31"/>
       <use xlink:href="#ArialMT-2e" x="55.615234"/>
       <use xlink:href="#ArialMT-38" x="83.398438"/>
      </g>
     </g>
    </g>
    <g id="ytick_5">
     <g id="line2d_12">
      <g>
       <use xlink:href="#m1455d7e834" x="39.45" y="20.357812" style="stroke: #000000; stroke-width: 0.8"/>
      </g>
     </g>
     <g id="text_10">
      <!-- 2.4 -->
      <g transform="translate(20.635 23.399883) scale(0.085 -0.085)">
       <defs>
        <path id="ArialMT-34" d="M 2069 0 
L 2069 1097 
L 81 1097 
L 81 1613 
L 2172 4581 
L 2631 4581 
L 2631 1613 
L 3250 1613 
L 3250 1097 
L 2631 1097 
L 2631 0 
L 2069 0 
z
M 2069 1613 
L 2069 3678 
L 634 1613 
L 2069 1613 
z
" transform="scale(0.015625)"/>
       </defs>
       <use xlink:href="#ArialMT-32"/>
       <use xlink:href="#ArialMT-2e" x="55.615234"/>
       <use xlink:href="#ArialMT-34" x="83.398438"/>
      </g>
     </g>
    </g>
    <g id="text_11">
     <!-- Production costs (USD kg$^\mathdefault{-1}$ phenol) -->
     <g transform="translate(14.765 182.819543) rotate(-90) scale(0.085 -0.085)">
      <defs>
       <path id="ArialMT-50" d="M 494 0 
L 494 4581 
L 2222 4581 
Q 2678 4581 2919 4538 
Q 3256 4481 3484 4323 
Q 3713 4166 3852 3881 
Q 3991 3597 3991 3256 
Q 3991 2672 3619 2267 
Q 3247 1863 2275 1863 
L 1100 1863 
L 1100 0 
L 494 0 
z
M 1100 2403 
L 2284 2403 
Q 2872 2403 3119 2622 
Q 3366 2841 3366 3238 
Q 3366 3525 3220 3729 
Q 3075 3934 2838 4000 
Q 2684 4041 2272 4041 
L 1100 4041 
L 1100 2403 
z
" transform="scale(0.015625)"/>
       <path id="ArialMT-72" d="M 416 0 
L 416 3319 
L 922 3319 
L 922 2816 
Q 1116 3169 1280 3281 
Q 1444 3394 1641 3394 
Q 1925 3394 2219 3213 
L 2025 2691 
Q 1819 2813 1613 2813 
Q 1428 2813 1281 2702 
Q 1134 2591 1072 2394 
Q 978 2094 978 1738 
L 978 0 
L 416 0 
z
" transform="scale(0.015625)"/>
       <path id="ArialMT-63" d="M 2588 1216 
L 3141 1144 
Q 3050 572 2676 248 
Q 2303 -75 1759 -75 
Q 1078 -75 664 370 
Q 250 816 250 1647 
Q 250 2184 428 2587 
Q 606 2991 970 3192 
Q 1334 3394 1763 3394 
Q 2303 3394 2647 3120 
Q 2991 2847 3088 2344 
L 2541 2259 
Q 2463 2594 2264 2762 
Q 2066 2931 1784 2931 
Q 1359 2931 1093 2626 
Q 828 2322 828 1663 
Q 828 994 1084 691 
Q 1341 388 1753 388 
Q 2084 388 2306 591 
Q 2528 794 2588 1216 
z
" transform="scale(0.015625)"/>
       <path id="ArialMT-20" transform="scale(0.015625)"/>
       <path id="ArialMT-73" d="M 197 991 
L 753 1078 
Q 800 744 1014 566 
Q 1228 388 1613 388 
Q 2000 388 2187 545 
Q 2375 703 2375 916 
Q 2375 1106 2209 1216 
Q 2094 1291 1634 1406 
Q 1016 1563 777 1677 
Q 538 1791 414 1992 
Q 291 2194 291 2438 
Q 291 2659 392 2848 
Q 494 3038 669 3163 
Q 800 3259 1026 3326 
Q 1253 3394 1513 3394 
Q 1903 3394 2198 3281 
Q 2494 3169 2634 2976 
Q 2775 2784 2828 2463 
L 2278 2388 
Q 2241 2644 2061 2787 
Q 1881 2931 1553 2931 
Q 1166 2931 1000 2803 
Q 834 2675 834 2503 
Q 834 2394 903 2306 
Q 972 2216 1119 2156 
Q 1203 2125 1616 2013 
Q 2213 1853 2448 1751 
Q 2684 1650 2818 1456 
Q 2953 1263 2953 975 
Q 2953 694 2789 445 
Q 2625 197 2315 61 
Q 2006 -75 1616 -75 
Q 969 -75 630 194 
Q 291 463 197 991 
z
" transform="scale(0.015625)"/>
       <path id="ArialMT-28" d="M 1497 -1347 
Q 1031 -759 709 28 
Q 388 816 388 1659 
Q 388 2403 628 3084 
Q 909 3875 1497 4659 
L 1900 4659 
Q 1522 4009 1400 3731 
Q 1209 3300 1100 2831 
Q 966 2247 966 1656 
Q 966 153 1900 -1347 
L 1497 -1347 
z
" transform="scale(0.015625)"/>
       <path id="ArialMT-55" d="M 3500 4581 
L 4106 4581 
L 4106 1934 
Q 4106 1244 3950 837 
Q 3794 431 3386 176 
Q 2978 -78 2316 -78 
Q 1672 -78 1262 144 
Q 853 366 678 786 
Q 503 1206 503 1934 
L 503 4581 
L 1109 4581 
L 1109 1938 
Q 1109 1341 1220 1058 
Q 1331 775 1601 622 
Q 1872 469 2263 469 
Q 2931 469 3215 772 
Q 3500 1075 3500 1938 
L 3500 4581 
z
" transform="scale(0.015625)"/>
       <path id="ArialMT-53" d="M 288 1472 
L 859 1522 
Q 900 1178 1048 958 
Q 1197 738 1509 602 
Q 1822 466 2213 466 
Q 2559 466 2825 569 
Q 3091 672 3220 851 
Q 3350 1031 3350 1244 
Q 3350 1459 3225 1620 
Q 3100 1781 2813 1891 
Q 2628 1963 1997 2114 
Q 1366 2266 1113 2400 
Q 784 2572 623 2826 
Q 463 3081 463 3397 
Q 463 3744 659 4045 
Q 856 4347 1234 4503 
Q 1613 4659 2075 4659 
Q 2584 4659 2973 4495 
Q 3363 4331 3572 4012 
Q 3781 3694 3797 3291 
L 3216 3247 
Q 3169 3681 2898 3903 
Q 2628 4125 2100 4125 
Q 1550 4125 1298 3923 
Q 1047 3722 1047 3438 
Q 1047 3191 1225 3031 
Q 1400 2872 2139 2705 
Q 2878 2538 3153 2413 
Q 3553 2228 3743 1945 
Q 3934 1663 3934 1294 
Q 3934 928 3725 604 
Q 3516 281 3123 101 
Q 2731 -78 2241 -78 
Q 1619 -78 1198 103 
Q 778 284 539 648 
Q 300 1013 288 1472 
z
" transform="scale(0.015625)"/>
       <path id="ArialMT-44" d="M 494 0 
L 494 4581 
L 2072 4581 
Q 2606 4581 2888 4516 
Q 3281 4425 3559 4188 
Q 3922 3881 4101 3404 
Q 4281 2928 4281 2316 
Q 4281 1794 4159 1391 
Q 4038 988 3847 723 
Q 3656 459 3429 307 
Q 3203 156 2883 78 
Q 2563 0 2147 0 
L 494 0 
z
M 1100 541 
L 2078 541 
Q 2531 541 2789 625 
Q 3047 709 3200 863 
Q 3416 1078 3536 1442 
Q 3656 1806 3656 2325 
Q 3656 3044 3420 3430 
Q 3184 3816 2847 3947 
Q 2603 4041 2063 4041 
L 1100 4041 
L 1100 541 
z
" transform="scale(0.015625)"/>
       <path id="ArialMT-6b" d="M 425 0 
L 425 4581 
L 988 4581 
L 988 1969 
L 2319 3319 
L 3047 3319 
L 1778 2088 
L 3175 0 
L 2481 0 
L 1384 1697 
L 988 1316 
L 988 0 
L 425 0 
z
" transform="scale(0.015625)"/>
       <path id="ArialMT-67" d="M 319 -275 
L 866 -356 
Q 900 -609 1056 -725 
Q 1266 -881 1628 -881 
Q 2019 -881 2231 -725 
Q 2444 -569 2519 -288 
Q 2563 -116 2559 434 
Q 2191 0 1641 0 
Q 956 0 581 494 
Q 206 988 206 1678 
Q 206 2153 378 2554 
Q 550 2956 876 3175 
Q 1203 3394 1644 3394 
Q 2231 3394 2613 2919 
L 2613 3319 
L 3131 3319 
L 3131 450 
Q 3131 -325 2973 -648 
Q 2816 -972 2473 -1159 
Q 2131 -1347 1631 -1347 
Q 1038 -1347 672 -1080 
Q 306 -813 319 -275 
z
M 784 1719 
Q 784 1066 1043 766 
Q 1303 466 1694 466 
Q 2081 466 2343 764 
Q 2606 1063 2606 1700 
Q 2606 2309 2336 2618 
Q 2066 2928 1684 2928 
Q 1309 2928 1046 2623 
Q 784 2319 784 1719 
z
" transform="scale(0.015625)"/>
       <path id="ArialMT-2212" d="M 3381 1997 
L 356 1997 
L 356 2522 
L 3381 2522 
L 3381 1997 
z
" transform="scale(0.015625)"/>
       <path id="ArialMT-70" d="M 422 -1272 
L 422 3319 
L 934 3319 
L 934 2888 
Q 1116 3141 1344 3267 
Q 1572 3394 1897 3394 
Q 2322 3394 2647 3175 
Q 2972 2956 3137 2557 
Q 3303 2159 3303 1684 
Q 3303 1175 3120 767 
Q 2938 359 2589 142 
Q 2241 -75 1856 -75 
Q 1575 -75 1351 44 
Q 1128 163 984 344 
L 984 -1272 
L 422 -1272 
z
M 931 1641 
Q 931 1000 1190 694 
Q 1450 388 1819 388 
Q 2194 388 2461 705 
Q 2728 1022 2728 1688 
Q 2728 2322 2467 2637 
Q 2206 2953 1844 2953 
Q 1484 2953 1207 2617 
Q 931 2281 931 1641 
z
" transform="scale(0.015625)"/>
       <path id="ArialMT-68" d="M 422 0 
L 422 4581 
L 984 4581 
L 984 2938 
Q 1378 3394 1978 3394 
Q 2347 3394 2619 3248 
Q 2891 3103 3008 2847 
Q 3125 2591 3125 2103 
L 3125 0 
L 2563 0 
L 2563 2103 
Q 2563 2525 2380 2717 
Q 2197 2909 1863 2909 
Q 1613 2909 1392 2779 
Q 1172 2650 1078 2428 
Q 984 2206 984 1816 
L 984 0 
L 422 0 
z
" transform="scale(0.015625)"/>
       <path id="ArialMT-6c" d="M 409 0 
L 409 4581 
L 972 4581 
L 972 0 
L 409 0 
z
" transform="scale(0.015625)"/>
       <path id="ArialMT-29" d="M 791 -1347 
L 388 -1347 
Q 1322 153 1322 1656 
Q 1322 2244 1188 2822 
Q 1081 3291 891 3722 
Q 769 4003 388 4659 
L 791 4659 
Q 1378 3875 1659 3084 
Q 1900 2403 1900 1659 
Q 1900 816 1576 28 
Q 1253 -759 791 -1347 
z
" transform="scale(0.015625)"/>
      </defs>
      <use xlink:href="#ArialMT-50" transform="translate(0 0.40625)"/>
      <use xlink:href="#ArialMT-72" transform="translate(66.699219 0.40625)"/>
      <use xlink:href="#ArialMT-6f" transform="translate(100 0.40625)"/>
      <use xlink:href="#ArialMT-64" transform="translate(155.615234 0.40625)"/>
      <use xlink:href="#ArialMT-75" transform="translate(211.230469 0.40625)"/>
      <use xlink:href="#ArialMT-63" transform="translate(266.845703 0.40625)"/>
      <use xlink:href="#ArialMT-74" transform="translate(316.845703 0.40625)"/>
      <use xlink:href="#ArialMT-69" transform="translate(344.628906 0.40625)"/>
      <use xlink:href="#ArialMT-6f" transform="translate(366.845703 0.40625)"/>
      <use xlink:href="#ArialMT-6e" transform="translate(422.460938 0.40625)"/>
      <use xlink:href="#ArialMT-20" transform="translate(478.076172 0.40625)"/>
      <use xlink:href="#ArialMT-63" transform="translate(505.859375 0.40625)"/>
      <use xlink:href="#ArialMT-6f" transform="translate(555.859375 0.40625)"/>
      <use xlink:href="#ArialMT-73" transform="translate(611.474609 0.40625)"/>
      <use xlink:href="#ArialMT-74" transform="translate(661.474609 0.40625)"/>
      <use xlink:href="#ArialMT-73" transform="translate(689.257812 0.40625)"/>
      <use xlink:href="#ArialMT-20" transform="translate(739.257812 0.40625)"/>
      <use xlink:href="#ArialMT-28" transform="translate(767.041016 0.40625)"/>
      <use xlink:href="#ArialMT-55" transform="translate(800.341797 0.40625)"/>
      <use xlink:href="#ArialMT-53" transform="translate(872.558594 0.40625)"/>
      <use xlink:href="#ArialMT-44" transform="translate(939.257812 0.40625)"/>
      <use xlink:href="#ArialMT-20" transform="translate(1011.474609 0.40625)"/>
      <use xlink:href="#ArialMT-6b" transform="translate(1039.257812 0.40625)"/>
      <use xlink:href="#ArialMT-67" transform="translate(1089.257812 0.40625)"/>
      <use xlink:href="#ArialMT-2212" transform="translate(1145.830078 38.6875) scale(0.7)"/>
      <use xlink:href="#ArialMT-31" transform="translate(1186.708984 38.6875) scale(0.7)"/>
      <use xlink:href="#ArialMT-20" transform="translate(1228.374023 0.40625)"/>
      <use xlink:href="#ArialMT-70" transform="translate(1256.157227 0.40625)"/>
      <use xlink:href="#ArialMT-68" transform="translate(1311.772461 0.40625)"/>
      <use xlink:href="#ArialMT-65" transform="translate(1367.387695 0.40625)"/>
      <use xlink:href="#ArialMT-6e" transform="translate(1423.00293 0.40625)"/>
      <use xlink:href="#ArialMT-6f" transform="translate(1478.618164 0.40625)"/>
      <use xlink:href="#ArialMT-6c" transform="translate(1534.233398 0.40625)"/>
      <use xlink:href="#ArialMT-29" transform="translate(1556.450195 0.40625)"/>
     </g>
    </g>
   </g>
   <g id="PathCollection_1">
    <defs>
     <path id="m9e96417d61" d="M 0 3.162278 
L 3.162278 0 
L 0 -3.162278 
L -3.162278 0 
z
" style="stroke: #ffffff"/>
    </defs>
    <g clip-path="url(#pff5fd3fd8b)">
     <use xlink:href="#m9e96417d61" x="60.784992" y="143.696654" style="fill: #6e00a3; stroke: #ffffff"/>
     <use xlink:href="#m9e96417d61" x="103.454976" y="130.602393" style="fill: #6e00a3; stroke: #ffffff"/>
     <use xlink:href="#m9e96417d61" x="146.12496" y="82.371572" style="fill: #6e00a3; stroke: #ffffff"/>
     <use xlink:href="#m9e96417d61" x="188.794944" y="117.804865" style="fill: #6e00a3; stroke: #ffffff"/>
     <use xlink:href="#m9e96417d61" x="231.464928" y="76.848369" style="fill: #6e00a3; stroke: #ffffff"/>
    </g>
   </g>
   <g id="line2d_13">
    <path d="M 39.45 210.131273 
L 252.79992 210.131273 
" clip-path="url(#pff5fd3fd8b)" style="fill: none; stroke: #808080; stroke-width: 0.5; stroke-linecap: square"/>
   </g>
   <g id="line2d_14">
    <path d="M 82.119984 210.131273 
L 82.119984 20.357813 
" clip-path="url(#pff5fd3fd8b)" style="fill: none; stroke-dasharray: 1.85,0.8; stroke-dashoffset: 0; stroke: #808080; stroke-width: 0.5"/>
   </g>
   <g id="line2d_15">
    <path d="M 167.459952 210.131273 
L 167.459952 20.357813 
" clip-path="url(#pff5fd3fd8b)" style="fill: none; stroke-dasharray: 1.85,0.8; stroke-dashoffset: 0; stroke: #808080; stroke-width: 0.5"/>
   </g>
   <g id="patch_43">
    <path d="M 39.45 210.131273 
L 39.45 20.357813 
" style="fill: none; stroke: #000000; stroke-width: 0.8; stroke-linejoin: miter; stroke-linecap: square"/>
   </g>
   <g id="patch_44">
    <path d="M 252.79992 210.131273 
L 252.79992 20.357813 
" style="fill: none; stroke: #000000; stroke-width: 0.8; stroke-linejoin: miter; stroke-linecap: square"/>
   </g>
   <g id="patch_45">
    <path d="M 39.45 210.131273 
L 252.79992 210.131273 
" style="fill: none; stroke: #000000; stroke-width: 0.8; stroke-linejoin: miter; stroke-linecap: square"/>
   </g>
   <g id="patch_46">
    <path d="M 39.45 20.357813 
L 252.79992 20.357813 
" style="fill: none; stroke: #000000; stroke-width: 0.8; stroke-linejoin: miter; stroke-linecap: square"/>
   </g>
   <g id="text_12">
    <!-- Cumene -->
    <g transform="translate(44.721984 39.833488) scale(0.085 -0.085)">
     <use xlink:href="#ArialMT-43"/>
     <use xlink:href="#ArialMT-75" x="72.216797"/>
     <use xlink:href="#ArialMT-6d" x="127.832031"/>
     <use xlink:href="#ArialMT-65" x="211.132812"/>
     <use xlink:href="#ArialMT-6e" x="266.748047"/>
     <use xlink:href="#ArialMT-65" x="322.363281"/>
    </g>
    <!-- oxidation -->
    <g transform="translate(43.773703 48.823832) scale(0.085 -0.085)">
     <use xlink:href="#ArialMT-6f"/>
     <use xlink:href="#ArialMT-78" x="55.615234"/>
     <use xlink:href="#ArialMT-69" x="105.615234"/>
     <use xlink:href="#ArialMT-64" x="127.832031"/>
     <use xlink:href="#ArialMT-61" x="183.447266"/>
     <use xlink:href="#ArialMT-74" x="239.0625"/>
     <use xlink:href="#ArialMT-69" x="266.845703"/>
     <use xlink:href="#ArialMT-6f" x="289.0625"/>
     <use xlink:href="#ArialMT-6e" x="344.677734"/>
    </g>
   </g>
   <g id="text_13">
    <!-- Direct oxidation -->
    <g transform="translate(95.500163 39.709175) scale(0.085 -0.085)">
     <use xlink:href="#ArialMT-44"/>
     <use xlink:href="#ArialMT-69" x="72.216797"/>
     <use xlink:href="#ArialMT-72" x="94.433594"/>
     <use xlink:href="#ArialMT-65" x="127.734375"/>
     <use xlink:href="#ArialMT-63" x="183.349609"/>
     <use xlink:href="#ArialMT-74" x="233.349609"/>
     <use xlink:href="#ArialMT-20" x="261.132812"/>
     <use xlink:href="#ArialMT-6f" x="288.916016"/>
     <use xlink:href="#ArialMT-78" x="344.53125"/>
     <use xlink:href="#ArialMT-69" x="394.53125"/>
     <use xlink:href="#ArialMT-64" x="416.748047"/>
     <use xlink:href="#ArialMT-61" x="472.363281"/>
     <use xlink:href="#ArialMT-74" x="527.978516"/>
     <use xlink:href="#ArialMT-69" x="555.761719"/>
     <use xlink:href="#ArialMT-6f" x="577.978516"/>
     <use xlink:href="#ArialMT-6e" x="633.59375"/>
    </g>
    <!-- (fossil) -->
    <g transform="translate(112.277038 48.823832) scale(0.085 -0.085)">
     <defs>
      <path id="ArialMT-66" d="M 556 0 
L 556 2881 
L 59 2881 
L 59 3319 
L 556 3319 
L 556 3672 
Q 556 4006 616 4169 
Q 697 4388 901 4523 
Q 1106 4659 1475 4659 
Q 1713 4659 2000 4603 
L 1916 4113 
Q 1741 4144 1584 4144 
Q 1328 4144 1222 4034 
Q 1116 3925 1116 3625 
L 1116 3319 
L 1763 3319 
L 1763 2881 
L 1116 2881 
L 1116 0 
L 556 0 
z
" transform="scale(0.015625)"/>
     </defs>
     <use xlink:href="#ArialMT-28"/>
     <use xlink:href="#ArialMT-66" x="33.300781"/>
     <use xlink:href="#ArialMT-6f" x="61.083984"/>
     <use xlink:href="#ArialMT-73" x="116.699219"/>
     <use xlink:href="#ArialMT-73" x="166.699219"/>
     <use xlink:href="#ArialMT-69" x="216.699219"/>
     <use xlink:href="#ArialMT-6c" x="238.916016"/>
     <use xlink:href="#ArialMT-29" x="261.132812"/>
    </g>
   </g>
   <g id="text_14">
    <!-- Direct oxidation -->
    <g transform="translate(180.840131 39.709175) scale(0.085 -0.085)">
     <use xlink:href="#ArialMT-44"/>
     <use xlink:href="#ArialMT-69" x="72.216797"/>
     <use xlink:href="#ArialMT-72" x="94.433594"/>
     <use xlink:href="#ArialMT-65" x="127.734375"/>
     <use xlink:href="#ArialMT-63" x="183.349609"/>
     <use xlink:href="#ArialMT-74" x="233.349609"/>
     <use xlink:href="#ArialMT-20" x="261.132812"/>
     <use xlink:href="#ArialMT-6f" x="288.916016"/>
     <use xlink:href="#ArialMT-78" x="344.53125"/>
     <use xlink:href="#ArialMT-69" x="394.53125"/>
     <use xlink:href="#ArialMT-64" x="416.748047"/>
     <use xlink:href="#ArialMT-61" x="472.363281"/>
     <use xlink:href="#ArialMT-74" x="527.978516"/>
     <use xlink:href="#ArialMT-69" x="555.761719"/>
     <use xlink:href="#ArialMT-6f" x="577.978516"/>
     <use xlink:href="#ArialMT-6e" x="633.59375"/>
    </g>
    <!-- (green) -->
    <g transform="translate(196.430991 48.823832) scale(0.085 -0.085)">
     <use xlink:href="#ArialMT-28"/>
     <use xlink:href="#ArialMT-67" x="33.300781"/>
     <use xlink:href="#ArialMT-72" x="88.916016"/>
     <use xlink:href="#ArialMT-65" x="122.216797"/>
     <use xlink:href="#ArialMT-65" x="177.832031"/>
     <use xlink:href="#ArialMT-6e" x="233.447266"/>
     <use xlink:href="#ArialMT-29" x="289.0625"/>
    </g>
   </g>
   <g id="text_15">
    <!-- a -->
    <g transform="translate(26.002035 14.357813) scale(0.1 -0.1)">
     <defs>
      <path id="Arial-BoldMT-61" d="M 1116 2306 
L 319 2450 
Q 453 2931 781 3162 
Q 1109 3394 1756 3394 
Q 2344 3394 2631 3255 
Q 2919 3116 3036 2902 
Q 3153 2688 3153 2116 
L 3144 1091 
Q 3144 653 3186 445 
Q 3228 238 3344 0 
L 2475 0 
Q 2441 88 2391 259 
Q 2369 338 2359 363 
Q 2134 144 1878 34 
Q 1622 -75 1331 -75 
Q 819 -75 523 203 
Q 228 481 228 906 
Q 228 1188 362 1408 
Q 497 1628 739 1745 
Q 981 1863 1438 1950 
Q 2053 2066 2291 2166 
L 2291 2253 
Q 2291 2506 2166 2614 
Q 2041 2722 1694 2722 
Q 1459 2722 1328 2630 
Q 1197 2538 1116 2306 
z
M 2291 1594 
Q 2122 1538 1756 1459 
Q 1391 1381 1278 1306 
Q 1106 1184 1106 997 
Q 1106 813 1243 678 
Q 1381 544 1594 544 
Q 1831 544 2047 700 
Q 2206 819 2256 991 
Q 2291 1103 2291 1419 
L 2291 1594 
z
" transform="scale(0.015625)"/>
     </defs>
     <use xlink:href="#Arial-BoldMT-61"/>
    </g>
   </g>
   <g id="legend_1"/>
  </g>
  <g id="axes_2">
   <g id="patch_47">
    <path d="M 294.22992 210.131273 
L 507.57984 210.131273 
L 507.57984 20.357813 
L 294.22992 20.357813 
z
" style="fill: #ffffff"/>
   </g>
   <g id="line2d_16">
    <path d="M 294.22992 210.131273 
L 507.57984 210.131273 
" clip-path="url(#p02417e04b6)" style="fill: none; stroke: #808080; stroke-width: 0.5; stroke-linecap: square"/>
   </g>
   <g id="patch_48">
    <path d="M 304.897416 210.131273 
L 326.232408 210.131273 
L 326.232408 106.677155 
L 304.897416 106.677155 
z
" clip-path="url(#p02417e04b6)" style="fill: #808080"/>
   </g>
   <g id="patch_49">
    <path d="M 347.5674 210.131273 
L 368.902392 210.131273 
L 368.902392 210.131273 
L 347.5674 210.131273 
z
" clip-path="url(#p02417e04b6)" style="fill: #808080"/>
   </g>
   <g id="patch_50">
    <path d="M 390.237384 210.131273 
L 411.572376 210.131273 
L 411.572376 210.131273 
L 390.237384 210.131273 
z
" clip-path="url(#p02417e04b6)" style="fill: #808080"/>
   </g>
   <g id="patch_51">
    <path d="M 432.907368 210.131273 
L 454.24236 210.131273 
L 454.24236 210.131273 
L 432.907368 210.131273 
z
" clip-path="url(#p02417e04b6)" style="fill: #808080"/>
   </g>
   <g id="patch_52">
    <path d="M 475.577352 210.131273 
L 496.912344 210.131273 
L 496.912344 210.131273 
L 475.577352 210.131273 
z
" clip-path="url(#p02417e04b6)" style="fill: #808080"/>
   </g>
   <g id="patch_53">
    <path d="M 304.897416 210.131273 
L 326.232408 210.131273 
L 326.232408 210.131273 
L 304.897416 210.131273 
z
" clip-path="url(#p02417e04b6)" style="fill: #f75e84"/>
   </g>
   <g id="patch_54">
    <path d="M 347.5674 210.131273 
L 368.902392 210.131273 
L 368.902392 172.127447 
L 347.5674 172.127447 
z
" clip-path="url(#p02417e04b6)" style="fill: #f75e84"/>
   </g>
   <g id="patch_55">
    <path d="M 390.237384 210.131273 
L 411.572376 210.131273 
L 411.572376 167.829368 
L 390.237384 167.829368 
z
" clip-path="url(#p02417e04b6)" style="fill: #f75e84"/>
   </g>
   <g id="patch_56">
    <path d="M 432.907368 210.131273 
L 454.24236 210.131273 
L 454.24236 172.127447 
L 432.907368 172.127447 
z
" clip-path="url(#p02417e04b6)" style="fill: #f75e84"/>
   </g>
   <g id="patch_57">
    <path d="M 475.577352 210.131273 
L 496.912344 210.131273 
L 496.912344 167.829368 
L 475.577352 167.829368 
z
" clip-path="url(#p02417e04b6)" style="fill: #f75e84"/>
   </g>
   <g id="patch_58">
    <path d="M 304.897416 210.131273 
L 326.232408 210.131273 
L 326.232408 210.131273 
L 304.897416 210.131273 
z
" clip-path="url(#p02417e04b6)" style="fill: #f78c6b"/>
   </g>
   <g id="patch_59">
    <path d="M 347.5674 172.127447 
L 368.902392 172.127447 
L 368.902392 142.827528 
L 347.5674 142.827528 
z
" clip-path="url(#p02417e04b6)" style="fill: #f78c6b"/>
   </g>
   <g id="patch_60">
    <path d="M 390.237384 210.131273 
L 411.572376 210.131273 
L 411.572376 210.131273 
L 390.237384 210.131273 
z
" clip-path="url(#p02417e04b6)" style="fill: #f78c6b"/>
   </g>
   <g id="patch_61">
    <path d="M 432.907368 172.127447 
L 454.24236 172.127447 
L 454.24236 169.81249 
L 432.907368 169.81249 
z
" clip-path="url(#p02417e04b6)" style="fill: #f78c6b"/>
   </g>
   <g id="patch_62">
    <path d="M 475.577352 210.131273 
L 496.912344 210.131273 
L 496.912344 210.131273 
L 475.577352 210.131273 
z
" clip-path="url(#p02417e04b6)" style="fill: #f78c6b"/>
   </g>
   <g id="patch_63">
    <path d="M 304.897416 210.131273 
L 326.232408 210.131273 
L 326.232408 210.131273 
L 304.897416 210.131273 
z
" clip-path="url(#p02417e04b6)" style="fill: #ffd166"/>
   </g>
   <g id="patch_64">
    <path d="M 347.5674 210.131273 
L 368.902392 210.131273 
L 368.902392 210.131273 
L 347.5674 210.131273 
z
" clip-path="url(#p02417e04b6)" style="fill: #ffd166"/>
   </g>
   <g id="patch_65">
    <path d="M 390.237384 167.829368 
L 411.572376 167.829368 
L 411.572376 155.090468 
L 390.237384 155.090468 
z
" clip-path="url(#p02417e04b6)" style="fill: #ffd166"/>
   </g>
   <g id="patch_66">
    <path d="M 432.907368 210.131273 
L 454.24236 210.131273 
L 454.24236 210.131273 
L 432.907368 210.131273 
z
" clip-path="url(#p02417e04b6)" style="fill: #ffd166"/>
   </g>
   <g id="patch_67">
    <path d="M 475.577352 167.829368 
L 496.912344 167.829368 
L 496.912344 163.720189 
L 475.577352 163.720189 
z
" clip-path="url(#p02417e04b6)" style="fill: #ffd166"/>
   </g>
   <g id="patch_68">
    <path d="M 304.897416 210.131273 
L 326.232408 210.131273 
L 326.232408 210.131273 
L 304.897416 210.131273 
z
" clip-path="url(#p02417e04b6)" style="fill: #83d483"/>
   </g>
   <g id="patch_69">
    <path d="M 347.5674 142.827528 
L 368.902392 142.827528 
L 368.902392 122.310858 
L 347.5674 122.310858 
z
" clip-path="url(#p02417e04b6)" style="fill: #83d483"/>
   </g>
   <g id="patch_70">
    <path d="M 390.237384 155.090468 
L 411.572376 155.090468 
L 411.572376 143.979312 
L 390.237384 143.979312 
z
" clip-path="url(#p02417e04b6)" style="fill: #83d483"/>
   </g>
   <g id="patch_71">
    <path d="M 432.907368 169.81249 
L 454.24236 169.81249 
L 454.24236 149.29582 
L 432.907368 149.29582 
z
" clip-path="url(#p02417e04b6)" style="fill: #83d483"/>
   </g>
   <g id="patch_72">
    <path d="M 475.577352 163.720189 
L 496.912344 163.720189 
L 496.912344 152.609034 
L 475.577352 152.609034 
z
" clip-path="url(#p02417e04b6)" style="fill: #83d483"/>
   </g>
   <g id="patch_73">
    <path d="M 304.897416 210.131273 
L 326.232408 210.131273 
L 326.232408 210.131273 
L 304.897416 210.131273 
z
" clip-path="url(#p02417e04b6)" style="fill: #06d6a0"/>
   </g>
   <g id="patch_74">
    <path d="M 347.5674 122.310858 
L 368.902392 122.310858 
L 368.902392 122.310788 
L 347.5674 122.310788 
z
" clip-path="url(#p02417e04b6)" style="fill: #06d6a0"/>
   </g>
   <g id="patch_75">
    <path d="M 390.237384 143.979312 
L 411.572376 143.979312 
L 411.572376 143.977127 
L 390.237384 143.977127 
z
" clip-path="url(#p02417e04b6)" style="fill: #06d6a0"/>
   </g>
   <g id="patch_76">
    <path d="M 432.907368 149.29582 
L 454.24236 149.29582 
L 454.24236 149.29575 
L 432.907368 149.29575 
z
" clip-path="url(#p02417e04b6)" style="fill: #06d6a0"/>
   </g>
   <g id="patch_77">
    <path d="M 475.577352 152.609034 
L 496.912344 152.609034 
L 496.912344 152.606848 
L 475.577352 152.606848 
z
" clip-path="url(#p02417e04b6)" style="fill: #06d6a0"/>
   </g>
   <g id="patch_78">
    <path d="M 304.897416 210.131273 
L 326.232408 210.131273 
L 326.232408 210.131273 
L 304.897416 210.131273 
z
" clip-path="url(#p02417e04b6)" style="fill: #0cb0a9"/>
   </g>
   <g id="patch_79">
    <path d="M 347.5674 210.131273 
L 368.902392 210.131273 
L 368.902392 210.131273 
L 347.5674 210.131273 
z
" clip-path="url(#p02417e04b6)" style="fill: #0cb0a9"/>
   </g>
   <g id="patch_80">
    <path d="M 390.237384 210.131273 
L 411.572376 210.131273 
L 411.572376 210.131273 
L 390.237384 210.131273 
z
" clip-path="url(#p02417e04b6)" style="fill: #0cb0a9"/>
   </g>
   <g id="patch_81">
    <path d="M 432.907368 210.131273 
L 454.24236 210.131273 
L 454.24236 210.131273 
L 432.907368 210.131273 
z
" clip-path="url(#p02417e04b6)" style="fill: #0cb0a9"/>
   </g>
   <g id="patch_82">
    <path d="M 475.577352 210.131273 
L 496.912344 210.131273 
L 496.912344 210.131273 
L 475.577352 210.131273 
z
" clip-path="url(#p02417e04b6)" style="fill: #0cb0a9"/>
   </g>
   <g id="patch_83">
    <path d="M 304.897416 210.131273 
L 326.232408 210.131273 
L 326.232408 210.131273 
L 304.897416 210.131273 
z
" clip-path="url(#p02417e04b6)" style="fill: #039cf0"/>
   </g>
   <g id="patch_84">
    <path d="M 347.5674 122.310788 
L 368.902392 122.310788 
L 368.902392 119.151755 
L 347.5674 119.151755 
z
" clip-path="url(#p02417e04b6)" style="fill: #039cf0"/>
   </g>
   <g id="patch_85">
    <path d="M 390.237384 143.977127 
L 411.572376 143.977127 
L 411.572376 143.977126 
L 390.237384 143.977126 
z
" clip-path="url(#p02417e04b6)" style="fill: #039cf0"/>
   </g>
   <g id="patch_86">
    <path d="M 432.907368 149.29575 
L 454.24236 149.29575 
L 454.24236 146.136716 
L 432.907368 146.136716 
z
" clip-path="url(#p02417e04b6)" style="fill: #039cf0"/>
   </g>
   <g id="patch_87">
    <path d="M 475.577352 152.606848 
L 496.912344 152.606848 
L 496.912344 152.606847 
L 475.577352 152.606847 
z
" clip-path="url(#p02417e04b6)" style="fill: #039cf0"/>
   </g>
   <g id="matplotlib.axis_3">
    <g id="xtick_6">
     <g id="line2d_17">
      <g>
       <use xlink:href="#m99a875278c" x="315.564912" y="210.131273" style="stroke: #000000; stroke-width: 0.8"/>
      </g>
     </g>
     <g id="text_16">
      <!-- Cumene -->
      <g transform="translate(299.501904 223.215413) scale(0.085 -0.085)">
       <use xlink:href="#ArialMT-43"/>
       <use xlink:href="#ArialMT-75" x="72.216797"/>
       <use xlink:href="#ArialMT-6d" x="127.832031"/>
       <use xlink:href="#ArialMT-65" x="211.132812"/>
       <use xlink:href="#ArialMT-6e" x="266.748047"/>
       <use xlink:href="#ArialMT-65" x="322.363281"/>
      </g>
      <!-- oxidation -->
      <g transform="translate(298.553623 232.205757) scale(0.085 -0.085)">
       <use xlink:href="#ArialMT-6f"/>
       <use xlink:href="#ArialMT-78" x="55.615234"/>
       <use xlink:href="#ArialMT-69" x="105.615234"/>
       <use xlink:href="#ArialMT-64" x="127.832031"/>
       <use xlink:href="#ArialMT-61" x="183.447266"/>
       <use xlink:href="#ArialMT-74" x="239.0625"/>
       <use xlink:href="#ArialMT-69" x="266.845703"/>
       <use xlink:href="#ArialMT-6f" x="289.0625"/>
       <use xlink:href="#ArialMT-6e" x="344.677734"/>
      </g>
     </g>
    </g>
    <g id="xtick_7">
     <g id="line2d_18">
      <g>
       <use xlink:href="#m99a875278c" x="358.234896" y="210.131273" style="stroke: #000000; stroke-width: 0.8"/>
      </g>
     </g>
     <g id="text_17">
      <!-- N$_\mathdefault{2}$O -->
      <g transform="translate(350.032396 223.215413) scale(0.085 -0.085)">
       <use xlink:href="#ArialMT-4e" transform="translate(0 0.140625)"/>
       <use xlink:href="#ArialMT-32" transform="translate(73.173828 -16.265625) scale(0.7)"/>
       <use xlink:href="#ArialMT-4f" transform="translate(114.838867 0.140625)"/>
      </g>
     </g>
    </g>
    <g id="xtick_8">
     <g id="line2d_19">
      <g>
       <use xlink:href="#m99a875278c" x="400.90488" y="210.131273" style="stroke: #000000; stroke-width: 0.8"/>
      </g>
     </g>
     <g id="text_18">
      <!-- H$_\mathdefault{2}$O$_\mathdefault{2}$ -->
      <g transform="translate(390.87488 223.215413) scale(0.085 -0.085)">
       <use xlink:href="#ArialMT-48" transform="translate(0 0.140625)"/>
       <use xlink:href="#ArialMT-32" transform="translate(73.173828 -16.265625) scale(0.7)"/>
       <use xlink:href="#ArialMT-4f" transform="translate(114.838867 0.140625)"/>
       <use xlink:href="#ArialMT-32" transform="translate(193.579102 -16.265625) scale(0.7)"/>
      </g>
     </g>
    </g>
    <g id="xtick_9">
     <g id="line2d_20">
      <g>
       <use xlink:href="#m99a875278c" x="443.574864" y="210.131273" style="stroke: #000000; stroke-width: 0.8"/>
      </g>
     </g>
     <g id="text_19">
      <!-- N$_\mathdefault{2}$O -->
      <g transform="translate(435.372364 223.215413) scale(0.085 -0.085)">
       <use xlink:href="#ArialMT-4e" transform="translate(0 0.140625)"/>
       <use xlink:href="#ArialMT-32" transform="translate(73.173828 -16.265625) scale(0.7)"/>
       <use xlink:href="#ArialMT-4f" transform="translate(114.838867 0.140625)"/>
      </g>
     </g>
    </g>
    <g id="xtick_10">
     <g id="line2d_21">
      <g>
       <use xlink:href="#m99a875278c" x="486.244848" y="210.131273" style="stroke: #000000; stroke-width: 0.8"/>
      </g>
     </g>
     <g id="text_20">
      <!-- H$_\mathdefault{2}$O$_\mathdefault{2}$ -->
      <g transform="translate(476.214848 223.215413) scale(0.085 -0.085)">
       <use xlink:href="#ArialMT-48" transform="translate(0 0.140625)"/>
       <use xlink:href="#ArialMT-32" transform="translate(73.173828 -16.265625) scale(0.7)"/>
       <use xlink:href="#ArialMT-4f" transform="translate(114.838867 0.140625)"/>
       <use xlink:href="#ArialMT-32" transform="translate(193.579102 -16.265625) scale(0.7)"/>
      </g>
     </g>
    </g>
   </g>
   <g id="matplotlib.axis_4">
    <g id="ytick_6">
     <g id="line2d_22">
      <g>
       <use xlink:href="#m1455d7e834" x="294.22992" y="210.131273" style="stroke: #000000; stroke-width: 0.8"/>
      </g>
     </g>
     <g id="text_21">
      <!-- 0.0 -->
      <g transform="translate(275.41492 213.173343) scale(0.085 -0.085)">
       <use xlink:href="#ArialMT-30"/>
       <use xlink:href="#ArialMT-2e" x="55.615234"/>
       <use xlink:href="#ArialMT-30" x="83.398438"/>
      </g>
     </g>
    </g>
    <g id="ytick_7">
     <g id="line2d_23">
      <g>
       <use xlink:href="#m1455d7e834" x="294.22992" y="152.27351" style="stroke: #000000; stroke-width: 0.8"/>
      </g>
     </g>
     <g id="text_22">
      <!-- 2.5 -->
      <g transform="translate(275.41492 155.315581) scale(0.085 -0.085)">
       <defs>
        <path id="ArialMT-35" d="M 266 1200 
L 856 1250 
Q 922 819 1161 601 
Q 1400 384 1738 384 
Q 2144 384 2425 690 
Q 2706 997 2706 1503 
Q 2706 1984 2436 2262 
Q 2166 2541 1728 2541 
Q 1456 2541 1237 2417 
Q 1019 2294 894 2097 
L 366 2166 
L 809 4519 
L 3088 4519 
L 3088 3981 
L 1259 3981 
L 1013 2750 
Q 1425 3038 1878 3038 
Q 2478 3038 2890 2622 
Q 3303 2206 3303 1553 
Q 3303 931 2941 478 
Q 2500 -78 1738 -78 
Q 1113 -78 717 272 
Q 322 622 266 1200 
z
" transform="scale(0.015625)"/>
       </defs>
       <use xlink:href="#ArialMT-32"/>
       <use xlink:href="#ArialMT-2e" x="55.615234"/>
       <use xlink:href="#ArialMT-35" x="83.398438"/>
      </g>
     </g>
    </g>
    <g id="ytick_8">
     <g id="line2d_24">
      <g>
       <use xlink:href="#m1455d7e834" x="294.22992" y="94.415748" style="stroke: #000000; stroke-width: 0.8"/>
      </g>
     </g>
     <g id="text_23">
      <!-- 5.0 -->
      <g transform="translate(275.41492 97.457818) scale(0.085 -0.085)">
       <use xlink:href="#ArialMT-35"/>
       <use xlink:href="#ArialMT-2e" x="55.615234"/>
       <use xlink:href="#ArialMT-30" x="83.398438"/>
      </g>
     </g>
    </g>
    <g id="ytick_9">
     <g id="line2d_25">
      <g>
       <use xlink:href="#m1455d7e834" x="294.22992" y="36.557986" style="stroke: #000000; stroke-width: 0.8"/>
      </g>
     </g>
     <g id="text_24">
      <!-- 7.5 -->
      <g transform="translate(275.41492 39.600056) scale(0.085 -0.085)">
       <defs>
        <path id="ArialMT-37" d="M 303 3981 
L 303 4522 
L 3269 4522 
L 3269 4084 
Q 2831 3619 2401 2847 
Q 1972 2075 1738 1259 
Q 1569 684 1522 0 
L 944 0 
Q 953 541 1156 1306 
Q 1359 2072 1739 2783 
Q 2119 3494 2547 3981 
L 303 3981 
z
" transform="scale(0.015625)"/>
       </defs>
       <use xlink:href="#ArialMT-37"/>
       <use xlink:href="#ArialMT-2e" x="55.615234"/>
       <use xlink:href="#ArialMT-35" x="83.398438"/>
      </g>
     </g>
    </g>
    <g id="text_25">
     <!-- Climate change impact (kg CO$_\mathdefault{2}$-eq kg$^\mathdefault{-1}$ phenol) -->
     <g transform="translate(269.54492 205.684543) rotate(-90) scale(0.085 -0.085)">
      <defs>
       <path id="ArialMT-2d" d="M 203 1375 
L 203 1941 
L 1931 1941 
L 1931 1375 
L 203 1375 
z
" transform="scale(0.015625)"/>
       <path id="ArialMT-71" d="M 2538 -1272 
L 2538 353 
Q 2406 169 2170 47 
Q 1934 -75 1669 -75 
Q 1078 -75 651 397 
Q 225 869 225 1691 
Q 225 2191 398 2587 
Q 572 2984 901 3189 
Q 1231 3394 1625 3394 
Q 2241 3394 2594 2875 
L 2594 3319 
L 3100 3319 
L 3100 -1272 
L 2538 -1272 
z
M 803 1669 
Q 803 1028 1072 708 
Q 1341 388 1716 388 
Q 2075 388 2334 692 
Q 2594 997 2594 1619 
Q 2594 2281 2320 2615 
Q 2047 2950 1678 2950 
Q 1313 2950 1058 2639 
Q 803 2328 803 1669 
z
" transform="scale(0.015625)"/>
      </defs>
      <use xlink:href="#ArialMT-43" transform="translate(0 0.40625)"/>
      <use xlink:href="#ArialMT-6c" transform="translate(72.216797 0.40625)"/>
      <use xlink:href="#ArialMT-69" transform="translate(94.433594 0.40625)"/>
      <use xlink:href="#ArialMT-6d" transform="translate(116.650391 0.40625)"/>
      <use xlink:href="#ArialMT-61" transform="translate(199.951172 0.40625)"/>
      <use xlink:href="#ArialMT-74" transform="translate(255.566406 0.40625)"/>
      <use xlink:href="#ArialMT-65" transform="translate(283.349609 0.40625)"/>
      <use xlink:href="#ArialMT-20" transform="translate(338.964844 0.40625)"/>
      <use xlink:href="#ArialMT-63" transform="translate(366.748047 0.40625)"/>
      <use xlink:href="#ArialMT-68" transform="translate(416.748047 0.40625)"/>
      <use xlink:href="#ArialMT-61" transform="translate(472.363281 0.40625)"/>
      <use xlink:href="#ArialMT-6e" transform="translate(527.978516 0.40625)"/>
      <use xlink:href="#ArialMT-67" transform="translate(583.59375 0.40625)"/>
      <use xlink:href="#ArialMT-65" transform="translate(639.208984 0.40625)"/>
      <use xlink:href="#ArialMT-20" transform="translate(694.824219 0.40625)"/>
      <use xlink:href="#ArialMT-69" transform="translate(722.607422 0.40625)"/>
      <use xlink:href="#ArialMT-6d" transform="translate(744.824219 0.40625)"/>
      <use xlink:href="#ArialMT-70" transform="translate(828.125 0.40625)"/>
      <use xlink:href="#ArialMT-61" transform="translate(883.740234 0.40625)"/>
      <use xlink:href="#ArialMT-63" transform="translate(939.355469 0.40625)"/>
      <use xlink:href="#ArialMT-74" transform="translate(989.355469 0.40625)"/>
      <use xlink:href="#ArialMT-20" transform="translate(1017.138672 0.40625)"/>
      <use xlink:href="#ArialMT-28" transform="translate(1044.921875 0.40625)"/>
      <use xlink:href="#ArialMT-6b" transform="translate(1078.222656 0.40625)"/>
      <use xlink:href="#ArialMT-67" transform="translate(1128.222656 0.40625)"/>
      <use xlink:href="#ArialMT-20" transform="translate(1183.837891 0.40625)"/>
      <use xlink:href="#ArialMT-43" transform="translate(1211.621094 0.40625)"/>
      <use xlink:href="#ArialMT-4f" transform="translate(1283.837891 0.40625)"/>
      <use xlink:href="#ArialMT-32" transform="translate(1362.578125 -16) scale(0.7)"/>
      <use xlink:href="#ArialMT-2d" transform="translate(1404.243164 0.40625)"/>
      <use xlink:href="#ArialMT-65" transform="translate(1437.543945 0.40625)"/>
      <use xlink:href="#ArialMT-71" transform="translate(1493.15918 0.40625)"/>
      <use xlink:href="#ArialMT-20" transform="translate(1548.774414 0.40625)"/>
      <use xlink:href="#ArialMT-6b" transform="translate(1576.557617 0.40625)"/>
      <use xlink:href="#ArialMT-67" transform="translate(1626.557617 0.40625)"/>
      <use xlink:href="#ArialMT-2212" transform="translate(1683.129883 38.6875) scale(0.7)"/>
      <use xlink:href="#ArialMT-31" transform="translate(1724.008789 38.6875) scale(0.7)"/>
      <use xlink:href="#ArialMT-20" transform="translate(1765.673828 0.40625)"/>
      <use xlink:href="#ArialMT-70" transform="translate(1793.457031 0.40625)"/>
      <use xlink:href="#ArialMT-68" transform="translate(1849.072266 0.40625)"/>
      <use xlink:href="#ArialMT-65" transform="translate(1904.6875 0.40625)"/>
      <use xlink:href="#ArialMT-6e" transform="translate(1960.302734 0.40625)"/>
      <use xlink:href="#ArialMT-6f" transform="translate(2015.917969 0.40625)"/>
      <use xlink:href="#ArialMT-6c" transform="translate(2071.533203 0.40625)"/>
      <use xlink:href="#ArialMT-29" transform="translate(2093.75 0.40625)"/>
     </g>
    </g>
   </g>
   <g id="PathCollection_2">
    <g clip-path="url(#p02417e04b6)">
     <use xlink:href="#m9e96417d61" x="315.564912" y="106.677155" style="fill: #6e00a3; stroke: #ffffff"/>
     <use xlink:href="#m9e96417d61" x="358.234896" y="119.151755" style="fill: #6e00a3; stroke: #ffffff"/>
     <use xlink:href="#m9e96417d61" x="400.90488" y="143.977126" style="fill: #6e00a3; stroke: #ffffff"/>
     <use xlink:href="#m9e96417d61" x="443.574864" y="146.136716" style="fill: #6e00a3; stroke: #ffffff"/>
     <use xlink:href="#m9e96417d61" x="486.244848" y="152.606847" style="fill: #6e00a3; stroke: #ffffff"/>
    </g>
   </g>
   <g id="line2d_26">
    <path d="M 336.899904 210.131273 
L 336.899904 20.357813 
" clip-path="url(#p02417e04b6)" style="fill: none; stroke-dasharray: 1.85,0.8; stroke-dashoffset: 0; stroke: #808080; stroke-width: 0.5"/>
   </g>
   <g id="line2d_27">
    <path d="M 422.239872 210.131273 
L 422.239872 20.357813 
" clip-path="url(#p02417e04b6)" style="fill: none; stroke-dasharray: 1.85,0.8; stroke-dashoffset: 0; stroke: #808080; stroke-width: 0.5"/>
   </g>
   <g id="patch_88">
    <path d="M 294.22992 210.131273 
L 294.22992 20.357813 
" style="fill: none; stroke: #000000; stroke-width: 0.8; stroke-linejoin: miter; stroke-linecap: square"/>
   </g>
   <g id="patch_89">
    <path d="M 507.57984 210.131273 
L 507.57984 20.357813 
" style="fill: none; stroke: #000000; stroke-width: 0.8; stroke-linejoin: miter; stroke-linecap: square"/>
   </g>
   <g id="patch_90">
    <path d="M 294.22992 210.131273 
L 507.57984 210.131273 
" style="fill: none; stroke: #000000; stroke-width: 0.8; stroke-linejoin: miter; stroke-linecap: square"/>
   </g>
   <g id="patch_91">
    <path d="M 294.22992 20.357813 
L 507.57984 20.357813 
" style="fill: none; stroke: #000000; stroke-width: 0.8; stroke-linejoin: miter; stroke-linecap: square"/>
   </g>
   <g id="text_26">
    <!-- Cumene -->
    <g transform="translate(299.501904 39.833488) scale(0.085 -0.085)">
     <use xlink:href="#ArialMT-43"/>
     <use xlink:href="#ArialMT-75" x="72.216797"/>
     <use xlink:href="#ArialMT-6d" x="127.832031"/>
     <use xlink:href="#ArialMT-65" x="211.132812"/>
     <use xlink:href="#ArialMT-6e" x="266.748047"/>
     <use xlink:href="#ArialMT-65" x="322.363281"/>
    </g>
    <!-- oxidation -->
    <g transform="translate(298.553623 48.823832) scale(0.085 -0.085)">
     <use xlink:href="#ArialMT-6f"/>
     <use xlink:href="#ArialMT-78" x="55.615234"/>
     <use xlink:href="#ArialMT-69" x="105.615234"/>
     <use xlink:href="#ArialMT-64" x="127.832031"/>
     <use xlink:href="#ArialMT-61" x="183.447266"/>
     <use xlink:href="#ArialMT-74" x="239.0625"/>
     <use xlink:href="#ArialMT-69" x="266.845703"/>
     <use xlink:href="#ArialMT-6f" x="289.0625"/>
     <use xlink:href="#ArialMT-6e" x="344.677734"/>
    </g>
   </g>
   <g id="text_27">
    <!-- Direct oxidation -->
    <g transform="translate(350.280083 39.709175) scale(0.085 -0.085)">
     <use xlink:href="#ArialMT-44"/>
     <use xlink:href="#ArialMT-69" x="72.216797"/>
     <use xlink:href="#ArialMT-72" x="94.433594"/>
     <use xlink:href="#ArialMT-65" x="127.734375"/>
     <use xlink:href="#ArialMT-63" x="183.349609"/>
     <use xlink:href="#ArialMT-74" x="233.349609"/>
     <use xlink:href="#ArialMT-20" x="261.132812"/>
     <use xlink:href="#ArialMT-6f" x="288.916016"/>
     <use xlink:href="#ArialMT-78" x="344.53125"/>
     <use xlink:href="#ArialMT-69" x="394.53125"/>
     <use xlink:href="#ArialMT-64" x="416.748047"/>
     <use xlink:href="#ArialMT-61" x="472.363281"/>
     <use xlink:href="#ArialMT-74" x="527.978516"/>
     <use xlink:href="#ArialMT-69" x="555.761719"/>
     <use xlink:href="#ArialMT-6f" x="577.978516"/>
     <use xlink:href="#ArialMT-6e" x="633.59375"/>
    </g>
    <!-- (fossil) -->
    <g transform="translate(367.056958 48.823832) scale(0.085 -0.085)">
     <use xlink:href="#ArialMT-28"/>
     <use xlink:href="#ArialMT-66" x="33.300781"/>
     <use xlink:href="#ArialMT-6f" x="61.083984"/>
     <use xlink:href="#ArialMT-73" x="116.699219"/>
     <use xlink:href="#ArialMT-73" x="166.699219"/>
     <use xlink:href="#ArialMT-69" x="216.699219"/>
     <use xlink:href="#ArialMT-6c" x="238.916016"/>
     <use xlink:href="#ArialMT-29" x="261.132812"/>
    </g>
   </g>
   <g id="text_28">
    <!-- Direct oxidation -->
    <g transform="translate(435.620051 39.709175) scale(0.085 -0.085)">
     <use xlink:href="#ArialMT-44"/>
     <use xlink:href="#ArialMT-69" x="72.216797"/>
     <use xlink:href="#ArialMT-72" x="94.433594"/>
     <use xlink:href="#ArialMT-65" x="127.734375"/>
     <use xlink:href="#ArialMT-63" x="183.349609"/>
     <use xlink:href="#ArialMT-74" x="233.349609"/>
     <use xlink:href="#ArialMT-20" x="261.132812"/>
     <use xlink:href="#ArialMT-6f" x="288.916016"/>
     <use xlink:href="#ArialMT-78" x="344.53125"/>
     <use xlink:href="#ArialMT-69" x="394.53125"/>
     <use xlink:href="#ArialMT-64" x="416.748047"/>
     <use xlink:href="#ArialMT-61" x="472.363281"/>
     <use xlink:href="#ArialMT-74" x="527.978516"/>
     <use xlink:href="#ArialMT-69" x="555.761719"/>
     <use xlink:href="#ArialMT-6f" x="577.978516"/>
     <use xlink:href="#ArialMT-6e" x="633.59375"/>
    </g>
    <!-- (green) -->
    <g transform="translate(451.210911 48.823832) scale(0.085 -0.085)">
     <use xlink:href="#ArialMT-28"/>
     <use xlink:href="#ArialMT-67" x="33.300781"/>
     <use xlink:href="#ArialMT-72" x="88.916016"/>
     <use xlink:href="#ArialMT-65" x="122.216797"/>
     <use xlink:href="#ArialMT-65" x="177.832031"/>
     <use xlink:href="#ArialMT-6e" x="233.447266"/>
     <use xlink:href="#ArialMT-29" x="289.0625"/>
    </g>
   </g>
   <g id="text_29">
    <!-- b -->
    <g transform="translate(280.508518 14.357813) scale(0.1 -0.1)">
     <defs>
      <path id="Arial-BoldMT-62" d="M 422 0 
L 422 4581 
L 1300 4581 
L 1300 2931 
Q 1706 3394 2263 3394 
Q 2869 3394 3266 2955 
Q 3663 2516 3663 1694 
Q 3663 844 3258 384 
Q 2853 -75 2275 -75 
Q 1991 -75 1714 67 
Q 1438 209 1238 488 
L 1238 0 
L 422 0 
z
M 1294 1731 
Q 1294 1216 1456 969 
Q 1684 619 2063 619 
Q 2353 619 2558 867 
Q 2763 1116 2763 1650 
Q 2763 2219 2556 2470 
Q 2350 2722 2028 2722 
Q 1713 2722 1503 2476 
Q 1294 2231 1294 1731 
z
" transform="scale(0.015625)"/>
     </defs>
     <use xlink:href="#Arial-BoldMT-62"/>
    </g>
   </g>
   <g id="legend_2"/>
  </g>
  <g id="legend_3">
   <g id="line2d_28">
    <path d="M 40.10867 248.93317 
L 48.60867 248.93317 
L 57.10867 248.93317 
" style="fill: none"/>
    <defs>
     <path id="m4cd64d9e2e" d="M 0 3.5 
C 0.928211 3.5 1.81853 3.131218 2.474874 2.474874 
C 3.131218 1.81853 3.5 0.928211 3.5 0 
C 3.5 -0.928211 3.131218 -1.81853 2.474874 -2.474874 
C 1.81853 -3.131218 0.928211 -3.5 0 -3.5 
C -0.928211 -3.5 -1.81853 -3.131218 -2.474874 -2.474874 
C -3.131218 -1.81853 -3.5 -0.928211 -3.5 0 
C -3.5 0.928211 -3.131218 1.81853 -2.474874 2.474874 
C -1.81853 3.131218 -0.928211 3.5 0 3.5 
z
" style="stroke: #ffffff"/>
    </defs>
    <g>
     <use xlink:href="#m4cd64d9e2e" x="48.60867" y="248.93317" style="fill: #808080; stroke: #ffffff"/>
    </g>
   </g>
   <g id="text_30">
    <!-- Cumene oxidation -->
    <g transform="translate(57.95867 251.90817) scale(0.085 -0.085)">
     <use xlink:href="#ArialMT-43"/>
     <use xlink:href="#ArialMT-75" x="72.216797"/>
     <use xlink:href="#ArialMT-6d" x="127.832031"/>
     <use xlink:href="#ArialMT-65" x="211.132812"/>
     <use xlink:href="#ArialMT-6e" x="266.748047"/>
     <use xlink:href="#ArialMT-65" x="322.363281"/>
     <use xlink:href="#ArialMT-20" x="377.978516"/>
     <use xlink:href="#ArialMT-6f" x="405.761719"/>
     <use xlink:href="#ArialMT-78" x="461.376953"/>
     <use xlink:href="#ArialMT-69" x="511.376953"/>
     <use xlink:href="#ArialMT-64" x="533.59375"/>
     <use xlink:href="#ArialMT-61" x="589.208984"/>
     <use xlink:href="#ArialMT-74" x="644.824219"/>
     <use xlink:href="#ArialMT-69" x="672.607422"/>
     <use xlink:href="#ArialMT-6f" x="694.824219"/>
     <use xlink:href="#ArialMT-6e" x="750.439453"/>
    </g>
   </g>
   <g id="line2d_29">
    <path d="M 40.10867 260.956686 
L 48.60867 260.956686 
L 57.10867 260.956686 
" style="fill: none"/>
    <defs>
     <path id="m6ed63eb415" d="M 0 3.5 
C 0.928211 3.5 1.81853 3.131218 2.474874 2.474874 
C 3.131218 1.81853 3.5 0.928211 3.5 0 
C 3.5 -0.928211 3.131218 -1.81853 2.474874 -2.474874 
C 1.81853 -3.131218 0.928211 -3.5 0 -3.5 
C -0.928211 -3.5 -1.81853 -3.131218 -2.474874 -2.474874 
C -3.131218 -1.81853 -3.5 -0.928211 -3.5 0 
C -3.5 0.928211 -3.131218 1.81853 -2.474874 2.474874 
C -1.81853 3.131218 -0.928211 3.5 0 3.5 
z
" style="stroke: #ffffff"/>
    </defs>
    <g>
     <use xlink:href="#m6ed63eb415" x="48.60867" y="260.956686" style="fill: #f75e84; stroke: #ffffff"/>
    </g>
   </g>
   <g id="text_31">
    <!-- Benzene -->
    <g transform="translate(57.95867 263.931686) scale(0.085 -0.085)">
     <defs>
      <path id="ArialMT-42" d="M 469 0 
L 469 4581 
L 2188 4581 
Q 2713 4581 3030 4442 
Q 3347 4303 3526 4014 
Q 3706 3725 3706 3409 
Q 3706 3116 3547 2856 
Q 3388 2597 3066 2438 
Q 3481 2316 3704 2022 
Q 3928 1728 3928 1328 
Q 3928 1006 3792 729 
Q 3656 453 3456 303 
Q 3256 153 2954 76 
Q 2653 0 2216 0 
L 469 0 
z
M 1075 2656 
L 2066 2656 
Q 2469 2656 2644 2709 
Q 2875 2778 2992 2937 
Q 3109 3097 3109 3338 
Q 3109 3566 3000 3739 
Q 2891 3913 2687 3977 
Q 2484 4041 1991 4041 
L 1075 4041 
L 1075 2656 
z
M 1075 541 
L 2216 541 
Q 2509 541 2628 563 
Q 2838 600 2978 687 
Q 3119 775 3209 942 
Q 3300 1109 3300 1328 
Q 3300 1584 3169 1773 
Q 3038 1963 2805 2039 
Q 2572 2116 2134 2116 
L 1075 2116 
L 1075 541 
z
" transform="scale(0.015625)"/>
      <path id="ArialMT-7a" d="M 125 0 
L 125 456 
L 2238 2881 
Q 1878 2863 1603 2863 
L 250 2863 
L 250 3319 
L 2963 3319 
L 2963 2947 
L 1166 841 
L 819 456 
Q 1197 484 1528 484 
L 3063 484 
L 3063 0 
L 125 0 
z
" transform="scale(0.015625)"/>
     </defs>
     <use xlink:href="#ArialMT-42"/>
     <use xlink:href="#ArialMT-65" x="66.699219"/>
     <use xlink:href="#ArialMT-6e" x="122.314453"/>
     <use xlink:href="#ArialMT-7a" x="177.929688"/>
     <use xlink:href="#ArialMT-65" x="227.929688"/>
     <use xlink:href="#ArialMT-6e" x="283.544922"/>
     <use xlink:href="#ArialMT-65" x="339.160156"/>
    </g>
   </g>
   <g id="line2d_30">
    <path d="M 143.46867 248.93317 
L 151.96867 248.93317 
L 160.46867 248.93317 
" style="fill: none"/>
    <defs>
     <path id="mf34b2b089c" d="M 0 3.5 
C 0.928211 3.5 1.81853 3.131218 2.474874 2.474874 
C 3.131218 1.81853 3.5 0.928211 3.5 0 
C 3.5 -0.928211 3.131218 -1.81853 2.474874 -2.474874 
C 1.81853 -3.131218 0.928211 -3.5 0 -3.5 
C -0.928211 -3.5 -1.81853 -3.131218 -2.474874 -2.474874 
C -3.131218 -1.81853 -3.5 -0.928211 -3.5 0 
C -3.5 0.928211 -3.131218 1.81853 -2.474874 2.474874 
C -1.81853 3.131218 -0.928211 3.5 0 3.5 
z
" style="stroke: #ffffff"/>
    </defs>
    <g>
     <use xlink:href="#mf34b2b089c" x="151.96867" y="248.93317" style="fill: #f78c6b; stroke: #ffffff"/>
    </g>
   </g>
   <g id="text_32">
    <!-- Nitrous oxide -->
    <g transform="translate(161.31867 251.90817) scale(0.085 -0.085)">
     <use xlink:href="#ArialMT-4e"/>
     <use xlink:href="#ArialMT-69" x="72.216797"/>
     <use xlink:href="#ArialMT-74" x="94.433594"/>
     <use xlink:href="#ArialMT-72" x="122.216797"/>
     <use xlink:href="#ArialMT-6f" x="155.517578"/>
     <use xlink:href="#ArialMT-75" x="211.132812"/>
     <use xlink:href="#ArialMT-73" x="266.748047"/>
     <use xlink:href="#ArialMT-20" x="316.748047"/>
     <use xlink:href="#ArialMT-6f" x="344.53125"/>
     <use xlink:href="#ArialMT-78" x="400.146484"/>
     <use xlink:href="#ArialMT-69" x="450.146484"/>
     <use xlink:href="#ArialMT-64" x="472.363281"/>
     <use xlink:href="#ArialMT-65" x="527.978516"/>
    </g>
   </g>
   <g id="line2d_31">
    <path d="M 143.46867 260.956686 
L 151.96867 260.956686 
L 160.46867 260.956686 
" style="fill: none"/>
    <defs>
     <path id="m24f0c36560" d="M 0 3.5 
C 0.928211 3.5 1.81853 3.131218 2.474874 2.474874 
C 3.131218 1.81853 3.5 0.928211 3.5 0 
C 3.5 -0.928211 3.131218 -1.81853 2.474874 -2.474874 
C 1.81853 -3.131218 0.928211 -3.5 0 -3.5 
C -0.928211 -3.5 -1.81853 -3.131218 -2.474874 -2.474874 
C -3.131218 -1.81853 -3.5 -0.928211 -3.5 0 
C -3.5 0.928211 -3.131218 1.81853 -2.474874 2.474874 
C -1.81853 3.131218 -0.928211 3.5 0 3.5 
z
" style="stroke: #ffffff"/>
    </defs>
    <g>
     <use xlink:href="#m24f0c36560" x="151.96867" y="260.956686" style="fill: #ffd166; stroke: #ffffff"/>
    </g>
   </g>
   <g id="text_33">
    <!-- Hydrogen peroxide -->
    <g transform="translate(161.31867 263.931686) scale(0.085 -0.085)">
     <defs>
      <path id="ArialMT-79" d="M 397 -1278 
L 334 -750 
Q 519 -800 656 -800 
Q 844 -800 956 -737 
Q 1069 -675 1141 -563 
Q 1194 -478 1313 -144 
Q 1328 -97 1363 -6 
L 103 3319 
L 709 3319 
L 1400 1397 
Q 1534 1031 1641 628 
Q 1738 1016 1872 1384 
L 2581 3319 
L 3144 3319 
L 1881 -56 
Q 1678 -603 1566 -809 
Q 1416 -1088 1222 -1217 
Q 1028 -1347 759 -1347 
Q 597 -1347 397 -1278 
z
" transform="scale(0.015625)"/>
     </defs>
     <use xlink:href="#ArialMT-48"/>
     <use xlink:href="#ArialMT-79" x="72.216797"/>
     <use xlink:href="#ArialMT-64" x="122.216797"/>
     <use xlink:href="#ArialMT-72" x="177.832031"/>
     <use xlink:href="#ArialMT-6f" x="211.132812"/>
     <use xlink:href="#ArialMT-67" x="266.748047"/>
     <use xlink:href="#ArialMT-65" x="322.363281"/>
     <use xlink:href="#ArialMT-6e" x="377.978516"/>
     <use xlink:href="#ArialMT-20" x="433.59375"/>
     <use xlink:href="#ArialMT-70" x="461.376953"/>
     <use xlink:href="#ArialMT-65" x="516.992188"/>
     <use xlink:href="#ArialMT-72" x="572.607422"/>
     <use xlink:href="#ArialMT-6f" x="605.908203"/>
     <use xlink:href="#ArialMT-78" x="661.523438"/>
     <use xlink:href="#ArialMT-69" x="711.523438"/>
     <use xlink:href="#ArialMT-64" x="733.740234"/>
     <use xlink:href="#ArialMT-65" x="789.355469"/>
    </g>
   </g>
   <g id="line2d_32">
    <path d="M 250.135701 248.93317 
L 258.635701 248.93317 
L 267.135701 248.93317 
" style="fill: none"/>
    <defs>
     <path id="m233411cbed" d="M 0 3.5 
C 0.928211 3.5 1.81853 3.131218 2.474874 2.474874 
C 3.131218 1.81853 3.5 0.928211 3.5 0 
C 3.5 -0.928211 3.131218 -1.81853 2.474874 -2.474874 
C 1.81853 -3.131218 0.928211 -3.5 0 -3.5 
C -0.928211 -3.5 -1.81853 -3.131218 -2.474874 -2.474874 
C -3.131218 -1.81853 -3.5 -0.928211 -3.5 0 
C -3.5 0.928211 -3.131218 1.81853 -2.474874 2.474874 
C -1.81853 3.131218 -0.928211 3.5 0 3.5 
z
" style="stroke: #ffffff"/>
    </defs>
    <g>
     <use xlink:href="#m233411cbed" x="258.635701" y="248.93317" style="fill: #83d483; stroke: #ffffff"/>
    </g>
   </g>
   <g id="text_34">
    <!-- Heating -->
    <g transform="translate(267.985701 251.90817) scale(0.085 -0.085)">
     <use xlink:href="#ArialMT-48"/>
     <use xlink:href="#ArialMT-65" x="72.216797"/>
     <use xlink:href="#ArialMT-61" x="127.832031"/>
     <use xlink:href="#ArialMT-74" x="183.447266"/>
     <use xlink:href="#ArialMT-69" x="211.230469"/>
     <use xlink:href="#ArialMT-6e" x="233.447266"/>
     <use xlink:href="#ArialMT-67" x="289.0625"/>
    </g>
   </g>
   <g id="line2d_33">
    <path d="M 250.135701 261.159889 
L 258.635701 261.159889 
L 267.135701 261.159889 
" style="fill: none"/>
    <defs>
     <path id="m2e4092061a" d="M 0 3.5 
C 0.928211 3.5 1.81853 3.131218 2.474874 2.474874 
C 3.131218 1.81853 3.5 0.928211 3.5 0 
C 3.5 -0.928211 3.131218 -1.81853 2.474874 -2.474874 
C 1.81853 -3.131218 0.928211 -3.5 0 -3.5 
C -0.928211 -3.5 -1.81853 -3.131218 -2.474874 -2.474874 
C -3.131218 -1.81853 -3.5 -0.928211 -3.5 0 
C -3.5 0.928211 -3.131218 1.81853 -2.474874 2.474874 
C -1.81853 3.131218 -0.928211 3.5 0 3.5 
z
" style="stroke: #ffffff"/>
    </defs>
    <g>
     <use xlink:href="#m2e4092061a" x="258.635701" y="261.159889" style="fill: #06d6a0; stroke: #ffffff"/>
    </g>
   </g>
   <g id="text_35">
    <!-- Cooling -->
    <g transform="translate(267.985701 264.134889) scale(0.085 -0.085)">
     <use xlink:href="#ArialMT-43"/>
     <use xlink:href="#ArialMT-6f" x="72.216797"/>
     <use xlink:href="#ArialMT-6f" x="127.832031"/>
     <use xlink:href="#ArialMT-6c" x="183.447266"/>
     <use xlink:href="#ArialMT-69" x="205.664062"/>
     <use xlink:href="#ArialMT-6e" x="227.880859"/>
     <use xlink:href="#ArialMT-67" x="283.496094"/>
    </g>
   </g>
   <g id="line2d_34">
    <path d="M 314.281482 248.93317 
L 322.781482 248.93317 
L 331.281482 248.93317 
" style="fill: none"/>
    <defs>
     <path id="m8ba25d0123" d="M 0 3.5 
C 0.928211 3.5 1.81853 3.131218 2.474874 2.474874 
C 3.131218 1.81853 3.5 0.928211 3.5 0 
C 3.5 -0.928211 3.131218 -1.81853 2.474874 -2.474874 
C 1.81853 -3.131218 0.928211 -3.5 0 -3.5 
C -0.928211 -3.5 -1.81853 -3.131218 -2.474874 -2.474874 
C -3.131218 -1.81853 -3.5 -0.928211 -3.5 0 
C -3.5 0.928211 -3.131218 1.81853 -2.474874 2.474874 
C -1.81853 3.131218 -0.928211 3.5 0 3.5 
z
" style="stroke: #ffffff"/>
    </defs>
    <g>
     <use xlink:href="#m8ba25d0123" x="322.781482" y="248.93317" style="fill: #0cb0a9; stroke: #ffffff"/>
    </g>
   </g>
   <g id="text_36">
    <!-- CAPEX -->
    <g transform="translate(332.131483 251.90817) scale(0.085 -0.085)">
     <defs>
      <path id="ArialMT-41" d="M -9 0 
L 1750 4581 
L 2403 4581 
L 4278 0 
L 3588 0 
L 3053 1388 
L 1138 1388 
L 634 0 
L -9 0 
z
M 1313 1881 
L 2866 1881 
L 2388 3150 
Q 2169 3728 2063 4100 
Q 1975 3659 1816 3225 
L 1313 1881 
z
" transform="scale(0.015625)"/>
      <path id="ArialMT-45" d="M 506 0 
L 506 4581 
L 3819 4581 
L 3819 4041 
L 1113 4041 
L 1113 2638 
L 3647 2638 
L 3647 2100 
L 1113 2100 
L 1113 541 
L 3925 541 
L 3925 0 
L 506 0 
z
" transform="scale(0.015625)"/>
      <path id="ArialMT-58" d="M 28 0 
L 1800 2388 
L 238 4581 
L 959 4581 
L 1791 3406 
Q 2050 3041 2159 2844 
Q 2313 3094 2522 3366 
L 3444 4581 
L 4103 4581 
L 2494 2422 
L 4228 0 
L 3478 0 
L 2325 1634 
Q 2228 1775 2125 1941 
Q 1972 1691 1906 1597 
L 756 0 
L 28 0 
z
" transform="scale(0.015625)"/>
     </defs>
     <use xlink:href="#ArialMT-43"/>
     <use xlink:href="#ArialMT-41" x="72.216797"/>
     <use xlink:href="#ArialMT-50" x="138.916016"/>
     <use xlink:href="#ArialMT-45" x="205.615234"/>
     <use xlink:href="#ArialMT-58" x="272.314453"/>
    </g>
   </g>
   <g id="line2d_35">
    <path d="M 314.281482 260.956686 
L 322.781482 260.956686 
L 331.281482 260.956686 
" style="fill: none"/>
    <defs>
     <path id="m36746df028" d="M 0 3.5 
C 0.928211 3.5 1.81853 3.131218 2.474874 2.474874 
C 3.131218 1.81853 3.5 0.928211 3.5 0 
C 3.5 -0.928211 3.131218 -1.81853 2.474874 -2.474874 
C 1.81853 -3.131218 0.928211 -3.5 0 -3.5 
C -0.928211 -3.5 -1.81853 -3.131218 -2.474874 -2.474874 
C -3.131218 -1.81853 -3.5 -0.928211 -3.5 0 
C -3.5 0.928211 -3.131218 1.81853 -2.474874 2.474874 
C -1.81853 3.131218 -0.928211 3.5 0 3.5 
z
" style="stroke: #ffffff"/>
    </defs>
    <g>
     <use xlink:href="#m36746df028" x="322.781482" y="260.956686" style="fill: #039cf0; stroke: #ffffff"/>
    </g>
   </g>
   <g id="text_37">
    <!-- Direct emissions -->
    <g transform="translate(332.131483 263.931686) scale(0.085 -0.085)">
     <use xlink:href="#ArialMT-44"/>
     <use xlink:href="#ArialMT-69" x="72.216797"/>
     <use xlink:href="#ArialMT-72" x="94.433594"/>
     <use xlink:href="#ArialMT-65" x="127.734375"/>
     <use xlink:href="#ArialMT-63" x="183.349609"/>
     <use xlink:href="#ArialMT-74" x="233.349609"/>
     <use xlink:href="#ArialMT-20" x="261.132812"/>
     <use xlink:href="#ArialMT-65" x="288.916016"/>
     <use xlink:href="#ArialMT-6d" x="344.53125"/>
     <use xlink:href="#ArialMT-69" x="427.832031"/>
     <use xlink:href="#ArialMT-73" x="450.048828"/>
     <use xlink:href="#ArialMT-73" x="500.048828"/>
     <use xlink:href="#ArialMT-69" x="550.048828"/>
     <use xlink:href="#ArialMT-6f" x="572.265625"/>
     <use xlink:href="#ArialMT-6e" x="627.880859"/>
     <use xlink:href="#ArialMT-73" x="683.496094"/>
    </g>
   </g>
   <g id="line2d_36">
    <path d="M 411.476326 248.93317 
L 419.976326 248.93317 
L 428.476326 248.93317 
" style="fill: none"/>
    <defs>
     <path id="m1ceee1461c" d="M 0 3.535534 
L 3.535534 0 
L 0 -3.535534 
L -3.535534 0 
z
" style="stroke: #ffffff; stroke-linejoin: miter"/>
    </defs>
    <g>
     <use xlink:href="#m1ceee1461c" x="419.976326" y="248.93317" style="fill: #6e00a3; stroke: #ffffff; stroke-linejoin: miter"/>
    </g>
   </g>
   <g id="text_38">
    <!-- Total impact -->
    <g transform="translate(429.326326 251.90817) scale(0.085 -0.085)">
     <defs>
      <path id="ArialMT-54" d="M 1659 0 
L 1659 4041 
L 150 4041 
L 150 4581 
L 3781 4581 
L 3781 4041 
L 2266 4041 
L 2266 0 
L 1659 0 
z
" transform="scale(0.015625)"/>
     </defs>
     <use xlink:href="#ArialMT-54"/>
     <use xlink:href="#ArialMT-6f" x="49.958984"/>
     <use xlink:href="#ArialMT-74" x="105.574219"/>
     <use xlink:href="#ArialMT-61" x="133.357422"/>
     <use xlink:href="#ArialMT-6c" x="188.972656"/>
     <use xlink:href="#ArialMT-20" x="211.189453"/>
     <use xlink:href="#ArialMT-69" x="238.972656"/>
     <use xlink:href="#ArialMT-6d" x="261.189453"/>
     <use xlink:href="#ArialMT-70" x="344.490234"/>
     <use xlink:href="#ArialMT-61" x="400.105469"/>
     <use xlink:href="#ArialMT-63" x="455.720703"/>
     <use xlink:href="#ArialMT-74" x="505.720703"/>
    </g>
   </g>
  </g>
 </g>
 <defs>
  <clipPath id="pff5fd3fd8b">
   <rect x="39.45" y="20.357813" width="213.34992" height="189.77346"/>
  </clipPath>
  <clipPath id="p02417e04b6">
   <rect x="294.22992" y="20.357813" width="213.34992" height="189.77346"/>
  </clipPath>
 </defs>
</svg>
